<svg width="513" height="485" viewBox="0 0 513 485" fill="none" xmlns="http://www.w3.org/2000/svg">
<path d="M291.664 118.289C283.026 102.831 265.148 103.853 256 103.388C256 103.388 272.062 83.6057 285.395 83.6057C330.253 83.6057 314.789 52.6289 347.109 56.876C379.43 61.1231 375.78 56.4865 387.639 45.8746C401.023 33.8971 416.933 36.9534 425.614 45.9135C432.128 52.6369 434.699 63.0034 430.139 70.6626C427.228 75.5527 421.502 86.9568 404.645 82.6388C390.306 75.3589 403.948 56.4582 409.382 70.6626C409.382 70.6626 413.52 69.0676 411.611 64.5352C409.968 60.636 405.202 59.3827 401.719 60.3575C398.237 61.3323 394.082 64.5352 394.082 72.7515C393.983 73.1129 380.683 70.6626 369.678 84.7277C365.18 90.4755 347.274 84.7888 334.571 87.6521C320.362 90.855 306.849 107.288 306.849 107.288C306.849 107.288 320.117 104.875 329.835 110.491C334.254 113.044 345.076 128.741 357.14 137.785C364.119 143.017 376.408 146.218 387.092 141.267C402.416 134.164 402.147 127.735 413.979 121.91C423.313 117.314 439.891 120.239 439.891 120.239C439.891 120.239 437.714 103.249 419.273 103.249C405.481 103.249 405.031 104.889 392.525 95.3113C387.797 91.6904 376.499 91.8709 373.439 101.16C369.678 112.579 387.649 114.39 387.649 114.39C387.649 114.39 375.415 109.631 377.897 103.249C380.38 96.8675 387.51 96.926 392.525 99.3498C395.172 100.629 401.719 109.392 415.093 107.288C430.139 104.92 434.736 116.339 434.736 116.339C434.736 116.339 420.218 114.993 416.068 116.339C401.616 121.03 399.49 132.951 383.609 137.785C373.344 140.91 365.586 138.338 360.065 135.139C348.085 127.062 341.537 115.922 330.949 107.288C322.33 102.464 313.535 104.781 313.535 104.781C313.535 104.781 323.705 92.5737 336.243 90.855C353.551 88.4827 368.157 92.9439 371.489 88.7662C381.557 76.1437 393.976 77.0798 394.082 77.6255C394.634 80.4793 397.328 84.401 401.719 86.6773C420.526 96.4254 430.078 76.6995 439.891 76.3722C448.686 76.0788 453.608 81.4138 456.747 85.1455C467.056 97.4002 462.738 103.388 490.461 103.388C518.184 103.388 512.89 126.366 512.054 126.366C511.218 126.366 491.018 106.452 482.381 126.366C475.471 142.297 455.54 141.638 446.438 139.317C428.718 135.752 418.573 142.659 408.824 157.003C396.426 175.246 364.618 176.081 347.109 157.003C331.646 140.152 331.089 138.481 313.535 135.975C299.493 133.969 293.103 123.349 291.664 118.289Z" fill="#F1D9FF" fill-opacity="0.53"/>
<path d="M322.962 127.844C335.565 103.752 361.652 105.344 375 104.62C375 104.62 351.563 73.787 332.109 73.787C266.654 73.787 289.218 25.5064 242.058 32.1258C194.898 38.7453 200.223 31.5188 182.92 14.979C163.391 -3.68916 140.968 -4.47297 126.598 10.2039C117.247 19.754 114.253 41.676 120.906 53.6137C125.154 61.2355 133.509 79.0099 158.106 72.2799C179.028 60.9334 159.122 31.4747 151.194 53.6137C151.194 53.6137 145.156 51.1277 147.942 44.0635C150.338 37.9861 157.293 36.0327 162.374 37.552C167.456 39.0714 173.519 44.0635 173.519 56.8694C173.662 57.4328 193.882 54.6989 209.941 76.6209C216.503 85.5794 241.818 75.6309 260.353 80.0936C281.087 85.0858 300.805 110.698 300.805 110.698C300.805 110.698 281.444 106.938 267.264 115.69C260.816 119.67 245.026 144.134 227.422 158.231C217.239 166.386 199.307 171.375 183.718 163.657C161.358 152.588 161.75 142.567 144.486 133.488C130.867 126.325 106.677 130.883 106.677 130.883C106.677 130.883 109.853 104.403 136.762 104.403C156.886 104.403 157.543 106.96 175.791 92.0313C182.689 86.3877 199.174 86.6691 203.639 101.147C209.128 118.945 182.905 121.767 182.905 121.767C182.905 121.767 200.757 114.349 197.134 104.403C193.512 94.4567 183.108 94.5479 175.791 98.3257C171.928 100.32 162.374 113.977 142.86 110.698C120.906 107.008 114.198 124.806 114.198 124.806C114.198 124.806 135.383 122.707 141.437 124.806C162.525 132.116 165.627 150.696 188.8 158.231C203.778 163.101 215.099 159.093 223.154 154.107C240.635 141.518 250.189 124.155 265.638 110.698C278.215 103.18 291.047 106.791 291.047 106.791C291.047 106.791 276.208 87.7644 257.914 85.0858C232.659 81.3881 216.039 92.0313 206.485 81.83C189.822 64.0384 173.673 63.6156 173.519 64.4661C172.714 68.9141 168.783 75.0264 162.374 78.5743C134.932 93.7677 120.996 63.0228 106.677 62.5127C93.8429 62.0555 86.6613 70.3706 82.0808 76.1868C67.0384 95.2871 73.34 104.62 32.8882 104.62C-7.56348 104.62 0.16095 140.433 1.38062 140.433C2.60025 140.433 32.0751 109.395 44.6782 140.433C54.7606 165.263 83.8425 164.236 97.1231 160.619C122.98 155.062 137.783 165.828 152.007 188.184C170.099 216.617 216.511 217.92 242.058 188.184C264.622 161.921 265.435 159.316 291.047 155.409C311.538 152.284 320.861 135.73 322.962 127.844Z" fill="#CEBEFF" fill-opacity="0.76"/>
<path d="M433 207.99C433 271.244 365.611 307.744 284.274 307.744C202.937 307.744 137 271.244 137 207.99C137 144.736 202.937 105 284.274 105C365.611 105 433 144.736 433 207.99Z" fill="#F1D9FF"/>
<path d="M402.057 207.418C402.057 282.15 372.282 307.744 285 307.744C197.718 307.744 169.11 282.439 169.11 207.418C169.11 132.398 201.513 105 285.292 105C369.071 105 402.057 132.686 402.057 207.418Z" fill="white"/>
<path d="M198.754 172.757C199.702 169.03 202.382 166.126 206.084 164.996C235.672 155.969 334.429 157.76 364.367 164.931C368.918 166.021 372.05 169.564 372.863 174.138C374.05 180.817 375.375 193.186 375.201 214.771C375.057 232.715 374.147 245.46 373.223 253.935C372.304 262.361 365.788 268.742 357.304 269.728C315.951 274.534 248.319 271.984 213.964 269.017C205.746 268.307 199.02 262.752 197.741 254.667C196.396 246.17 195.091 233.18 195.091 214.771C195.091 191.677 197.146 179.08 198.754 172.757Z" fill="#41407C"/>
<path d="M301.055 235.915C301.055 244.713 293.867 251.845 285 251.845C276.132 251.845 268.944 244.713 268.944 235.915C268.944 235.915 276.132 235.915 285 235.915C293.867 235.915 301.055 235.915 301.055 235.915Z" fill="white"/>
<path d="M261.635 434.26C270.781 454.121 299.219 454.121 308.365 434.26L345.742 353.091C353.515 336.212 341.082 317.012 322.377 317.012H247.623C228.918 317.012 216.484 336.212 224.257 353.091L261.635 434.26Z" fill="#F1D9FF"/>
<path d="M248.511 213.133C248.511 225.848 243.806 233.597 238.002 233.597C232.198 233.597 227.493 225.848 227.493 213.133C227.493 200.418 232.198 193.628 238.002 193.628C243.806 193.628 248.511 200.418 248.511 213.133Z" fill="white"/>
<path d="M343.091 215.45C343.091 228.165 338.386 235.915 332.582 235.915C326.778 235.915 322.073 228.165 322.073 215.45C322.073 202.735 326.778 195.945 332.582 195.945C338.386 195.945 343.091 202.735 343.091 215.45Z" fill="white"/>
<path d="M193.657 389.532C188.473 401.486 180.052 420.335 170.094 417.754C160.627 415.299 155.366 408.257 156.618 395.929C159.522 367.333 202.237 331.144 211.797 329.493C221.356 327.842 198.619 378.088 193.657 389.532Z" fill="#41407C"/>
<path d="M191.588 394.345C186.404 406.298 180.051 420.336 170.094 417.754C160.626 415.3 155.099 408.537 156.618 395.929C157.297 390.29 159.137 385.543 159.137 385.543C181.906 380.04 191.588 394.345 191.588 394.345Z" fill="#F1D9FF"/>
<path d="M376.979 389.532C382.162 401.486 390.584 420.335 400.542 417.754C410.01 415.299 415.27 408.257 414.018 395.929C411.114 367.333 368.398 331.144 358.839 329.493C349.279 327.843 372.016 378.088 376.979 389.532Z" fill="#41407C"/>
<path d="M379.048 394.345C384.232 406.298 390.584 420.336 400.543 417.754C410.01 415.3 415.538 408.537 414.019 395.929C413.304 390 411.499 385.543 411.499 385.543C388.729 380.04 379.048 394.345 379.048 394.345Z" fill="#F1D9FF"/>
<path d="M267.189 362.196V351.81L272.78 361.382C273.242 362.154 274.02 362.467 274.924 362.467C276.038 362.467 277.067 361.674 277.067 360.277V348.161H274.167V358.484L268.576 348.974C268.114 348.203 267.378 347.869 266.453 347.869C265.297 347.869 264.268 348.682 264.268 350.08V362.196H267.189ZM284.725 362.467C286.155 362.467 287.29 361.904 288.025 360.986V362.196H290.863V357.003C290.863 353.896 288.467 351.56 285.209 351.56C282.014 351.56 279.576 354.042 279.576 357.003C279.576 360.006 281.699 362.467 284.725 362.467ZM285.209 359.693C283.675 359.693 282.561 358.484 282.561 357.024C282.561 355.564 283.675 354.355 285.209 354.355C286.743 354.355 287.878 355.564 287.878 357.024C287.878 358.484 286.743 359.693 285.209 359.693ZM298.489 359.61C296.955 359.61 296.198 358.254 296.198 356.669V351.873H293.214V357.003C293.214 360.027 295.021 362.467 298.489 362.467C301.978 362.467 303.786 360.027 303.786 357.003V351.873H300.801V356.649C300.801 358.254 300.023 359.61 298.489 359.61Z" fill="#41407C"/>
</svg>
