<svg width="1920" height="1453" viewBox="0 0 1920 1453" fill="none" xmlns="http://www.w3.org/2000/svg">
<rect width="1920" height="5400" fill="#9BA9FF"/>
<path d="M591.347 2177.9L1429.52 2168.18L1921.67 2168.18L1922.04 598.2C1906.34 595.021 1879.17 581.614 1869.1 591.061C1849.99 608.991 1829.11 616.882 1808.21 608.288C1796.7 603.555 1797.92 598.75 1785.45 588.474C1779.82 583.831 1766.18 589.797 1758.53 583.195C1746.28 572.609 1744.65 562.769 1744.65 562.769C1744.65 562.769 1743.94 562.117 1748.98 562.718C1780 566.425 1777.7 536.206 1799.58 535.952C1814.52 535.779 1820.92 551.253 1832.98 558.693C1841.71 564.071 1852.64 566.598 1852.64 566.598C1852.64 566.598 1843.85 580.425 1825.62 577.333C1817.57 575.967 1815.73 584.31 1807.92 582.621C1800.1 580.933 1796.19 575.165 1797.34 568.765C1798.49 562.365 1804.15 562.078 1805.94 563.836C1807.72 565.595 1805.99 568.665 1805.99 568.665C1805.99 568.665 1804.81 564.669 1802.32 567.182C1799.84 569.696 1801.66 579.13 1809.74 577.517C1813.97 576.672 1818.28 571.997 1823.84 573.033C1839.25 575.904 1846.02 568.757 1844.24 568.221C1814.89 559.412 1817.61 540.572 1800.93 540.766C1787.12 540.926 1785.43 549.987 1772.37 562.447C1764.02 570.423 1755.44 566.226 1750.33 566.769C1750.39 571.852 1761.7 583.464 1773.89 581.237C1793.13 577.724 1793.37 592.016 1808.12 600.156C1821.2 607.375 1847.12 605.502 1865.16 587.548C1880.15 572.633 1894.86 593.512 1907.31 579.688C1916.19 569.84 1921.67 566.301 1921.67 566.301C1921.67 566.301 1902.45 571.091 1887.73 553.345C1877.62 541.159 1863.59 545.706 1849.64 537.723C1827.66 525.148 1823.15 513.74 1807.1 512.422C1787.77 510.835 1781.42 520.405 1770.25 529.176C1759.09 537.947 1764.73 538.708 1741.34 538.98C1717.95 539.251 1718.05 566.325 1682.93 564.696C1682.93 564.696 1682.41 519.776 1623.95 526.338C1565.48 532.899 1564.98 468.307 1516.59 475.77C1468.19 483.232 1473.58 475.636 1455.59 458.603C1435.3 439.378 1412.24 438.828 1397.65 454.298C1388.15 464.363 1385.34 487.249 1392.32 499.612C1396.78 507.506 1405.58 525.932 1430.78 518.624C1452.15 506.548 1431.33 476.08 1423.45 499.251C1423.45 499.251 1417.22 496.732 1419.99 489.335C1422.38 482.972 1429.51 480.853 1434.75 482.376C1439.99 483.899 1446.28 489.03 1446.44 502.378C1446.59 502.963 1467.34 499.873 1484.11 522.531C1490.97 531.79 1516.86 521.118 1535.97 525.549C1557.34 530.505 1577.92 556.965 1577.92 556.965C1577.92 556.965 1557.97 553.277 1543.5 562.569C1536.92 566.794 1520.99 592.482 1503.07 607.385C1492.7 616.007 1474.33 621.42 1458.21 613.563C1435.1 602.292 1435.38 591.842 1417.52 582.584C1403.44 575.281 1378.63 580.321 1378.63 580.321C1378.63 580.321 1381.57 552.682 1409.23 552.361C1429.92 552.121 1430.62 554.778 1449.2 539C1456.22 533.036 1473.17 533.132 1477.93 548.17C1483.79 566.656 1456.87 569.909 1456.87 569.909C1456.87 569.909 1475.13 561.965 1471.29 551.641C1467.44 541.317 1456.75 541.536 1449.27 545.561C1445.33 547.686 1435.67 562.035 1415.58 558.849C1392.97 555.265 1386.29 573.896 1386.29 573.896C1386.29 573.896 1408.04 571.456 1414.28 573.571C1436.05 580.94 1439.46 600.269 1463.37 607.846C1478.82 612.744 1490.41 608.43 1498.63 603.138C1516.45 589.808 1526.06 571.595 1541.77 557.385C1554.61 549.399 1567.84 553.009 1567.84 553.009C1567.84 553.009 1552.36 533.355 1533.52 530.781C1507.52 527.228 1490.57 538.52 1480.62 528.001C1463.28 509.656 1446.68 509.408 1446.53 510.296C1445.76 514.942 1441.79 521.36 1435.25 525.134C1407.22 541.298 1392.53 509.418 1377.8 509.057C1364.61 508.734 1357.33 517.487 1352.69 523.603C1337.46 543.691 1339.01 546.841 1310.15 553.511C1269.45 562.917 1262.8 572.877 1255.93 584.46C1243.1 606.104 1227.55 601.097 1221.17 591.66C1214.79 582.222 1211.61 557.204 1177.08 564.213C1153.14 569.075 1156.52 538.362 1132.47 525.891C1108.42 513.419 1103.38 549.904 1076.92 545.297C1058.21 542.041 1054.14 524.72 1054.14 524.72C1045.03 524.826 1034.45 527.518 1025.65 542.08C1015.6 558.717 992.701 547.077 974.045 548.27C955.39 549.464 936.978 571.575 936.978 571.575C967.154 562.584 983.793 603.506 1006.74 618.802C1039.21 640.45 1068.69 601.054 1068.69 601.054C1085.52 580.018 1115.66 587.801 1115.66 587.801C1102.63 564.061 1088.39 572.614 1078.6 572.727C1068.01 572.85 1061.51 570.892 1047.71 559.107C1042.62 554.759 1031.59 558.023 1030.95 566.926C1029.79 583.206 1045.62 575.397 1045.62 575.397C1045.62 575.397 1038.73 589.591 1028.34 577.377C1019.1 566.512 1028.92 548.396 1042.84 551.284C1059.79 554.802 1058.79 571.941 1085.36 566.295C1117.2 559.529 1121.49 591.599 1121.63 592.781C1121.25 592.787 1120.85 592.796 1120.87 592.803C1118.26 592.843 1111.54 592.932 1095.91 593.113C1076.53 593.338 1076.72 606.779 1047.12 625.958C1011.19 649.237 980.976 596.227 965.811 584.203C952.73 573.833 938.819 574.407 932.446 573.407C929.802 572.992 936.813 561.877 955.834 548.482C974.855 535.087 1013.43 553.49 1019.94 540.367C1028.82 522.473 1054.06 517.859 1054.06 517.859C1054.06 517.859 1055.3 506.915 1062.06 501.245C1071.98 492.929 1085.08 503.012 1074.96 513.804C1074.96 513.804 1077.86 508.433 1073.51 506.45C1066.41 503.215 1061.32 513.784 1060.89 517.78C1059.02 535.084 1079.8 538.401 1089.99 533.708C1100.18 529.015 1116.36 502.902 1105.3 479.902C1092.62 453.537 1056.11 459.124 1032.33 489.137C1018.38 506.732 997.068 491.833 971.835 495.176C944.226 498.834 941.425 542.789 919.953 536.699C896.82 530.137 881.289 544.343 868.461 553.054C844.854 569.086 825.773 557.944 817.152 556.199C801.452 553.02 788.857 544.648 778.785 554.095C759.67 572.025 738.793 579.916 717.896 571.322C706.386 566.589 707.604 561.784 695.137 551.508C689.406 547.452 675.857 552.831 668.214 546.229C655.96 535.643 654.329 525.803 654.329 525.803C654.329 525.803 653.625 525.151 658.661 525.752C689.682 529.459 687.381 499.24 709.258 498.986C724.203 498.813 730.598 514.287 742.666 521.727C751.388 527.105 762.322 529.633 762.322 529.633C762.322 529.633 753.533 543.459 735.3 540.367C727.249 539.001 725.416 547.344 717.598 545.656C709.78 543.967 705.875 538.199 707.024 531.799C708.172 525.4 713.835 525.112 715.618 526.87C717.4 528.629 715.674 531.699 715.674 531.699C715.674 531.699 714.489 527.703 712.003 530.217C709.518 532.73 711.338 542.165 719.419 540.551C723.653 539.706 727.96 535.032 733.517 536.067C748.931 538.938 755.704 531.791 753.918 531.255C724.571 522.446 727.291 503.606 710.613 503.8C696.799 503.96 695.107 513.021 682.054 525.481C673.698 533.457 665.119 529.26 660.008 529.803C660.067 534.886 671.378 546.498 683.572 544.271C702.811 540.758 703.051 555.05 717.802 563.19C730.883 570.409 756.801 568.537 774.845 550.583C789.836 535.667 804.544 556.546 816.996 542.723C825.867 532.874 831.354 529.335 831.354 529.335C831.354 529.335 812.127 534.125 797.41 516.379C786.25 502.922 773.276 508.74 759.319 500.757C737.337 488.183 732.334 476.712 716.783 475.456C694.233 473.636 691.098 483.439 679.935 492.21C668.772 500.981 674.413 501.742 651.02 502.014C627.628 502.285 627.738 530.341 592.625 528.712C525.386 525.593 533.655 470.682 485.263 478.144C436.87 485.606 442.255 478.01 424.271 460.977C403.972 441.752 380.916 441.202 366.323 456.672C356.828 466.737 354.015 489.623 360.998 501.986C365.457 509.88 374.259 528.307 399.459 520.998C420.826 508.922 400.009 478.454 392.129 501.625C392.129 501.625 385.893 499.106 388.67 491.709C391.06 485.346 398.184 483.227 403.426 484.75C408.667 486.273 414.959 491.404 415.114 504.752C415.268 505.337 436.018 502.247 452.789 524.905C459.643 534.164 485.544 523.493 504.649 527.923C526.021 532.879 546.597 559.339 546.597 559.339C546.597 559.339 526.652 555.651 512.184 564.943C505.604 569.168 489.668 594.856 471.745 609.76C461.377 618.381 443.006 623.795 426.89 615.937C403.773 604.666 404.055 594.216 386.201 584.959C372.116 577.655 347.308 582.695 347.308 582.695C347.308 582.695 350.251 555.057 377.909 554.736C398.594 554.495 399.3 557.152 417.875 541.375C424.897 535.41 441.845 535.507 446.609 550.544C452.466 569.03 425.547 572.284 425.547 572.284C425.547 572.284 443.806 564.339 439.962 554.015C436.118 543.691 425.426 543.91 417.951 547.935C414.005 550.06 404.351 564.409 384.253 561.224C361.644 557.639 354.965 576.271 354.965 576.271C354.965 576.271 376.714 573.83 382.962 575.946C404.725 583.314 408.138 602.643 432.047 610.22C447.501 615.118 459.089 610.805 467.307 605.512C485.123 592.182 494.735 573.969 510.452 559.759C523.288 551.773 536.521 555.383 536.521 555.383C536.521 555.383 521.039 535.729 502.203 533.155C476.201 529.603 459.243 540.894 449.3 530.376C431.959 512.03 415.354 511.782 415.206 512.67C414.432 517.316 410.465 523.734 403.922 527.508C375.9 543.672 361.204 511.792 346.481 511.431C333.284 511.108 326.002 519.861 321.365 525.978C306.135 546.066 307.688 549.215 278.827 555.886C238.132 565.291 246.687 567.828 224.511 579.371C205.328 587.726 196.286 573.926 186.214 583.373C167.1 601.303 146.222 609.194 125.326 600.601C113.815 595.867 115.033 591.062 102.566 580.786C99.2689 576.046 83.2868 582.11 75.6435 575.507C63.3895 564.922 61.7591 555.081 61.7591 555.081C61.7591 555.081 61.0549 554.429 66.0909 555.031C97.1116 558.737 94.8114 528.519 116.688 528.265C131.633 528.091 138.027 543.566 150.095 551.006C158.818 556.383 169.752 558.911 169.752 558.911C169.752 558.911 160.962 572.737 142.73 569.645C134.679 568.28 132.846 576.622 125.028 574.934C117.21 573.245 113.305 567.477 114.453 561.078C115.602 554.678 121.265 554.39 123.048 556.149C124.83 557.907 123.104 560.977 123.104 560.977C123.104 560.977 121.919 556.981 119.433 559.495C116.947 562.008 118.768 571.443 126.849 569.829C131.083 568.984 135.389 564.31 140.947 565.345C156.361 568.216 163.134 561.07 161.347 560.533C132 551.724 134.721 532.884 118.043 533.078C104.228 533.238 102.537 542.299 89.4837 554.759C81.1278 562.735 72.5483 558.538 67.4377 559.082C67.4967 564.164 78.8078 575.776 91.0015 573.55C110.241 570.036 110.481 584.329 125.231 592.469C138.313 599.687 164.23 597.815 182.275 579.861C197.266 564.945 211.974 585.824 224.426 572.001C233.297 562.153 238.786 558.613 238.786 558.613C238.786 558.613 219.557 563.404 204.84 545.658C193.68 532.2 180.706 538.018 166.749 530.035C144.767 517.461 139.764 505.99 124.213 504.735C101.662 502.914 98.527 512.717 87.3642 521.488C76.2014 530.259 81.8421 531.02 58.4497 531.292C35.0572 531.563 35.1669 559.619 0.0544355 557.99L0.0949304 2181.77L257.624 2181.78L591.347 2177.9Z" fill="url(#paint0_linear)" fill-opacity="0.74"/>
<path d="M343.344 2491.5L1243.94 2481.05L1792.65 2474.68L1772.72 757.828C1755.85 754.334 1726.66 739.61 1715.84 749.977C1695.3 769.654 1672.87 778.31 1650.42 768.871C1638.05 763.672 1639.36 758.398 1625.96 747.115C1619.9 742.017 1605.24 748.562 1597.03 741.313C1583.86 729.69 1582.1 718.887 1582.1 718.887C1582.1 718.887 1581.35 718.172 1586.76 718.833C1620.09 722.91 1617.61 689.739 1641.12 689.466C1657.18 689.28 1664.05 706.268 1677.02 714.438C1686.39 720.343 1698.14 723.12 1698.14 723.12C1698.14 723.12 1688.7 738.296 1669.11 734.896C1660.46 733.395 1658.49 742.552 1650.09 740.697C1641.69 738.841 1637.49 732.509 1638.72 725.484C1639.96 718.459 1646.04 718.145 1647.96 720.076C1649.87 722.007 1648.02 725.376 1648.02 725.376C1648.02 725.376 1646.75 720.989 1644.08 723.748C1641.4 726.507 1643.36 736.863 1652.05 735.094C1656.6 734.167 1661.22 729.038 1667.19 730.176C1683.76 733.331 1691.03 725.488 1689.11 724.899C1657.58 715.222 1660.49 694.542 1642.57 694.75C1627.73 694.922 1625.92 704.868 1611.89 718.542C1602.92 727.295 1593.7 722.685 1588.21 723.281C1588.27 728.86 1600.43 741.609 1613.53 739.168C1634.2 735.317 1634.46 751.006 1650.31 759.945C1664.37 767.872 1692.22 765.824 1711.6 746.121C1727.71 729.752 1743.52 752.674 1756.89 737.504C1766.42 726.696 1772.31 722.812 1772.31 722.812C1772.31 722.812 1751.66 728.066 1735.84 708.582C1724.98 695.202 1709.91 700.19 1694.91 691.423C1671.28 677.614 1666.44 665.09 1649.2 663.639C1628.43 661.891 1621.6 672.395 1609.61 682.02C1597.62 691.645 1603.68 692.482 1578.54 692.773C1553.41 693.065 1553.52 722.784 1515.8 720.986C1515.8 720.986 1515.22 671.678 1452.4 678.865C1389.58 686.052 1389.03 615.15 1337.03 623.328C1285.04 631.506 1290.82 623.17 1271.49 604.467C1249.68 583.359 1224.91 582.749 1209.23 599.726C1199.03 610.773 1196.01 635.893 1203.52 649.466C1208.31 658.132 1217.78 678.361 1244.85 670.346C1267.81 657.096 1245.43 623.646 1236.97 649.078C1236.97 649.078 1230.27 646.311 1233.25 638.193C1235.82 631.209 1243.47 628.884 1249.1 630.558C1254.74 632.231 1261.5 637.865 1261.67 652.517C1261.83 653.159 1284.13 649.772 1302.15 674.648C1309.52 684.814 1337.35 673.107 1357.87 677.975C1380.84 683.421 1402.96 712.472 1402.96 712.472C1402.96 712.472 1381.52 708.419 1365.98 718.614C1358.91 723.25 1341.8 751.443 1322.54 767.798C1311.41 777.259 1291.67 783.196 1274.35 774.567C1249.51 762.188 1249.81 750.718 1230.62 740.551C1215.49 732.53 1188.83 738.056 1188.83 738.056C1188.83 738.056 1191.99 707.718 1221.71 707.373C1243.93 707.115 1244.69 710.032 1264.64 692.718C1272.19 686.172 1290.4 686.283 1295.52 702.791C1301.82 723.084 1272.9 726.648 1272.9 726.648C1272.9 726.648 1292.51 717.933 1288.38 706.599C1284.25 695.266 1272.76 695.503 1264.73 699.919C1260.49 702.25 1250.12 717.999 1228.52 714.497C1204.23 710.556 1197.06 731.006 1197.06 731.006C1197.06 731.006 1220.43 728.333 1227.14 730.657C1250.53 738.751 1254.2 759.969 1279.89 768.293C1296.5 773.673 1308.95 768.942 1317.78 763.134C1336.91 748.507 1347.24 728.518 1364.12 712.923C1377.91 704.161 1392.13 708.127 1392.13 708.127C1392.13 708.127 1375.49 686.548 1355.25 683.718C1327.31 679.811 1309.09 692.202 1298.41 680.653C1279.77 660.51 1261.93 660.233 1261.77 661.208C1260.94 666.308 1256.68 673.351 1249.65 677.493C1219.54 695.228 1203.74 660.23 1187.92 659.83C1173.74 659.472 1165.92 669.077 1160.94 675.791C1144.58 697.837 1146.25 701.295 1115.24 708.609C1071.52 718.922 1064.38 729.853 1057 742.566C1043.21 766.321 1026.51 760.821 1019.65 750.46C1012.79 740.099 1009.37 712.636 972.271 720.32C946.542 725.651 950.17 691.938 924.325 678.242C898.48 664.546 893.074 704.593 864.639 699.529C844.538 695.95 840.159 676.936 840.159 676.936C830.375 677.05 819.006 680.002 809.557 695.984C798.761 714.244 774.15 701.46 754.106 702.765C734.061 704.07 714.284 728.337 714.284 728.337C746.705 718.475 764.595 763.4 789.252 780.196C824.148 803.968 855.809 760.731 855.809 760.731C873.888 737.644 906.278 746.196 906.278 746.196C892.276 720.133 876.974 729.517 866.456 729.639C855.07 729.772 848.086 727.621 833.258 714.68C827.787 709.906 815.939 713.486 815.256 723.259C814.007 741.129 831.02 732.562 831.02 732.562C831.02 732.562 823.617 748.14 812.453 734.73C802.522 722.801 813.062 702.918 828.021 706.092C846.239 709.958 845.164 728.771 873.713 722.58C907.926 715.162 912.539 750.366 912.697 751.664C912.281 751.671 911.857 751.68 911.88 751.688C909.069 751.731 901.854 751.827 885.063 752.022C864.231 752.264 864.444 767.017 832.642 788.063C794.043 813.606 761.566 755.408 745.267 742.206C731.21 730.819 716.263 731.446 709.415 730.346C706.573 729.89 714.104 717.691 734.538 702.992C754.972 688.294 796.429 708.506 803.42 694.102C812.952 674.462 840.072 669.404 840.072 669.404C840.072 669.404 841.4 657.392 848.666 651.17C859.324 642.044 873.396 653.115 862.526 664.959C862.526 664.959 865.637 659.064 860.964 656.886C853.339 653.333 847.873 664.933 847.409 669.319C845.402 688.314 867.731 691.961 878.679 686.812C889.628 681.663 907.012 653.003 895.118 627.753C881.484 598.809 842.259 604.931 816.71 637.87C801.733 657.18 778.828 640.821 751.717 644.483C722.053 648.491 719.054 696.739 695.981 690.048C671.124 682.84 654.44 698.43 640.659 707.988C615.297 725.58 594.793 713.344 585.53 711.426C568.66 707.932 555.124 698.739 544.304 709.106C523.771 728.783 501.341 737.439 478.885 728C466.516 722.801 467.824 717.527 454.425 706.244C448.266 701.79 433.711 707.691 425.496 700.442C412.327 688.819 410.572 678.016 410.572 678.016C410.572 678.016 409.815 677.301 415.226 677.962C448.558 682.039 446.078 648.868 469.584 648.595C485.642 648.409 492.517 665.397 505.486 673.567C514.86 679.472 526.609 682.249 526.609 682.249C526.609 682.249 517.168 697.425 497.577 694.025C488.927 692.524 486.959 701.681 478.558 699.826C470.157 697.97 465.96 691.638 467.192 684.613C468.425 677.588 474.509 677.274 476.425 679.205C478.341 681.136 476.487 684.505 476.487 684.505C476.487 684.505 475.213 680.118 472.542 682.877C469.872 685.636 471.831 695.992 480.513 694.223C485.063 693.296 489.689 688.167 495.661 689.304C512.223 692.46 519.498 684.617 517.579 684.028C486.044 674.351 488.962 653.671 471.042 653.879C456.198 654.051 454.383 663.997 440.361 677.671C431.385 686.424 422.166 681.814 416.675 682.409C416.74 687.989 428.896 700.738 441.997 698.297C462.668 694.446 462.93 710.135 478.781 719.074C492.839 727.001 520.687 724.953 540.07 705.25C556.173 688.881 571.983 711.803 585.358 696.633C594.887 685.825 600.782 681.941 600.782 681.941C600.782 681.941 580.124 687.195 564.306 667.711C552.311 652.936 538.373 659.319 523.374 650.552C499.752 636.743 494.373 624.15 477.664 622.768C453.433 620.764 450.067 631.524 438.075 641.149C426.084 650.774 432.145 651.611 407.01 651.902C381.876 652.194 382.001 682.991 344.273 681.193C272.025 677.751 280.895 617.478 228.901 625.656C176.906 633.834 182.69 625.498 163.362 606.795C141.546 585.687 116.772 585.077 101.097 602.054C90.8971 613.101 87.8808 638.221 95.3876 651.794C100.18 660.46 109.643 680.689 136.718 672.674C159.674 659.424 137.298 625.974 128.837 651.406C128.837 651.406 122.136 648.639 125.118 640.521C127.684 633.537 135.338 631.212 140.97 632.886C146.603 634.559 153.365 640.193 153.535 654.845C153.701 655.487 175.995 652.1 194.022 676.976C201.388 687.142 229.215 675.435 249.744 680.303C272.709 685.749 294.825 714.8 294.825 714.8C294.825 714.8 273.394 710.747 257.85 720.942C250.781 725.578 233.665 753.772 214.412 770.126C203.274 779.587 183.536 785.525 166.218 776.895C141.376 764.516 141.677 753.046 122.49 742.879C107.354 734.859 80.6994 740.384 80.6994 740.384C80.6994 740.384 83.8546 710.046 113.573 709.701C135.797 709.443 136.557 712.36 156.511 695.046C164.055 688.5 182.265 688.611 187.388 705.119C193.686 725.412 164.763 728.977 164.763 728.977C164.763 728.977 184.379 720.261 180.247 708.927C176.114 697.594 164.626 697.831 156.595 702.248C152.356 704.578 141.986 720.327 120.391 716.825C96.0967 712.885 88.9248 733.334 88.9248 733.334C88.9248 733.334 112.293 730.661 119.007 732.985C142.393 741.079 146.065 762.297 171.758 770.621C188.363 776.002 200.813 771.27 209.642 765.463C228.781 750.835 239.105 730.846 255.988 715.251C269.778 706.489 283.998 710.455 283.998 710.455C283.998 710.455 267.357 688.877 247.117 686.046C219.178 682.14 200.961 694.53 190.274 682.981C171.636 662.838 153.795 662.561 153.636 663.536C152.805 668.636 148.545 675.68 141.515 679.821C111.41 697.556 95.6115 662.558 79.7914 662.158C65.6115 661.8 57.7905 671.405 52.8092 678.119C36.4503 700.165 31.0084 702.686 8.00178e-06 710L-2.06564e-05 763.5L-1.74872e-05 2491.5L343.344 2491.5Z" fill="url(#paint1_linear)"/>
<path d="M873 1173.37V922.157C860.091 891.613 811.016 860.419 777.404 860.419C664.318 860.419 703.301 779.663 621.823 790.735C540.344 801.807 549.544 789.719 519.649 762.054C485.908 730.829 447.168 729.518 422.341 754.067C406.186 770.041 401.012 806.709 412.507 826.676C419.847 839.425 434.282 869.155 476.777 857.898C512.925 838.919 478.533 789.646 464.836 826.676C464.836 826.676 454.404 822.518 459.217 810.702C463.357 800.537 475.372 797.27 484.152 799.811C492.932 802.352 503.407 810.702 503.407 832.122C503.655 833.064 538.588 828.491 566.333 865.159C577.671 880.143 621.407 863.503 653.431 870.967C689.253 879.317 723.319 922.157 723.319 922.157C723.319 922.157 689.87 915.868 665.371 930.507C654.23 937.164 626.949 978.084 596.536 1001.66C578.942 1015.3 547.961 1023.65 521.028 1010.74C482.396 992.224 483.074 975.463 453.246 960.276C429.716 948.296 387.923 955.92 387.923 955.92C387.923 955.92 393.409 911.628 439.901 911.628C474.67 911.628 475.804 915.905 507.331 890.935C519.25 881.495 547.732 881.966 555.446 906.183C564.928 935.952 519.623 940.672 519.623 940.672C519.623 940.672 550.466 928.265 544.207 911.628C537.949 894.992 519.974 895.144 507.331 901.463C500.658 904.798 484.152 927.643 450.437 922.157C412.507 915.985 400.918 945.754 400.918 945.754C400.918 945.754 437.519 942.244 447.978 945.754C484.412 957.982 489.771 989.06 529.808 1001.66C555.685 1009.81 575.244 1003.1 589.161 994.765C619.364 973.709 635.871 944.665 662.562 922.157C684.292 909.583 706.462 915.622 706.462 915.622C706.462 915.622 680.824 883.798 649.216 879.317C605.584 873.133 576.869 890.935 560.362 873.872C531.574 844.113 503.673 843.406 503.407 844.828C502.015 852.268 495.224 862.492 484.152 868.426C436.74 893.839 412.662 842.414 387.923 841.561C365.749 840.796 353.342 854.704 345.428 864.433C319.439 896.381 321.987 901.463 273.351 911.628C204.771 925.962 206.001 971.893 206.001 971.893V1490.87L362.474 1604L519.623 1577.42H750.586L873 1490.87V1173.37Z" fill="url(#paint2_linear)"/>
<path d="M0 873.919V3473.44C0 3473.44 100 3353.94 288.5 3353.94C477 3353.94 495.5 3473.44 663.5 3473.44C831.5 3473.44 862 3178.94 1141 3269.94C1420 3360.94 1483.5 3068.44 1655 3037.94C1826.5 3007.44 1920 3118.94 1920 3118.94V2026.44V1347.5C1920 1347.5 1640.78 1124.93 1842.88 1005.92C1875.46 986.736 1920 963.055 1920 963.055V485C1920 485 1880.12 646.923 1551.15 630.93C1222.18 614.937 1059.36 686.131 842.7 895.071C626.044 1104.01 410.717 1021.98 226.625 873.919C97.697 770.223 0 873.919 0 873.919Z" fill="white"/>
<path d="M1890.72 232.404C1897.81 219.62 1912.49 220.464 1920 220.081C1920 220.081 1906.81 203.719 1895.87 203.719C1859.04 203.719 1871.73 178.099 1845.2 181.612C1818.66 185.124 1821.66 181.29 1811.92 172.513C1800.93 162.607 1787.87 165.134 1780.74 172.545C1775.4 178.106 1773.29 186.679 1777.03 193.014C1779.42 197.059 1784.12 206.491 1797.96 202.919C1809.73 196.898 1798.53 181.266 1794.07 193.014C1794.07 193.014 1790.67 191.695 1792.24 187.946C1793.59 184.721 1797.5 183.685 1800.36 184.491C1803.22 185.297 1806.63 187.946 1806.63 194.742C1806.71 195.041 1817.63 193.014 1826.67 204.647C1830.36 209.401 1845.06 204.698 1855.49 207.066C1867.16 209.715 1878.25 223.305 1878.25 223.305C1878.25 223.305 1867.36 221.31 1859.38 225.955C1855.75 228.067 1846.87 241.049 1836.96 248.529C1831.23 252.856 1821.14 255.504 1812.37 251.408C1799.79 245.534 1800.01 240.217 1790.3 235.399C1782.63 231.598 1769.02 234.017 1769.02 234.017C1769.02 234.017 1770.81 219.965 1785.95 219.965C1797.27 219.965 1797.64 221.322 1807.91 213.4C1811.79 210.406 1821.07 210.555 1823.58 218.238C1826.67 227.682 1811.91 229.179 1811.91 229.179C1811.91 229.179 1821.96 225.243 1819.92 219.965C1817.88 214.687 1812.03 214.736 1807.91 216.74C1805.74 217.799 1800.36 225.046 1789.38 223.305C1777.03 221.347 1773.26 230.792 1773.26 230.792C1773.26 230.792 1785.18 229.678 1788.58 230.792C1800.45 234.671 1802.19 244.531 1815.23 248.529C1823.66 251.113 1830.03 248.986 1834.56 246.341C1844.4 239.661 1849.77 230.446 1858.47 223.305C1865.54 219.316 1872.76 221.232 1872.76 221.232C1872.76 221.232 1864.41 211.136 1854.12 209.715C1839.91 207.753 1827.92 211.442 1825.18 207.987C1816.92 197.547 1806.72 198.322 1806.63 198.773C1806.18 201.133 1803.97 204.377 1800.36 206.259C1784.92 214.322 1777.08 198.007 1769.02 197.736C1761.8 197.494 1757.76 201.906 1755.18 204.992C1746.72 215.128 1750.27 220.081 1727.51 220.081C1704.74 220.081 1709.09 239.085 1709.78 239.085C1710.46 239.085 1727.05 222.614 1734.14 239.085C1739.81 252.261 1756.18 251.716 1763.65 249.796C1778.2 246.847 1786.53 252.56 1794.53 264.423C1804.71 279.511 1830.82 280.202 1845.2 264.423C1857.89 250.487 1858.35 249.105 1872.76 247.032C1884.29 245.373 1889.54 236.589 1890.72 232.404Z" fill="#F1D9FF" fill-opacity="0.53"/>
<defs>
<linearGradient id="paint0_linear" x1="881" y1="428" x2="1393.5" y2="897" gradientUnits="userSpaceOnUse">
<stop stop-color="#C4BAFF"/>
<stop offset="1" stop-color="#B9B5FF" stop-opacity="0.31"/>
</linearGradient>
<linearGradient id="paint1_linear" x1="874.251" y1="581.404" x2="1335" y2="941" gradientUnits="userSpaceOnUse">
<stop stop-color="#D8C2FF"/>
<stop offset="1" stop-color="#CEBEFF" stop-opacity="0.31"/>
</linearGradient>
<linearGradient id="paint2_linear" x1="539.5" y1="737" x2="539.5" y2="1604" gradientUnits="userSpaceOnUse">
<stop stop-color="#ECCAFF"/>
<stop offset="1" stop-color="#E2C6FF" stop-opacity="0"/>
</linearGradient>
</defs>
</svg>
