<svg width="550" height="463" viewBox="0 0 550 463" fill="none" xmlns="http://www.w3.org/2000/svg">
<path d="M402.408 166.988L402.404 166.989L402.197 167.033C402.196 167.033 402.195 167.034 402.194 167.034C399.765 167.547 397.329 168.018 394.885 168.447C394.715 168.475 394.503 168.426 394.303 168.14C394.095 167.841 394.021 167.419 394.179 167.021L394.181 167.014C395.134 164.583 396.015 162.12 396.821 159.629L396.841 159.568L396.857 159.506L396.873 159.444C399.701 150.763 401.596 141.766 402.523 132.627L402.614 131.725L401.997 131.062C389.245 117.364 381.546 99.4632 381.546 79.9115C381.546 37.0015 418.688 2 464.773 2C510.859 2 548 37.0015 548 79.9115C548 122.822 510.859 157.823 464.773 157.823H464.77C456.517 157.835 448.297 156.687 440.319 154.407L439.534 154.182L438.817 154.571C433.442 157.484 421.712 162.885 402.408 166.988ZM441.977 147.224L441.979 147.225C449.414 149.349 457.079 150.419 464.776 150.407C508.339 150.406 541.347 117.575 541.347 79.9115C541.347 42.2592 508.338 9.41593 464.773 9.41593C421.209 9.41593 388.199 42.2592 388.199 79.9115C388.199 97.2109 394.999 113.237 406.611 125.727C407.517 126.702 408.22 127.888 408.661 129.206C409.1 130.521 409.266 131.928 409.142 133.324C408.404 140.942 407.006 148.468 404.966 155.806L404.048 159.108L407.375 158.282C422.393 154.553 431.639 150.222 435.908 147.905L435.909 147.904C437.795 146.88 439.951 146.643 441.977 147.224Z" fill="#02559E" stroke="#02559E" stroke-width="4"/>
<path d="M85.2278 236.231H85.2309C93.4878 236.244 101.712 235.096 109.692 232.815L110.479 232.59L111.198 232.981C117.219 236.257 131.298 242.669 155.116 246.855C155.287 246.883 155.499 246.834 155.698 246.548C155.906 246.249 155.98 245.827 155.822 245.43L155.822 245.428C151.992 235.737 148.529 222.831 147.476 211.011L147.397 210.123L148.004 209.47C160.756 195.773 168.455 177.871 168.455 158.32C168.455 115.41 131.313 80.4082 85.2278 80.4082C39.1423 80.4082 2.00053 115.41 2.00053 158.32C2.00053 201.23 39.1423 236.231 85.2278 236.231Z" fill="#FDE000" stroke="#02559E" stroke-width="4"/>
<path d="M69.855 178.424L49.6053 159.917L40.9102 167.864L69.855 194.317L129.547 139.764L120.851 131.817L69.855 178.424Z" fill="#02559E"/>
<path d="M443.466 113.636L464.776 92.3289L486.081 113.636L493.183 106.533L471.878 85.2267L493.183 63.9198L486.081 56.8176L464.776 78.1244L443.466 56.8176L436.364 63.9198L457.669 85.2267L436.364 106.533L443.466 113.636Z" fill="#02559E"/>
<path d="M292.045 442.781H292.048C305.935 442.803 319.766 440.871 333.186 437.036L333.973 436.811L334.692 437.202C344.853 442.731 368.458 453.465 408.299 460.468C409.175 460.616 410.011 460.233 410.589 459.405C411.176 458.563 411.381 457.392 410.942 456.287L410.942 456.285C404.598 440.231 398.862 418.848 397.12 399.295L397.041 398.407L397.648 397.755C419.114 374.696 432.091 344.541 432.091 311.595C432.091 239.262 369.509 180.409 292.045 180.409C214.582 180.409 152 239.262 152 311.595C152 383.928 214.582 442.781 292.045 442.781Z" fill="#69D8FF" stroke="#02559E" stroke-width="4"/>
<path d="M256.817 290.797H256.835H268.553C269.345 290.797 270.201 290.109 270.349 288.986L270.35 288.975L270.35 288.975C271.041 283.936 273.138 279.445 276.733 276.211C280.339 272.968 285.286 271.138 291.394 271.138C296.565 271.138 301.71 272.427 305.609 275.461C309.58 278.551 312.059 283.3 312.059 289.729C312.059 294.71 310.566 298.441 307.911 301.738C305.347 304.923 301.698 307.688 297.553 310.803L297.54 310.812L297.527 310.822C288.135 317.646 281.261 325.205 281.759 337.346L281.76 337.373L281.76 337.401L281.803 340.479C281.803 340.479 281.803 340.48 281.803 340.48C281.81 340.887 281.976 341.274 282.266 341.559C282.556 341.845 282.947 342.005 283.354 342.005H283.354H294.874C295.286 342.005 295.68 341.841 295.971 341.551C296.262 341.26 296.425 340.865 296.425 340.454V338.962C296.425 333.56 297.467 329.804 300.078 326.354C302.535 323.108 306.336 320.225 311.404 316.382L311.562 316.262L256.817 290.797ZM256.817 290.797L256.799 290.798C256.613 290.801 256.428 290.766 256.255 290.695L255.498 292.539M256.817 290.797L255.498 292.539M255.498 292.539L256.255 290.695C256.083 290.625 255.927 290.519 255.797 290.386C255.666 290.252 255.565 290.094 255.498 289.92C255.433 289.749 255.403 289.567 255.409 289.385M255.498 292.539L255.409 289.385M255.409 289.385C256.053 277.956 261.008 270.41 267.841 265.661C274.756 260.855 283.747 258.817 292.474 258.817C302.078 258.817 311.115 261.331 317.697 266.283C324.215 271.187 328.442 278.557 328.442 288.65C328.442 302.932 320.189 309.703 311.563 316.261L255.409 289.385ZM289.874 382.317C282.51 382.317 277.528 377.464 277.528 371.15C277.528 364.555 282.522 359.797 289.86 359.797C293.76 359.797 296.909 361.035 299.061 363.008C301.201 364.969 302.477 367.762 302.477 371.15C302.477 377.449 297.596 382.317 289.874 382.317Z" fill="white" stroke="#02559E" stroke-width="4"/>
</svg>
