<svg width="293" height="215" viewBox="0 0 293 215" fill="none" xmlns="http://www.w3.org/2000/svg">
<path d="M127.222 157.425C173.222 157.14 210.087 124.631 209.555 84.8142C209.023 44.9974 171.296 12.9508 125.296 13.2358C79.2959 13.5209 42.431 46.0297 42.9628 85.8464C43.2048 103.973 51.1624 120.507 64.1071 133.096C63.2369 143.566 60.0582 155.06 56.4874 163.693C55.6904 165.614 57.312 167.746 59.3796 167.404C82.8183 163.447 96.7027 157.511 102.732 154.425C110.735 156.479 118.968 157.488 127.222 157.425V157.425Z" fill="#F1D9FF"/>
<path d="M198.491 120.046C198.525 122.787 199.657 125.409 201.637 127.336C203.618 129.263 206.285 130.337 209.051 130.321C211.818 130.305 214.458 129.201 216.39 127.251C218.322 125.302 219.388 122.667 219.354 119.926C219.319 117.185 218.188 114.562 216.207 112.635C214.227 110.708 211.56 109.635 208.793 109.651C206.026 109.667 203.387 110.771 201.455 112.72C199.523 114.67 198.456 117.305 198.491 120.046ZM156.764 120.285C156.799 123.026 157.93 125.649 159.911 127.576C161.891 129.503 164.558 130.576 167.325 130.561C170.092 130.545 172.731 129.441 174.663 127.491C176.595 125.542 177.662 122.907 177.627 120.166C177.593 117.425 176.461 114.802 174.481 112.875C172.5 110.948 169.833 109.875 167.067 109.89C164.3 109.906 161.661 111.01 159.728 112.96C157.796 114.909 156.73 117.544 156.764 120.285ZM125.599 130.8C122.832 130.816 120.165 129.742 118.185 127.816C116.204 125.889 115.072 123.266 115.038 120.525C115.004 117.784 116.07 115.149 118.002 113.2C119.934 111.25 122.574 110.146 125.341 110.13C128.107 110.114 130.774 111.188 132.755 113.115C134.735 115.042 135.867 117.664 135.901 120.405C135.935 123.146 134.869 125.781 132.937 127.731C131.005 129.68 128.365 130.784 125.599 130.8Z" fill="#5B518F"/>
<path d="M228.945 200.237L228.737 200.197C209.636 196.568 197.933 191.702 192.485 189.024C184.54 191.173 176.337 192.28 168.087 192.316C122.087 192.581 84.3863 160.517 83.8874 120.7C83.3885 80.883 120.28 48.3907 166.281 48.1262C212.281 47.8618 249.982 79.9255 250.48 119.743C250.708 137.869 243.179 154.496 230.562 167.237C231.558 175.369 233.489 183.369 236.317 191.08L236.35 191.193C237.154 193.401 238.029 195.584 238.973 197.739C239.819 199.65 238.253 201.801 236.177 201.483C233.76 201.107 231.349 200.691 228.945 200.237ZM220.215 168.275C220.05 166.768 220.223 165.246 220.722 163.817C221.22 162.388 222.032 161.088 223.099 160.008C233.999 148.986 240.258 134.922 240.068 119.802C239.656 86.927 208.016 58.1864 166.41 58.4255C124.803 58.6647 93.8876 87.7649 94.2995 120.64C94.7115 153.526 126.352 182.256 167.958 182.017C175.298 181.985 182.595 181.002 189.664 179.091C192.134 178.42 194.773 178.676 197.076 179.81C201.131 181.806 210.061 185.607 224.617 188.85C222.508 182.138 221.034 175.25 220.215 168.275Z" fill="#5B518F"/>
</svg>
