<svg width="550" height="550" viewBox="0 0 550 550" fill="none" xmlns="http://www.w3.org/2000/svg">
<path d="M92.7084 456.342L147.376 377.529C147.917 376.749 148.545 376.029 149.244 375.384C158.808 366.57 173.922 375.703 170.58 388.154C170.378 388.905 170.109 389.637 169.776 390.339L128.64 477.11C123.406 488.149 109.827 492.33 99.2842 486.148C88.8306 480.018 85.8032 466.296 92.7084 456.342Z" fill="#FCDB00" stroke="#02559E" stroke-width="4"/>
<path d="M473.091 456.341L418.426 377.53C417.884 376.75 417.256 376.029 416.557 375.385C406.992 366.57 391.877 375.702 395.217 388.156C395.419 388.907 395.688 389.639 396.022 390.341L437.155 477.112C442.39 488.153 455.97 492.335 466.515 486.152C476.97 480.022 479.997 466.297 473.091 456.341Z" fill="#FCDB00" stroke="#02559E" stroke-width="4"/>
<path d="M282.319 529.278C260.538 529.278 241.297 513.291 224.944 490.152C208.678 467.134 195.785 437.753 186.559 412.497C177.329 387.228 196.768 361.87 224.118 361.87H340.52C367.87 361.87 387.309 387.228 378.078 412.497C368.853 437.753 355.959 467.134 339.693 490.152C323.34 513.291 304.1 529.278 282.319 529.278Z" fill="white" stroke="#02559E" stroke-width="4"/>
<path d="M258.649 427.771V412.558L266.776 426.579C267.449 427.71 268.58 428.169 269.894 428.169C271.513 428.169 273.011 427.008 273.011 424.961V407.212H268.793V422.334L260.666 408.404C259.993 407.273 258.924 406.784 257.58 406.784C255.898 406.784 254.401 407.975 254.401 410.022V427.771H258.649ZM284.144 428.169C286.222 428.169 287.873 427.344 288.942 425.999V427.771H293.067V420.165C293.067 415.613 289.583 412.192 284.847 412.192C280.203 412.192 276.658 415.827 276.658 420.165C276.658 424.563 279.744 428.169 284.144 428.169ZM284.847 424.105C282.616 424.105 280.997 422.334 280.997 420.194C280.997 418.056 282.616 416.284 284.847 416.284C287.077 416.284 288.728 418.056 288.728 420.194C288.728 422.334 287.077 424.105 284.847 424.105ZM304.155 423.984C301.924 423.984 300.824 421.998 300.824 419.676V412.649H296.485V420.165C296.485 424.593 299.113 428.169 304.155 428.169C309.228 428.169 311.855 424.593 311.855 420.165V412.649H307.516V419.645C307.516 421.998 306.386 423.984 304.155 423.984Z" fill="#02559E"/>
<path d="M367.101 409.35C369.161 405.711 373.424 405.952 375.605 405.843C375.605 405.843 371.776 401.187 368.596 401.187C357.9 401.187 361.586 393.896 353.88 394.895C346.173 395.895 347.043 394.804 344.215 392.306C341.024 389.486 337.23 390.206 335.16 392.316C333.606 393.897 332.993 396.337 334.081 398.139C334.776 399.291 336.14 401.975 340.161 400.958C343.579 399.246 340.327 394.797 339.03 398.139C339.03 398.139 338.044 397.765 338.499 396.698C338.891 395.779 340.027 395.485 340.858 395.714C341.689 395.944 342.679 396.698 342.679 398.632C342.702 398.717 345.874 398.139 348.498 401.451C349.571 402.804 353.84 401.464 356.869 402.138C360.257 402.892 363.481 406.76 363.481 406.76C363.481 406.76 360.316 406.193 357.999 407.514C356.945 408.116 354.365 411.81 351.488 413.938C349.824 415.17 346.894 415.923 344.346 414.758C340.692 413.086 340.756 411.573 337.934 410.202C335.709 409.12 331.755 409.809 331.755 409.809C331.755 409.809 332.274 405.81 336.672 405.81C339.96 405.81 340.068 406.195 343.05 403.942C344.178 403.09 346.872 403.132 347.602 405.318C348.498 408.006 344.213 408.432 344.213 408.432C344.213 408.432 347.131 407.311 346.538 405.81C345.946 404.308 344.246 404.321 343.05 404.892C342.419 405.194 340.858 407.256 337.668 406.76C334.081 406.204 332.985 408.89 332.985 408.89C332.985 408.89 336.447 408.575 337.436 408.89C340.882 409.995 341.389 412.801 345.176 413.938C347.624 414.673 349.474 414.069 350.79 413.316C353.647 411.415 355.209 408.792 357.734 406.76C359.789 405.625 361.886 406.171 361.886 406.171C361.886 406.171 359.461 403.298 356.471 402.892C352.344 402.334 348.861 403.385 348.066 402.401C345.665 399.43 342.705 399.65 342.679 399.78C342.548 400.45 341.905 401.373 340.858 401.91C336.373 404.204 334.095 399.56 331.755 399.484C329.658 399.415 328.484 400.671 327.737 401.549C325.278 404.433 326.308 405.843 319.698 405.843C313.086 405.843 314.348 411.25 314.548 411.25C314.747 411.25 319.564 406.564 321.623 411.25C323.271 415 328.024 414.845 330.195 414.299C334.42 413.459 336.839 415.086 339.164 418.461C342.12 422.755 349.704 422.953 353.88 418.461C357.568 414.495 357.7 414.102 361.886 413.512C365.235 413.04 366.757 410.541 367.101 409.35Z" fill="#FCDB00" fill-opacity="0.85"/>
<path d="M208.432 384.851C206.372 381.212 202.109 381.453 199.928 381.344C199.928 381.344 203.758 376.688 206.937 376.688C217.633 376.688 213.947 369.397 221.653 370.396C229.36 371.396 228.49 370.305 231.318 367.807C234.509 364.987 238.303 365.707 240.373 367.817C241.927 369.398 242.54 371.838 241.452 373.64C240.757 374.792 239.393 377.476 235.372 376.459C231.954 374.747 235.206 370.298 236.503 373.64C236.503 373.64 237.489 373.266 237.034 372.199C236.642 371.28 235.506 370.986 234.675 371.215C233.844 371.445 232.854 372.199 232.854 374.133C232.831 374.218 229.659 373.64 227.035 376.952C225.962 378.305 221.693 376.965 218.664 377.639C215.276 378.393 212.053 382.261 212.053 382.261C212.053 382.261 215.217 381.694 217.534 383.015C218.588 383.617 221.168 387.311 224.045 389.439C225.709 390.671 228.639 391.424 231.187 390.259C234.841 388.587 234.777 387.074 237.599 385.703C239.824 384.621 243.778 385.31 243.778 385.31C243.778 385.31 243.259 381.311 238.861 381.311C235.573 381.311 235.465 381.696 232.483 379.443C231.355 378.591 228.661 378.633 227.931 380.819C227.035 383.507 231.32 383.933 231.32 383.933C231.32 383.933 228.403 382.812 228.995 381.311C229.587 379.809 231.287 379.822 232.483 380.393C233.114 380.695 234.675 382.757 237.865 382.261C241.452 381.705 242.548 384.391 242.548 384.391C242.548 384.391 239.086 384.075 238.097 384.391C234.651 385.496 234.144 388.302 230.357 389.439C227.91 390.174 226.059 389.57 224.743 388.817C221.886 386.916 220.324 384.293 217.799 382.261C215.744 381.126 213.647 381.672 213.647 381.672C213.647 381.672 216.072 378.799 219.062 378.393C223.189 377.835 226.672 378.886 227.467 377.902C229.868 374.931 232.828 375.151 232.854 375.28C232.985 375.951 233.628 376.874 234.675 377.41C239.16 379.705 241.438 375.061 243.778 374.985C245.875 374.916 247.049 376.172 247.796 377.05C250.255 379.934 249.225 381.344 255.835 381.344C262.447 381.344 261.185 386.751 260.985 386.751C260.786 386.751 255.969 382.065 253.91 386.751C252.262 390.501 247.509 390.346 245.338 389.8C241.113 388.96 238.694 390.587 236.369 393.962C233.413 398.256 225.829 398.453 221.653 393.962C217.965 389.996 217.833 389.603 213.647 389.013C210.299 388.541 208.775 386.042 208.432 384.851Z" fill="#FCDB00" fill-opacity="0.85"/>
<path d="M306.484 388.328C304.839 386.162 302.141 386.7 300.738 386.824C300.738 386.824 302.761 383.474 304.79 383.19C311.615 382.231 308.602 377.853 313.61 377.809C318.619 377.765 317.966 377.137 319.543 375.271C321.324 373.164 323.811 373.289 325.324 374.467C326.458 375.35 327.071 376.87 326.54 378.132C326.202 378.938 325.573 380.793 322.916 380.496C320.579 379.696 322.251 376.531 323.382 378.576C323.382 378.576 323.977 378.245 323.59 377.596C323.256 377.039 322.505 376.949 321.995 377.172C321.486 377.394 320.922 377.97 321.098 379.22C321.09 379.277 319.014 379.188 317.639 381.56C317.078 382.531 314.231 382.048 312.359 382.754C310.266 383.545 308.559 386.331 308.559 386.331C308.559 386.331 310.527 385.682 312.126 386.327C312.853 386.621 314.835 388.777 316.864 389.894C318.038 390.541 319.976 390.764 321.497 389.784C323.677 388.377 323.499 387.405 325.175 386.267C326.498 385.37 329.082 385.46 329.082 385.46C329.082 385.46 328.389 382.924 325.582 383.318C323.484 383.612 323.45 383.872 321.342 382.682C320.545 382.233 318.83 382.501 318.562 383.979C318.234 385.795 321.008 385.686 321.008 385.686C321.008 385.686 319.044 385.224 319.285 384.201C319.528 383.177 320.613 383.034 321.429 383.296C321.859 383.433 323.043 384.626 325.032 384.021C327.271 383.339 328.215 384.977 328.215 384.977C328.215 384.977 325.976 385.083 325.374 385.375C323.274 386.398 323.206 388.255 320.892 389.329C319.397 390.023 318.162 389.797 317.253 389.429C315.257 388.457 314.023 386.904 312.227 385.816C310.813 385.268 309.524 385.807 309.524 385.807C309.524 385.807 310.81 383.735 312.682 383.206C315.265 382.476 317.583 382.843 318.001 382.136C319.263 380.002 321.174 379.88 321.201 379.96C321.347 380.382 321.84 380.921 322.556 381.173C325.627 382.253 326.66 379.051 328.145 378.792C329.479 378.559 330.341 379.266 330.899 379.765C332.729 381.408 332.2 382.411 336.419 381.819C340.638 381.227 340.322 384.834 340.195 384.851C340.068 384.869 336.568 382.272 335.679 385.484C334.968 388.054 331.92 388.379 330.486 388.22C327.714 388.057 326.316 389.324 325.14 391.711C323.642 394.749 318.819 395.556 315.749 393.029C313.034 390.798 312.915 390.556 310.189 390.549C308.011 390.545 306.811 389.067 306.484 388.328Z" fill="#FCDB00" fill-opacity="0.85"/>
<path d="M278.171 467.983C279.487 465.604 282.235 465.748 283.64 465.67C283.64 465.67 281.159 462.645 279.109 462.654C272.216 462.686 274.57 457.921 269.608 458.594C264.644 459.269 265.201 458.555 263.372 456.935C261.306 455.106 258.863 455.585 257.535 456.966C256.54 458.004 256.152 459.597 256.858 460.769C257.309 461.518 258.197 463.264 260.784 462.59C262.983 461.462 260.873 458.571 260.048 460.754C260.048 460.754 259.41 460.513 259.7 459.815C259.951 459.216 260.682 459.02 261.218 459.167C261.754 459.314 262.394 459.803 262.4 461.065C262.416 461.12 264.457 460.735 266.158 462.886C266.854 463.765 269.601 462.88 271.555 463.31C273.741 463.792 275.829 466.305 275.829 466.305C275.829 466.305 273.789 465.944 272.299 466.812C271.622 467.207 269.97 469.624 268.122 471.022C267.054 471.829 265.167 472.33 263.522 471.577C261.163 470.498 261.2 469.51 259.376 468.624C257.94 467.926 255.394 468.386 255.394 468.386C255.394 468.386 255.717 465.776 258.551 465.764C260.67 465.753 260.74 466.005 262.656 464.527C263.379 463.968 265.115 463.987 265.592 465.41C266.179 467.161 263.418 467.452 263.418 467.452C263.418 467.452 265.295 466.713 264.908 465.734C264.523 464.757 263.426 464.771 262.658 465.146C262.253 465.345 261.252 466.694 259.195 466.381C256.881 466.028 256.183 467.784 256.183 467.784C256.183 467.784 258.414 467.566 259.052 467.77C261.276 468.481 261.611 470.309 264.056 471.04C265.634 471.512 266.826 471.112 267.671 470.618C269.507 469.37 270.505 467.655 272.126 466.322C273.447 465.575 274.801 465.925 274.801 465.925C274.801 465.925 273.229 464.057 271.301 463.803C268.64 463.45 266.398 464.146 265.883 463.508C264.327 461.576 262.42 461.729 262.404 461.813C262.321 462.251 261.909 462.856 261.237 463.208C258.354 464.718 256.872 461.696 255.363 461.652C254.012 461.613 253.259 462.436 252.78 463.011C251.204 464.899 251.871 465.816 247.611 465.835C243.352 465.854 244.181 469.378 244.309 469.376C244.437 469.376 247.528 466.306 248.868 469.356C249.942 471.796 253.004 471.682 254.402 471.319C257.121 470.759 258.686 471.813 260.193 474.008C262.112 476.8 267 476.904 269.677 473.964C272.041 471.366 272.126 471.11 274.822 470.713C276.978 470.396 277.953 468.76 278.171 467.983Z" fill="#FCDB00" fill-opacity="0.85"/>
<path d="M487.276 231.097C487.276 259.98 474.51 281.662 455.169 298.068C435.748 314.544 409.711 325.666 383.436 333.146C357.193 340.617 330.914 344.399 311.171 346.312C301.306 347.267 293.087 347.754 287.342 348.002C284.469 348.126 282.214 348.191 280.683 348.224C279.917 348.24 279.331 348.25 278.94 348.254C278.744 348.257 278.596 348.258 278.499 348.258L278.39 348.259H278.372H278.367H278.364H278.359H278.342L278.24 348.258C278.146 348.258 278.006 348.257 277.82 348.254C277.445 348.25 276.887 348.24 276.154 348.224C274.691 348.191 272.538 348.126 269.793 348.002C264.302 347.754 256.448 347.268 247.02 346.313C228.15 344.402 203.037 340.621 177.96 333.156C152.854 325.68 127.982 314.568 109.428 298.109C90.9517 281.718 78.7236 260.026 78.7236 231.097C78.7236 172.025 97.6285 116.911 132.56 76.6049C167.455 36.3416 218.451 10.7214 283 10.7217C347.549 10.722 398.545 36.3423 433.44 76.6055C468.371 116.911 487.276 172.025 487.276 231.097Z" fill="white" stroke="#02559E" stroke-width="4"/>
<path d="M427.486 191.414C427.486 227.14 423.131 257.472 395.736 274.189C382.07 282.528 361.287 291.359 283.065 291.359C204.877 291.359 183.145 281.804 170.372 274.176C145.113 259.089 138.645 227.089 138.645 191.414C138.645 173.796 141.284 159.244 147.378 148.021C153.418 136.898 162.961 128.839 177.259 124.325C191.289 119.896 206.413 123.49 224.058 128.626C225.753 129.119 227.469 129.626 229.207 130.139C245.314 134.894 263.216 140.181 283.045 140.331C304.665 140.495 324.324 135.514 341.943 131.049L342.121 131.003C359.972 126.48 375.432 122.609 389.338 124.428C402.83 126.193 412.266 134.025 418.431 145.871C424.65 157.822 427.486 173.806 427.486 191.414Z" fill="#0A66AC" stroke="#02559E" stroke-width="4"/>
<path d="M209.379 249.396C222.12 249.396 232.448 234.052 232.448 215.124C232.448 196.197 222.12 180.853 209.379 180.853C196.638 180.853 186.31 196.197 186.31 215.124C186.31 234.052 196.638 249.396 209.379 249.396Z" fill="white" stroke="#02559E" stroke-width="3"/>
<path d="M355.668 249.396C368.409 249.396 378.737 234.052 378.737 215.124C378.737 196.197 368.409 180.853 355.668 180.853C342.927 180.853 332.599 196.197 332.599 215.124C332.599 234.052 342.927 249.396 355.668 249.396Z" fill="white" stroke="#02559E" stroke-width="3"/>
</svg>
