<svg width="484" height="407" viewBox="0 0 484 407" fill="none" xmlns="http://www.w3.org/2000/svg">
<path d="M354.297 148.711L354.484 148.671C371.641 145.024 382.122 140.212 386.997 137.57C394.174 139.622 401.572 140.655 409 140.644C450.419 140.644 484 109.16 484 70.3222C484 31.4842 450.419 0 409 0C367.581 0 334 31.4842 334 70.3222C334 88.0032 340.966 104.177 352.469 116.534C351.664 124.471 350.016 132.284 347.556 139.821L347.528 139.931C346.829 142.09 346.066 144.224 345.241 146.33C344.5 148.199 345.934 150.288 347.8 149.967C349.972 149.586 352.138 149.168 354.297 148.711ZM361.797 117.488C361.928 116.017 361.755 114.534 361.29 113.143C360.825 111.752 360.079 110.488 359.106 109.441C349.169 98.7524 343.375 85.0697 343.375 70.3222C343.375 38.2553 371.537 10.046 409 10.046C446.463 10.046 474.625 38.2553 474.625 70.3222C474.625 102.399 446.463 130.598 409 130.598C402.392 130.609 395.81 129.69 389.425 127.866C387.194 127.225 384.82 127.49 382.759 128.609C379.131 130.578 371.134 134.335 358.066 137.58C359.889 131.022 361.138 124.295 361.797 117.488Z" fill="#5B518F"/>
<path d="M75 209.644C33.5812 209.644 0 178.16 0 139.322C0 100.484 33.5812 69 75 69C116.419 69 150 100.484 150 139.322C150 157.003 143.034 173.177 131.531 185.534C132.441 195.741 135.441 206.932 138.759 215.33C139.5 217.199 138.066 219.288 136.2 218.967C115.05 215.25 102.478 209.544 97.0125 206.57C89.8321 208.622 82.4314 209.656 75 209.644Z" fill="#F1D9FF"/>
<path d="M61.4715 157.014L43.6517 140.728L36 147.721L61.4715 171L114 122.993L106.348 116L61.4715 157.014Z" fill="#5B518F"/>
<path d="M390.249 100L409.002 81.25L427.751 100L434 93.75L415.252 75L434 56.25L427.751 50L409.002 68.75L390.249 50L384 56.25L402.748 75L384 93.75L390.249 100Z" fill="#5B518F"/>
<path d="M257 391.407C187.969 391.407 132 338.933 132 274.204C132 209.474 187.969 157 257 157C326.031 157 382 209.474 382 274.204C382 303.672 370.391 330.629 351.219 351.223C352.734 368.234 357.734 386.886 363.266 400.884C364.5 403.998 362.109 407.481 359 406.945C323.75 400.75 302.797 391.24 293.688 386.284C281.72 389.704 269.386 391.427 257 391.407Z" fill="#C7C6FF"/>
<path d="M223.003 254.575C222.986 254.979 223.051 255.382 223.196 255.759C223.34 256.136 223.56 256.48 223.842 256.769C224.124 257.059 224.463 257.287 224.836 257.441C225.21 257.594 225.611 257.67 226.015 257.662H236.328C238.053 257.662 239.428 256.25 239.653 254.537C240.778 246.337 246.403 240.363 256.428 240.363C265.003 240.363 272.853 244.65 272.853 254.962C272.853 262.9 268.178 266.55 260.79 272.1C252.378 278.212 245.715 285.35 246.19 296.937L246.228 299.65C246.241 300.47 246.576 301.252 247.16 301.827C247.745 302.403 248.532 302.725 249.353 302.725H259.49C260.319 302.725 261.114 302.396 261.7 301.81C262.286 301.224 262.615 300.429 262.615 299.6V298.287C262.615 289.312 266.028 286.7 275.24 279.712C282.853 273.925 290.79 267.5 290.79 254.012C290.79 235.125 274.84 226 257.378 226C241.54 226 224.19 233.375 223.003 254.575ZM242.465 326.612C242.465 333.275 247.778 338.2 255.09 338.2C262.703 338.2 267.94 333.275 267.94 326.612C267.94 319.712 262.69 314.862 255.078 314.862C247.778 314.862 242.465 319.712 242.465 326.612Z" fill="white"/>
</svg>
