<svg width="301" height="277" viewBox="0 0 301 277" fill="none" xmlns="http://www.w3.org/2000/svg">
<path d="M120.782 211.368C187.483 211.368 241.563 164.052 241.563 105.684C241.563 47.3162 187.483 0 120.782 0C54.08 0 0 47.3162 0 105.684C0 132.256 11.2176 156.563 29.7425 175.133C28.278 190.473 23.4467 207.291 18.1021 219.913C16.9094 222.721 19.2194 225.862 22.2238 225.379C56.2842 219.792 76.5303 211.217 85.3322 206.748C96.8957 209.832 108.814 211.385 120.782 211.368V211.368Z" fill="#F1D9FF"/>
<path d="M224.855 157.217C224.855 161.221 226.446 165.061 229.277 167.893C232.109 170.724 235.949 172.315 239.953 172.315C243.957 172.315 247.797 170.724 250.629 167.893C253.46 165.061 255.051 161.221 255.051 157.217C255.051 153.213 253.46 149.373 250.629 146.541C247.797 143.71 243.957 142.119 239.953 142.119C235.949 142.119 232.109 143.71 229.277 146.541C226.446 149.373 224.855 153.213 224.855 157.217ZM164.465 157.217C164.465 161.221 166.055 165.061 168.887 167.893C171.718 170.724 175.558 172.315 179.562 172.315C183.566 172.315 187.407 170.724 190.238 167.893C193.069 165.061 194.66 161.221 194.66 157.217C194.66 153.213 193.069 149.373 190.238 146.541C187.407 143.71 183.566 142.119 179.562 142.119C175.558 142.119 171.718 143.71 168.887 146.541C166.055 149.373 164.465 153.213 164.465 157.217ZM119.171 172.315C115.167 172.315 111.327 170.724 108.496 167.893C105.664 165.061 104.074 161.221 104.074 157.217C104.074 153.213 105.664 149.373 108.496 146.541C111.327 143.71 115.167 142.119 119.171 142.119C123.176 142.119 127.016 143.71 129.847 146.541C132.679 149.373 134.269 153.213 134.269 157.217C134.269 161.221 132.679 165.061 129.847 167.893C127.016 170.724 123.176 172.315 119.171 172.315Z" fill="#5B518F"/>
<path d="M267.657 275.024L267.355 274.964C239.726 269.484 222.847 262.252 214.996 258.281C203.438 261.364 191.525 262.917 179.562 262.901C112.86 262.901 58.7805 215.585 58.7805 157.217C58.7805 98.8494 112.86 51.5332 179.562 51.5332C246.264 51.5332 300.344 98.8494 300.344 157.217C300.344 183.789 289.126 208.096 270.601 226.667C271.897 238.595 274.552 250.337 278.512 261.663L278.558 261.829C279.683 265.073 280.912 268.28 282.242 271.446C283.434 274.254 281.124 277.395 278.12 276.912C274.622 276.339 271.134 275.71 267.657 275.024ZM255.579 228.101C255.368 225.89 255.646 223.661 256.395 221.57C257.144 219.48 258.345 217.581 259.912 216.008C275.916 199.944 285.246 179.381 285.246 157.217C285.246 109.025 239.893 66.6309 179.562 66.6309C119.232 66.6309 73.8782 109.025 73.8782 157.217C73.8782 205.424 119.232 247.803 179.562 247.803C190.204 247.819 200.803 246.438 211.086 243.697C214.68 242.734 218.502 243.132 221.821 244.814C227.663 247.773 240.542 253.42 261.588 258.296C258.652 248.439 256.64 238.331 255.579 228.101Z" fill="#5B518F"/>
</svg>
