<svg width="586" height="430" viewBox="0 0 586 430" fill="none" xmlns="http://www.w3.org/2000/svg">
<g clip-path="url(#clip0)">
<path d="M411.369 92.5858C403.735 78.9932 387.933 79.8913 379.848 79.4831C379.848 79.4831 394.044 62.0875 405.828 62.0875C445.477 62.0875 431.809 34.8482 460.376 38.5828C488.942 42.3175 485.717 38.2404 496.198 28.9088C508.028 18.3765 522.091 21.0641 529.763 28.9431C535.52 34.8552 537.793 43.9709 533.762 50.706C531.189 55.0061 526.128 65.0341 511.229 61.2372C498.556 54.8357 510.614 38.2155 515.416 50.706C515.416 50.706 519.073 49.3034 517.386 45.3179C515.934 41.8892 511.722 40.7871 508.643 41.6442C505.565 42.5014 501.893 45.3179 501.893 52.5428C501.806 52.8607 490.051 50.706 480.323 63.074C476.348 68.1283 460.521 63.1278 449.294 65.6456C436.735 68.4621 424.791 82.9119 424.791 82.9119C424.791 82.9119 436.518 80.7908 445.107 85.7284C449.014 87.9738 458.578 101.776 469.241 109.73C475.41 114.331 486.272 117.145 495.715 112.791C509.259 106.546 509.022 100.892 519.479 95.7697C527.729 91.7287 542.382 94.3003 542.382 94.3003C542.382 94.3003 540.458 79.3607 524.158 79.3607C511.968 79.3607 511.57 80.8031 500.517 72.3807C496.338 69.1966 486.352 69.3554 483.648 77.5238C480.323 87.5652 496.207 89.1571 496.207 89.1571C496.207 89.1571 485.394 84.9723 487.588 79.3607C489.782 73.749 496.084 73.8005 500.517 75.9319C502.856 77.0569 508.643 84.7623 520.464 82.9119C533.762 80.8301 537.826 90.8715 537.826 90.8715C537.826 90.8715 524.993 89.6874 521.326 90.8715C508.552 94.996 506.673 105.479 492.636 109.73C483.564 112.477 476.706 110.216 471.827 107.403C461.238 100.301 455.451 90.5041 446.093 82.9119C438.474 78.6707 430.701 80.7077 430.701 80.7077C430.701 80.7077 439.69 69.9733 450.772 68.4621C466.069 66.3759 478.979 70.2989 481.924 66.6252C490.822 55.5257 501.799 56.3489 501.893 56.8288C502.381 59.3382 504.762 62.7867 508.643 64.7884C525.266 73.3603 533.708 56.0145 542.382 55.7267C550.156 55.4687 554.506 60.16 557.28 63.4414C566.392 74.2175 562.575 79.4831 587.078 79.4831C611.582 79.4831 606.903 99.6883 606.164 99.6883C605.425 99.6883 587.571 82.1771 579.937 99.6883C573.829 113.697 556.213 113.118 548.169 111.077C532.506 107.942 523.54 114.016 514.923 126.629C503.964 142.67 475.851 143.405 460.376 126.629C446.708 111.811 446.216 110.342 430.701 108.138C418.289 106.374 412.642 97.0351 411.369 92.5858Z" fill="#F1D9FF" fill-opacity="0.53"/>
<path d="M306.454 112.419C317.593 91.2334 340.65 92.6332 352.448 91.997C352.448 91.997 331.734 64.884 314.539 64.884C256.686 64.884 276.629 22.4288 234.946 28.2496C193.263 34.0704 197.97 27.7158 182.676 13.1716C165.415 -3.24404 145.597 -3.93327 132.895 8.97272C124.631 17.3706 121.984 36.6475 127.865 47.1448C131.619 53.847 139.004 69.4767 160.744 63.5588C179.236 53.5814 161.642 27.677 154.635 47.1448C154.635 47.1448 149.298 44.9588 151.76 38.7469C153.878 33.4028 160.025 31.6851 164.517 33.0211C169.008 34.3571 174.367 38.7469 174.367 50.0077C174.494 50.5031 192.365 48.0991 206.559 67.376C212.359 75.2536 234.734 66.5055 251.116 70.4297C269.442 74.8195 286.87 97.3411 286.87 97.3411C286.87 97.3411 269.758 94.0351 257.225 101.731C251.525 105.231 237.569 126.743 222.01 139.139C213.009 146.311 197.16 150.697 183.382 143.911C163.618 134.177 163.965 125.365 148.706 117.381C136.668 111.083 115.288 115.091 115.288 115.091C115.288 115.091 118.095 91.8061 141.879 91.8061C159.666 91.8061 160.246 94.0543 176.375 80.9271C182.472 75.9644 197.043 76.2118 200.989 88.9432C205.84 104.594 182.663 107.075 182.663 107.075C182.663 107.075 198.442 100.552 195.24 91.8061C192.038 83.0598 182.842 83.14 176.375 86.462C172.961 88.2154 164.517 100.225 147.269 97.3411C127.865 94.0964 121.936 109.747 121.936 109.747C121.936 109.747 140.66 107.901 146.011 109.747C164.65 116.175 167.391 132.514 187.873 139.139C201.112 143.422 211.118 139.897 218.237 135.513C233.688 124.443 242.133 109.174 255.787 97.3411C266.904 90.7307 278.246 93.9056 278.246 93.9056C278.246 93.9056 265.13 77.175 248.96 74.8195C226.639 71.5681 211.949 80.9271 203.504 71.9566C188.777 56.3117 174.503 55.9399 174.367 56.6878C173.655 60.5991 170.181 65.9739 164.517 69.0937C140.262 82.4539 127.944 55.4186 115.288 54.9701C103.944 54.568 97.5968 61.8799 93.5482 66.9943C80.2529 83.79 85.8225 91.997 50.0688 91.997C14.3151 91.997 21.1425 123.489 22.2205 123.489C23.2985 123.489 49.3502 96.1958 60.4895 123.489C69.401 145.323 95.1053 144.42 106.844 141.239C129.697 136.353 142.781 145.819 155.354 165.478C171.344 190.481 212.366 191.626 234.946 165.478C254.889 142.384 255.608 140.094 278.246 136.658C296.356 133.91 304.597 119.354 306.454 112.419Z" fill="#CEBEFF" fill-opacity="0.76"/>
<g clip-path="url(#clip1)">
<path d="M366.59 186.413C366.59 242.035 307.631 274.131 236.469 274.131C165.307 274.131 107.619 242.035 107.619 186.413C107.619 130.791 165.307 95.8496 236.469 95.8496C307.631 95.8496 366.59 130.791 366.59 186.413Z" fill="#F1D9FF"/>
<path d="M339.518 185.91C339.518 251.625 313.467 274.131 237.104 274.131C160.741 274.131 135.712 251.879 135.712 185.91C135.712 119.942 164.061 95.8496 237.359 95.8496C310.658 95.8496 339.518 120.195 339.518 185.91Z" fill="white"/>
<path d="M161.647 155.43C162.477 152.153 164.821 149.599 168.061 148.605C193.947 140.668 280.35 142.243 306.543 148.549C310.524 149.507 313.264 152.622 313.976 156.645C315.014 162.518 316.174 173.394 316.022 192.375C315.895 208.154 315.1 219.362 314.291 226.813C313.487 234.223 307.786 239.834 300.363 240.701C264.183 244.927 205.012 242.685 174.954 240.076C167.764 239.452 161.88 234.567 160.761 227.457C159.585 219.986 158.442 208.563 158.442 192.375C158.442 172.068 160.24 160.99 161.647 155.43Z" fill="#41407C"/>
<path d="M251.151 210.968C251.151 218.704 244.862 224.976 237.104 224.976C229.346 224.976 223.058 218.704 223.058 210.968C223.058 210.968 229.346 210.968 237.104 210.968C244.862 210.968 251.151 210.968 251.151 210.968Z" fill="white"/>
<path d="M216.662 385.383C224.664 402.847 249.545 402.847 257.547 385.383L290.248 314.008C297.049 299.165 286.171 282.281 269.806 282.281H204.403C188.038 282.281 177.16 299.165 183.961 314.008L216.662 385.383Z" fill="#F1D9FF"/>
<path d="M205.18 190.936C205.18 202.117 201.064 208.931 195.986 208.931C190.908 208.931 186.792 202.117 186.792 190.936C186.792 179.755 190.908 173.784 195.986 173.784C201.064 173.784 205.18 179.755 205.18 190.936Z" fill="white"/>
<path d="M287.928 192.973C287.928 204.154 283.812 210.968 278.734 210.968C273.656 210.968 269.54 204.154 269.54 192.973C269.54 181.792 273.656 175.821 278.734 175.821C283.812 175.821 287.928 181.792 287.928 192.973Z" fill="white"/>
<path d="M157.188 346.052C152.653 356.563 145.284 373.138 136.572 370.868C128.289 368.71 123.687 362.517 124.782 351.676C127.323 326.531 164.695 294.708 173.058 293.257C181.421 291.805 161.529 335.989 157.188 346.052Z" fill="#41407C"/>
<path d="M155.377 350.282C150.842 360.794 145.284 373.137 136.572 370.867C128.289 368.709 123.453 362.762 124.782 351.675C125.376 346.716 126.986 342.543 126.986 342.543C146.907 337.704 155.377 350.282 155.377 350.282Z" fill="#F1D9FF"/>
<path d="M317.577 346.052C322.112 356.563 329.48 373.138 338.193 370.868C346.476 368.71 351.078 362.517 349.983 351.676C347.442 326.531 310.07 294.708 301.706 293.257C293.342 291.805 313.235 335.989 317.577 346.052Z" fill="#41407C"/>
<path d="M319.387 350.282C323.923 360.794 329.48 373.137 338.193 370.867C346.476 368.709 351.312 362.762 349.983 351.675C349.358 346.462 347.779 342.543 347.779 342.543C327.858 337.704 319.387 350.282 319.387 350.282Z" fill="#F1D9FF"/>
<path d="M221.521 322.012V312.88L226.413 321.297C226.817 321.975 227.498 322.25 228.288 322.25C229.263 322.25 230.164 321.554 230.164 320.325V309.671H227.626V318.748L222.735 310.386C222.33 309.707 221.687 309.414 220.878 309.414C219.866 309.414 218.965 310.129 218.965 311.358V322.012H221.521ZM236.864 322.25C238.114 322.25 239.107 321.755 239.751 320.948V322.012H242.233V317.446C242.233 314.714 240.137 312.66 237.287 312.66C234.492 312.66 232.359 314.842 232.359 317.446C232.359 320.087 234.216 322.25 236.864 322.25ZM237.287 319.811C235.945 319.811 234.97 318.748 234.97 317.464C234.97 316.181 235.945 315.117 237.287 315.117C238.629 315.117 239.622 316.181 239.622 317.464C239.622 318.748 238.629 319.811 237.287 319.811ZM248.906 319.738C247.564 319.738 246.902 318.546 246.902 317.153V312.935H244.29V317.446C244.29 320.105 245.872 322.25 248.906 322.25C251.958 322.25 253.54 320.105 253.54 317.446V312.935H250.929V317.134C250.929 318.546 250.248 319.738 248.906 319.738Z" fill="#41407C"/>
</g>
</g>
<defs>
<clipPath id="clip0">
<rect width="586" height="430" fill="white"/>
</clipPath>
<clipPath id="clip1">
<rect width="258.971" height="334.15" fill="white" transform="translate(107.619 95.8496)"/>
</clipPath>
</defs>
</svg>
