<svg width="465" height="391" viewBox="0 0 465 391" fill="none" xmlns="http://www.w3.org/2000/svg">
<path d="M340.133 140.87L340.13 140.871L339.955 140.908C339.954 140.909 339.952 140.909 339.951 140.909C337.902 141.342 335.847 141.739 333.786 142.101C333.755 142.106 333.746 142.102 333.733 142.096C333.71 142.085 333.657 142.051 333.599 141.97C333.478 141.796 333.435 141.548 333.528 141.315L333.531 141.308C334.339 139.246 335.085 137.158 335.769 135.046L335.789 134.985L335.804 134.923L335.815 134.881C338.211 127.524 339.817 119.899 340.602 112.154L340.694 111.253L340.076 110.59C329.346 99.063 322.87 84.0032 322.87 67.5577C322.87 31.4705 354.112 2 392.921 2C431.731 2 462.973 31.4705 462.973 67.5577C462.973 103.645 431.731 133.115 392.921 133.115H392.919C385.97 133.125 379.049 132.159 372.333 130.239L371.548 130.015L370.83 130.404C366.312 132.852 356.424 137.408 340.133 140.87ZM373.564 124.761L373.567 124.762C379.88 126.566 386.388 127.474 392.925 127.464C429.906 127.463 457.967 99.5855 457.967 67.5577C457.967 35.5387 429.905 7.65109 392.921 7.65109C355.938 7.65109 327.876 35.5387 327.876 67.5577C327.876 82.2662 333.658 95.8889 343.524 106.501C344.26 107.292 344.832 108.256 345.19 109.329C345.548 110.4 345.683 111.546 345.583 112.685C344.961 119.106 343.782 125.45 342.062 131.636L341.144 134.939L344.471 134.113C357.193 130.954 365.034 127.282 368.666 125.311L368.667 125.311C370.191 124.483 371.93 124.292 373.564 124.761Z" fill="#02559E" stroke="#02559E" stroke-width="4"/>
<path d="M72.0516 199.402H72.0547C79.0061 199.413 85.9298 198.447 92.6491 196.526L93.4358 196.301L94.1545 196.692C99.2153 199.446 111.086 204.855 131.187 208.388C131.218 208.393 131.228 208.389 131.24 208.383C131.263 208.373 131.316 208.338 131.374 208.257C131.495 208.083 131.538 207.835 131.445 207.602L131.444 207.6C128.198 199.384 125.262 188.445 124.368 178.417L124.289 177.529L124.897 176.877C135.627 165.35 142.103 150.29 142.103 133.845C142.103 97.7576 110.861 68.2871 72.0516 68.2871C33.2423 68.2871 1.99995 97.7576 1.99995 133.845C1.99995 169.932 33.2423 199.402 72.0516 199.402Z" fill="#FDE000" stroke="#02559E" stroke-width="4"/>
<path d="M59.0549 150.841L41.9356 135.195L34.5847 141.913L59.0549 164.277L109.518 118.158L102.167 111.439L59.0549 150.841Z" fill="#02559E"/>
<path d="M374.908 96.0684L392.923 78.0555L410.935 96.0684L416.938 90.0641L398.927 72.0512L416.938 54.0383L410.935 48.034L392.923 66.0469L374.908 48.034L368.904 54.0383L386.915 72.0512L368.904 90.0641L374.908 96.0684Z" fill="#02559E"/>
<path d="M246.897 374.02H246.9C258.611 374.039 270.275 372.41 281.593 369.175L282.379 368.95L283.098 369.341C291.66 373.999 311.583 383.063 345.232 388.977C345.835 389.079 346.429 388.825 346.86 388.207C347.301 387.575 347.455 386.693 347.126 385.861L347.125 385.859C341.753 372.265 336.895 354.158 335.42 337.593L335.341 336.706L335.948 336.053C354.046 316.612 364.983 291.194 364.983 263.424C364.983 202.463 312.233 152.828 246.897 152.828C181.561 152.828 128.811 202.463 128.811 263.424C128.811 324.385 181.561 374.02 246.897 374.02Z" fill="#69D8FF" stroke="#02559E" stroke-width="4"/>
<path d="M217.13 245.533H217.112L217.094 245.533C216.979 245.535 216.865 245.514 216.758 245.47L216.002 247.309L216.758 245.47C216.651 245.426 216.554 245.361 216.474 245.278L215.042 246.675L216.474 245.278C216.393 245.196 216.33 245.097 216.289 244.99C216.249 244.885 216.23 244.773 216.234 244.661C216.774 235.095 220.915 228.805 226.611 224.846C232.391 220.829 239.924 219.115 247.26 219.115C255.33 219.115 262.899 221.228 268.398 225.365C273.832 229.453 277.359 235.593 277.359 244.027C277.359 255.94 270.498 261.583 263.209 267.124L263.045 267.249C258.788 270.477 255.545 272.937 253.442 275.715C251.183 278.7 250.291 281.947 250.291 286.561V287.822C250.291 288.088 250.186 288.343 249.998 288.53C249.81 288.718 249.555 288.824 249.289 288.824H239.55H239.55C239.287 288.824 239.034 288.721 238.847 288.536C238.66 288.352 238.552 288.102 238.548 287.839C238.548 287.839 238.548 287.838 238.548 287.838L238.512 285.236L238.511 285.209L238.51 285.182C238.096 275.077 243.799 268.772 251.714 263.021L251.726 263.012L251.739 263.002C255.236 260.375 258.354 258.014 260.551 255.285C262.838 252.445 264.126 249.223 264.126 244.939C264.126 239.416 261.992 235.308 258.554 232.632C255.188 230.013 250.765 228.913 246.347 228.913C241.12 228.913 236.859 230.48 233.745 233.281C230.642 236.072 228.842 239.941 228.25 244.259L228.25 244.259L228.248 244.27C228.14 245.093 227.526 245.533 227.037 245.533H217.13ZM245.062 322.904C238.982 322.904 234.933 318.916 234.933 313.772C234.933 308.39 238.994 304.484 245.05 304.484C248.281 304.484 250.865 305.509 252.62 307.117C254.361 308.713 255.407 310.991 255.407 313.772C255.407 318.901 251.446 322.904 245.062 322.904Z" fill="white" stroke="#02559E" stroke-width="4"/>
</svg>
