<svg width="293" height="215" viewBox="0 0 293 215" fill="none" xmlns="http://www.w3.org/2000/svg">
<g clip-path="url(#clip0)">
<path d="M207.161 78.5571L207.271 78.5358C217.302 76.6094 223.431 74.0675 226.281 72.6718C230.478 73.7554 234.803 74.3013 239.147 74.2957C263.365 74.2957 283 57.6641 283 37.1478C283 16.6316 263.365 0 239.147 0C214.929 0 195.293 16.6316 195.293 37.1478C195.293 46.4879 199.366 55.0319 206.092 61.5593C205.622 65.7522 204.658 69.8793 203.22 73.8605L203.203 73.9189C202.795 75.0592 202.349 76.1865 201.866 77.2993C201.433 78.2864 202.272 79.3902 203.362 79.2204C204.632 79.0192 205.899 78.7981 207.161 78.5571ZM211.547 62.0634C211.623 61.2865 211.522 60.5027 211.25 59.768C210.978 59.0332 210.542 58.3656 209.973 57.8126C204.163 52.1662 200.775 44.9383 200.775 37.1478C200.775 20.2084 217.242 5.30683 239.147 5.30683C261.051 5.30683 277.518 20.2084 277.518 37.1478C277.518 54.0926 261.051 68.9888 239.147 68.9888C235.283 68.9943 231.435 68.509 227.701 67.5454C226.396 67.2069 225.008 67.3468 223.804 67.9381C221.682 68.9782 217.006 70.963 209.365 72.6771C210.431 69.2125 211.161 65.6592 211.547 62.0634Z" fill="#5B518F"/>
<path d="M43.8527 110.746C19.6347 110.746 -0.000593126 94.1142 -0.000593126 73.598C-0.000593126 53.0818 19.6347 36.4502 43.8527 36.4502C68.0707 36.4502 87.7061 53.0818 87.7061 73.598C87.7061 82.9381 83.6332 91.4821 76.9072 98.0095C77.4389 103.401 79.193 109.313 81.1335 113.75C81.5666 114.737 80.7279 115.84 79.637 115.671C67.2704 113.707 59.9195 110.693 56.7237 109.122C52.5252 110.206 48.198 110.752 43.8527 110.746Z" fill="#F1D9FF"/>
<path d="M35.9428 82.942L25.5234 74.339L21.0493 78.0331L35.9428 90.3302L66.6568 64.9705L62.1827 61.2764L35.9428 82.942Z" fill="#5B518F"/>
<path d="M228.182 52.8242L239.147 42.9195L250.11 52.8242L253.764 49.5226L242.801 39.6179L253.764 29.7132L250.11 26.4116L239.147 36.3163L228.182 26.4116L224.528 29.7132L235.491 39.6179L224.528 49.5226L228.182 52.8242Z" fill="#5B518F"/>
<path d="M150.27 206.764C109.907 206.764 77.1811 179.044 77.1811 144.851C77.1811 110.657 109.907 82.9375 150.27 82.9375C190.633 82.9375 223.359 110.657 223.359 144.851C223.359 160.417 216.571 174.657 205.361 185.536C206.247 194.523 209.171 204.376 212.405 211.77C213.126 213.415 211.729 215.255 209.911 214.972C189.299 211.699 177.048 206.675 171.722 204.057C164.724 205.864 157.512 206.774 150.27 206.764Z" fill="#C7C6FF"/>
<path d="M130.391 134.48C130.381 134.693 130.42 134.906 130.504 135.105C130.588 135.304 130.717 135.486 130.882 135.639C131.047 135.792 131.245 135.912 131.463 135.993C131.682 136.074 131.916 136.114 132.153 136.111H138.182C139.191 136.111 139.995 135.364 140.127 134.46C140.784 130.128 144.073 126.972 149.935 126.972C154.949 126.972 159.539 129.237 159.539 134.684C159.539 138.877 156.806 140.805 152.486 143.737C147.567 146.966 143.671 150.737 143.949 156.858L143.971 158.291C143.979 158.724 144.175 159.137 144.517 159.441C144.858 159.745 145.319 159.915 145.798 159.915H151.726C152.21 159.915 152.675 159.741 153.018 159.431C153.361 159.122 153.553 158.702 153.553 158.264V157.571C153.553 152.83 155.548 151.45 160.935 147.759C165.386 144.701 170.027 141.307 170.027 134.182C170.027 124.205 160.701 119.385 150.491 119.385C141.23 119.385 131.086 123.281 130.391 134.48V134.48ZM141.771 172.534C141.771 176.053 144.877 178.655 149.153 178.655C153.604 178.655 156.667 176.053 156.667 172.534C156.667 168.889 153.597 166.327 149.146 166.327C144.877 166.327 141.771 168.889 141.771 172.534Z" fill="white"/>
</g>
<defs>
<clipPath id="clip0">
<rect width="293" height="215" fill="white"/>
</clipPath>
</defs>
</svg>
