<svg width="550" height="550" viewBox="0 0 550 550" fill="none" xmlns="http://www.w3.org/2000/svg">
<path d="M221.18 414.295H221.177C199.446 414.329 177.804 411.354 156.805 405.446L156.03 405.228L155.319 405.608C139.389 414.139 102.518 430.634 40.3575 441.388C38.4798 441.705 36.7704 440.858 35.6729 439.309C34.5662 437.747 34.184 435.587 35.0046 433.549L35.0054 433.547C44.8522 409.017 53.7552 376.338 56.4574 346.482L56.5387 345.583L55.9186 344.928C22.3185 309.398 2 262.926 2 212.148C2 100.652 99.9838 10 221.18 10C342.376 10 440.359 100.652 440.359 212.148C440.359 323.643 342.376 414.295 221.18 414.295Z" fill="#69D8FF" stroke="#02559E" stroke-width="4"/>
<path d="M411.762 311.695C411.762 319.43 414.675 326.848 419.859 332.317C425.044 337.787 432.077 340.859 439.409 340.859C446.742 340.859 453.774 337.787 458.959 332.317C464.144 326.848 467.057 319.43 467.057 311.695C467.057 303.96 464.144 296.542 458.959 291.073C453.774 285.604 446.742 282.531 439.409 282.531C432.077 282.531 425.044 285.604 419.859 291.073C414.675 296.542 411.762 303.96 411.762 311.695ZM301.172 311.695C301.172 319.43 304.085 326.848 309.27 332.317C314.455 337.787 321.487 340.859 328.819 340.859C336.152 340.859 343.184 337.787 348.369 332.317C353.554 326.848 356.467 319.43 356.467 311.695C356.467 303.96 353.554 296.542 348.369 291.073C343.184 285.604 336.152 282.531 328.819 282.531C321.487 282.531 314.455 285.604 309.27 291.073C304.085 296.542 301.172 303.96 301.172 311.695ZM218.229 340.859C210.897 340.859 203.865 337.787 198.68 332.317C193.495 326.848 190.582 319.43 190.582 311.695C190.582 303.96 193.495 296.542 198.68 291.073C203.865 285.604 210.897 282.531 218.229 282.531C225.562 282.531 232.594 285.604 237.779 291.073C242.964 296.542 245.877 303.96 245.877 311.695C245.877 319.43 242.964 326.848 237.779 332.317C232.594 337.787 225.562 340.859 218.229 340.859Z" fill="#02559E"/>
<path d="M490.143 539.259L489.59 539.142C438.995 528.556 408.086 514.586 393.709 506.916C372.542 512.871 350.727 515.871 328.82 515.84C206.674 515.84 107.641 424.44 107.641 311.693C107.641 198.945 206.674 107.545 328.82 107.545C450.967 107.545 550 198.945 550 311.693C550 363.021 529.458 409.975 495.534 445.847C497.908 468.889 502.768 491.57 510.022 513.449L510.105 513.77C512.166 520.036 514.416 526.231 516.851 532.347C519.035 537.771 514.805 543.837 509.303 542.904C502.898 541.799 496.511 540.583 490.143 539.259ZM468.025 448.617C467.638 444.348 468.148 440.04 469.52 436.002C470.891 431.965 473.09 428.296 475.96 425.257C505.266 394.226 522.353 354.505 522.353 311.693C522.353 218.601 439.3 136.709 328.82 136.709C218.341 136.709 135.288 218.601 135.288 311.693C135.288 404.813 218.341 486.676 328.82 486.676C348.309 486.706 367.717 484.039 386.548 478.744C393.129 476.884 400.129 477.652 406.206 480.902C416.905 486.618 440.488 497.525 479.029 506.945C473.652 487.905 469.968 468.378 468.025 448.617Z" fill="#02559E"/>
</svg>
