<svg width="1920" height="1490" viewBox="0 0 1920 1490" fill="none" xmlns="http://www.w3.org/2000/svg">
<rect width="1920" height="5400" transform="translate(0 -3009)" fill="#3DCEFF"/>
<path d="M580.134 2327.6L1400.11 2327.69L1919.29 2323.87L1919.16 1139.2C1903.6 1136.02 1876.69 1122.61 1866.71 1132.06C1847.77 1149.98 1827.09 1157.87 1806.39 1149.28C1794.98 1144.54 1796.19 1139.74 1783.84 1129.46C1778.25 1124.82 1764.74 1130.78 1757.16 1124.18C1745.02 1113.59 1743.4 1103.75 1743.4 1103.75C1743.4 1103.75 1742.71 1103.1 1747.7 1103.7C1778.43 1107.41 1776.15 1077.19 1797.82 1076.94C1812.63 1076.77 1818.96 1092.24 1830.92 1099.68C1839.56 1105.06 1850.4 1107.59 1850.4 1107.59C1850.4 1107.59 1841.69 1121.42 1823.63 1118.32C1815.65 1116.96 1813.83 1125.3 1806.09 1123.61C1798.34 1121.92 1794.47 1116.15 1795.61 1109.75C1796.75 1103.35 1802.36 1103.07 1804.12 1104.82C1805.89 1106.58 1804.18 1109.65 1804.18 1109.65C1804.18 1109.65 1803.01 1105.66 1800.54 1108.17C1798.08 1110.68 1799.89 1120.12 1807.89 1118.5C1812.09 1117.66 1816.35 1112.99 1821.86 1114.02C1837.13 1116.89 1843.84 1109.75 1842.07 1109.21C1812.99 1100.4 1815.69 1081.56 1799.16 1081.75C1785.48 1081.91 1783.8 1090.97 1770.87 1103.43C1762.59 1111.41 1754.09 1107.21 1749.03 1107.75C1749.09 1112.83 1760.3 1124.45 1772.38 1122.22C1791.44 1118.71 1791.68 1133 1806.29 1141.14C1819.25 1148.36 1844.93 1146.49 1862.81 1128.54C1877.66 1113.63 1892.23 1134.51 1904.57 1120.69C1913.35 1110.84 1918.79 1107.3 1918.79 1107.3C1918.79 1107.3 1899.74 1112.09 1885.16 1094.34C1875.14 1082.15 1861.25 1086.7 1847.42 1078.71C1825.64 1066.14 1821.17 1054.73 1805.27 1053.41C1786.13 1051.82 1779.83 1061.39 1768.77 1070.16C1757.71 1078.93 1763.3 1079.69 1740.12 1079.96C1716.95 1080.23 1717.05 1107.3 1682.26 1105.67C1682.26 1105.67 1681.74 1060.75 1623.82 1067.31C1565.89 1073.86 1565.39 1009.27 1517.44 1016.73C1469.5 1024.18 1474.84 1016.59 1457.02 999.553C1436.9 980.326 1414.06 979.774 1399.6 995.241C1390.2 1005.31 1387.41 1028.19 1394.33 1040.56C1398.75 1048.45 1407.47 1066.88 1432.44 1059.57C1453.61 1047.5 1432.98 1017.03 1425.18 1040.2C1425.18 1040.2 1419 1037.68 1421.75 1030.28C1424.12 1023.92 1431.17 1021.8 1436.37 1023.32C1441.56 1024.85 1447.79 1029.98 1447.95 1043.33C1448.1 1043.91 1468.66 1040.82 1485.28 1063.48C1492.07 1072.74 1517.73 1062.07 1536.65 1066.51C1557.83 1071.47 1578.22 1097.93 1578.22 1097.93C1578.22 1097.93 1558.46 1094.24 1544.12 1103.53C1537.6 1107.75 1521.82 1133.44 1504.07 1148.34C1493.79 1156.96 1475.59 1162.37 1459.63 1154.51C1436.72 1143.24 1437 1132.79 1419.31 1123.53C1405.36 1116.23 1380.78 1121.26 1380.78 1121.26C1380.78 1121.26 1383.69 1093.62 1411.09 1093.31C1431.59 1093.07 1432.29 1095.73 1450.69 1079.95C1457.64 1073.99 1474.44 1074.08 1479.16 1089.12C1484.96 1107.61 1458.29 1110.86 1458.29 1110.86C1458.29 1110.86 1476.38 1102.92 1472.57 1092.59C1468.76 1082.27 1458.17 1082.49 1450.76 1086.51C1446.86 1088.63 1437.29 1102.98 1417.38 1099.79C1394.98 1096.21 1388.36 1114.84 1388.36 1114.84C1388.36 1114.84 1409.91 1112.4 1416.1 1114.52C1437.66 1121.89 1441.05 1141.22 1464.74 1148.8C1480.05 1153.7 1491.53 1149.38 1499.67 1144.09C1517.32 1130.76 1526.84 1112.55 1542.41 1098.34C1555.12 1090.36 1568.23 1093.97 1568.23 1093.97C1568.23 1093.97 1552.89 1074.32 1534.23 1071.74C1508.47 1068.18 1491.67 1079.47 1481.82 1068.95C1464.64 1050.61 1448.19 1050.36 1448.04 1051.25C1447.27 1055.89 1443.35 1062.31 1436.86 1066.08C1409.1 1082.24 1394.54 1050.36 1379.95 1050C1366.88 1049.67 1359.66 1058.43 1355.07 1064.54C1339.98 1084.63 1341.52 1087.78 1312.93 1094.45C1272.61 1103.85 1266.02 1113.81 1259.22 1125.39C1246.51 1147.03 1231.1 1142.02 1224.78 1132.58C1218.45 1123.15 1215.3 1098.13 1181.1 1105.13C1157.37 1109.99 1160.72 1079.28 1136.89 1066.81C1113.06 1054.33 1108.07 1090.82 1081.86 1086.21C1063.32 1082.95 1059.29 1065.63 1059.29 1065.63C1050.27 1065.73 1039.78 1068.42 1031.07 1082.98C1021.11 1099.62 998.419 1087.98 979.937 1089.17C961.455 1090.36 943.215 1112.47 943.215 1112.47C973.111 1103.48 989.6 1144.41 1012.33 1159.7C1044.51 1181.35 1073.71 1141.96 1073.71 1141.96C1090.38 1120.93 1120.24 1128.71 1120.24 1128.71C1107.34 1104.97 1093.23 1113.52 1083.53 1113.64C1073.03 1113.76 1066.59 1111.8 1052.92 1100.01C1047.88 1095.66 1036.95 1098.93 1036.32 1107.83C1035.16 1124.11 1050.85 1116.3 1050.85 1116.3C1050.85 1116.3 1044.02 1130.5 1033.73 1118.28C1024.58 1107.42 1034.3 1089.3 1048.09 1092.19C1064.89 1095.71 1063.89 1112.85 1090.22 1107.2C1121.77 1100.44 1126.02 1132.51 1126.16 1133.7C1125.78 1133.7 1125.39 1133.71 1125.41 1133.72C1122.82 1133.76 1116.16 1133.84 1100.68 1134.02C1081.47 1134.25 1081.67 1147.69 1052.34 1166.86C1016.75 1190.14 986.809 1137.13 971.782 1125.1C958.822 1114.73 945.039 1115.3 938.725 1114.3C936.105 1113.89 943.051 1102.77 961.894 1089.38C980.738 1075.99 1018.96 1094.39 1025.41 1081.27C1034.2 1063.38 1059.21 1058.77 1059.21 1058.77C1059.21 1058.77 1060.43 1047.82 1067.13 1042.15C1076.96 1033.84 1089.94 1043.92 1079.91 1054.71C1079.91 1054.71 1082.78 1049.34 1078.47 1047.36C1071.44 1044.12 1066.4 1054.69 1065.97 1058.69C1064.12 1075.99 1084.71 1079.31 1094.8 1074.62C1104.9 1069.93 1120.93 1043.82 1109.97 1020.81C1097.4 994.448 1061.23 1000.03 1037.67 1030.04C1023.86 1047.63 1002.74 1032.73 977.741 1036.07C950.389 1039.73 947.617 1083.68 926.344 1077.59C903.425 1071.03 888.038 1085.23 875.331 1093.94C851.943 1109.97 833.038 1098.83 824.497 1097.08C808.942 1093.9 796.463 1085.53 786.485 1094.97C767.549 1112.9 746.866 1120.79 726.162 1112.19C714.758 1107.46 715.964 1102.65 703.611 1092.38C697.933 1088.32 684.511 1093.7 676.937 1087.09C664.796 1076.51 663.179 1066.67 663.179 1066.67C663.179 1066.67 662.482 1066.01 667.471 1066.62C698.205 1070.33 695.922 1040.11 717.596 1039.86C732.403 1039.68 738.74 1055.16 750.697 1062.6C759.339 1067.98 770.172 1070.51 770.172 1070.51C770.172 1070.51 761.465 1084.33 743.401 1081.24C735.425 1079.87 733.61 1088.22 725.864 1086.53C718.118 1084.84 714.249 1079.07 715.386 1072.67C716.523 1066.27 722.133 1065.98 723.9 1067.74C725.666 1069.5 723.956 1072.57 723.956 1072.57C723.956 1072.57 722.782 1068.57 720.319 1071.09C717.857 1073.6 719.662 1083.03 727.668 1081.42C731.862 1080.58 736.128 1075.9 741.635 1076.94C756.906 1079.81 763.615 1072.67 761.846 1072.13C732.77 1063.32 735.463 1044.48 718.939 1044.67C705.253 1044.83 703.578 1053.89 690.647 1066.35C682.369 1074.32 673.869 1070.12 668.806 1070.67C668.865 1075.75 680.072 1087.36 692.153 1085.14C711.213 1081.63 711.453 1095.92 726.067 1104.06C739.028 1111.28 764.706 1109.41 782.581 1091.46C797.432 1076.55 812.006 1097.43 824.341 1083.6C833.129 1073.76 838.565 1070.22 838.565 1070.22C838.565 1070.22 819.516 1075.01 804.934 1057.26C793.875 1043.8 781.022 1049.62 767.194 1041.63C745.414 1029.06 740.456 1017.58 725.049 1016.33C702.707 1014.5 699.602 1024.31 688.544 1033.08C677.485 1041.85 683.074 1042.61 659.898 1042.88C636.722 1043.15 636.834 1071.2 602.047 1069.57C535.429 1066.44 543.616 1011.53 495.673 1018.99C447.73 1026.45 453.064 1018.85 435.244 1001.82C415.131 982.589 392.289 982.037 377.833 997.505C368.426 1007.57 365.642 1030.45 372.562 1042.82C376.98 1050.71 385.703 1069.14 410.668 1061.83C431.837 1049.76 411.209 1019.29 403.404 1042.46C403.404 1042.46 397.226 1039.94 399.977 1032.54C402.344 1026.18 409.401 1024.06 414.595 1025.59C419.788 1027.11 426.022 1032.24 426.177 1045.59C426.33 1046.18 446.888 1043.09 463.506 1065.75C470.297 1075.01 495.956 1064.34 514.885 1068.77C536.06 1073.73 556.448 1100.19 556.448 1100.19C556.448 1100.19 536.688 1096.5 522.354 1105.79C515.835 1110.02 500.05 1135.7 482.295 1150.6C472.023 1159.22 453.823 1164.64 437.856 1156.78C414.952 1145.5 415.23 1135.05 397.54 1125.79C383.585 1118.49 359.007 1123.53 359.007 1123.53C359.007 1123.53 361.92 1095.89 389.322 1095.57C409.815 1095.33 410.515 1097.99 428.916 1082.21C435.873 1076.25 452.664 1076.35 457.385 1091.39C463.19 1109.87 436.521 1113.12 436.521 1113.12C436.521 1113.12 454.61 1105.18 450.8 1094.86C446.991 1084.53 436.398 1084.75 428.993 1088.77C425.084 1090.9 415.52 1105.25 395.608 1102.06C373.208 1098.47 366.592 1117.1 366.592 1117.1C366.592 1117.1 388.14 1114.66 394.33 1116.78C415.893 1124.15 419.276 1143.48 442.965 1151.06C458.276 1155.96 469.756 1151.65 477.898 1146.36C495.547 1133.03 505.068 1114.82 520.637 1100.61C533.354 1092.62 546.465 1096.23 546.465 1096.23C546.465 1096.23 531.124 1076.58 512.462 1074C486.701 1070.45 469.902 1081.74 460.049 1071.22C442.866 1052.87 426.416 1052.62 426.269 1053.51C425.503 1058.15 421.574 1064.57 415.091 1068.35C387.33 1084.51 372.767 1052.62 358.18 1052.26C345.105 1051.94 337.892 1060.69 333.299 1066.81C318.212 1086.89 319.751 1090.04 291.158 1096.71C250.841 1106.11 259.317 1108.65 237.348 1120.19C218.343 1128.54 209.384 1114.74 199.406 1124.19C180.47 1142.11 159.787 1150 139.083 1141.41C127.679 1136.67 128.885 1131.87 116.532 1121.59C113.265 1116.85 97.4315 1122.91 89.8582 1116.31C77.7166 1105.72 76.1002 1095.88 76.1002 1095.88C76.1002 1095.88 75.4025 1095.23 80.392 1095.83C111.126 1099.54 108.844 1069.32 130.517 1069.07C145.324 1068.9 151.661 1084.37 163.618 1091.82C172.26 1097.19 183.093 1099.72 183.093 1099.72C183.093 1099.72 174.387 1113.55 156.323 1110.45C148.346 1109.09 146.531 1117.43 138.785 1115.74C131.039 1114.05 127.17 1108.28 128.307 1101.88C129.444 1095.48 135.055 1095.2 136.821 1096.96C138.588 1098.71 136.877 1101.78 136.877 1101.78C136.877 1101.78 135.703 1097.79 133.24 1100.3C130.778 1102.81 132.583 1112.25 140.589 1110.64C144.783 1109.79 149.05 1105.12 154.556 1106.15C169.827 1109.03 176.537 1101.88 174.767 1101.34C145.691 1092.53 148.384 1073.69 131.861 1073.88C118.174 1074.04 116.499 1083.1 103.568 1095.56C95.2903 1103.54 86.7899 1099.34 81.7267 1099.88C81.7857 1104.96 92.9933 1116.58 105.074 1114.35C124.134 1110.84 124.374 1125.13 138.989 1133.28C151.95 1140.5 177.627 1138.63 195.503 1120.67C210.353 1105.76 224.927 1126.64 237.262 1112.82C246.05 1102.97 251.488 1099.43 251.488 1099.43C251.488 1099.43 232.437 1104.22 217.855 1086.47C206.796 1073.01 193.943 1078.83 180.115 1070.85C158.335 1058.27 153.377 1046.8 137.97 1045.54C115.628 1043.72 112.523 1053.52 101.465 1062.29C90.4061 1071.06 95.9947 1071.82 72.8189 1072.09C49.6432 1072.36 49.7548 1100.42 14.9674 1098.78L15.4658 2323.67L250.554 2327.56L580.134 2327.6Z" fill="url(#paint0_linear)" fill-opacity="0.74"/>
<path d="M817.5 2391.59L1689.62 2391.59L1919 2387.5L1919 1430L1919 1170.12C1856.18 1177.31 1848.03 1107.15 1796.03 1115.33C1744.04 1123.51 1749.82 1115.17 1730.49 1096.47C1708.68 1075.36 1683.9 1074.75 1668.23 1091.73C1658.03 1102.77 1655.01 1127.89 1662.52 1141.47C1667.31 1150.13 1676.78 1170.36 1703.85 1162.35C1726.81 1149.1 1704.43 1115.65 1695.97 1141.08C1695.97 1141.08 1689.27 1138.31 1692.25 1130.19C1694.82 1123.21 1702.47 1120.88 1708.1 1122.56C1713.74 1124.23 1720.5 1129.87 1720.67 1144.52C1720.83 1145.16 1743.13 1141.77 1761.15 1166.65C1768.52 1176.81 1796.35 1165.11 1816.87 1169.98C1839.84 1175.42 1861.96 1204.47 1861.96 1204.47C1861.96 1204.47 1840.52 1200.42 1824.98 1210.61C1817.91 1215.25 1800.8 1243.44 1781.54 1259.8C1770.41 1269.26 1750.67 1275.2 1733.35 1266.57C1708.51 1254.19 1708.81 1242.72 1689.62 1232.55C1674.49 1224.53 1647.83 1230.06 1647.83 1230.06C1647.83 1230.06 1650.99 1199.72 1680.71 1199.37C1702.93 1199.12 1703.69 1202.03 1723.64 1184.72C1731.19 1178.17 1749.4 1178.28 1754.52 1194.79C1760.82 1215.08 1731.9 1218.65 1731.9 1218.65C1731.9 1218.65 1751.51 1209.93 1747.38 1198.6C1743.25 1187.27 1731.76 1187.5 1723.73 1191.92C1719.49 1194.25 1709.12 1210 1687.52 1206.5C1663.23 1202.56 1656.06 1223.01 1656.06 1223.01C1656.06 1223.01 1679.43 1220.33 1686.14 1222.66C1709.53 1230.75 1713.2 1251.97 1738.89 1260.29C1755.5 1265.67 1767.95 1260.94 1776.78 1255.13C1795.91 1240.51 1806.23 1220.52 1823.12 1204.92C1836.91 1196.16 1851.13 1200.13 1851.13 1200.13C1851.13 1200.13 1834.49 1178.55 1814.25 1175.72C1786.31 1171.81 1768.09 1184.2 1757.41 1172.65C1738.77 1152.51 1720.93 1152.23 1720.77 1153.21C1719.94 1158.31 1715.68 1165.35 1708.65 1169.49C1678.54 1187.23 1662.74 1152.23 1646.92 1151.83C1632.74 1151.47 1624.92 1161.08 1619.94 1167.79C1603.58 1189.84 1605.25 1193.3 1574.24 1200.61C1530.52 1210.92 1523.38 1221.85 1516 1234.57C1502.21 1258.32 1485.51 1252.82 1478.65 1242.46C1471.79 1232.1 1468.37 1204.64 1431.27 1212.32C1405.54 1217.65 1409.17 1183.94 1383.33 1170.24C1357.48 1156.55 1352.07 1196.59 1323.64 1191.53C1303.54 1187.95 1299.16 1168.94 1299.16 1168.94C1289.38 1169.05 1278.01 1172 1268.56 1187.98C1257.76 1206.24 1233.15 1193.46 1213.11 1194.77C1193.06 1196.07 1173.28 1220.34 1173.28 1220.34C1205.7 1210.48 1223.59 1255.4 1248.25 1272.2C1283.15 1295.97 1314.81 1252.73 1314.81 1252.73C1332.89 1229.64 1365.28 1238.2 1365.28 1238.2C1351.28 1212.13 1335.97 1221.52 1325.46 1221.64C1314.07 1221.77 1307.09 1219.62 1292.26 1206.68C1286.79 1201.91 1274.94 1205.49 1274.26 1215.26C1273.01 1233.13 1290.02 1224.56 1290.02 1224.56C1290.02 1224.56 1282.62 1240.14 1271.45 1226.73C1261.52 1214.8 1272.06 1194.92 1287.02 1198.09C1305.24 1201.96 1304.16 1220.77 1332.71 1214.58C1366.93 1207.16 1371.54 1242.37 1371.7 1243.66C1371.28 1243.67 1370.86 1243.68 1370.88 1243.69C1368.07 1243.73 1360.85 1243.83 1344.06 1244.02C1323.23 1244.26 1323.44 1259.02 1291.64 1280.06C1253.04 1305.61 1220.57 1247.41 1204.27 1234.21C1190.21 1222.82 1175.26 1223.45 1168.41 1222.35C1165.57 1221.89 1173.1 1209.69 1193.54 1194.99C1213.97 1180.29 1255.43 1200.51 1262.42 1186.1C1271.95 1166.46 1299.07 1161.4 1299.07 1161.4C1299.07 1161.4 1300.4 1149.39 1307.67 1143.17C1318.32 1134.04 1332.4 1145.12 1321.53 1156.96C1321.53 1156.96 1324.64 1151.06 1319.96 1148.89C1312.34 1145.33 1306.87 1156.93 1306.41 1161.32C1304.4 1180.31 1326.73 1183.96 1337.68 1178.81C1348.63 1173.66 1366.01 1145 1354.12 1119.75C1340.48 1090.81 1301.26 1096.93 1275.71 1129.87C1260.73 1149.18 1237.83 1132.82 1210.72 1136.48C1181.05 1140.49 1178.05 1188.74 1154.98 1182.05C1130.12 1174.84 1113.44 1190.43 1099.66 1199.99C1074.3 1217.58 1053.79 1205.34 1044.53 1203.43C1027.66 1199.93 1014.12 1190.74 1003.3 1201.11C982.771 1220.78 960.341 1229.44 937.885 1220C925.516 1214.8 926.823 1209.53 913.425 1198.24C907.266 1193.79 892.71 1199.69 884.496 1192.44C871.326 1180.82 869.572 1170.02 869.572 1170.02C869.572 1170.02 868.815 1169.3 874.226 1169.96C907.558 1174.04 905.079 1140.87 928.584 1140.6C944.642 1140.41 951.518 1157.4 964.487 1165.57C973.86 1171.47 985.609 1174.25 985.609 1174.25C985.609 1174.25 976.168 1189.43 956.577 1186.03C947.927 1184.52 945.959 1193.68 937.558 1191.83C929.158 1189.97 924.96 1183.64 926.192 1176.61C927.425 1169.59 933.509 1169.27 935.425 1171.21C937.341 1173.14 935.487 1176.51 935.487 1176.51C935.487 1176.51 934.213 1172.12 931.543 1174.88C928.873 1177.64 930.831 1187.99 939.514 1186.22C944.063 1185.3 948.689 1180.17 954.661 1181.31C971.223 1184.46 978.499 1176.62 976.579 1176.03C945.044 1166.35 947.962 1145.67 930.042 1145.88C915.199 1146.05 913.383 1156 899.361 1169.67C890.385 1178.42 881.166 1173.81 875.675 1174.41C875.74 1179.99 887.896 1192.74 900.997 1190.3C921.668 1186.45 921.931 1202.14 937.782 1211.07C951.839 1219 979.687 1216.95 999.07 1197.25C1015.17 1180.88 1030.98 1203.8 1044.36 1188.63C1053.89 1177.83 1059.78 1173.94 1059.78 1173.94C1059.78 1173.94 1039.12 1179.2 1023.31 1159.71C1011.31 1144.94 997.373 1151.32 982.375 1142.55C958.752 1128.74 953.374 1116.15 936.664 1114.77C912.433 1112.76 909.067 1123.52 897.075 1133.15C885.083 1142.77 891.145 1143.61 866.01 1143.9C840.875 1144.19 841.001 1174.99 803.273 1173.19C731.025 1169.75 739.895 1109.48 687.901 1117.66C635.906 1125.83 641.69 1117.5 622.361 1098.8C600.545 1077.69 575.772 1077.08 560.097 1094.05C549.897 1105.1 546.881 1130.22 554.388 1143.79C559.18 1152.46 568.643 1172.69 595.718 1164.67C618.674 1151.42 596.298 1117.97 587.837 1143.41C587.837 1143.41 581.136 1140.64 584.118 1132.52C586.684 1125.54 594.338 1123.21 599.97 1124.89C605.603 1126.56 612.365 1132.19 612.535 1146.85C612.701 1147.49 634.995 1144.1 653.021 1168.98C660.388 1179.14 688.215 1167.44 708.744 1172.3C731.709 1177.75 753.825 1206.8 753.825 1206.8C753.825 1206.8 732.394 1202.75 716.85 1212.94C709.781 1217.58 692.665 1245.77 673.412 1262.13C662.274 1271.59 642.536 1277.53 625.218 1268.9C600.376 1256.52 600.676 1245.05 581.49 1234.88C566.354 1226.86 539.699 1232.38 539.699 1232.38C539.699 1232.38 542.854 1202.05 572.572 1201.7C594.797 1201.44 595.557 1204.36 615.511 1187.05C623.055 1180.5 641.265 1180.61 646.388 1197.12C652.686 1217.41 623.763 1220.98 623.763 1220.98C623.763 1220.98 643.379 1212.26 639.247 1200.93C635.114 1189.59 623.626 1189.83 615.595 1194.25C611.356 1196.58 600.986 1212.33 579.391 1208.83C555.097 1204.89 547.925 1225.33 547.925 1225.33C547.925 1225.33 571.293 1222.66 578.007 1224.99C601.393 1233.08 605.065 1254.3 630.758 1262.62C647.363 1268 659.813 1263.27 668.642 1257.46C687.781 1242.84 698.105 1222.85 714.987 1207.25C728.778 1198.49 742.998 1202.46 742.998 1202.46C742.998 1202.46 726.357 1180.88 706.117 1178.05C678.178 1174.14 659.96 1186.53 649.274 1174.98C630.636 1154.84 612.795 1154.56 612.636 1155.54C611.805 1160.64 607.545 1167.68 600.515 1171.82C570.41 1189.56 554.611 1154.56 538.791 1154.16C524.611 1153.8 516.79 1163.41 511.809 1170.12C495.45 1192.17 497.12 1195.62 466.111 1202.94C422.388 1213.25 431.581 1216.04 407.756 1228.7C387.147 1237.87 377.428 1222.72 366.608 1233.09C346.075 1252.76 323.645 1261.42 301.189 1251.98C288.82 1246.78 290.128 1241.51 276.73 1230.22C273.185 1225.02 256.015 1231.67 247.8 1224.42C234.631 1212.8 232.876 1202 232.876 1202C232.876 1202 232.119 1201.28 237.531 1201.94C270.863 1206.02 268.383 1172.85 291.889 1172.57C307.947 1172.39 314.821 1189.38 327.79 1197.55C337.164 1203.45 348.913 1206.23 348.913 1206.23C348.913 1206.23 339.473 1221.4 319.881 1218C311.231 1216.5 309.263 1225.66 300.862 1223.81C292.462 1221.95 288.264 1215.62 289.497 1208.59C290.729 1201.57 296.814 1201.25 298.73 1203.18C300.645 1205.12 298.791 1208.48 298.791 1208.48C298.791 1208.48 297.517 1204.1 294.847 1206.86C292.177 1209.61 294.135 1219.97 302.818 1218.2C307.367 1217.28 311.993 1212.15 317.965 1213.28C334.527 1216.44 341.803 1208.6 339.883 1208.01C308.348 1198.33 311.266 1177.65 293.346 1177.86C278.502 1178.03 276.688 1187.98 262.666 1201.65C253.69 1210.4 244.47 1205.79 238.979 1206.39C239.044 1211.97 251.2 1224.72 264.302 1222.28C284.972 1218.42 285.235 1234.11 301.086 1243.05C315.143 1250.98 342.991 1248.93 362.374 1229.23C378.478 1212.86 394.287 1235.78 407.662 1220.61C417.192 1209.8 423.089 1205.92 423.089 1205.92C423.089 1205.92 402.428 1211.17 386.611 1191.69C374.616 1176.92 360.677 1183.3 345.679 1174.53C322.056 1160.72 316.678 1148.13 299.968 1146.75C275.737 1144.74 272.371 1155.5 260.379 1165.13C248.387 1174.75 254.448 1175.59 229.314 1175.88C204.179 1176.17 204.305 1206.97 166.577 1205.17L167.058 2391.59L423.09 2391.59L817.5 2391.59Z" fill="url(#paint1_linear)"/>
<path d="M0 -2135.08V464.441C0 464.441 100 344.941 288.5 344.941C477 344.941 495.5 464.441 663.5 464.441C831.5 464.441 862 169.941 1141 260.941C1420 351.941 1483.5 59.4409 1655 28.9409C1826.5 -1.55908 1920 109.941 1920 109.941V-982.557V-1661.5C1920 -1661.5 1640.78 -1884.07 1842.88 -2003.08C1875.46 -2022.26 1920 -2045.94 1920 -2045.94V-2524C1920 -2524 1880.12 -2362.08 1551.15 -2378.07C1222.18 -2394.06 1059.36 -2322.87 842.7 -2113.93C626.044 -1904.99 410.717 -1987.02 226.625 -2135.08C97.697 -2238.78 0 -2135.08 0 -2135.08Z" fill="white"/>
<path fill-rule="evenodd" clip-rule="evenodd" d="M0 1043L52.8 1097.71C107.2 1152.43 212.8 1261.86 320 1302.89C427.2 1343.93 532.8 1316.57 640 1275.54C747.2 1234.5 852.8 1179.79 960 1186.62C1067.2 1193.46 1172.8 1261.86 1280 1309.73C1387.2 1357.61 1492.8 1384.96 1600 1357.61C1707.2 1330.25 1812.8 1248.18 1867.2 1207.14L1920 1166.11V2391H1867.2C1812.8 2391 1707.2 2391 1600 2391C1492.8 2391 1387.2 2391 1280 2391C1172.8 2391 1067.2 2391 960 2391C852.8 2391 747.2 2391 640 2391C532.8 2391 427.2 2391 320 2391C212.8 2391 107.2 2391 52.8 2391H0V1043Z" fill="white"/>
<path d="M1547.73 299.671C1533.75 275.234 1504.81 276.849 1490 276.115C1490 276.115 1516 244.841 1537.58 244.841C1610.19 244.841 1585.16 195.871 1637.48 202.585C1689.79 209.299 1683.89 201.969 1703.08 185.193C1724.75 166.258 1749.62 165.463 1765.56 180.35C1775.93 190.036 1779.26 212.271 1771.87 224.38C1767.16 232.11 1757.89 250.139 1730.61 243.312C1707.4 231.804 1729.48 201.924 1738.28 224.38C1738.28 224.38 1744.97 221.858 1741.88 214.693C1739.22 208.529 1731.51 206.547 1725.87 208.089C1720.24 209.63 1713.51 214.693 1713.51 227.682C1713.35 228.253 1690.92 225.48 1673.11 247.715C1665.83 256.802 1637.74 246.711 1617.18 251.238C1594.18 256.301 1572.31 282.279 1572.31 282.279C1572.31 282.279 1593.78 278.466 1609.51 287.342C1616.67 291.379 1634.18 316.193 1653.71 330.492C1665.01 338.763 1684.9 343.823 1702.2 335.995C1727 324.768 1726.57 314.604 1745.72 305.395C1760.83 298.13 1787.66 302.753 1787.66 302.753C1787.66 302.753 1784.14 275.895 1754.29 275.895C1731.96 275.895 1731.23 278.488 1710.99 263.346C1703.34 257.622 1685.05 257.907 1680.1 272.592C1674.01 290.645 1703.1 293.507 1703.1 293.507C1703.1 293.507 1683.29 285.983 1687.31 275.895C1691.33 265.806 1702.87 265.899 1710.99 269.73C1715.27 271.753 1725.87 285.606 1747.52 282.279C1771.87 278.536 1779.32 296.589 1779.32 296.589C1779.32 296.589 1755.82 294.46 1749.1 296.589C1725.71 304.004 1722.26 322.849 1696.56 330.492C1679.94 335.431 1667.38 331.365 1658.45 326.309C1639.06 313.54 1628.46 295.928 1611.32 282.279C1597.37 274.654 1583.13 278.316 1583.13 278.316C1583.13 278.316 1599.59 259.018 1619.89 256.301C1647.9 252.551 1666.34 263.346 1676.94 252.999C1695.42 234.953 1713.34 234.524 1713.51 235.387C1714.4 239.899 1718.76 246.098 1725.87 249.697C1756.32 265.107 1771.78 233.923 1787.66 233.406C1801.9 232.942 1809.86 241.376 1814.95 247.275C1831.63 266.648 1824.64 276.115 1869.52 276.115C1914.39 276.115 1905.82 312.439 1904.47 312.439C1903.12 312.439 1870.42 280.958 1856.44 312.439C1845.25 337.624 1812.99 336.582 1798.26 332.913C1769.57 327.277 1753.15 338.197 1737.37 360.872C1717.3 389.712 1665.82 391.033 1637.48 360.872C1612.45 334.234 1611.54 331.592 1583.13 327.63C1560.4 324.459 1550.06 307.669 1547.73 299.671Z" fill="url(#paint2_linear)" fill-opacity="0.37"/>
<defs>
<linearGradient id="paint0_linear" x1="887.74" y1="972.762" x2="1399.85" y2="1437.06" gradientUnits="userSpaceOnUse">
<stop stop-color="#69D8FF"/>
<stop offset="1" stop-color="#69D8FF" stop-opacity="0.31"/>
</linearGradient>
<linearGradient id="paint1_linear" x1="1034.86" y1="1076.87" x2="1043" y2="1477" gradientUnits="userSpaceOnUse">
<stop stop-color="#96E3FF"/>
<stop offset="1" stop-color="#7FDDFF" stop-opacity="0.31"/>
</linearGradient>
<linearGradient id="paint2_linear" x1="1698" y1="170" x2="1698" y2="383" gradientUnits="userSpaceOnUse">
<stop stop-color="#D8F2FF"/>
<stop offset="1" stop-color="#D8F2FF" stop-opacity="0.21"/>
</linearGradient>
</defs>
</svg>
