<svg width="1920" height="1592" viewBox="0 0 1920 1592" fill="none" xmlns="http://www.w3.org/2000/svg">
<rect width="1920" height="5400" transform="translate(0 -3006)" fill="#9BA9FF"/>
<path d="M580.134 2330.6L1400.11 2330.69L1919.29 2326.87L1919.16 1142.2C1903.6 1139.02 1876.69 1125.61 1866.71 1135.06C1847.77 1152.98 1827.09 1160.87 1806.39 1152.28C1794.98 1147.54 1796.19 1142.74 1783.84 1132.46C1778.25 1127.82 1764.74 1133.78 1757.16 1127.18C1745.02 1116.59 1743.4 1106.75 1743.4 1106.75C1743.4 1106.75 1742.71 1106.1 1747.7 1106.7C1778.43 1110.41 1776.15 1080.19 1797.82 1079.94C1812.63 1079.77 1818.96 1095.24 1830.92 1102.68C1839.56 1108.06 1850.4 1110.59 1850.4 1110.59C1850.4 1110.59 1841.69 1124.42 1823.63 1121.32C1815.65 1119.96 1813.83 1128.3 1806.09 1126.61C1798.34 1124.92 1794.47 1119.15 1795.61 1112.75C1796.75 1106.35 1802.36 1106.07 1804.12 1107.82C1805.89 1109.58 1804.18 1112.65 1804.18 1112.65C1804.18 1112.65 1803.01 1108.66 1800.54 1111.17C1798.08 1113.68 1799.89 1123.12 1807.89 1121.5C1812.09 1120.66 1816.35 1115.99 1821.86 1117.02C1837.13 1119.89 1843.84 1112.75 1842.07 1112.21C1812.99 1103.4 1815.69 1084.56 1799.16 1084.75C1785.48 1084.91 1783.8 1093.97 1770.87 1106.43C1762.59 1114.41 1754.09 1110.21 1749.03 1110.75C1749.09 1115.83 1760.3 1127.45 1772.38 1125.22C1791.44 1121.71 1791.68 1136 1806.29 1144.14C1819.25 1151.36 1844.93 1149.49 1862.81 1131.54C1877.66 1116.63 1892.23 1137.51 1904.57 1123.69C1913.35 1113.84 1918.79 1110.3 1918.79 1110.3C1918.79 1110.3 1899.74 1115.09 1885.16 1097.34C1875.14 1085.15 1861.25 1089.7 1847.42 1081.71C1825.64 1069.14 1821.17 1057.73 1805.27 1056.41C1786.13 1054.82 1779.83 1064.39 1768.77 1073.16C1757.71 1081.93 1763.3 1082.69 1740.12 1082.96C1716.95 1083.23 1717.05 1110.3 1682.26 1108.67C1682.26 1108.67 1681.74 1063.75 1623.82 1070.31C1565.89 1076.86 1565.39 1012.27 1517.44 1019.73C1469.5 1027.18 1474.84 1019.59 1457.02 1002.55C1436.9 983.326 1414.06 982.774 1399.6 998.241C1390.2 1008.31 1387.41 1031.19 1394.33 1043.56C1398.75 1051.45 1407.47 1069.88 1432.44 1062.57C1453.61 1050.5 1432.98 1020.03 1425.18 1043.2C1425.18 1043.2 1419 1040.68 1421.75 1033.28C1424.12 1026.92 1431.17 1024.8 1436.37 1026.32C1441.56 1027.85 1447.79 1032.98 1447.95 1046.33C1448.1 1046.91 1468.66 1043.82 1485.28 1066.48C1492.07 1075.74 1517.73 1065.07 1536.65 1069.51C1557.83 1074.47 1578.22 1100.93 1578.22 1100.93C1578.22 1100.93 1558.46 1097.24 1544.12 1106.53C1537.6 1110.75 1521.82 1136.44 1504.07 1151.34C1493.79 1159.96 1475.59 1165.37 1459.63 1157.51C1436.72 1146.24 1437 1135.79 1419.31 1126.53C1405.36 1119.23 1380.78 1124.26 1380.78 1124.26C1380.78 1124.26 1383.69 1096.62 1411.09 1096.31C1431.59 1096.07 1432.29 1098.73 1450.69 1082.95C1457.64 1076.99 1474.44 1077.08 1479.16 1092.12C1484.96 1110.61 1458.29 1113.86 1458.29 1113.86C1458.29 1113.86 1476.38 1105.92 1472.57 1095.59C1468.76 1085.27 1458.17 1085.49 1450.76 1089.51C1446.86 1091.63 1437.29 1105.98 1417.38 1102.79C1394.98 1099.21 1388.36 1117.84 1388.36 1117.84C1388.36 1117.84 1409.91 1115.4 1416.1 1117.52C1437.66 1124.89 1441.05 1144.22 1464.74 1151.8C1480.05 1156.7 1491.53 1152.38 1499.67 1147.09C1517.32 1133.76 1526.84 1115.55 1542.41 1101.34C1555.12 1093.36 1568.23 1096.97 1568.23 1096.97C1568.23 1096.97 1552.89 1077.32 1534.23 1074.74C1508.47 1071.18 1491.67 1082.47 1481.82 1071.95C1464.64 1053.61 1448.19 1053.36 1448.04 1054.25C1447.27 1058.89 1443.35 1065.31 1436.86 1069.08C1409.1 1085.24 1394.54 1053.36 1379.95 1053C1366.88 1052.67 1359.66 1061.43 1355.07 1067.54C1339.98 1087.63 1341.52 1090.78 1312.93 1097.45C1272.61 1106.85 1266.02 1116.81 1259.22 1128.39C1246.51 1150.03 1231.1 1145.02 1224.78 1135.58C1218.45 1126.15 1215.3 1101.13 1181.1 1108.13C1157.37 1112.99 1160.72 1082.28 1136.89 1069.81C1113.06 1057.33 1108.07 1093.82 1081.86 1089.21C1063.32 1085.95 1059.29 1068.63 1059.29 1068.63C1050.27 1068.73 1039.78 1071.42 1031.07 1085.98C1021.11 1102.62 998.419 1090.98 979.937 1092.17C961.455 1093.36 943.215 1115.47 943.215 1115.47C973.111 1106.48 989.6 1147.41 1012.33 1162.7C1044.51 1184.35 1073.71 1144.96 1073.71 1144.96C1090.38 1123.93 1120.24 1131.71 1120.24 1131.71C1107.34 1107.97 1093.23 1116.52 1083.53 1116.64C1073.03 1116.76 1066.59 1114.8 1052.92 1103.01C1047.88 1098.66 1036.95 1101.93 1036.32 1110.83C1035.16 1127.11 1050.85 1119.3 1050.85 1119.3C1050.85 1119.3 1044.02 1133.5 1033.73 1121.28C1024.58 1110.42 1034.3 1092.3 1048.09 1095.19C1064.89 1098.71 1063.89 1115.85 1090.22 1110.2C1121.77 1103.44 1126.02 1135.51 1126.16 1136.7C1125.78 1136.7 1125.39 1136.71 1125.41 1136.72C1122.82 1136.76 1116.16 1136.84 1100.68 1137.02C1081.47 1137.25 1081.67 1150.69 1052.34 1169.86C1016.75 1193.14 986.809 1140.13 971.782 1128.1C958.822 1117.73 945.039 1118.3 938.725 1117.3C936.105 1116.89 943.051 1105.77 961.894 1092.38C980.738 1078.99 1018.96 1097.39 1025.41 1084.27C1034.2 1066.38 1059.21 1061.77 1059.21 1061.77C1059.21 1061.77 1060.43 1050.82 1067.13 1045.15C1076.96 1036.84 1089.94 1046.92 1079.91 1057.71C1079.91 1057.71 1082.78 1052.34 1078.47 1050.36C1071.44 1047.12 1066.4 1057.69 1065.97 1061.69C1064.12 1078.99 1084.71 1082.31 1094.8 1077.62C1104.9 1072.93 1120.93 1046.82 1109.97 1023.81C1097.4 997.448 1061.23 1003.03 1037.67 1033.04C1023.86 1050.63 1002.74 1035.73 977.741 1039.07C950.389 1042.73 947.617 1086.68 926.344 1080.59C903.425 1074.03 888.038 1088.23 875.331 1096.94C851.943 1112.97 833.038 1101.83 824.497 1100.08C808.942 1096.9 796.463 1088.53 786.485 1097.97C767.549 1115.9 746.866 1123.79 726.162 1115.19C714.758 1110.46 715.964 1105.65 703.611 1095.38C697.933 1091.32 684.511 1096.7 676.937 1090.09C664.796 1079.51 663.179 1069.67 663.179 1069.67C663.179 1069.67 662.482 1069.01 667.471 1069.62C698.205 1073.33 695.922 1043.11 717.596 1042.86C732.403 1042.68 738.74 1058.16 750.697 1065.6C759.339 1070.98 770.172 1073.51 770.172 1073.51C770.172 1073.51 761.465 1087.33 743.401 1084.24C735.425 1082.87 733.61 1091.22 725.864 1089.53C718.118 1087.84 714.249 1082.07 715.386 1075.67C716.523 1069.27 722.133 1068.98 723.9 1070.74C725.666 1072.5 723.956 1075.57 723.956 1075.57C723.956 1075.57 722.782 1071.57 720.319 1074.09C717.857 1076.6 719.662 1086.03 727.668 1084.42C731.862 1083.58 736.128 1078.9 741.635 1079.94C756.906 1082.81 763.615 1075.67 761.846 1075.13C732.77 1066.32 735.463 1047.48 718.939 1047.67C705.253 1047.83 703.578 1056.89 690.647 1069.35C682.369 1077.32 673.869 1073.12 668.806 1073.67C668.865 1078.75 680.072 1090.36 692.153 1088.14C711.213 1084.63 711.453 1098.92 726.067 1107.06C739.028 1114.28 764.706 1112.41 782.581 1094.46C797.432 1079.55 812.006 1100.43 824.341 1086.6C833.129 1076.76 838.565 1073.22 838.565 1073.22C838.565 1073.22 819.516 1078.01 804.934 1060.26C793.875 1046.8 781.022 1052.62 767.194 1044.63C745.414 1032.06 740.456 1020.58 725.049 1019.33C702.707 1017.5 699.602 1027.31 688.544 1036.08C677.485 1044.85 683.074 1045.61 659.898 1045.88C636.722 1046.15 636.834 1074.2 602.047 1072.57C535.429 1069.44 543.616 1014.53 495.673 1021.99C447.73 1029.45 453.064 1021.85 435.244 1004.82C415.131 985.589 392.289 985.037 377.833 1000.5C368.426 1010.57 365.642 1033.45 372.562 1045.82C376.98 1053.71 385.703 1072.14 410.668 1064.83C431.837 1052.76 411.209 1022.29 403.404 1045.46C403.404 1045.46 397.226 1042.94 399.977 1035.54C402.344 1029.18 409.401 1027.06 414.595 1028.59C419.788 1030.11 426.022 1035.24 426.177 1048.59C426.33 1049.18 446.888 1046.09 463.506 1068.75C470.297 1078.01 495.956 1067.34 514.885 1071.77C536.06 1076.73 556.448 1103.19 556.448 1103.19C556.448 1103.19 536.688 1099.5 522.354 1108.79C515.835 1113.02 500.05 1138.7 482.295 1153.6C472.023 1162.22 453.823 1167.64 437.856 1159.78C414.952 1148.5 415.23 1138.05 397.54 1128.79C383.585 1121.49 359.007 1126.53 359.007 1126.53C359.007 1126.53 361.92 1098.89 389.322 1098.57C409.815 1098.33 410.515 1100.99 428.916 1085.21C435.873 1079.25 452.664 1079.35 457.385 1094.39C463.19 1112.87 436.521 1116.12 436.521 1116.12C436.521 1116.12 454.61 1108.18 450.8 1097.86C446.991 1087.53 436.398 1087.75 428.993 1091.77C425.084 1093.9 415.52 1108.25 395.608 1105.06C373.208 1101.47 366.592 1120.1 366.592 1120.1C366.592 1120.1 388.14 1117.66 394.33 1119.78C415.893 1127.15 419.276 1146.48 442.965 1154.06C458.276 1158.96 469.756 1154.65 477.898 1149.36C495.547 1136.03 505.068 1117.82 520.637 1103.61C533.354 1095.62 546.465 1099.23 546.465 1099.23C546.465 1099.23 531.124 1079.58 512.462 1077C486.701 1073.45 469.902 1084.74 460.049 1074.22C442.866 1055.87 426.416 1055.62 426.269 1056.51C425.503 1061.15 421.574 1067.57 415.091 1071.35C387.33 1087.51 372.767 1055.62 358.18 1055.26C345.105 1054.94 337.892 1063.69 333.299 1069.81C318.212 1089.89 319.751 1093.04 291.158 1099.71C250.841 1109.11 259.317 1111.65 237.348 1123.19C218.343 1131.54 209.384 1117.74 199.406 1127.19C180.47 1145.11 159.787 1153 139.083 1144.41C127.679 1139.67 128.885 1134.87 116.532 1124.59C113.265 1119.85 97.4315 1125.91 89.8582 1119.31C77.7166 1108.72 76.1002 1098.88 76.1002 1098.88C76.1002 1098.88 75.4025 1098.23 80.392 1098.83C111.126 1102.54 108.844 1072.32 130.517 1072.07C145.324 1071.9 151.661 1087.37 163.618 1094.82C172.26 1100.19 183.093 1102.72 183.093 1102.72C183.093 1102.72 174.387 1116.55 156.323 1113.45C148.346 1112.09 146.531 1120.43 138.785 1118.74C131.039 1117.05 127.17 1111.28 128.307 1104.88C129.444 1098.48 135.055 1098.2 136.821 1099.96C138.588 1101.71 136.877 1104.78 136.877 1104.78C136.877 1104.78 135.703 1100.79 133.24 1103.3C130.778 1105.81 132.583 1115.25 140.589 1113.64C144.783 1112.79 149.05 1108.12 154.556 1109.15C169.827 1112.03 176.537 1104.88 174.767 1104.34C145.691 1095.53 148.384 1076.69 131.861 1076.88C118.174 1077.04 116.499 1086.1 103.568 1098.56C95.2903 1106.54 86.7899 1102.34 81.7267 1102.88C81.7857 1107.96 92.9933 1119.58 105.074 1117.35C124.134 1113.84 124.374 1128.13 138.989 1136.28C151.95 1143.5 177.627 1141.63 195.503 1123.67C210.353 1108.76 224.927 1129.64 237.262 1115.82C246.05 1105.97 251.488 1102.43 251.488 1102.43C251.488 1102.43 232.437 1107.22 217.855 1089.47C206.796 1076.01 193.943 1081.83 180.115 1073.85C158.335 1061.27 153.377 1049.8 137.97 1048.54C115.628 1046.72 112.523 1056.52 101.465 1065.29C90.4061 1074.06 95.9947 1074.82 72.8189 1075.09C49.6432 1075.36 49.7548 1103.42 14.9674 1101.78L15.4658 2326.67L250.554 2330.56L580.134 2330.6Z" fill="url(#paint0_linear)" fill-opacity="0.74"/>
<path d="M817.5 2394.58L1689.62 2394.58L1919 2390.5L1919 1433L1919 1173.12C1856.18 1180.3 1848.03 1110.15 1796.03 1118.33C1744.04 1126.51 1749.82 1118.17 1730.49 1099.47C1708.68 1078.36 1683.9 1077.75 1668.23 1094.73C1658.03 1105.77 1655.01 1130.89 1662.52 1144.47C1667.31 1153.13 1676.78 1173.36 1703.85 1165.35C1726.81 1152.1 1704.43 1118.65 1695.97 1144.08C1695.97 1144.08 1689.27 1141.31 1692.25 1133.19C1694.82 1126.21 1702.47 1123.88 1708.1 1125.56C1713.74 1127.23 1720.5 1132.86 1720.67 1147.52C1720.83 1148.16 1743.13 1144.77 1761.15 1169.65C1768.52 1179.81 1796.35 1168.11 1816.87 1172.97C1839.84 1178.42 1861.96 1207.47 1861.96 1207.47C1861.96 1207.47 1840.52 1203.42 1824.98 1213.61C1817.91 1218.25 1800.8 1246.44 1781.54 1262.8C1770.41 1272.26 1750.67 1278.2 1733.35 1269.57C1708.51 1257.19 1708.81 1245.72 1689.62 1235.55C1674.49 1227.53 1647.83 1233.06 1647.83 1233.06C1647.83 1233.06 1650.99 1202.72 1680.71 1202.37C1702.93 1202.11 1703.69 1205.03 1723.64 1187.72C1731.19 1181.17 1749.4 1181.28 1754.52 1197.79C1760.82 1218.08 1731.9 1221.65 1731.9 1221.65C1731.9 1221.65 1751.51 1212.93 1747.38 1201.6C1743.25 1190.27 1731.76 1190.5 1723.73 1194.92C1719.49 1197.25 1709.12 1213 1687.52 1209.5C1663.23 1205.56 1656.06 1226.01 1656.06 1226.01C1656.06 1226.01 1679.43 1223.33 1686.14 1225.66C1709.53 1233.75 1713.2 1254.97 1738.89 1263.29C1755.5 1268.67 1767.95 1263.94 1776.78 1258.13C1795.91 1243.51 1806.23 1223.52 1823.12 1207.92C1836.91 1199.16 1851.13 1203.13 1851.13 1203.13C1851.13 1203.13 1834.49 1181.55 1814.25 1178.72C1786.31 1174.81 1768.09 1187.2 1757.41 1175.65C1738.77 1155.51 1720.93 1155.23 1720.77 1156.21C1719.94 1161.31 1715.68 1168.35 1708.65 1172.49C1678.54 1190.23 1662.74 1155.23 1646.92 1154.83C1632.74 1154.47 1624.92 1164.08 1619.94 1170.79C1603.58 1192.84 1605.25 1196.29 1574.24 1203.61C1530.52 1213.92 1523.38 1224.85 1516 1237.57C1502.21 1261.32 1485.51 1255.82 1478.65 1245.46C1471.79 1235.1 1468.37 1207.64 1431.27 1215.32C1405.54 1220.65 1409.17 1186.94 1383.33 1173.24C1357.48 1159.55 1352.07 1199.59 1323.64 1194.53C1303.54 1190.95 1299.16 1171.94 1299.16 1171.94C1289.38 1172.05 1278.01 1175 1268.56 1190.98C1257.76 1209.24 1233.15 1196.46 1213.11 1197.76C1193.06 1199.07 1173.28 1223.34 1173.28 1223.34C1205.7 1213.47 1223.59 1258.4 1248.25 1275.2C1283.15 1298.97 1314.81 1255.73 1314.81 1255.73C1332.89 1232.64 1365.28 1241.2 1365.28 1241.2C1351.28 1215.13 1335.97 1224.52 1325.46 1224.64C1314.07 1224.77 1307.09 1222.62 1292.26 1209.68C1286.79 1204.91 1274.94 1208.49 1274.26 1218.26C1273.01 1236.13 1290.02 1227.56 1290.02 1227.56C1290.02 1227.56 1282.62 1243.14 1271.45 1229.73C1261.52 1217.8 1272.06 1197.92 1287.02 1201.09C1305.24 1204.96 1304.16 1223.77 1332.71 1217.58C1366.93 1210.16 1371.54 1245.37 1371.7 1246.66C1371.28 1246.67 1370.86 1246.68 1370.88 1246.69C1368.07 1246.73 1360.85 1246.83 1344.06 1247.02C1323.23 1247.26 1323.44 1262.02 1291.64 1283.06C1253.04 1308.61 1220.57 1250.41 1204.27 1237.21C1190.21 1225.82 1175.26 1226.45 1168.41 1225.35C1165.57 1224.89 1173.1 1212.69 1193.54 1197.99C1213.97 1183.29 1255.43 1203.51 1262.42 1189.1C1271.95 1169.46 1299.07 1164.4 1299.07 1164.4C1299.07 1164.4 1300.4 1152.39 1307.67 1146.17C1318.32 1137.04 1332.4 1148.11 1321.53 1159.96C1321.53 1159.96 1324.64 1154.06 1319.96 1151.89C1312.34 1148.33 1306.87 1159.93 1306.41 1164.32C1304.4 1183.31 1326.73 1186.96 1337.68 1181.81C1348.63 1176.66 1366.01 1148 1354.12 1122.75C1340.48 1093.81 1301.26 1099.93 1275.71 1132.87C1260.73 1152.18 1237.83 1135.82 1210.72 1139.48C1181.05 1143.49 1178.05 1191.74 1154.98 1185.05C1130.12 1177.84 1113.44 1193.43 1099.66 1202.99C1074.3 1220.58 1053.79 1208.34 1044.53 1206.43C1027.66 1202.93 1014.12 1193.74 1003.3 1204.11C982.771 1223.78 960.341 1232.44 937.885 1223C925.516 1217.8 926.823 1212.53 913.425 1201.24C907.266 1196.79 892.71 1202.69 884.496 1195.44C871.326 1183.82 869.572 1173.02 869.572 1173.02C869.572 1173.02 868.815 1172.3 874.226 1172.96C907.558 1177.04 905.079 1143.87 928.584 1143.59C944.642 1143.41 951.518 1160.4 964.487 1168.57C973.86 1174.47 985.609 1177.25 985.609 1177.25C985.609 1177.25 976.168 1192.42 956.577 1189.02C947.927 1187.52 945.959 1196.68 937.558 1194.83C929.158 1192.97 924.96 1186.64 926.192 1179.61C927.425 1172.59 933.509 1172.27 935.425 1174.2C937.341 1176.14 935.487 1179.5 935.487 1179.5C935.487 1179.5 934.213 1175.12 931.543 1177.88C928.873 1180.64 930.831 1190.99 939.514 1189.22C944.063 1188.3 948.689 1183.17 954.661 1184.3C971.223 1187.46 978.499 1179.62 976.579 1179.03C945.044 1169.35 947.962 1148.67 930.042 1148.88C915.199 1149.05 913.383 1159 899.361 1172.67C890.385 1181.42 881.166 1176.81 875.675 1177.41C875.74 1182.99 887.896 1195.74 900.997 1193.3C921.668 1189.45 921.931 1205.13 937.782 1214.07C951.839 1222 979.687 1219.95 999.07 1200.25C1015.17 1183.88 1030.98 1206.8 1044.36 1191.63C1053.89 1180.82 1059.78 1176.94 1059.78 1176.94C1059.78 1176.94 1039.12 1182.19 1023.31 1162.71C1011.31 1147.94 997.373 1154.32 982.375 1145.55C958.752 1131.74 953.374 1119.15 936.664 1117.77C912.433 1115.76 909.067 1126.52 897.075 1136.15C885.083 1145.77 891.145 1146.61 866.01 1146.9C840.875 1147.19 841.001 1177.99 803.273 1176.19C731.025 1172.75 739.895 1112.48 687.901 1120.66C635.906 1128.83 641.69 1120.5 622.361 1101.79C600.545 1080.69 575.772 1080.08 560.097 1097.05C549.897 1108.1 546.881 1133.22 554.388 1146.79C559.18 1155.46 568.643 1175.69 595.718 1167.67C618.674 1154.42 596.298 1120.97 587.837 1146.41C587.837 1146.41 581.136 1143.64 584.118 1135.52C586.684 1128.54 594.338 1126.21 599.97 1127.89C605.603 1129.56 612.365 1135.19 612.535 1149.84C612.701 1150.49 634.995 1147.1 653.021 1171.98C660.388 1182.14 688.215 1170.43 708.744 1175.3C731.709 1180.75 753.825 1209.8 753.825 1209.8C753.825 1209.8 732.394 1205.75 716.85 1215.94C709.781 1220.58 692.665 1248.77 673.412 1265.13C662.274 1274.59 642.536 1280.52 625.218 1271.89C600.376 1259.52 600.676 1248.05 581.49 1237.88C566.354 1229.86 539.699 1235.38 539.699 1235.38C539.699 1235.38 542.854 1205.05 572.572 1204.7C594.797 1204.44 595.557 1207.36 615.511 1190.05C623.055 1183.5 641.265 1183.61 646.388 1200.12C652.686 1220.41 623.763 1223.98 623.763 1223.98C623.763 1223.98 643.379 1215.26 639.247 1203.93C635.114 1192.59 623.626 1192.83 615.595 1197.25C611.356 1199.58 600.986 1215.33 579.391 1211.82C555.097 1207.88 547.925 1228.33 547.925 1228.33C547.925 1228.33 571.293 1225.66 578.007 1227.98C601.393 1236.08 605.065 1257.3 630.758 1265.62C647.363 1271 659.813 1266.27 668.642 1260.46C687.781 1245.83 698.105 1225.85 714.987 1210.25C728.778 1201.49 742.998 1205.45 742.998 1205.45C742.998 1205.45 726.357 1183.88 706.117 1181.05C678.178 1177.14 659.96 1189.53 649.274 1177.98C630.636 1157.84 612.795 1157.56 612.636 1158.54C611.805 1163.64 607.545 1170.68 600.515 1174.82C570.41 1192.56 554.611 1157.56 538.791 1157.16C524.611 1156.8 516.79 1166.4 511.809 1173.12C495.45 1195.16 497.12 1198.62 466.111 1205.94C422.388 1216.25 431.581 1219.04 407.756 1231.7C387.147 1240.87 377.428 1225.72 366.608 1236.08C346.075 1255.76 323.645 1264.42 301.189 1254.98C288.82 1249.78 290.128 1244.51 276.73 1233.22C273.185 1228.02 256.015 1234.67 247.8 1227.42C234.631 1215.8 232.876 1204.99 232.876 1204.99C232.876 1204.99 232.119 1204.28 237.531 1204.94C270.863 1209.02 268.383 1175.85 291.889 1175.57C307.947 1175.39 314.821 1192.38 327.79 1200.55C337.164 1206.45 348.913 1209.23 348.913 1209.23C348.913 1209.23 339.473 1224.4 319.881 1221C311.231 1219.5 309.263 1228.66 300.862 1226.8C292.462 1224.95 288.264 1218.62 289.497 1211.59C290.729 1204.57 296.814 1204.25 298.73 1206.18C300.645 1208.11 298.791 1211.48 298.791 1211.48C298.791 1211.48 297.517 1207.1 294.847 1209.86C292.177 1212.61 294.135 1222.97 302.818 1221.2C307.367 1220.27 311.993 1215.15 317.965 1216.28C334.527 1219.44 341.803 1211.6 339.883 1211.01C308.348 1201.33 311.266 1180.65 293.346 1180.86C278.502 1181.03 276.688 1190.98 262.666 1204.65C253.69 1213.4 244.47 1208.79 238.979 1209.39C239.044 1214.97 251.2 1227.72 264.302 1225.28C284.972 1221.42 285.235 1237.11 301.086 1246.05C315.143 1253.98 342.991 1251.93 362.374 1232.23C378.478 1215.86 394.287 1238.78 407.662 1223.61C417.192 1212.8 423.089 1208.92 423.089 1208.92C423.089 1208.92 402.428 1214.17 386.611 1194.69C374.616 1179.91 360.677 1186.3 345.679 1177.53C322.056 1163.72 316.678 1151.13 299.968 1149.75C275.737 1147.74 272.371 1158.5 260.379 1168.13C248.387 1177.75 254.448 1178.59 229.314 1178.88C204.179 1179.17 204.305 1209.97 166.577 1208.17L167.058 2394.58L423.09 2394.58L817.5 2394.58Z" fill="url(#paint1_linear)"/>
<path d="M0 -2132.08V467.441C0 467.441 100 347.941 288.5 347.941C477 347.941 495.5 467.441 663.5 467.441C831.5 467.441 862 172.941 1141 263.941C1420 354.941 1483.5 62.4409 1655 31.9409C1826.5 1.44092 1920 112.941 1920 112.941V-979.557V-1658.5C1920 -1658.5 1640.78 -1881.07 1842.88 -2000.08C1875.46 -2019.26 1920 -2042.94 1920 -2042.94V-2521C1920 -2521 1880.12 -2359.08 1551.15 -2375.07C1222.18 -2391.06 1059.36 -2319.87 842.7 -2110.93C626.044 -1901.99 410.717 -1984.02 226.625 -2132.08C97.697 -2235.78 0 -2132.08 0 -2132.08Z" fill="white"/>
<path fill-rule="evenodd" clip-rule="evenodd" d="M0 1046L52.8 1100.71C107.2 1155.43 212.8 1264.86 320 1305.89C427.2 1346.93 532.8 1319.57 640 1278.54C747.2 1237.5 852.8 1182.79 960 1189.62C1067.2 1196.46 1172.8 1264.86 1280 1312.73C1387.2 1360.61 1492.8 1387.96 1600 1360.61C1707.2 1333.25 1812.8 1251.18 1867.2 1210.14L1920 1169.11V2394H1867.2C1812.8 2394 1707.2 2394 1600 2394C1492.8 2394 1387.2 2394 1280 2394C1172.8 2394 1067.2 2394 960 2394C852.8 2394 747.2 2394 640 2394C532.8 2394 427.2 2394 320 2394C212.8 2394 107.2 2394 52.8 2394H0V1046Z" fill="white"/>
<path d="M1561.73 302.671C1547.75 278.234 1518.81 279.849 1504 279.115C1504 279.115 1530 247.841 1551.58 247.841C1624.19 247.841 1599.16 198.871 1651.48 205.585C1703.79 212.299 1697.89 204.969 1717.08 188.193C1738.75 169.258 1763.62 168.463 1779.56 183.35C1789.93 193.036 1793.26 215.271 1785.87 227.38C1781.16 235.11 1771.89 253.139 1744.61 246.312C1721.4 234.804 1743.48 204.924 1752.28 227.38C1752.28 227.38 1758.97 224.858 1755.88 217.693C1753.22 211.529 1745.51 209.547 1739.87 211.089C1734.24 212.63 1727.51 217.693 1727.51 230.682C1727.35 231.253 1704.92 228.48 1687.11 250.715C1679.83 259.802 1651.74 249.711 1631.18 254.238C1608.18 259.301 1586.31 285.279 1586.31 285.279C1586.31 285.279 1607.78 281.466 1623.51 290.342C1630.67 294.379 1648.18 319.193 1667.71 333.492C1679.01 341.763 1698.9 346.823 1716.2 338.995C1741 327.768 1740.57 317.604 1759.72 308.395C1774.83 301.13 1801.66 305.753 1801.66 305.753C1801.66 305.753 1798.14 278.895 1768.29 278.895C1745.96 278.895 1745.23 281.488 1724.99 266.346C1717.34 260.622 1699.05 260.907 1694.1 275.592C1688.01 293.645 1717.1 296.507 1717.1 296.507C1717.1 296.507 1697.29 288.983 1701.31 278.895C1705.33 268.806 1716.87 268.899 1724.99 272.73C1729.27 274.753 1739.87 288.606 1761.52 285.279C1785.87 281.536 1793.32 299.589 1793.32 299.589C1793.32 299.589 1769.82 297.46 1763.1 299.589C1739.71 307.004 1736.26 325.849 1710.56 333.492C1693.94 338.431 1681.38 334.365 1672.45 329.309C1653.06 316.54 1642.46 298.928 1625.32 285.279C1611.37 277.654 1597.13 281.316 1597.13 281.316C1597.13 281.316 1613.59 262.018 1633.89 259.301C1661.9 255.551 1680.34 266.346 1690.94 255.999C1709.42 237.953 1727.34 237.524 1727.51 238.387C1728.4 242.899 1732.76 249.098 1739.87 252.697C1770.32 268.107 1785.78 236.923 1801.66 236.406C1815.9 235.942 1823.86 244.376 1828.95 250.275C1845.63 269.648 1838.64 279.115 1883.52 279.115C1928.39 279.115 1919.82 315.439 1918.47 315.439C1917.12 315.439 1884.42 283.958 1870.44 315.439C1859.25 340.624 1826.99 339.582 1812.26 335.913C1783.57 330.277 1767.15 341.197 1751.37 363.872C1731.3 392.712 1679.82 394.033 1651.48 363.872C1626.45 337.234 1625.54 334.592 1597.13 330.63C1574.4 327.459 1564.06 310.669 1561.73 302.671Z" fill="url(#paint2_linear)" fill-opacity="0.37"/>
<defs>
<linearGradient id="paint0_linear" x1="887.74" y1="975.762" x2="1399.85" y2="1440.06" gradientUnits="userSpaceOnUse">
<stop stop-color="#C4BAFF"/>
<stop offset="1" stop-color="#B9B5FF" stop-opacity="0.31"/>
</linearGradient>
<linearGradient id="paint1_linear" x1="1034.86" y1="1079.87" x2="1043" y2="1480" gradientUnits="userSpaceOnUse">
<stop stop-color="#D8C2FF"/>
<stop offset="1" stop-color="#D8C2FF" stop-opacity="0.31"/>
</linearGradient>
<linearGradient id="paint2_linear" x1="1712" y1="173" x2="1712" y2="386" gradientUnits="userSpaceOnUse">
<stop stop-color="#F1D9FF"/>
<stop offset="1" stop-color="#F1D9FF" stop-opacity="0.21"/>
</linearGradient>
</defs>
</svg>
