<svg width="1200" height="1400" viewBox="0 0 1200 1400" fill="none" xmlns="http://www.w3.org/2000/svg">
<path d="M100.869 1189.32L244.405 982.364C245.825 980.316 247.475 978.426 249.31 976.732C274.42 953.586 314.103 977.568 305.329 1010.26C304.8 1012.24 304.093 1014.16 303.218 1016L195.21 1243.86C181.468 1272.85 145.816 1283.83 118.134 1267.59C90.6871 1251.5 82.7385 1215.46 100.869 1189.32Z" fill="#FCDB00" stroke="#02559E" stroke-width="10"/>
<path d="M1099.6 1189.32L956.074 982.37C954.651 980.322 953.002 978.428 951.168 976.737C926.053 953.589 886.367 977.57 895.138 1010.27C895.667 1012.25 896.375 1014.17 897.251 1016.01L1005.25 1243.87C1018.99 1272.86 1054.65 1283.84 1082.34 1267.61C1109.79 1251.51 1117.74 1215.47 1099.6 1189.32Z" fill="#FCDB00" stroke="#02559E" stroke-width="10"/>
<path d="M598.712 1380.85C541.523 1380.85 491.006 1338.87 448.07 1278.11C405.36 1217.67 371.508 1140.51 347.285 1074.19C323.051 1007.84 374.089 941.248 445.899 941.248H751.525C823.335 941.248 874.374 1007.84 850.138 1074.19C825.916 1140.51 792.062 1217.67 749.355 1278.11C706.418 1338.87 655.901 1380.85 598.712 1380.85Z" fill="white" stroke="#02559E" stroke-width="10"/>
<path d="M536.565 1114.3V1074.35L557.904 1111.17C559.671 1114.14 562.638 1115.35 566.089 1115.35C570.34 1115.35 574.273 1112.3 574.273 1106.92V1060.31H563.2V1100.02L541.86 1063.44C540.094 1060.47 537.287 1059.19 533.758 1059.19C529.342 1059.19 525.412 1062.32 525.412 1067.69V1114.3H536.565ZM603.504 1115.35C608.961 1115.35 613.295 1113.18 616.102 1109.65V1114.3H626.932V1094.33C626.932 1082.38 617.786 1073.39 605.35 1073.39C593.157 1073.39 583.849 1082.94 583.849 1094.33C583.849 1105.88 591.952 1115.35 603.504 1115.35ZM605.35 1104.67C599.493 1104.67 595.241 1100.02 595.241 1094.41C595.241 1088.79 599.493 1084.14 605.35 1084.14C611.206 1084.14 615.54 1088.79 615.54 1094.41C615.54 1100.02 611.206 1104.67 605.35 1104.67ZM656.045 1104.36C650.188 1104.36 647.299 1099.14 647.299 1093.04V1074.59H635.907V1094.33C635.907 1105.96 642.808 1115.35 656.045 1115.35C669.365 1115.35 676.262 1105.96 676.262 1094.33V1074.59H664.87V1092.96C664.87 1099.14 661.902 1104.36 656.045 1104.36Z" fill="#02559E"/>
<path d="M821.315 1065.93C826.725 1056.37 837.917 1057 843.645 1056.72C843.645 1056.72 833.59 1044.49 825.241 1044.49C797.158 1044.49 806.837 1025.34 786.603 1027.97C766.368 1030.59 768.653 1027.73 761.226 1021.17C752.848 1013.76 742.887 1015.65 737.452 1021.19C733.372 1025.35 731.763 1031.76 734.62 1036.49C736.443 1039.51 740.026 1046.56 750.582 1043.89C759.556 1039.39 751.018 1027.71 747.614 1036.49C747.614 1036.49 745.025 1035.5 746.219 1032.7C747.249 1030.29 750.231 1029.52 752.412 1030.12C754.593 1030.72 757.193 1032.7 757.193 1037.78C757.254 1038 765.581 1036.49 772.472 1045.18C775.289 1048.74 786.499 1045.22 794.451 1046.99C803.347 1048.97 811.811 1059.13 811.811 1059.13C811.811 1059.13 803.501 1057.63 797.419 1061.11C794.651 1062.68 787.876 1072.38 780.324 1077.97C775.954 1081.21 768.26 1083.19 761.569 1080.13C751.976 1075.74 752.144 1071.76 744.735 1068.16C738.893 1065.32 728.513 1067.13 728.513 1067.13C728.513 1067.13 729.875 1056.63 741.421 1056.63C750.056 1056.63 750.338 1057.64 758.169 1051.72C761.13 1049.49 768.202 1049.6 770.119 1055.34C772.472 1062.4 761.223 1063.51 761.223 1063.51C761.223 1063.51 768.882 1060.57 767.326 1056.63C765.771 1052.68 761.308 1052.72 758.169 1054.22C756.51 1055.01 752.412 1060.43 744.038 1059.13C734.62 1057.66 731.741 1064.72 731.741 1064.72C731.741 1064.72 740.831 1063.89 743.427 1064.72C752.477 1067.62 753.807 1074.99 763.751 1077.97C770.176 1079.9 775.035 1078.32 778.489 1076.34C785.991 1071.35 790.092 1064.46 796.722 1059.13C802.117 1056.14 807.624 1057.58 807.624 1057.58C807.624 1057.58 801.256 1050.03 793.407 1048.97C782.569 1047.5 773.426 1050.26 771.338 1047.68C765.034 1039.88 757.261 1040.45 757.193 1040.79C756.85 1042.56 755.162 1044.98 752.412 1046.39C740.638 1052.41 734.655 1040.22 728.513 1040.02C723.006 1039.84 719.924 1043.14 717.961 1045.44C711.507 1053.01 714.21 1056.72 696.854 1056.72C679.494 1056.72 682.809 1070.92 683.334 1070.92C683.856 1070.92 696.503 1058.61 701.91 1070.92C706.236 1080.76 718.715 1080.35 724.415 1078.92C735.51 1076.72 741.86 1080.99 747.964 1089.85C755.727 1101.13 775.64 1101.65 786.603 1089.85C796.286 1079.44 796.632 1078.4 807.624 1076.86C816.416 1075.62 820.414 1069.05 821.315 1065.93Z" fill="#FCDB00" fill-opacity="0.85"/>
<path d="M404.713 1001.59C399.305 992.037 388.112 992.67 382.385 992.384C382.385 992.384 392.441 980.157 400.788 980.157C428.872 980.157 419.193 961.011 439.427 963.635C459.662 966.262 457.377 963.395 464.804 956.837C473.181 949.432 483.143 951.322 488.578 956.862C492.658 961.015 494.267 967.423 491.41 972.155C489.587 975.179 486.004 982.227 475.448 979.557C466.474 975.061 475.012 963.377 478.416 972.155C478.416 972.155 481.005 971.172 479.811 968.37C478.781 965.958 475.799 965.186 473.618 965.786C471.437 966.39 468.837 968.37 468.837 973.449C468.776 973.671 460.449 972.155 453.558 980.851C450.741 984.403 439.531 980.887 431.579 982.656C422.682 984.636 414.22 994.793 414.22 994.793C414.22 994.793 422.529 993.303 428.611 996.773C431.378 998.353 438.154 1008.05 445.706 1013.64C450.076 1016.88 457.77 1018.85 464.46 1015.79C474.054 1011.41 473.886 1007.43 481.295 1003.83C487.137 1000.99 497.517 1002.8 497.517 1002.8C497.517 1002.8 496.155 992.298 484.609 992.298C475.974 992.298 475.692 993.31 467.861 987.391C464.9 985.154 457.828 985.265 455.911 991.005C453.558 998.063 464.807 999.182 464.807 999.182C464.807 999.182 457.148 996.24 458.704 992.298C460.259 988.353 464.721 988.388 467.861 989.886C469.52 990.679 473.618 996.094 481.992 994.793C491.41 993.331 494.289 1000.39 494.289 1000.39C494.289 1000.39 485.199 999.557 482.603 1000.39C473.553 1003.29 472.223 1010.65 462.279 1013.64C455.854 1015.57 450.994 1013.99 447.54 1012.01C440.039 1007.02 435.937 1000.13 429.308 994.793C423.912 991.812 418.406 993.246 418.406 993.246C418.406 993.246 424.774 985.701 432.623 984.636C443.461 983.17 452.604 985.929 454.692 983.345C460.996 975.543 468.769 976.122 468.837 976.462C469.18 978.224 470.868 980.647 473.618 982.055C485.392 988.081 491.374 975.886 497.517 975.686C503.024 975.504 506.106 978.803 508.069 981.108C514.523 988.682 511.82 992.384 529.176 992.384C546.536 992.384 543.221 1006.58 542.696 1006.58C542.174 1006.58 529.527 994.278 524.12 1006.58C519.794 1016.43 507.315 1016.02 501.615 1014.59C490.52 1012.38 484.169 1016.66 478.066 1025.52C470.303 1036.79 450.39 1037.31 439.427 1025.52C429.744 1015.1 429.398 1014.07 418.406 1012.52C409.615 1011.28 405.615 1004.72 404.713 1001.59Z" fill="#FCDB00" fill-opacity="0.85"/>
<path d="M662.159 1010.72C657.84 1005.03 650.756 1006.45 647.073 1006.77C647.073 1006.77 652.383 997.975 657.711 997.228C675.632 994.712 667.719 983.214 680.87 983.1C694.022 982.982 692.305 981.335 696.446 976.435C701.123 970.902 707.652 971.231 711.625 974.322C714.603 976.642 716.212 980.634 714.818 983.947C713.931 986.063 712.279 990.934 705.303 990.155C699.167 988.054 703.558 979.744 706.526 985.112C706.526 985.112 708.088 984.244 707.073 982.539C706.197 981.077 704.223 980.841 702.886 981.427C701.548 982.01 700.068 983.522 700.529 986.803C700.508 986.953 695.059 986.721 691.447 992.95C689.974 995.498 682.501 994.23 677.584 996.085C672.089 998.161 667.608 1005.48 667.608 1005.48C667.608 1005.48 672.775 1003.77 676.973 1005.47C678.882 1006.24 684.085 1011.9 689.413 1014.83C692.495 1016.53 697.583 1017.12 701.577 1014.54C707.302 1010.85 706.833 1008.3 711.235 1005.31C714.707 1002.95 721.493 1003.19 721.493 1003.19C721.493 1003.19 719.673 996.531 712.304 997.564C706.794 998.336 706.705 999.019 701.169 995.895C699.078 994.716 694.576 995.42 693.872 999.301C693.01 1004.07 700.293 1003.78 700.293 1003.78C700.293 1003.78 695.137 1002.57 695.77 999.884C696.407 997.196 699.256 996.821 701.398 997.507C702.528 997.868 705.635 1001 710.859 999.412C716.738 997.621 719.216 1001.92 719.216 1001.92C719.216 1001.92 713.337 1002.2 711.757 1002.97C706.243 1005.65 706.065 1010.53 699.989 1013.35C696.063 1015.17 692.82 1014.58 690.435 1013.61C685.193 1011.06 681.954 1006.98 677.238 1004.13C673.526 1002.69 670.14 1004.1 670.14 1004.1C670.14 1004.1 673.519 998.661 678.432 997.271C685.215 995.355 691.301 996.317 692.398 994.462C695.713 988.858 700.73 988.536 700.801 988.747C701.184 989.855 702.478 991.27 704.359 991.932C712.422 994.769 715.132 986.36 719.033 985.681C722.534 985.069 724.797 986.924 726.263 988.236C731.069 992.55 729.678 995.184 740.756 993.629C751.833 992.075 751.003 1001.55 750.671 1001.59C750.338 1001.64 741.149 994.819 738.814 1003.25C736.947 1010 728.945 1010.86 725.18 1010.44C717.9 1010.01 714.231 1013.34 711.142 1019.61C707.209 1027.58 694.547 1029.7 686.484 1023.06C679.358 1017.21 679.043 1016.57 671.888 1016.55C666.167 1016.54 663.017 1012.66 662.159 1010.72Z" fill="#FCDB00" fill-opacity="0.85"/>
<path d="M587.821 1219.89C591.275 1213.64 598.491 1214.02 602.181 1213.82C602.181 1213.82 595.666 1205.87 590.285 1205.9C572.185 1205.98 578.367 1193.47 565.337 1195.24C552.304 1197.01 553.766 1195.13 548.964 1190.88C543.54 1186.08 537.125 1187.34 533.639 1190.96C531.025 1193.69 530.006 1197.87 531.862 1200.95C533.045 1202.91 535.377 1207.5 542.17 1205.73C547.942 1202.77 542.403 1195.18 540.236 1200.91C540.236 1200.91 538.563 1200.28 539.324 1198.44C539.982 1196.87 541.902 1196.36 543.308 1196.74C544.716 1197.13 546.397 1198.41 546.411 1201.72C546.454 1201.87 551.814 1200.86 556.28 1206.51C558.107 1208.82 565.319 1206.49 570.45 1207.62C576.189 1208.89 581.671 1215.48 581.671 1215.48C581.671 1215.48 576.314 1214.54 572.403 1216.82C570.626 1217.85 566.288 1224.2 561.436 1227.87C558.633 1229.99 553.677 1231.31 549.358 1229.33C543.164 1226.5 543.261 1223.9 538.473 1221.57C534.701 1219.74 528.018 1220.95 528.018 1220.95C528.018 1220.95 528.865 1214.1 536.306 1214.07C541.87 1214.04 542.052 1214.7 547.083 1210.82C548.982 1209.35 553.541 1209.4 554.792 1213.14C556.334 1217.73 549.086 1218.5 549.086 1218.5C549.086 1218.5 554.013 1216.56 552.998 1213.99C551.986 1211.42 549.107 1211.46 547.091 1212.44C546.025 1212.96 543.397 1216.51 537.998 1215.68C531.923 1214.76 530.088 1219.37 530.088 1219.37C530.088 1219.37 535.945 1218.8 537.622 1219.33C543.461 1221.2 544.341 1226 550.759 1227.92C554.903 1229.16 558.032 1228.11 560.253 1226.81C565.073 1223.53 567.693 1219.03 571.949 1215.53C575.417 1213.57 578.971 1214.49 578.971 1214.49C578.971 1214.49 574.845 1209.58 569.782 1208.92C562.795 1207.99 556.909 1209.82 555.558 1208.14C551.471 1203.07 546.465 1203.47 546.422 1203.69C546.204 1204.84 545.124 1206.43 543.358 1207.35C535.788 1211.32 531.898 1203.38 527.936 1203.27C524.389 1203.16 522.411 1205.33 521.153 1206.84C517.016 1211.79 518.768 1214.2 507.583 1214.25C496.398 1214.3 498.576 1223.55 498.912 1223.55C499.248 1223.55 507.365 1215.49 510.883 1223.5C513.701 1229.91 521.743 1229.61 525.411 1228.65C532.552 1227.18 536.66 1229.95 540.619 1235.71C545.657 1243.04 558.49 1243.32 565.519 1235.6C571.727 1228.78 571.949 1228.1 579.028 1227.06C584.689 1226.23 587.249 1221.93 587.821 1219.89Z" fill="#FCDB00" fill-opacity="0.85"/>
<path d="M1136.85 597.844C1136.85 673.688 1103.33 730.626 1052.55 773.708C1001.56 816.971 933.193 846.178 864.204 865.821C795.301 885.439 726.302 895.371 674.465 900.392C648.563 902.901 626.984 904.181 611.898 904.831C604.357 905.157 598.436 905.328 594.417 905.414C592.404 905.457 590.866 905.482 589.84 905.493C589.325 905.5 588.935 905.503 588.682 905.503L588.396 905.507H588.349H588.335H588.328H588.313H588.27L588.002 905.503C587.756 905.503 587.387 905.5 586.897 905.493C585.914 905.482 584.448 905.457 582.524 905.414C578.684 905.328 573.031 905.157 565.822 904.831C551.405 904.181 530.785 902.905 506.03 900.396C456.486 895.378 390.548 885.449 324.706 865.846C258.787 846.214 193.483 817.035 144.767 773.815C96.2566 730.773 64.1504 673.81 64.1504 597.844C64.1504 442.724 113.787 297.996 205.503 192.155C297.123 86.4252 431.02 19.1476 600.499 19.1484C769.978 19.1493 903.876 86.427 995.495 192.156C1087.21 297.997 1136.85 442.724 1136.85 597.844Z" fill="white" stroke="#02559E" stroke-width="11"/>
<path d="M979.863 493.634C979.863 587.449 968.428 667.099 896.5 710.999C860.619 732.897 806.051 756.086 600.672 756.086C395.379 756.086 338.32 730.996 304.785 710.963C238.465 671.345 221.48 587.316 221.48 493.634C221.48 447.372 228.412 409.158 244.411 379.687C260.27 350.479 285.326 329.315 322.868 317.462C359.704 305.832 399.412 315.271 445.742 328.756C450.194 330.052 454.699 331.383 459.262 332.73C501.551 345.217 548.557 359.098 600.618 359.494C657.385 359.925 709 346.844 755.262 335.119L755.73 335C802.6 323.121 843.191 312.956 879.702 317.733C915.126 322.368 939.902 342.934 956.089 374.04C972.419 405.424 979.863 447.397 979.863 493.634Z" fill="#0A66AC" stroke="#02559E" stroke-width="10"/>
<path d="M368.3 614.906L455.911 564.675C462.612 560.833 462.612 551.167 455.911 547.325L368.3 497.094C357.807 491.079 347.637 505.387 356.768 513.319L405.901 556L356.768 598.681C347.637 606.613 357.807 620.922 368.3 614.906Z" fill="white" stroke="#02559E" stroke-width="8"/>
<path d="M825.7 614.906L738.089 564.675C731.388 560.833 731.388 551.167 738.089 547.325L825.7 497.094C836.193 491.079 846.363 505.387 837.232 513.319L788.099 556L837.232 598.681C846.363 606.613 836.193 620.922 825.7 614.906Z" fill="white" stroke="#02559E" stroke-width="8"/>
</svg>
