<svg width="471" height="530" viewBox="0 0 471 530" fill="none" xmlns="http://www.w3.org/2000/svg">
<path d="M76.0674 372.211C80.9666 364.781 91.1511 363.089 98.1898 368.535L153.915 411.654C154.467 412.08 154.972 412.569 155.418 413.106C161.518 420.458 154.236 431.19 145.228 428.26C144.685 428.084 144.159 427.858 143.656 427.587L81.5713 394.085C73.6721 389.823 71.1262 379.705 76.0674 372.211Z" fill="#FCDB00" stroke="#02559E" stroke-width="4"/>
<path d="M394.085 366.172C388.556 359.197 378.261 358.398 371.723 364.438L319.968 412.248C319.456 412.721 318.995 413.252 318.598 413.826C313.161 421.683 321.351 431.74 330.071 428.037C330.597 427.813 331.102 427.543 331.579 427.229L390.507 388.446C398.006 383.51 399.661 373.208 394.085 366.172Z" fill="#FCDB00" stroke="#02559E" stroke-width="4"/>
<path d="M236.164 527.314C220.17 527.314 206.042 515.568 194.034 498.567C182.09 481.655 172.622 460.068 165.848 441.511C159.07 422.945 173.344 404.314 193.427 404.314H278.901C298.984 404.314 313.258 422.945 306.48 441.511C299.706 460.068 290.239 481.655 278.294 498.567C266.286 515.568 252.158 527.314 236.164 527.314Z" fill="white" stroke="#02559E" stroke-width="4"/>
<path d="M218.783 452.732V441.555L224.751 451.857C225.245 452.687 226.075 453.024 227.04 453.024C228.229 453.024 229.329 452.171 229.329 450.667V437.627H226.232V448.737L220.264 438.502C219.77 437.672 218.985 437.312 217.998 437.312C216.764 437.312 215.664 438.188 215.664 439.692V452.732H218.783ZM237.504 453.024C239.03 453.024 240.242 452.418 241.027 451.43V452.732H244.056V447.143C244.056 443.799 241.498 441.285 238.02 441.285C234.61 441.285 232.007 443.956 232.007 447.143C232.007 450.376 234.273 453.024 237.504 453.024ZM238.02 450.039C236.382 450.039 235.193 448.737 235.193 447.166C235.193 445.595 236.382 444.293 238.02 444.293C239.658 444.293 240.87 445.595 240.87 447.166C240.87 448.737 239.658 450.039 238.02 450.039ZM252.198 449.949C250.56 449.949 249.752 448.49 249.752 446.784V441.622H246.566V447.143C246.566 450.398 248.496 453.024 252.198 453.024C255.923 453.024 257.852 450.398 257.852 447.143V441.622H254.666V446.762C254.666 448.49 253.836 449.949 252.198 449.949Z" fill="#02559E"/>
<path d="M298.419 439.197C299.932 436.524 303.062 436.701 304.664 436.62C304.664 436.62 301.852 433.199 299.517 433.199C291.663 433.199 294.37 427.842 288.711 428.577C283.052 429.311 283.691 428.509 281.614 426.674C279.271 424.603 276.485 425.132 274.965 426.681C273.825 427.844 273.374 429.636 274.173 430.961C274.683 431.807 275.685 433.779 278.637 433.032C281.147 431.773 278.759 428.505 277.807 430.961C277.807 430.961 277.083 430.685 277.417 429.901C277.705 429.227 278.539 429.01 279.149 429.179C279.759 429.347 280.486 429.901 280.486 431.322C280.504 431.385 282.832 430.961 284.759 433.393C285.547 434.387 288.682 433.404 290.906 433.899C293.394 434.453 295.761 437.295 295.761 437.295C295.761 437.295 293.437 436.877 291.736 437.848C290.962 438.29 289.067 441.004 286.955 442.569C285.733 443.473 283.581 444.027 281.71 443.171C279.027 441.942 279.074 440.831 277.002 439.823C275.368 439.028 272.465 439.534 272.465 439.534C272.465 439.534 272.846 436.596 276.075 436.596C278.49 436.596 278.569 436.88 280.759 435.223C281.587 434.597 283.565 434.629 284.101 436.235C284.759 438.21 281.613 438.523 281.613 438.523C281.613 438.523 283.755 437.7 283.32 436.596C282.885 435.493 281.637 435.503 280.759 435.922C280.295 436.143 279.149 437.658 276.807 437.295C274.173 436.885 273.368 438.86 273.368 438.86C273.368 438.86 275.91 438.627 276.637 438.86C279.167 439.671 279.539 441.733 282.32 442.569C284.117 443.109 285.476 442.664 286.442 442.111C288.54 440.714 289.687 438.788 291.541 437.295C293.05 436.46 294.59 436.861 294.59 436.861C294.59 436.861 292.809 434.75 290.614 434.453C287.583 434.043 285.026 434.814 284.442 434.092C282.679 431.909 280.505 432.071 280.486 432.165C280.39 432.659 279.918 433.337 279.149 433.73C275.856 435.416 274.184 432.005 272.465 431.948C270.925 431.898 270.063 432.82 269.514 433.465C267.709 435.585 268.465 436.62 263.611 436.62C258.756 436.62 259.683 440.594 259.83 440.594C259.976 440.594 263.513 437.15 265.025 440.594C266.235 443.349 269.725 443.235 271.319 442.833C274.422 442.217 276.198 443.411 277.905 445.892C280.076 449.047 285.645 449.191 288.711 445.892C291.419 442.978 291.516 442.689 294.59 442.255C297.049 441.909 298.167 440.072 298.419 439.197Z" fill="#FCDB00" fill-opacity="0.85"/>
<path d="M181.909 421.197C180.396 418.524 177.266 418.701 175.664 418.62C175.664 418.62 178.476 415.199 180.811 415.199C188.666 415.199 185.958 409.842 191.617 410.577C197.276 411.311 196.637 410.509 198.714 408.674C201.057 406.603 203.843 407.132 205.363 408.681C206.504 409.844 206.954 411.636 206.155 412.961C205.646 413.807 204.643 415.779 201.691 415.032C199.181 413.773 201.569 410.505 202.521 412.961C202.521 412.961 203.245 412.685 202.911 411.901C202.623 411.227 201.789 411.01 201.179 411.179C200.569 411.347 199.842 411.901 199.842 413.322C199.825 413.385 197.496 412.961 195.569 415.393C194.781 416.387 191.646 415.404 189.422 415.899C186.934 416.453 184.568 419.295 184.568 419.295C184.568 419.295 186.891 418.877 188.592 419.848C189.366 420.29 191.261 423.004 193.373 424.569C194.595 425.473 196.747 426.027 198.618 425.171C201.301 423.942 201.254 422.831 203.326 421.823C204.96 421.028 207.863 421.534 207.863 421.534C207.863 421.534 207.482 418.596 204.253 418.596C201.838 418.596 201.759 418.88 199.569 417.223C198.741 416.597 196.763 416.629 196.227 418.235C195.569 420.21 198.715 420.523 198.715 420.523C198.715 420.523 196.573 419.7 197.008 418.596C197.443 417.493 198.691 417.503 199.569 417.922C200.033 418.143 201.179 419.658 203.521 419.295C206.155 418.885 206.96 420.86 206.96 420.86C206.96 420.86 204.418 420.627 203.692 420.86C201.161 421.671 200.789 423.733 198.008 424.569C196.211 425.109 194.852 424.664 193.886 424.111C191.788 422.714 190.641 420.788 188.787 419.295C187.278 418.46 185.738 418.861 185.738 418.861C185.738 418.861 187.519 416.75 189.714 416.453C192.745 416.043 195.302 416.814 195.886 416.092C197.649 413.909 199.823 414.071 199.842 414.165C199.938 414.659 200.41 415.337 201.179 415.73C204.472 417.416 206.145 414.005 207.863 413.948C209.403 413.898 210.265 414.82 210.814 415.465C212.619 417.585 211.863 418.62 216.717 418.62C221.572 418.62 220.645 422.594 220.498 422.594C220.352 422.594 216.815 419.15 215.303 422.594C214.093 425.349 210.603 425.235 209.009 424.833C205.906 424.217 204.13 425.411 202.423 427.892C200.252 431.047 194.683 431.191 191.617 427.892C188.909 424.978 188.812 424.689 185.738 424.255C183.28 423.909 182.161 422.072 181.909 421.197Z" fill="#FCDB00" fill-opacity="0.85"/>
<path d="M253.908 423.752C252.7 422.161 250.719 422.555 249.689 422.647C249.689 422.647 251.174 420.185 252.664 419.976C257.676 419.273 255.463 416.056 259.141 416.023C262.819 415.99 262.339 415.53 263.497 414.159C264.805 412.611 266.631 412.703 267.742 413.567C268.575 414.216 269.025 415.334 268.635 416.261C268.387 416.852 267.926 418.216 265.974 417.998C264.258 417.41 265.486 415.085 266.316 416.586C266.316 416.586 266.753 416.343 266.469 415.867C266.224 415.457 265.672 415.392 265.298 415.555C264.924 415.719 264.51 416.142 264.639 417.059C264.633 417.101 263.109 417.036 262.1 418.78C261.687 419.492 259.597 419.138 258.222 419.657C256.685 420.238 255.432 422.285 255.432 422.285C255.432 422.285 256.877 421.807 258.051 422.282C258.585 422.498 260.04 424.081 261.53 424.902C262.392 425.377 263.816 425.542 264.932 424.821C266.533 423.788 266.402 423.074 267.633 422.238C268.604 421.578 270.502 421.645 270.502 421.645C270.502 421.645 269.993 419.781 267.932 420.07C266.391 420.287 266.366 420.477 264.818 419.603C264.233 419.273 262.974 419.471 262.777 420.556C262.536 421.89 264.573 421.811 264.573 421.811C264.573 421.811 263.131 421.471 263.308 420.719C263.486 419.968 264.283 419.862 264.882 420.054C265.198 420.156 266.067 421.032 267.528 420.587C269.172 420.087 269.865 421.29 269.865 421.29C269.865 421.29 268.222 421.367 267.779 421.583C266.238 422.333 266.187 423.698 264.488 424.487C263.39 424.997 262.483 424.831 261.816 424.561C260.35 423.847 259.444 422.705 258.125 421.907C257.087 421.503 256.14 421.9 256.14 421.9C256.14 421.9 257.085 420.377 258.459 419.988C260.356 419.452 262.058 419.721 262.365 419.202C263.292 417.635 264.695 417.544 264.715 417.604C264.822 417.914 265.184 418.31 265.711 418.495C267.965 419.289 268.723 416.936 269.814 416.745C270.793 416.575 271.426 417.093 271.836 417.461C273.18 418.668 272.791 419.404 275.889 418.97C278.987 418.535 278.755 421.184 278.662 421.197C278.569 421.21 275.999 419.303 275.346 421.663C274.824 423.55 272.586 423.789 271.533 423.673C269.497 423.552 268.471 424.483 267.607 426.238C266.507 428.47 262.966 429.062 260.711 427.206C258.718 425.566 258.63 425.389 256.629 425.384C255.029 425.38 254.148 424.294 253.908 423.752Z" fill="#FCDB00" fill-opacity="0.85"/>
<path d="M233.118 482.277C234.084 480.529 236.102 480.635 237.134 480.578C237.134 480.578 235.312 478.355 233.807 478.362C228.745 478.385 230.474 474.883 226.83 475.379C223.185 475.875 223.594 475.35 222.251 474.159C220.734 472.815 218.94 473.168 217.966 474.183C217.234 474.945 216.949 476.115 217.468 476.977C217.799 477.527 218.451 478.81 220.351 478.314C221.965 477.486 220.416 475.361 219.81 476.966C219.81 476.966 219.342 476.788 219.555 476.276C219.739 475.835 220.276 475.691 220.669 475.8C221.063 475.908 221.533 476.267 221.537 477.194C221.549 477.234 223.048 476.951 224.297 478.532C224.808 479.178 226.825 478.527 228.26 478.843C229.865 479.197 231.399 481.044 231.399 481.044C231.399 481.044 229.9 480.778 228.806 481.417C228.309 481.707 227.096 483.483 225.739 484.509C224.955 485.103 223.569 485.47 222.361 484.917C220.629 484.124 220.656 483.399 219.318 482.748C218.262 482.234 216.393 482.573 216.393 482.573C216.393 482.573 216.63 480.656 218.711 480.646C220.267 480.639 220.318 480.824 221.725 479.737C222.256 479.326 223.531 479.341 223.881 480.387C224.312 481.673 222.285 481.886 222.285 481.886C222.285 481.886 223.663 481.343 223.379 480.625C223.096 479.906 222.291 479.917 221.727 480.193C221.429 480.338 220.694 481.33 219.184 481.099C217.485 480.84 216.972 482.13 216.972 482.13C216.972 482.13 218.61 481.971 219.079 482.121C220.712 482.642 220.958 483.986 222.753 484.523C223.912 484.87 224.787 484.576 225.408 484.212C226.756 483.295 227.489 482.035 228.679 481.056C229.649 480.508 230.643 480.764 230.643 480.764C230.643 480.764 229.489 479.393 228.073 479.205C226.119 478.947 224.473 479.457 224.095 478.988C222.952 477.57 221.552 477.682 221.54 477.743C221.479 478.065 221.177 478.509 220.683 478.768C218.566 479.877 217.478 477.657 216.37 477.625C215.378 477.597 214.825 478.201 214.473 478.624C213.316 480.011 213.806 480.684 210.678 480.698C207.55 480.713 208.159 483.301 208.253 483.301C208.347 483.301 210.617 481.044 211.601 483.286C212.389 485.079 214.638 484.994 215.664 484.728C217.662 484.317 218.81 485.09 219.917 486.703C221.326 488.754 224.915 488.832 226.881 486.671C228.617 484.763 228.679 484.574 230.659 484.282C232.242 484.049 232.958 482.848 233.118 482.277Z" fill="#FCDB00" fill-opacity="0.85"/>
<path d="M386.664 308.229C386.664 329.451 377.29 345.382 363.088 357.436C348.827 369.54 329.709 377.712 310.415 383.208C291.144 388.698 271.847 391.477 257.35 392.882C250.106 393.584 244.071 393.941 239.852 394.124C237.743 394.215 236.088 394.262 234.963 394.286C234.4 394.299 233.97 394.305 233.683 394.309C233.539 394.31 233.43 394.311 233.359 394.312L233.279 394.312L233.266 394.312L233.262 394.312H233.26L233.256 394.312L233.244 394.312L233.169 394.312C233.1 394.311 232.997 394.31 232.86 394.309L232.76 394.307C232.49 394.304 232.113 394.297 231.637 394.287C230.563 394.262 228.982 394.215 226.966 394.124C222.934 393.942 217.167 393.584 210.244 392.883C196.388 391.478 177.947 388.701 159.533 383.215C141.098 377.723 122.834 369.558 109.21 357.465C95.6432 345.423 86.6641 329.485 86.6641 308.229C86.6641 264.828 100.546 224.333 126.196 194.719C151.819 165.136 189.266 146.312 236.664 146.312C284.062 146.313 321.509 165.137 347.132 194.719C372.782 224.333 386.664 264.828 386.664 308.229Z" fill="white" stroke="#02559E" stroke-width="4"/>
<path d="M194.948 105.952L191.152 82.3509L207.256 102.076C208.581 103.662 210.449 104.091 212.487 103.763C214.998 103.359 217.031 101.185 216.52 98.0095L212.092 70.4753L205.552 71.5271L209.325 94.9857L193.243 75.4027C191.919 73.8169 190.138 73.3254 188.053 73.6607C185.446 74.0799 183.421 76.3016 183.932 79.4768L188.36 107.011L194.948 105.952Z" fill="#02559E"/>
<path d="M255.686 69.9753L229.711 68.5047L229.345 74.9744L238.834 75.5116L237.374 101.294L244.371 101.69L245.831 75.9077L255.32 76.4449L255.686 69.9753Z" fill="#02559E"/>
<path d="M316.393 120.98L320.258 113.414L324.49 115.576C332.398 119.616 339.235 118.365 342.772 111.44C346.179 104.772 343.121 98.4129 334.957 94.2421L324.826 89.0668L310.13 117.834L316.393 120.98ZM332.18 100.1C336.283 102.196 337.977 105.002 336.361 108.165C334.657 111.499 331.37 111.814 327.267 109.718L323.206 107.643L328.119 98.0256L332.18 100.1Z" fill="#02559E"/>
<path d="M371.434 107.423L361.87 126.145L368.111 129.333L377.675 110.611L371.434 107.423ZM359.446 138.274C361.413 139.279 363.867 138.484 364.871 136.518C365.876 134.552 365.081 132.098 363.115 131.093C361.191 130.111 358.695 130.883 357.69 132.849C356.686 134.816 357.523 137.292 359.446 138.274Z" fill="#02559E"/>
<path d="M263.529 103.302L270.495 104.925L273.81 98.9448L286.583 101.871L286.904 108.747L293.869 110.369L291.842 81.4103C291.562 77.7472 289.138 75.4577 286.146 74.7608C283.201 74.0747 280.015 75.0576 278.145 78.2198L263.529 103.302ZM283.52 81.5911C283.859 80.9802 284.252 80.7759 284.766 80.8957C285.327 81.0264 285.542 81.3722 285.577 82.0702L286.222 95.3797L277.013 93.2345L283.52 81.5911Z" fill="#02559E"/>
<path d="M150.878 120.209L157.378 117.225L156.336 110.468L168.225 104.957L172.69 110.196L179.19 107.213L159.85 85.5628C157.385 82.8389 154.067 82.5136 151.275 83.7952C148.527 85.0568 146.61 87.7851 147.069 91.4302L150.878 120.209ZM153.383 90.8028C153.277 90.112 153.462 89.7101 153.942 89.4898C154.466 89.2495 154.847 89.3911 155.302 89.9217L163.964 100.047L155.371 103.992L153.383 90.8028Z" fill="#02559E"/>
<path d="M110.59 146.51L98.6844 123.788C98.5439 123.593 98.6044 123.431 98.7212 123.347C98.799 123.291 98.9049 123.273 99.0844 123.44L116.565 137.401C118.409 138.971 120.756 138.697 122.547 137.404C124.415 136.056 125.269 133.959 124.381 131.581L116.714 110.712C116.64 110.528 116.662 110.394 116.779 110.309C116.934 110.197 117.057 110.286 117.198 110.48L134.563 129.202L140.323 125.044L120.908 104.96C118.496 102.439 115.561 102.308 112.953 104.191C110.579 105.905 109.37 108.495 110.535 111.502L117.932 130.849C118.016 130.966 117.977 130.994 117.939 131.022C117.939 131.022 117.9 131.05 117.815 130.933L101.617 117.763C99.1677 115.683 96.4524 116.104 94.1174 117.79C91.471 119.701 90.6037 122.518 92.1035 125.579L104.831 150.669L110.59 146.51Z" fill="#02559E"/>
<path d="M342.76 279.072C342.76 305.321 339.562 327.607 319.447 339.89C309.411 346.018 294.15 352.505 236.712 352.505C179.298 352.505 163.341 345.485 153.962 339.88C135.414 328.795 130.664 305.285 130.664 279.072C130.664 266.128 132.602 255.436 137.077 247.191C141.512 239.018 148.52 233.096 159.019 229.78C169.321 226.526 180.426 229.167 193.383 232.94C194.628 233.303 195.889 233.675 197.164 234.052C208.991 237.546 222.137 241.43 236.697 241.54C252.573 241.661 267.008 238.001 279.946 234.721L280.077 234.687C293.185 231.364 304.537 228.519 314.748 229.856C324.655 231.153 331.584 236.907 336.111 245.61C340.678 254.391 342.76 266.136 342.76 279.072Z" fill="#0A66AC" stroke="#02559E" stroke-width="4"/>
<path d="M200.209 300.293C200.131 314.71 195.286 315.951 182.76 316.457C170.234 316.964 165.011 314.519 165.089 300.103C165.167 285.687 173.092 274.043 182.791 274.095C192.489 274.148 200.287 285.877 200.209 300.293Z" fill="white" stroke="#02559E" stroke-width="3"/>
<path d="M274.58 300.532C274.502 314.948 279.334 316.242 291.854 316.884C304.374 317.526 309.623 315.138 309.701 300.722C309.779 286.306 301.981 274.577 292.282 274.524C282.584 274.471 274.659 286.115 274.58 300.532Z" fill="white" stroke="#02559E" stroke-width="3"/>
<line x1="414.265" y1="230.208" x2="458.559" y2="222.712" stroke="#69D8FF" stroke-width="21" stroke-linecap="round"/>
<line x1="54.5259" y1="250.432" x2="11.4342" y2="254.472" stroke="#69D8FF" stroke-width="21" stroke-linecap="round"/>
<path d="M393.447 177.294L439.96 144.312" stroke="#69D8FF" stroke-width="21" stroke-linecap="round"/>
<path d="M21.352 165.23L70.7279 193.747" stroke="#69D8FF" stroke-width="21" stroke-linecap="round"/>
</svg>
