<svg width="471" height="533" viewBox="0 0 471 533" fill="none" xmlns="http://www.w3.org/2000/svg">
<path d="M76.0674 375.213C80.9666 367.783 91.1511 366.091 98.1898 371.537L153.915 414.656C154.467 415.082 154.972 415.571 155.418 416.108C161.518 423.46 154.236 434.192 145.228 431.262C144.685 431.086 144.159 430.86 143.656 430.589L81.5713 397.087C73.6721 392.825 71.1262 382.707 76.0674 375.213Z" fill="#FCDB00" stroke="#02559E" stroke-width="4"/>
<path d="M394.085 369.174C388.556 362.198 378.261 361.4 371.723 367.44L319.968 415.25C319.456 415.723 318.995 416.254 318.598 416.828C313.161 424.685 321.351 434.742 330.071 431.039C330.597 430.815 331.102 430.545 331.579 430.231L390.507 391.448C398.006 386.512 399.661 376.21 394.085 369.174Z" fill="#FCDB00" stroke="#02559E" stroke-width="4"/>
<path d="M236.164 530.314C220.17 530.314 206.042 518.568 194.034 501.567C182.09 484.655 172.622 463.068 165.848 444.511C159.07 425.945 173.344 407.314 193.427 407.314H278.901C298.984 407.314 313.258 425.945 306.48 444.511C299.706 463.068 290.239 484.655 278.294 501.567C266.286 518.568 252.158 530.314 236.164 530.314Z" fill="white" stroke="#02559E" stroke-width="4"/>
<path d="M218.783 455.734V444.557L224.751 454.859C225.245 455.689 226.075 456.026 227.04 456.026C228.229 456.026 229.329 455.173 229.329 453.669V440.629H226.232V451.739L220.264 441.504C219.77 440.674 218.985 440.314 217.998 440.314C216.764 440.314 215.664 441.19 215.664 442.694V455.734H218.783ZM237.504 456.026C239.03 456.026 240.242 455.42 241.027 454.432V455.734H244.056V450.145C244.056 446.801 241.498 444.287 238.02 444.287C234.61 444.287 232.007 446.958 232.007 450.145C232.007 453.377 234.273 456.026 237.504 456.026ZM238.02 453.041C236.382 453.041 235.193 451.739 235.193 450.168C235.193 448.597 236.382 447.295 238.02 447.295C239.658 447.295 240.87 448.597 240.87 450.168C240.87 451.739 239.658 453.041 238.02 453.041ZM252.198 452.951C250.56 452.951 249.752 451.492 249.752 449.786V444.624H246.566V450.145C246.566 453.4 248.496 456.026 252.198 456.026C255.923 456.026 257.852 453.4 257.852 450.145V444.624H254.666V449.764C254.666 451.492 253.836 452.951 252.198 452.951Z" fill="#02559E"/>
<path d="M298.419 442.199C299.932 439.526 303.062 439.702 304.664 439.622C304.664 439.622 301.852 436.201 299.517 436.201C291.663 436.201 294.37 430.844 288.711 431.579C283.052 432.313 283.691 431.511 281.614 429.676C279.271 427.605 276.485 428.133 274.965 429.683C273.825 430.846 273.374 432.638 274.173 433.963C274.683 434.809 275.685 436.781 278.637 436.034C281.147 434.775 278.759 431.506 277.807 433.963C277.807 433.963 277.083 433.687 277.417 432.903C277.705 432.229 278.539 432.012 279.149 432.181C279.759 432.349 280.486 432.903 280.486 434.324C280.504 434.387 282.832 433.963 284.759 436.395C285.547 437.389 288.682 436.406 290.906 436.901C293.394 437.455 295.761 440.297 295.761 440.297C295.761 440.297 293.437 439.879 291.736 440.85C290.962 441.292 289.067 444.006 286.955 445.571C285.733 446.475 283.581 447.029 281.71 446.173C279.027 444.944 279.074 443.833 277.002 442.825C275.368 442.03 272.465 442.536 272.465 442.536C272.465 442.536 272.846 439.598 276.075 439.598C278.49 439.598 278.569 439.882 280.759 438.225C281.587 437.599 283.565 437.63 284.101 439.237C284.759 441.212 281.613 441.525 281.613 441.525C281.613 441.525 283.755 440.702 283.32 439.598C282.885 438.495 281.637 438.505 280.759 438.924C280.295 439.145 279.149 440.66 276.807 440.297C274.173 439.887 273.368 441.862 273.368 441.862C273.368 441.862 275.91 441.629 276.637 441.862C279.167 442.673 279.539 444.734 282.32 445.571C284.117 446.111 285.476 445.666 286.442 445.113C288.54 443.716 289.687 441.79 291.541 440.297C293.05 439.462 294.59 439.863 294.59 439.863C294.59 439.863 292.809 437.752 290.614 437.455C287.583 437.045 285.026 437.816 284.442 437.094C282.679 434.911 280.505 435.073 280.486 435.167C280.39 435.66 279.918 436.339 279.149 436.732C275.856 438.418 274.184 435.007 272.465 434.95C270.925 434.9 270.063 435.822 269.514 436.467C267.709 438.587 268.465 439.622 263.611 439.622C258.756 439.622 259.683 443.596 259.83 443.596C259.976 443.596 263.513 440.152 265.025 443.596C266.235 446.351 269.725 446.237 271.319 445.835C274.422 445.219 276.198 446.413 277.905 448.894C280.076 452.049 285.645 452.193 288.711 448.894C291.419 445.98 291.516 445.691 294.59 445.257C297.049 444.911 298.167 443.074 298.419 442.199Z" fill="#FCDB00" fill-opacity="0.85"/>
<path d="M181.909 424.199C180.396 421.526 177.266 421.702 175.664 421.622C175.664 421.622 178.476 418.201 180.811 418.201C188.666 418.201 185.958 412.844 191.617 413.579C197.276 414.313 196.637 413.511 198.714 411.676C201.057 409.605 203.843 410.133 205.363 411.683C206.504 412.846 206.954 414.638 206.155 415.963C205.646 416.809 204.643 418.781 201.691 418.034C199.181 416.775 201.569 413.506 202.521 415.963C202.521 415.963 203.245 415.687 202.911 414.903C202.623 414.229 201.789 414.012 201.179 414.181C200.569 414.349 199.842 414.903 199.842 416.324C199.825 416.387 197.496 415.963 195.569 418.395C194.781 419.389 191.646 418.406 189.422 418.901C186.934 419.455 184.568 422.297 184.568 422.297C184.568 422.297 186.891 421.879 188.592 422.85C189.366 423.292 191.261 426.006 193.373 427.571C194.595 428.475 196.747 429.029 198.618 428.173C201.301 426.944 201.254 425.833 203.326 424.825C204.96 424.03 207.863 424.536 207.863 424.536C207.863 424.536 207.482 421.598 204.253 421.598C201.838 421.598 201.759 421.882 199.569 420.225C198.741 419.599 196.763 419.63 196.227 421.237C195.569 423.212 198.715 423.525 198.715 423.525C198.715 423.525 196.573 422.702 197.008 421.598C197.443 420.495 198.691 420.505 199.569 420.924C200.033 421.145 201.179 422.66 203.521 422.297C206.155 421.887 206.96 423.862 206.96 423.862C206.96 423.862 204.418 423.629 203.692 423.862C201.161 424.673 200.789 426.734 198.008 427.571C196.211 428.111 194.852 427.666 193.886 427.113C191.788 425.716 190.641 423.79 188.787 422.297C187.278 421.462 185.738 421.863 185.738 421.863C185.738 421.863 187.519 419.752 189.714 419.455C192.745 419.045 195.302 419.816 195.886 419.094C197.649 416.911 199.823 417.073 199.842 417.167C199.938 417.66 200.41 418.339 201.179 418.732C204.472 420.418 206.145 417.007 207.863 416.95C209.403 416.9 210.265 417.822 210.814 418.467C212.619 420.587 211.863 421.622 216.717 421.622C221.572 421.622 220.645 425.596 220.498 425.596C220.352 425.596 216.815 422.152 215.303 425.596C214.093 428.351 210.603 428.237 209.009 427.835C205.906 427.219 204.13 428.413 202.423 430.894C200.252 434.049 194.683 434.193 191.617 430.894C188.909 427.98 188.812 427.691 185.738 427.257C183.28 426.911 182.161 425.074 181.909 424.199Z" fill="#FCDB00" fill-opacity="0.85"/>
<path d="M253.908 426.754C252.7 425.163 250.719 425.557 249.689 425.649C249.689 425.649 251.174 423.187 252.664 422.978C257.676 422.275 255.463 419.058 259.141 419.025C262.819 418.992 262.339 418.532 263.497 417.161C264.805 415.613 266.631 415.705 267.742 416.569C268.575 417.218 269.025 418.336 268.635 419.263C268.387 419.854 267.926 421.218 265.974 421C264.258 420.412 265.486 418.087 266.316 419.588C266.316 419.588 266.753 419.345 266.469 418.869C266.224 418.459 265.672 418.394 265.298 418.557C264.924 418.721 264.51 419.144 264.639 420.061C264.633 420.103 263.109 420.038 262.1 421.782C261.687 422.494 259.597 422.14 258.222 422.659C256.685 423.239 255.432 425.287 255.432 425.287C255.432 425.287 256.877 424.809 258.051 425.284C258.585 425.5 260.04 427.083 261.53 427.904C262.392 428.379 263.816 428.544 264.932 427.823C266.533 426.79 266.402 426.076 267.633 425.24C268.604 424.58 270.502 424.647 270.502 424.647C270.502 424.647 269.993 422.783 267.932 423.072C266.391 423.289 266.366 423.479 264.818 422.605C264.233 422.275 262.974 422.472 262.777 423.558C262.536 424.892 264.573 424.813 264.573 424.813C264.573 424.813 263.131 424.473 263.308 423.721C263.486 422.97 264.283 422.864 264.882 423.056C265.198 423.158 266.067 424.034 267.528 423.589C269.172 423.089 269.865 424.292 269.865 424.292C269.865 424.292 268.222 424.369 267.779 424.585C266.238 425.335 266.187 426.7 264.488 427.489C263.39 427.999 262.483 427.833 261.816 427.563C260.35 426.849 259.444 425.707 258.125 424.909C257.087 424.505 256.14 424.902 256.14 424.902C256.14 424.902 257.085 423.379 258.459 422.99C260.356 422.454 262.058 422.723 262.365 422.204C263.292 420.637 264.695 420.546 264.715 420.606C264.822 420.916 265.184 421.312 265.711 421.497C267.965 422.291 268.723 419.938 269.814 419.747C270.793 419.577 271.426 420.095 271.836 420.463C273.18 421.67 272.791 422.406 275.889 421.971C278.987 421.537 278.755 424.186 278.662 424.199C278.569 424.212 275.999 422.305 275.346 424.665C274.824 426.552 272.586 426.791 271.533 426.675C269.497 426.554 268.471 427.485 267.607 429.24C266.507 431.472 262.966 432.064 260.711 430.208C258.718 428.568 258.63 428.391 256.629 428.386C255.029 428.382 254.148 427.296 253.908 426.754Z" fill="#FCDB00" fill-opacity="0.85"/>
<path d="M233.118 485.278C234.084 483.531 236.102 483.637 237.134 483.58C237.134 483.58 235.312 481.357 233.807 481.364C228.745 481.387 230.474 477.885 226.83 478.381C223.185 478.876 223.594 478.352 222.251 477.161C220.734 475.817 218.94 476.17 217.966 477.185C217.234 477.947 216.949 479.117 217.468 479.978C217.799 480.528 218.451 481.812 220.351 481.316C221.965 480.488 220.416 478.363 219.81 479.968C219.81 479.968 219.342 479.79 219.555 479.278C219.739 478.837 220.276 478.693 220.669 478.802C221.063 478.91 221.533 479.269 221.537 480.195C221.549 480.236 223.048 479.953 224.297 481.534C224.808 482.18 226.825 481.529 228.26 481.845C229.865 482.199 231.399 484.046 231.399 484.046C231.399 484.046 229.9 483.78 228.806 484.419C228.309 484.709 227.096 486.485 225.739 487.511C224.955 488.105 223.569 488.472 222.361 487.919C220.629 487.126 220.656 486.401 219.318 485.75C218.262 485.236 216.393 485.575 216.393 485.575C216.393 485.575 216.63 483.657 218.711 483.648C220.267 483.641 220.318 483.826 221.725 482.739C222.256 482.328 223.531 482.343 223.881 483.389C224.312 484.675 222.285 484.888 222.285 484.888C222.285 484.888 223.663 484.345 223.379 483.627C223.096 482.908 222.291 482.919 221.727 483.194C221.429 483.34 220.694 484.332 219.184 484.101C217.485 483.842 216.972 485.132 216.972 485.132C216.972 485.132 218.61 484.973 219.079 485.123C220.712 485.644 220.958 486.988 222.753 487.525C223.912 487.872 224.787 487.578 225.408 487.214C226.756 486.297 227.489 485.037 228.679 484.058C229.649 483.51 230.643 483.766 230.643 483.766C230.643 483.766 229.489 482.395 228.073 482.207C226.119 481.949 224.473 482.459 224.095 481.99C222.952 480.572 221.552 480.684 221.54 480.745C221.479 481.067 221.177 481.511 220.683 481.77C218.566 482.879 217.478 480.659 216.37 480.627C215.378 480.599 214.825 481.203 214.473 481.626C213.316 483.013 213.806 483.686 210.678 483.7C207.55 483.715 208.159 486.303 208.253 486.303C208.347 486.302 210.617 484.046 211.601 486.288C212.389 488.081 214.638 487.996 215.664 487.73C217.662 487.319 218.81 488.092 219.917 489.705C221.326 491.756 224.915 491.834 226.881 489.673C228.617 487.765 228.679 487.576 230.659 487.284C232.242 487.051 232.958 485.85 233.118 485.278Z" fill="#FCDB00" fill-opacity="0.85"/>
<path d="M386.664 311.231C386.664 332.453 377.29 348.384 363.088 360.438C348.827 372.542 329.709 380.714 310.415 386.21C291.144 391.7 271.847 394.479 257.35 395.884C250.106 396.586 244.071 396.943 239.852 397.126C237.743 397.217 236.088 397.264 234.963 397.288C234.4 397.301 233.97 397.307 233.683 397.311C233.539 397.312 233.43 397.313 233.359 397.314L233.279 397.314L233.266 397.314L233.262 397.314H233.26L233.256 397.314L233.244 397.314L233.169 397.314C233.1 397.313 232.997 397.312 232.86 397.311L232.76 397.309C232.49 397.306 232.113 397.299 231.637 397.288C230.563 397.264 228.982 397.217 226.966 397.126C222.934 396.944 217.167 396.586 210.244 395.884C196.388 394.48 177.947 391.703 159.533 386.217C141.098 380.725 122.834 372.56 109.21 360.467C95.6432 348.425 86.6641 332.487 86.6641 311.231C86.6641 267.83 100.546 227.335 126.196 197.721C151.819 168.138 189.266 149.314 236.664 149.314C284.062 149.315 321.509 168.139 347.132 197.721C372.782 227.335 386.664 267.83 386.664 311.231Z" fill="white" stroke="#02559E" stroke-width="4"/>
<path d="M201.47 108.458L200.383 95.6399L215.067 94.3952L216.153 107.213L223.136 106.621L220.408 74.4327L213.425 75.0247L214.523 87.9862L199.84 89.2308L198.741 76.2693L191.758 76.8612L194.487 109.05L201.47 108.458Z" fill="#02559E"/>
<path d="M247.81 75.0198L243.576 107.045L250.524 107.964L254.758 75.9383L247.81 75.0198Z" fill="#02559E"/>
<path d="M320.85 132.581L325.27 125.326L329.328 127.798C336.912 132.418 343.824 131.683 347.869 125.042C351.765 118.648 349.192 112.077 341.363 107.307L331.648 101.389L314.84 128.976L320.85 132.581ZM338.155 112.941C342.09 115.339 343.569 118.263 341.721 121.296C339.773 124.494 336.471 124.562 332.536 122.164L328.642 119.792L334.261 110.569L338.155 112.941Z" fill="#02559E"/>
<path d="M269.458 110.998L276.282 113.137L280.036 107.422L292.554 111.295L292.359 118.176L299.184 120.315L299.329 91.2857C299.324 87.6119 297.078 85.1474 294.147 84.2286C291.261 83.3241 288.01 84.0658 285.909 87.0792L269.458 110.998ZM291.017 90.8433C291.401 90.2595 291.808 90.0851 292.312 90.2431C292.861 90.4154 293.05 90.7763 293.032 91.475L292.68 104.795L283.657 101.967L291.017 90.8433Z" fill="#02559E"/>
<path d="M170.763 114.56C177.198 112.171 180.858 106.307 178.837 100.862C176.281 93.977 169.74 94.5621 164.956 95.4676C161.454 96.1021 158.7 96.4075 157.798 93.9776C157.113 92.1326 158.389 90.3278 160.863 89.4091C163.923 88.2731 166.405 88.8881 168.113 90.4555L172.584 85.6725C169.045 82.0709 163.873 81.3796 158.878 83.2339C152.623 85.5559 149.357 91.3766 151.328 96.6865C153.867 103.526 160.634 102.858 165.462 101.936C168.813 101.306 171.348 100.826 172.284 103.346C173.086 105.506 171.36 107.478 168.525 108.53C165.375 109.699 162.842 109.36 161.034 107.522L156.563 112.305C160.102 115.907 165.319 116.581 170.763 114.56Z" fill="#02559E"/>
<path d="M124.309 139.632L130.405 135.891L128.56 129.308L139.704 122.412L144.764 127.079L150.86 123.338L129.066 104.161C126.292 101.752 122.959 101.826 120.341 103.433C117.763 105.015 116.187 107.953 117.079 111.517L124.309 139.632ZM123.273 110.138C123.085 109.465 123.22 109.044 123.67 108.767C124.161 108.466 124.557 108.561 125.073 109.033L134.885 118.048L126.826 122.994L123.273 110.138Z" fill="#02559E"/>
<path d="M342.76 282.074C342.76 308.323 339.562 330.609 319.447 342.892C309.411 349.02 294.15 355.507 236.712 355.507C179.298 355.507 163.341 348.487 153.962 342.882C135.414 331.797 130.664 308.287 130.664 282.074C130.664 269.13 132.602 258.438 137.077 250.193C141.512 242.02 148.52 236.098 159.019 232.782C169.321 229.528 180.426 232.169 193.383 235.942C194.628 236.305 195.889 236.677 197.164 237.054C208.991 240.548 222.137 244.432 236.697 244.542C252.573 244.663 267.008 241.003 279.946 237.723L280.077 237.689C293.185 234.366 304.537 231.521 314.748 232.858C324.655 234.155 331.584 239.909 336.111 248.612C340.678 257.393 342.76 269.138 342.76 282.074Z" fill="#0A66AC" stroke="#02559E" stroke-width="4"/>
<path d="M272.97 301.855C270.614 300.512 270.614 297.116 272.97 295.774L302.091 279.174C305.77 277.078 309.316 282.097 306.112 284.864L290.397 298.436C290.166 298.635 290.166 298.993 290.397 299.193L306.112 312.765C309.317 315.532 305.77 320.551 302.091 318.455L272.97 301.855Z" fill="white" stroke="#02559E" stroke-width="3"/>
<path d="M199.359 301.855C201.714 300.512 201.714 297.116 199.359 295.774L170.237 279.174C166.558 277.078 163.012 282.097 166.216 284.864L181.931 298.436C182.162 298.635 182.162 298.993 181.931 299.193L166.216 312.765C163.012 315.532 166.559 320.551 170.237 318.455L199.359 301.855Z" fill="white" stroke="#02559E" stroke-width="3"/>
<line x1="414.265" y1="233.21" x2="458.559" y2="225.714" stroke="#69D8FF" stroke-width="21" stroke-linecap="round"/>
<line x1="54.5259" y1="253.434" x2="11.4342" y2="257.474" stroke="#69D8FF" stroke-width="21" stroke-linecap="round"/>
<path d="M393.447 180.296L439.96 147.314" stroke="#69D8FF" stroke-width="21" stroke-linecap="round"/>
<path d="M21.352 168.23L70.7279 196.747" stroke="#69D8FF" stroke-width="21" stroke-linecap="round"/>
</svg>
