<svg width="407" height="467" viewBox="0 0 407 467" fill="none" xmlns="http://www.w3.org/2000/svg">
<path d="M12.4033 309.899C17.3025 302.469 27.4871 300.777 34.5258 306.223L90.2514 349.341C90.8028 349.768 91.3078 350.256 91.7536 350.793C97.8535 358.145 90.572 368.877 81.5643 365.948C81.021 365.771 80.4948 365.546 79.992 365.274L17.9073 331.773C10.0081 327.51 7.46217 317.392 12.4033 309.899Z" fill="#FCDB00" stroke="#02559E" stroke-width="4"/>
<path d="M330.421 303.86C324.892 296.884 314.597 296.086 308.059 302.126L256.304 349.935C255.792 350.409 255.331 350.939 254.934 351.513C249.497 359.37 257.687 369.428 266.407 365.724C266.933 365.501 267.437 365.23 267.915 364.916L326.843 326.133C334.342 321.198 335.997 310.895 330.421 303.86Z" fill="#FCDB00" stroke="#02559E" stroke-width="4"/>
<path d="M172.5 465C156.506 465 142.378 453.254 130.37 436.253C118.426 419.341 108.958 397.754 102.184 379.197C95.4061 360.631 109.68 342 129.763 342H215.237C235.32 342 249.594 360.631 242.816 379.197C236.042 397.754 226.574 419.341 214.63 436.253C202.622 453.254 188.494 465 172.5 465Z" fill="white" stroke="#02559E" stroke-width="4"/>
<path d="M155.119 390.42V379.242L161.087 389.544C161.581 390.375 162.411 390.712 163.376 390.712C164.565 390.712 165.665 389.859 165.665 388.355V375.314H162.568V386.425L156.6 376.19C156.106 375.359 155.321 375 154.334 375C153.099 375 152 375.875 152 377.379V390.42H155.119ZM173.84 390.712C175.366 390.712 176.578 390.106 177.363 389.118V390.42H180.392V384.831C180.392 381.487 177.834 378.973 174.356 378.973C170.946 378.973 168.343 381.644 168.343 384.831C168.343 388.063 170.609 390.712 173.84 390.712ZM174.356 387.726C172.718 387.726 171.529 386.425 171.529 384.853C171.529 383.282 172.718 381.98 174.356 381.98C175.994 381.98 177.206 383.282 177.206 384.853C177.206 386.425 175.994 387.726 174.356 387.726ZM188.534 387.637C186.896 387.637 186.088 386.178 186.088 384.472V379.309H182.902V384.831C182.902 388.085 184.832 390.712 188.534 390.712C192.259 390.712 194.188 388.085 194.188 384.831V379.309H191.002V384.449C191.002 386.178 190.172 387.637 188.534 387.637Z" fill="#02559E"/>
<path d="M234.755 376.885C236.268 374.211 239.398 374.388 241 374.308C241 374.308 238.188 370.887 235.853 370.887C227.999 370.887 230.706 365.53 225.047 366.264C219.388 366.999 220.027 366.197 217.95 364.362C215.607 362.29 212.821 362.819 211.301 364.369C210.16 365.531 209.71 367.324 210.509 368.648C211.019 369.494 212.021 371.466 214.973 370.719C217.483 369.461 215.095 366.192 214.143 368.648C214.143 368.648 213.419 368.373 213.753 367.589C214.041 366.914 214.875 366.698 215.485 366.866C216.095 367.035 216.822 367.589 216.822 369.01C216.839 369.072 219.168 368.648 221.095 371.081C221.883 372.075 225.018 371.091 227.242 371.586C229.73 372.14 232.097 374.982 232.097 374.982C232.097 374.982 229.773 374.565 228.072 375.536C227.298 375.978 225.403 378.692 223.291 380.256C222.069 381.161 219.917 381.714 218.046 380.858C215.363 379.63 215.41 378.518 213.338 377.511C211.704 376.716 208.801 377.222 208.801 377.222C208.801 377.222 209.182 374.284 212.411 374.284C214.826 374.284 214.905 374.567 217.095 372.911C217.923 372.285 219.901 372.316 220.437 373.922C221.095 375.897 217.949 376.21 217.949 376.21C217.949 376.21 220.091 375.387 219.656 374.284C219.221 373.18 217.973 373.19 217.095 373.609C216.631 373.831 215.485 375.346 213.143 374.982C210.509 374.573 209.704 376.547 209.704 376.547C209.704 376.547 212.246 376.315 212.972 376.547C215.503 377.359 215.875 379.42 218.656 380.256C220.453 380.796 221.812 380.352 222.778 379.799C224.876 378.402 226.023 376.475 227.877 374.982C229.386 374.148 230.926 374.549 230.926 374.549C230.926 374.549 229.145 372.438 226.95 372.14C223.919 371.73 221.362 372.502 220.778 371.779C219.015 369.596 216.841 369.758 216.822 369.853C216.726 370.346 216.254 371.024 215.485 371.418C212.192 373.104 210.519 369.692 208.801 369.636C207.261 369.585 206.399 370.508 205.85 371.153C204.045 373.272 204.801 374.308 199.947 374.308C195.092 374.308 196.019 378.281 196.166 378.281C196.312 378.281 199.849 374.838 201.361 378.281C202.571 381.036 206.061 380.922 207.655 380.521C210.758 379.904 212.534 381.099 214.241 383.579C216.412 386.734 221.981 386.879 225.047 383.579C227.755 380.665 227.852 380.376 230.926 379.943C233.385 379.596 234.503 377.76 234.755 376.885Z" fill="#FCDB00" fill-opacity="0.85"/>
<path d="M118.245 358.885C116.732 356.211 113.602 356.388 112 356.308C112 356.308 114.812 352.887 117.147 352.887C125.001 352.887 122.294 347.53 127.953 348.264C133.612 348.999 132.973 348.197 135.05 346.362C137.393 344.29 140.179 344.819 141.699 346.369C142.84 347.531 143.29 349.324 142.491 350.648C141.981 351.494 140.979 353.466 138.027 352.719C135.517 351.461 137.905 348.192 138.857 350.648C138.857 350.648 139.581 350.373 139.247 349.589C138.959 348.914 138.125 348.698 137.515 348.866C136.905 349.035 136.178 349.589 136.178 351.01C136.161 351.072 133.832 350.648 131.905 353.081C131.117 354.075 127.982 353.091 125.758 353.586C123.27 354.14 120.903 356.982 120.903 356.982C120.903 356.982 123.227 356.565 124.928 357.536C125.702 357.978 127.597 360.692 129.709 362.256C130.931 363.161 133.083 363.714 134.954 362.858C137.637 361.63 137.59 360.518 139.662 359.511C141.296 358.716 144.199 359.222 144.199 359.222C144.199 359.222 143.818 356.284 140.589 356.284C138.174 356.284 138.095 356.567 135.905 354.911C135.077 354.285 133.099 354.316 132.563 355.922C131.905 357.897 135.051 358.21 135.051 358.21C135.051 358.21 132.909 357.387 133.344 356.284C133.779 355.18 135.027 355.19 135.905 355.609C136.369 355.831 137.515 357.346 139.857 356.982C142.491 356.573 143.296 358.547 143.296 358.547C143.296 358.547 140.754 358.315 140.028 358.547C137.497 359.359 137.125 361.42 134.344 362.256C132.547 362.796 131.188 362.352 130.222 361.799C128.124 360.402 126.977 358.475 125.123 356.982C123.614 356.148 122.074 356.549 122.074 356.549C122.074 356.549 123.855 354.438 126.05 354.14C129.081 353.73 131.638 354.502 132.222 353.779C133.985 351.596 136.159 351.758 136.178 351.853C136.274 352.346 136.746 353.024 137.515 353.418C140.808 355.104 142.481 351.692 144.199 351.636C145.739 351.585 146.601 352.508 147.15 353.153C148.955 355.272 148.199 356.308 153.053 356.308C157.908 356.308 156.981 360.281 156.834 360.281C156.688 360.281 153.151 356.838 151.639 360.281C150.429 363.036 146.939 362.922 145.345 362.521C142.242 361.904 140.466 363.099 138.759 365.579C136.588 368.734 131.019 368.879 127.953 365.579C125.245 362.665 125.148 362.376 122.074 361.943C119.615 361.596 118.497 359.76 118.245 358.885Z" fill="#FCDB00" fill-opacity="0.85"/>
<path d="M190.244 361.439C189.036 359.848 187.055 360.243 186.025 360.334C186.025 360.334 187.51 357.873 189 357.664C194.012 356.96 191.799 353.743 195.477 353.711C199.155 353.678 198.675 353.217 199.833 351.846C201.141 350.298 202.967 350.39 204.078 351.255C204.911 351.904 205.361 353.021 204.971 353.948C204.723 354.54 204.261 355.903 202.31 355.685C200.594 355.097 201.822 352.772 202.652 354.274C202.652 354.274 203.089 354.031 202.805 353.554C202.56 353.145 202.008 353.079 201.634 353.243C201.26 353.406 200.846 353.829 200.975 354.747C200.969 354.789 199.445 354.724 198.435 356.467C198.023 357.18 195.933 356.825 194.558 357.344C193.021 357.925 191.768 359.972 191.768 359.972C191.768 359.972 193.213 359.495 194.387 359.969C194.921 360.185 196.376 361.769 197.866 362.59C198.728 363.065 200.151 363.229 201.268 362.509C202.869 361.475 202.738 360.761 203.969 359.925C204.94 359.266 206.838 359.332 206.838 359.332C206.838 359.332 206.329 357.469 204.268 357.758C202.727 357.974 202.702 358.165 201.154 357.291C200.569 356.961 199.31 357.158 199.113 358.244C198.872 359.578 200.909 359.498 200.909 359.498C200.909 359.498 199.467 359.159 199.644 358.407C199.822 357.655 200.619 357.55 201.218 357.742C201.534 357.843 202.403 358.719 203.864 358.275C205.508 357.774 206.201 358.977 206.201 358.977C206.201 358.977 204.557 359.055 204.115 359.27C202.573 360.021 202.523 361.386 200.824 362.175C199.726 362.685 198.819 362.519 198.152 362.248C196.686 361.534 195.78 360.393 194.461 359.594C193.423 359.191 192.476 359.587 192.476 359.587C192.476 359.587 193.421 358.065 194.795 357.676C196.692 357.14 198.394 357.409 198.701 356.89C199.628 355.322 201.031 355.232 201.051 355.291C201.158 355.601 201.52 355.997 202.046 356.182C204.301 356.976 205.059 354.623 206.15 354.433C207.129 354.262 207.762 354.781 208.172 355.148C209.516 356.355 209.127 357.092 212.225 356.657C215.323 356.222 215.091 358.872 214.998 358.885C214.905 358.898 212.335 356.99 211.682 359.35C211.16 361.238 208.922 361.477 207.869 361.36C205.833 361.24 204.807 362.171 203.943 363.925C202.843 366.157 199.302 366.75 197.047 364.893C195.054 363.254 194.966 363.076 192.965 363.071C191.365 363.068 190.484 361.982 190.244 361.439Z" fill="#FCDB00" fill-opacity="0.85"/>
<path d="M169.454 419.964C170.42 418.216 172.438 418.322 173.47 418.265C173.47 418.265 171.648 416.042 170.143 416.049C165.081 416.072 166.81 412.571 163.166 413.066C159.521 413.562 159.93 413.037 158.587 411.847C157.07 410.503 155.276 410.855 154.301 411.87C153.57 412.632 153.285 413.803 153.804 414.664C154.135 415.214 154.787 416.497 156.687 416.002C158.301 415.173 156.752 413.049 156.146 414.653C156.146 414.653 155.678 414.476 155.891 413.963C156.075 413.523 156.612 413.379 157.005 413.487C157.399 413.595 157.869 413.954 157.873 414.881C157.885 414.922 159.384 414.639 160.633 416.219C161.144 416.865 163.161 416.215 164.596 416.531C166.201 416.885 167.734 418.731 167.734 418.731C167.734 418.731 166.236 418.466 165.142 419.104C164.645 419.394 163.432 421.17 162.075 422.197C161.291 422.79 159.905 423.158 158.697 422.605C156.965 421.812 156.992 421.086 155.653 420.435C154.598 419.922 152.729 420.26 152.729 420.26C152.729 420.26 152.966 418.343 155.047 418.334C156.603 418.326 156.654 418.511 158.061 417.425C158.592 417.014 159.867 417.028 160.217 418.074C160.648 419.36 158.621 419.574 158.621 419.574C158.621 419.574 159.999 419.031 159.715 418.312C159.432 417.594 158.627 417.604 158.063 417.88C157.765 418.026 157.03 419.017 155.52 418.787C153.821 418.528 153.308 419.818 153.308 419.818C153.308 419.818 154.946 419.658 155.415 419.808C157.048 420.33 157.294 421.673 159.089 422.21C160.248 422.557 161.123 422.263 161.744 421.9C163.092 420.983 163.825 419.723 165.015 418.744C165.985 418.195 166.979 418.452 166.979 418.452C166.979 418.452 165.825 417.08 164.409 416.893C162.455 416.634 160.809 417.145 160.431 416.676C159.288 415.257 157.888 415.369 157.876 415.431C157.815 415.753 157.513 416.197 157.019 416.456C154.902 417.565 153.814 415.345 152.706 415.313C151.714 415.284 151.161 415.889 150.809 416.311C149.652 417.698 150.142 418.372 147.014 418.386C143.886 418.4 144.495 420.989 144.589 420.988C144.683 420.988 146.953 418.732 147.937 420.973C148.725 422.766 150.974 422.682 152 422.415C153.997 422.004 155.146 422.778 156.253 424.391C157.662 426.442 161.251 426.519 163.217 424.359C164.953 422.45 165.015 422.262 166.995 421.97C168.578 421.737 169.294 420.535 169.454 419.964Z" fill="#FCDB00" fill-opacity="0.85"/>
<path d="M323 245.917C323 267.138 313.626 283.069 299.424 295.123C285.163 307.228 266.044 315.4 246.75 320.896C227.48 326.385 208.183 329.164 193.686 330.569C186.442 331.271 180.407 331.629 176.188 331.811C174.079 331.902 172.423 331.95 171.299 331.974C170.736 331.986 170.306 331.993 170.019 331.996C169.875 331.998 169.766 331.999 169.695 331.999L169.615 332L169.602 332L169.598 332H169.596L169.592 332L169.58 332L169.505 331.999C169.436 331.999 169.333 331.998 169.196 331.996L169.096 331.995C168.825 331.991 168.449 331.985 167.973 331.974C166.899 331.95 165.318 331.902 163.302 331.811C159.27 331.629 153.503 331.272 146.58 330.57C132.724 329.166 114.283 326.388 95.8694 320.903C77.4339 315.41 59.1702 307.246 45.5459 295.153C31.9791 283.11 23 267.172 23 245.917C23 202.515 36.8818 162.021 62.532 132.407C88.1552 102.824 125.602 83.9998 173 84C220.398 84.0002 257.845 102.824 283.468 132.407C309.118 162.021 323 202.515 323 245.917Z" fill="white" stroke="#02559E" stroke-width="4"/>
<path d="M279.096 216.76C279.096 243.009 275.898 265.295 255.782 277.578C245.747 283.705 230.486 290.193 173.048 290.193C115.634 290.193 99.6765 283.173 90.2977 277.568C71.75 266.483 67 242.972 67 216.76C67 203.816 68.9384 193.124 73.413 184.878C77.8481 176.706 84.8557 170.784 95.3548 167.468C105.657 164.213 116.762 166.854 129.719 170.628C130.964 170.99 132.224 171.363 133.5 171.739C145.327 175.233 158.473 179.117 173.033 179.228C188.909 179.349 203.344 175.689 216.282 172.408L216.413 172.375C229.521 169.051 240.873 166.207 251.084 167.544C260.991 168.84 267.92 174.595 272.447 183.298C277.014 192.079 279.096 203.823 279.096 216.76Z" fill="#0A66AC" stroke="#02559E" stroke-width="4"/>
<path d="M209.306 236.541C206.95 235.198 206.95 231.802 209.306 230.459L238.427 213.86C242.106 211.763 245.652 216.782 242.448 219.55L226.733 233.122C226.502 233.321 226.502 233.679 226.733 233.878L242.448 247.45C245.653 250.218 242.106 255.237 238.427 253.14L209.306 236.541Z" fill="white" stroke="#02559E" stroke-width="3"/>
<path d="M135.694 236.541C138.05 235.198 138.05 231.802 135.694 230.459L106.573 213.86C102.894 211.763 99.3476 216.782 102.552 219.55L118.267 233.122C118.498 233.321 118.498 233.679 118.267 233.878L102.552 247.45C99.3475 250.218 102.894 255.237 106.573 253.14L135.694 236.541Z" fill="white" stroke="#02559E" stroke-width="3"/>
<line x1="350.601" y1="167.895" x2="394.895" y2="160.399" stroke="#69D8FF" stroke-width="21" stroke-linecap="round"/>
<path d="M329.783 114.981L376.295 81.9993" stroke="#69D8FF" stroke-width="21" stroke-linecap="round"/>
<path d="M57.8568 91.9974L63.9711 88.287L62.16 81.694L73.3378 74.8549L78.3746 79.5466L84.4889 75.8363L62.7915 56.5502C60.0299 54.1273 56.6962 54.1852 54.0699 55.7789C51.4847 57.3477 49.8941 60.278 50.7681 63.8463L57.8568 91.9974ZM56.9683 62.4982C56.7838 61.8241 56.9217 61.4036 57.3731 61.1296C57.8655 60.8308 58.2611 60.9276 58.7739 61.4025L68.5413 70.4665L60.4572 75.3721L56.9683 62.4982Z" fill="#02559E"/>
<path d="M106.025 64.8663C112.692 63.2348 117.003 57.8312 115.623 52.1896C113.877 45.0561 107.312 44.8836 102.455 45.232C98.9036 45.4587 96.1329 45.4449 95.5168 42.9272C95.049 41.0156 96.5241 39.3698 99.0884 38.7423C102.259 37.9665 104.653 38.8632 106.169 40.617L111.161 36.381C108.061 32.3957 103.003 31.1131 97.8279 32.3795C91.3471 33.9654 87.4318 39.371 88.7781 44.8727C90.5123 51.9596 97.3106 52.075 102.214 51.7153C105.614 51.4761 108.188 51.291 108.827 53.902C109.375 56.14 107.433 57.8998 104.496 58.6186C101.232 59.4173 98.7556 58.7879 97.1708 56.7543L92.1786 60.9903C95.2787 64.9757 100.383 66.2468 106.025 64.8663Z" fill="#02559E"/>
<path d="M129.602 23.7479L133.679 55.7936L140.631 54.9091L136.554 22.8634L129.602 23.7479Z" fill="#02559E"/>
<path d="M166.771 50.1814L167.052 37.3204L171.227 37.4115C171.589 38.4276 172.143 39.448 172.888 40.4725L180.16 50.4734L188.75 50.6608L179.515 38.2164C178.257 36.4606 177.611 35.2942 177.637 34.0945C177.663 32.8948 178.361 31.7097 179.694 30.0104L189.167 18.3582L181.201 18.1844L173.162 27.9474C172.371 28.9864 171.725 29.9806 171.319 30.98L167.192 30.89L167.476 17.8851L160.469 17.7322L159.765 50.0286L166.771 50.1814Z" fill="#02559E"/>
<path d="M226.893 20.3336L219.339 39.9536L225.879 42.4717L233.433 22.8517L226.893 20.3336ZM218.198 52.27C220.258 53.0633 222.616 52.0165 223.409 49.9559C224.203 47.8954 223.156 45.5378 221.095 44.7445C219.08 43.9684 216.677 44.9979 215.884 47.0585C215.09 49.119 216.182 51.4939 218.198 52.27Z" fill="#02559E"/>
<path d="M33.233 326.388C33.233 326.388 31.364 337.924 32.8902 346.048C35.6334 360.651 43.4914 368.985 43.4914 368.985" stroke="#02559E" stroke-width="3" stroke-linecap="round"/>
<path d="M21.3864 324.419C21.3864 324.419 18.214 339.591 20.9353 350.297C25.8265 369.54 39.5879 380.569 39.5879 380.569" stroke="#02559E" stroke-width="3" stroke-linecap="round"/>
<path d="M297.245 371.734C297.245 371.734 303.898 362.126 306.019 354.136C309.829 339.775 306.325 328.87 306.325 328.87" stroke="#02559E" stroke-width="3" stroke-linecap="round"/>
<path d="M307.09 378.611C307.09 378.611 316.485 366.283 318.638 355.448C322.508 335.974 314.835 320.095 314.835 320.095" stroke="#02559E" stroke-width="3" stroke-linecap="round"/>
</svg>
