<svg width="399" height="510" viewBox="0 0 399 510" fill="none" xmlns="http://www.w3.org/2000/svg">
<path d="M62.0974 476.312C54.4213 471.808 52.1984 461.726 57.2688 454.412L97.4114 396.506C97.8087 395.933 98.2699 395.404 98.7831 394.93C105.806 388.454 116.904 395.164 114.45 404.312C114.302 404.864 114.104 405.402 113.86 405.918L83.6532 469.671C79.8099 477.782 69.8392 480.854 62.0974 476.312Z" fill="#FCDB00" stroke="#02559E" stroke-width="4"/>
<path d="M331.755 476.315C339.432 471.811 341.655 461.727 336.584 454.412L296.443 396.507C296.045 395.934 295.584 395.404 295.071 394.931C288.047 388.454 276.948 395.164 279.401 404.314C279.549 404.866 279.747 405.404 279.992 405.92L310.196 469.673C314.04 477.785 324.012 480.858 331.755 476.315Z" fill="#FCDB00" stroke="#02559E" stroke-width="4"/>
<path d="M196.5 508C180.506 508 166.378 496.254 154.37 479.253C142.426 462.341 132.958 440.754 126.184 422.197C119.406 403.631 133.68 385 153.763 385H239.237C259.32 385 273.594 403.631 266.816 422.197C260.042 440.754 250.574 462.341 238.63 479.253C226.622 496.254 212.494 508 196.5 508Z" fill="white" stroke="#02559E" stroke-width="4"/>
<path d="M179.119 433.422V422.244L185.087 432.546C185.581 433.377 186.411 433.714 187.376 433.714C188.565 433.714 189.665 432.861 189.665 431.357V418.316H186.568V429.427L180.6 419.192C180.106 418.361 179.321 418.002 178.334 418.002C177.099 418.002 176 418.877 176 420.381V433.422H179.119ZM197.84 433.714C199.366 433.714 200.578 433.107 201.363 432.12V433.422H204.392V427.833C204.392 424.489 201.834 421.975 198.356 421.975C194.946 421.975 192.343 424.646 192.343 427.833C192.343 431.065 194.609 433.714 197.84 433.714ZM198.356 430.728C196.718 430.728 195.529 429.426 195.529 427.855C195.529 426.284 196.718 424.982 198.356 424.982C199.994 424.982 201.206 426.284 201.206 427.855C201.206 429.426 199.994 430.728 198.356 430.728ZM212.534 430.639C210.896 430.639 210.088 429.18 210.088 427.474V422.311H206.902V427.833C206.902 431.087 208.832 433.714 212.534 433.714C216.259 433.714 218.188 431.087 218.188 427.833V422.311H215.002V427.451C215.002 429.18 214.172 430.639 212.534 430.639Z" fill="#02559E"/>
<path d="M258.755 419.886C260.268 417.213 263.398 417.39 265 417.31C265 417.31 262.188 413.889 259.853 413.889C251.999 413.889 254.706 408.532 249.047 409.266C243.388 410.001 244.027 409.199 241.95 407.364C239.607 405.292 236.821 405.821 235.301 407.37C234.16 408.533 233.71 410.326 234.509 411.65C235.019 412.496 236.021 414.468 238.973 413.721C241.483 412.463 239.095 409.194 238.143 411.65C238.143 411.65 237.419 411.375 237.753 410.591C238.041 409.916 238.875 409.7 239.485 409.868C240.095 410.037 240.822 410.591 240.822 412.012C240.839 412.074 243.168 411.65 245.095 414.083C245.883 415.077 249.018 414.093 251.242 414.588C253.73 415.142 256.097 417.984 256.097 417.984C256.097 417.984 253.773 417.567 252.072 418.538C251.298 418.979 249.403 421.694 247.291 423.258C246.069 424.163 243.917 424.716 242.046 423.86C239.363 422.632 239.41 421.52 237.338 420.513C235.704 419.718 232.801 420.224 232.801 420.224C232.801 420.224 233.182 417.286 236.411 417.286C238.826 417.286 238.905 417.569 241.095 415.913C241.923 415.287 243.901 415.318 244.437 416.924C245.095 418.899 241.949 419.212 241.949 419.212C241.949 419.212 244.091 418.389 243.656 417.286C243.221 416.182 241.973 416.192 241.095 416.611C240.631 416.833 239.485 418.348 237.143 417.984C234.509 417.575 233.704 419.549 233.704 419.549C233.704 419.549 236.246 419.316 236.972 419.549C239.503 420.36 239.875 422.422 242.656 423.258C244.453 423.798 245.812 423.354 246.778 422.8C248.876 421.404 250.023 419.477 251.877 417.984C253.386 417.15 254.926 417.551 254.926 417.551C254.926 417.551 253.145 415.44 250.95 415.142C247.919 414.732 245.362 415.504 244.778 414.781C243.015 412.598 240.841 412.76 240.822 412.854C240.726 413.348 240.254 414.026 239.485 414.42C236.192 416.106 234.519 412.694 232.801 412.638C231.261 412.587 230.399 413.51 229.85 414.155C228.045 416.274 228.801 417.31 223.947 417.31C219.092 417.31 220.019 421.283 220.166 421.283C220.312 421.283 223.849 417.84 225.361 421.283C226.571 424.038 230.061 423.924 231.655 423.523C234.758 422.906 236.534 424.101 238.241 426.581C240.412 429.736 245.981 429.881 249.047 426.581C251.755 423.667 251.852 423.378 254.926 422.945C257.385 422.598 258.503 420.761 258.755 419.886Z" fill="#FCDB00" fill-opacity="0.85"/>
<path d="M142.245 401.886C140.732 399.213 137.602 399.39 136 399.31C136 399.31 138.812 395.889 141.147 395.889C149.001 395.889 146.294 390.532 151.953 391.266C157.612 392.001 156.973 391.199 159.05 389.364C161.393 387.292 164.179 387.821 165.699 389.37C166.84 390.533 167.29 392.326 166.491 393.65C165.981 394.496 164.979 396.468 162.027 395.721C159.517 394.463 161.905 391.194 162.857 393.65C162.857 393.65 163.581 393.375 163.247 392.591C162.959 391.916 162.125 391.7 161.515 391.868C160.905 392.037 160.178 392.591 160.178 394.012C160.161 394.074 157.832 393.65 155.905 396.083C155.117 397.077 151.982 396.093 149.758 396.588C147.27 397.142 144.903 399.984 144.903 399.984C144.903 399.984 147.227 399.567 148.928 400.538C149.702 400.979 151.597 403.694 153.709 405.258C154.931 406.163 157.083 406.716 158.954 405.86C161.637 404.632 161.59 403.52 163.662 402.513C165.296 401.718 168.199 402.224 168.199 402.224C168.199 402.224 167.818 399.286 164.589 399.286C162.174 399.286 162.095 399.569 159.905 397.913C159.077 397.287 157.099 397.318 156.563 398.924C155.905 400.899 159.051 401.212 159.051 401.212C159.051 401.212 156.909 400.389 157.344 399.286C157.779 398.182 159.027 398.192 159.905 398.611C160.369 398.833 161.515 400.348 163.857 399.984C166.491 399.575 167.296 401.549 167.296 401.549C167.296 401.549 164.754 401.316 164.028 401.549C161.497 402.36 161.125 404.422 158.344 405.258C156.547 405.798 155.188 405.354 154.222 404.8C152.124 403.404 150.977 401.477 149.123 399.984C147.614 399.15 146.074 399.551 146.074 399.551C146.074 399.551 147.855 397.44 150.05 397.142C153.081 396.732 155.638 397.504 156.222 396.781C157.985 394.598 160.159 394.76 160.178 394.854C160.274 395.348 160.746 396.026 161.515 396.42C164.808 398.106 166.481 394.694 168.199 394.638C169.739 394.587 170.601 395.51 171.15 396.155C172.955 398.274 172.199 399.31 177.053 399.31C181.908 399.31 180.981 403.283 180.834 403.283C180.688 403.283 177.151 399.84 175.639 403.283C174.429 406.038 170.939 405.924 169.345 405.523C166.242 404.906 164.466 406.101 162.759 408.581C160.588 411.736 155.019 411.881 151.953 408.581C149.245 405.667 149.148 405.378 146.074 404.945C143.615 404.598 142.497 402.761 142.245 401.886Z" fill="#FCDB00" fill-opacity="0.85"/>
<path d="M214.244 404.441C213.036 402.85 211.055 403.245 210.025 403.336C210.025 403.336 211.51 400.875 213 400.666C218.012 399.962 215.799 396.745 219.477 396.712C223.155 396.68 222.675 396.219 223.833 394.848C225.141 393.3 226.967 393.392 228.078 394.257C228.911 394.906 229.361 396.023 228.971 396.95C228.723 397.542 228.261 398.905 226.31 398.687C224.594 398.099 225.822 395.774 226.652 397.276C226.652 397.276 227.089 397.033 226.805 396.556C226.56 396.147 226.008 396.081 225.634 396.245C225.26 396.408 224.846 396.831 224.975 397.749C224.969 397.791 223.445 397.726 222.435 399.469C222.023 400.182 219.933 399.827 218.558 400.346C217.021 400.927 215.768 402.974 215.768 402.974C215.768 402.974 217.213 402.497 218.387 402.971C218.921 403.187 220.376 404.771 221.866 405.592C222.728 406.067 224.151 406.231 225.268 405.511C226.869 404.477 226.738 403.763 227.969 402.927C228.94 402.267 230.838 402.334 230.838 402.334C230.838 402.334 230.329 400.471 228.268 400.76C226.727 400.976 226.702 401.167 225.154 400.293C224.569 399.963 223.31 400.16 223.113 401.245C222.872 402.58 224.909 402.5 224.909 402.5C224.909 402.5 223.467 402.161 223.644 401.409C223.822 400.657 224.619 400.552 225.218 400.744C225.534 400.845 226.403 401.721 227.864 401.277C229.508 400.776 230.201 401.979 230.201 401.979C230.201 401.979 228.557 402.057 228.115 402.272C226.573 403.023 226.523 404.387 224.824 405.177C223.726 405.686 222.819 405.521 222.152 405.25C220.686 404.536 219.78 403.394 218.461 402.596C217.423 402.193 216.476 402.589 216.476 402.589C216.476 402.589 217.421 401.066 218.795 400.678C220.692 400.141 222.394 400.411 222.701 399.892C223.628 398.324 225.031 398.234 225.051 398.293C225.158 398.603 225.52 398.999 226.046 399.184C228.301 399.978 229.059 397.625 230.15 397.435C231.129 397.264 231.762 397.783 232.172 398.15C233.516 399.357 233.127 400.094 236.225 399.659C239.323 399.224 239.091 401.873 238.998 401.887C238.905 401.9 236.335 399.992 235.682 402.352C235.16 404.24 232.922 404.479 231.869 404.362C229.833 404.242 228.807 405.173 227.943 406.927C226.843 409.159 223.302 409.752 221.047 407.895C219.054 406.256 218.966 406.078 216.965 406.073C215.365 406.07 214.484 404.984 214.244 404.441Z" fill="#FCDB00" fill-opacity="0.85"/>
<path d="M193.454 462.966C194.42 461.218 196.438 461.324 197.47 461.267C197.47 461.267 195.648 459.044 194.143 459.051C189.081 459.074 190.81 455.573 187.166 456.068C183.521 456.564 183.93 456.039 182.587 454.848C181.07 453.505 179.276 453.857 178.301 454.872C177.57 455.634 177.285 456.804 177.804 457.666C178.135 458.216 178.787 459.499 180.687 459.004C182.301 458.175 180.752 456.05 180.146 457.655C180.146 457.655 179.678 457.478 179.891 456.965C180.075 456.525 180.612 456.381 181.005 456.489C181.399 456.597 181.869 456.956 181.873 457.883C181.885 457.924 183.384 457.64 184.633 459.221C185.144 459.867 187.161 459.216 188.596 459.533C190.201 459.887 191.734 461.733 191.734 461.733C191.734 461.733 190.236 461.468 189.142 462.106C188.645 462.396 187.432 464.172 186.075 465.199C185.291 465.792 183.905 466.159 182.697 465.607C180.965 464.813 180.992 464.088 179.653 463.437C178.598 462.924 176.729 463.262 176.729 463.262C176.729 463.262 176.966 461.345 179.047 461.335C180.603 461.328 180.654 461.513 182.061 460.426C182.592 460.016 183.867 460.03 184.217 461.076C184.648 462.362 182.621 462.576 182.621 462.576C182.621 462.576 183.999 462.033 183.715 461.314C183.432 460.596 182.627 460.606 182.063 460.882C181.765 461.028 181.03 462.019 179.52 461.789C177.821 461.53 177.308 462.82 177.308 462.82C177.308 462.82 178.946 462.66 179.415 462.81C181.048 463.332 181.294 464.675 183.089 465.212C184.248 465.559 185.123 465.265 185.744 464.902C187.092 463.985 187.825 462.725 189.015 461.745C189.985 461.197 190.979 461.454 190.979 461.454C190.979 461.454 189.825 460.082 188.409 459.895C186.455 459.636 184.809 460.147 184.431 459.677C183.288 458.259 181.888 458.371 181.876 458.433C181.815 458.755 181.513 459.198 181.019 459.457C178.902 460.567 177.814 458.347 176.706 458.315C175.714 458.286 175.161 458.891 174.809 459.313C173.652 460.7 174.142 461.374 171.014 461.388C167.886 461.402 168.495 463.991 168.589 463.99C168.683 463.99 170.953 461.734 171.937 463.975C172.725 465.768 174.974 465.684 176 465.417C177.997 465.006 179.146 465.78 180.253 467.392C181.662 469.444 185.251 469.521 187.217 467.361C188.953 465.452 189.015 465.264 190.995 464.972C192.578 464.738 193.294 463.537 193.454 462.966Z" fill="#FCDB00" fill-opacity="0.85"/>
<path d="M347 288.919C347 310.14 337.626 326.071 323.424 338.125C309.163 350.23 290.044 358.402 270.75 363.898C251.48 369.387 232.183 372.166 217.686 373.571C210.442 374.273 204.407 374.631 200.188 374.813C198.079 374.904 196.423 374.952 195.299 374.976C194.736 374.988 194.306 374.995 194.019 374.998C193.875 375 193.766 375.001 193.695 375.001L193.615 375.002L193.602 375.002L193.598 375.002H193.596L193.592 375.002L193.58 375.002L193.505 375.001C193.436 375.001 193.333 375 193.196 374.998L193.096 374.997C192.825 374.993 192.449 374.987 191.973 374.976C190.899 374.952 189.318 374.904 187.302 374.813C183.27 374.631 177.503 374.274 170.58 373.572C156.724 372.168 138.283 369.39 119.869 363.904C101.434 358.412 83.1702 350.248 69.5459 338.154C55.9791 326.112 47 310.174 47 288.919C47 245.517 60.8818 205.023 86.532 175.409C112.155 145.826 149.602 127.002 197 127.002C244.398 127.002 281.845 145.826 307.468 175.409C333.118 205.023 347 245.517 347 288.919Z" fill="white" stroke="#02559E" stroke-width="4"/>
<path d="M168.875 98.0028C172.139 97.9621 174.714 96.6338 176.368 94.501L176.403 97.2848L182.882 97.204L182.733 85.2529C182.644 78.1015 177.105 72.7942 169.666 72.887C162.37 72.978 156.874 78.759 156.959 85.5745C157.045 92.4859 161.964 98.089 168.875 98.0028ZM169.899 91.6055C166.396 91.6492 163.817 88.8972 163.775 85.5374C163.733 82.1777 166.242 79.3622 169.746 79.3185C173.25 79.2748 175.876 82.0262 175.918 85.3859C175.96 88.7457 173.403 91.5618 169.899 91.6055Z" fill="#02559E"/>
<path d="M254.598 100.9L257.464 89.6924C258.391 86.0651 261.243 84.0197 264.545 84.8639C267.893 85.72 268.923 89.055 268.091 92.3103L265.213 103.564L271.805 105.299L274.861 93.3476C276.716 86.093 274.183 80.6893 267.161 78.8939C264.65 78.2518 262.169 78.4598 260.127 79.2755L263.195 67.2774L256.591 65.589L247.995 99.2115L254.598 100.9Z" fill="#02559E"/>
<path d="M212.513 94.1228L219.626 94.8642L222.17 88.5177L235.208 89.8284L236.384 96.6108L243.497 97.3522L237.875 68.872C237.14 65.2724 234.45 63.3029 231.395 62.9844C228.387 62.6709 225.348 64.0433 223.887 67.414L212.513 94.1228ZM229.641 70.0889C229.901 69.4404 230.265 69.1888 230.791 69.2435C231.363 69.3032 231.62 69.6195 231.741 70.3078L234.041 83.4329L224.636 82.4527L229.641 70.0889Z" fill="#02559E"/>
<path d="M112.985 121.829C120.024 118.639 123.012 111.277 119.525 103.583L115.563 94.8384C112.611 88.324 105.427 85.7296 98.6506 88.8004C92.0051 91.8117 89.2514 99.2252 92.0845 105.477C94.9968 111.904 101.989 114.427 108.067 111.673C111.127 110.286 112.711 108.199 113.217 106.177L113.396 106.571C115.317 110.812 113.994 114.52 110.322 116.185C107.392 117.512 104.926 116.838 103.113 115.394L99.2215 120.529C103.012 123.66 107.913 124.127 112.985 121.829ZM106.111 105.498C103.051 106.884 99.5526 105.677 98.146 102.572C96.7393 99.4683 98.1575 96.0854 101.218 94.6986C104.322 93.2919 107.801 94.456 109.207 97.5601C110.614 100.664 109.216 104.091 106.111 105.498Z" fill="#02559E"/>
<path d="M138.406 112.455C146.035 111.221 150.848 104.9 149.499 96.5606L147.967 87.0837C146.826 80.0234 140.574 75.6369 133.229 76.8243C126.027 77.9887 121.426 84.4214 122.522 91.1974C123.648 98.1629 129.735 102.43 136.321 101.365C139.638 100.829 141.714 99.2294 142.733 97.4115L142.801 97.838C143.545 102.434 141.296 105.667 137.315 106.31C134.14 106.823 131.937 105.526 130.565 103.657L125.464 107.594C128.301 111.609 132.909 113.343 138.406 112.455ZM136.053 94.8932C132.736 95.4295 129.677 93.3471 129.133 89.9828C128.589 86.6184 130.844 83.7254 134.161 83.1892C137.525 82.6453 140.577 84.6803 141.121 88.0446C141.665 91.409 139.417 94.3493 136.053 94.8932Z" fill="#02559E"/>
<path d="M74.511 132.339L60.6476 112.865L83.8267 123.409C85.717 124.243 87.5813 123.8 89.2628 122.602C91.3352 121.127 92.1934 118.277 90.3282 115.657L74.1542 92.9384L68.758 96.7801L82.538 116.136L59.4424 105.71C57.5521 104.876 55.7381 105.224 54.0176 106.449C51.8669 107.98 51.0365 110.869 52.9017 113.489L69.0757 136.208L74.511 132.339Z" fill="#02559E"/>
<path d="M278 265.502C278 291.751 274.801 314.037 254.686 326.32C249.633 329.405 244.847 331.794 234.22 333.438C223.472 335.1 206.814 335.987 178.048 335.987C149.41 335.987 131.445 332.922 119.48 329.186C109.349 326.023 103.478 322.377 98.8801 319.522C98.0607 319.013 97.2817 318.529 96.5262 318.077C87.312 312.571 82.0444 303.661 79.0789 293.556C76.1074 283.431 75.5 272.275 75.5 262.553C75.5 243.355 83.825 224.629 101.483 220.235C110.556 217.977 121.548 219.027 134.539 220.777C136.369 221.024 138.234 221.283 140.135 221.548C151.607 223.144 164.35 224.918 178.033 225.022C193.718 225.141 206.509 222.288 217.865 219.755L218.309 219.656C229.841 217.084 239.728 214.943 249.988 216.286C259.895 217.583 266.824 223.337 271.35 232.04C275.917 240.821 278 252.565 278 265.502Z" fill="#0A66AC" stroke="#02559E" stroke-width="4"/>
<path d="M127.835 280.516C130.133 279.162 130.133 275.838 127.835 274.484L103.262 260.014C99.6176 257.867 96.0002 262.825 99.1562 265.641L112.029 277.127C112.252 277.326 112.252 277.674 112.029 277.873L99.1562 289.359C96 292.175 99.6178 297.132 103.262 294.986L127.835 280.516Z" fill="white" stroke="#02559E" stroke-width="3"/>
<path d="M203.306 284.541C200.95 283.198 200.95 279.802 203.306 278.459L232.427 261.86C236.106 259.763 239.652 264.782 236.448 267.55L220.733 281.122C220.502 281.321 220.502 281.679 220.733 281.878L236.448 295.45C239.653 298.218 236.106 303.237 232.427 301.14L203.306 284.541Z" fill="white" stroke="#02559E" stroke-width="3"/>
<path d="M326 306.146C326 306.146 407.014 296.144 392.158 268.298C385.973 256.705 354.848 249.616 354.848 249.616" stroke="#02559E" stroke-width="3" stroke-linecap="round"/>
<path d="M340.424 291.399C340.424 291.399 386.605 283.739 379.141 270.508C376.391 265.633 362.439 261.455 362.439 261.455" stroke="#02559E" stroke-width="3" stroke-linecap="round"/>
<path d="M72.9996 306.146C72.9996 306.146 -8.01437 296.144 6.84186 268.298C13.0271 256.705 44.1518 249.616 44.1518 249.616" stroke="#02559E" stroke-width="3" stroke-linecap="round"/>
<path d="M58.5766 291.399C58.5766 291.399 12.3955 283.739 19.86 270.508C22.6099 265.633 36.5618 261.455 36.5618 261.455" stroke="#02559E" stroke-width="3" stroke-linecap="round"/>
</svg>
