<svg width="399" height="545" viewBox="0 0 399 545" fill="none" xmlns="http://www.w3.org/2000/svg">
<path d="M356.755 511.315C364.432 506.811 366.655 496.727 361.584 489.412L321.443 431.507C321.045 430.934 320.584 430.404 320.071 429.931C313.047 423.454 301.948 430.164 304.401 439.314C304.549 439.866 304.747 440.404 304.992 440.92L335.196 504.673C339.04 512.785 349.012 515.858 356.755 511.315Z" fill="#FCDB00" stroke="#02559E" stroke-width="4"/>
<path d="M221.5 543C205.506 543 191.378 531.254 179.37 514.253C167.426 497.341 157.958 475.754 151.184 457.197C144.406 438.631 158.68 420 178.763 420H264.237C284.32 420 298.594 438.631 291.816 457.197C285.042 475.754 275.574 497.341 263.63 514.253C251.622 531.254 237.494 543 221.5 543Z" fill="white" stroke="#02559E" stroke-width="4"/>
<path d="M204.119 468.42V457.242L210.087 467.544C210.581 468.375 211.411 468.712 212.376 468.712C213.565 468.712 214.665 467.859 214.665 466.355V453.314H211.568V464.425L205.6 454.19C205.106 453.359 204.321 453 203.334 453C202.099 453 201 453.875 201 455.379V468.42H204.119ZM222.84 468.712C224.366 468.712 225.578 468.106 226.363 467.118V468.42H229.392V462.831C229.392 459.487 226.834 456.973 223.356 456.973C219.946 456.973 217.343 459.644 217.343 462.831C217.343 466.063 219.609 468.712 222.84 468.712ZM223.356 465.726C221.718 465.726 220.529 464.425 220.529 462.853C220.529 461.282 221.718 459.98 223.356 459.98C224.994 459.98 226.206 461.282 226.206 462.853C226.206 464.425 224.994 465.726 223.356 465.726ZM237.534 465.637C235.896 465.637 235.088 464.178 235.088 462.472V457.309H231.902V462.831C231.902 466.085 233.832 468.712 237.534 468.712C241.259 468.712 243.188 466.085 243.188 462.831V457.309H240.002V462.449C240.002 464.178 239.172 465.637 237.534 465.637Z" fill="#02559E"/>
<path d="M283.754 454.885C285.267 452.211 288.397 452.388 289.999 452.308C289.999 452.308 287.187 448.887 284.852 448.887C276.998 448.887 279.705 443.53 274.046 444.264C268.387 444.999 269.026 444.197 266.949 442.362C264.606 440.29 261.82 440.819 260.3 442.369C259.16 443.531 258.709 445.324 259.508 446.648C260.018 447.494 261.02 449.466 263.972 448.719C266.482 447.461 264.094 444.192 263.142 446.648C263.142 446.648 262.418 446.373 262.752 445.589C263.04 444.914 263.874 444.698 264.484 444.866C265.094 445.035 265.821 445.589 265.821 447.01C265.839 447.072 268.167 446.648 270.094 449.081C270.882 450.075 274.017 449.091 276.241 449.586C278.729 450.14 281.096 452.982 281.096 452.982C281.096 452.982 278.772 452.565 277.071 453.536C276.297 453.978 274.402 456.692 272.29 458.256C271.068 459.161 268.916 459.714 267.045 458.858C264.362 457.63 264.409 456.518 262.337 455.511C260.703 454.716 257.8 455.222 257.8 455.222C257.8 455.222 258.181 452.284 261.41 452.284C263.825 452.284 263.904 452.567 266.094 450.911C266.922 450.285 268.9 450.316 269.436 451.922C270.094 453.897 266.948 454.21 266.948 454.21C266.948 454.21 269.09 453.387 268.655 452.284C268.22 451.18 266.972 451.19 266.094 451.609C265.63 451.831 264.484 453.346 262.142 452.982C259.508 452.573 258.703 454.547 258.703 454.547C258.703 454.547 261.245 454.315 261.971 454.547C264.502 455.359 264.874 457.42 267.655 458.256C269.452 458.796 270.811 458.352 271.777 457.799C273.875 456.402 275.022 454.475 276.876 452.982C278.385 452.148 279.925 452.549 279.925 452.549C279.925 452.549 278.144 450.438 275.949 450.14C272.918 449.73 270.361 450.502 269.777 449.779C268.014 447.596 265.84 447.758 265.821 447.853C265.725 448.346 265.253 449.024 264.484 449.418C261.191 451.104 259.519 447.692 257.8 447.636C256.26 447.585 255.398 448.508 254.849 449.153C253.044 451.272 253.8 452.308 248.946 452.308C244.091 452.308 245.018 456.281 245.165 456.281C245.311 456.281 248.848 452.838 250.36 456.281C251.57 459.036 255.06 458.922 256.654 458.521C259.757 457.904 261.533 459.099 263.24 461.579C265.411 464.734 270.98 464.879 274.046 461.579C276.754 458.665 276.851 458.376 279.925 457.943C282.384 457.596 283.502 455.76 283.754 454.885Z" fill="#FCDB00" fill-opacity="0.85"/>
<path d="M167.245 436.885C165.732 434.211 162.602 434.388 161 434.308C161 434.308 163.812 430.887 166.147 430.887C174.001 430.887 171.294 425.53 176.953 426.264C182.612 426.999 181.973 426.197 184.05 424.362C186.393 422.29 189.179 422.819 190.699 424.369C191.84 425.531 192.29 427.324 191.491 428.648C190.981 429.494 189.979 431.466 187.027 430.719C184.517 429.461 186.905 426.192 187.857 428.648C187.857 428.648 188.581 428.373 188.247 427.589C187.959 426.914 187.125 426.698 186.515 426.866C185.905 427.035 185.178 427.589 185.178 429.01C185.161 429.072 182.832 428.648 180.905 431.081C180.117 432.075 176.982 431.091 174.758 431.586C172.27 432.14 169.903 434.982 169.903 434.982C169.903 434.982 172.227 434.565 173.928 435.536C174.702 435.978 176.597 438.692 178.709 440.256C179.931 441.161 182.083 441.714 183.954 440.858C186.637 439.63 186.59 438.518 188.662 437.511C190.296 436.716 193.199 437.222 193.199 437.222C193.199 437.222 192.818 434.284 189.589 434.284C187.174 434.284 187.095 434.567 184.905 432.911C184.077 432.285 182.099 432.316 181.563 433.922C180.905 435.897 184.051 436.21 184.051 436.21C184.051 436.21 181.909 435.387 182.344 434.284C182.779 433.18 184.027 433.19 184.905 433.609C185.369 433.831 186.515 435.346 188.857 434.982C191.491 434.573 192.296 436.547 192.296 436.547C192.296 436.547 189.754 436.315 189.028 436.547C186.497 437.359 186.125 439.42 183.344 440.256C181.547 440.796 180.188 440.352 179.222 439.799C177.124 438.402 175.977 436.475 174.123 434.982C172.614 434.148 171.074 434.549 171.074 434.549C171.074 434.549 172.855 432.438 175.05 432.14C178.081 431.73 180.638 432.502 181.222 431.779C182.985 429.596 185.159 429.758 185.178 429.853C185.274 430.346 185.746 431.024 186.515 431.418C189.808 433.104 191.481 429.692 193.199 429.636C194.739 429.585 195.601 430.508 196.15 431.153C197.955 433.272 197.199 434.308 202.053 434.308C206.908 434.308 205.981 438.281 205.834 438.281C205.688 438.281 202.151 434.838 200.639 438.281C199.429 441.036 195.939 440.922 194.345 440.521C191.242 439.904 189.466 441.099 187.759 443.579C185.588 446.734 180.019 446.879 176.953 443.579C174.245 440.665 174.148 440.376 171.074 439.943C168.615 439.596 167.497 437.76 167.245 436.885Z" fill="#FCDB00" fill-opacity="0.85"/>
<path d="M239.244 439.439C238.036 437.848 236.055 438.243 235.025 438.334C235.025 438.334 236.51 435.873 238 435.664C243.012 434.96 240.799 431.743 244.477 431.711C248.155 431.678 247.675 431.217 248.833 429.846C250.141 428.298 251.967 428.39 253.078 429.255C253.911 429.904 254.361 431.021 253.971 431.948C253.723 432.54 253.261 433.903 251.31 433.685C249.594 433.097 250.822 430.772 251.652 432.274C251.652 432.274 252.089 432.031 251.805 431.554C251.56 431.145 251.008 431.079 250.634 431.243C250.26 431.406 249.846 431.829 249.975 432.747C249.969 432.789 248.445 432.724 247.435 434.467C247.023 435.18 244.933 434.825 243.558 435.344C242.021 435.925 240.768 437.972 240.768 437.972C240.768 437.972 242.213 437.495 243.387 437.969C243.921 438.185 245.376 439.769 246.866 440.59C247.728 441.065 249.151 441.229 250.268 440.509C251.869 439.475 251.738 438.761 252.969 437.925C253.94 437.266 255.838 437.332 255.838 437.332C255.838 437.332 255.329 435.469 253.268 435.758C251.727 435.974 251.702 436.165 250.154 435.291C249.569 434.961 248.31 435.158 248.113 436.244C247.872 437.578 249.909 437.498 249.909 437.498C249.909 437.498 248.467 437.159 248.644 436.407C248.822 435.655 249.619 435.55 250.218 435.742C250.534 435.843 251.403 436.719 252.864 436.275C254.508 435.774 255.201 436.977 255.201 436.977C255.201 436.977 253.557 437.055 253.115 437.27C251.573 438.021 251.523 439.386 249.824 440.175C248.726 440.685 247.819 440.519 247.152 440.248C245.686 439.534 244.78 438.393 243.461 437.594C242.423 437.191 241.476 437.587 241.476 437.587C241.476 437.587 242.421 436.065 243.795 435.676C245.692 435.14 247.394 435.409 247.701 434.89C248.628 433.322 250.031 433.232 250.051 433.291C250.158 433.601 250.52 433.997 251.046 434.182C253.301 434.976 254.059 432.623 255.15 432.433C256.129 432.262 256.762 432.781 257.172 433.148C258.516 434.355 258.127 435.092 261.225 434.657C264.323 434.222 264.091 436.872 263.998 436.885C263.905 436.898 261.335 434.99 260.682 437.35C260.16 439.238 257.922 439.477 256.869 439.36C254.833 439.24 253.807 440.171 252.943 441.925C251.843 444.157 248.302 444.75 246.047 442.893C244.054 441.254 243.966 441.076 241.965 441.071C240.365 441.068 239.484 439.982 239.244 439.439Z" fill="#FCDB00" fill-opacity="0.85"/>
<path d="M218.454 497.964C219.42 496.216 221.438 496.322 222.47 496.265C222.47 496.265 220.648 494.042 219.143 494.049C214.081 494.072 215.81 490.571 212.166 491.066C208.521 491.562 208.93 491.037 207.587 489.847C206.07 488.503 204.276 488.855 203.301 489.87C202.57 490.632 202.285 491.803 202.804 492.664C203.135 493.214 203.787 494.497 205.687 494.002C207.301 493.173 205.752 491.049 205.146 492.653C205.146 492.653 204.678 492.476 204.891 491.963C205.075 491.523 205.612 491.379 206.005 491.487C206.399 491.595 206.869 491.954 206.873 492.881C206.885 492.922 208.384 492.639 209.633 494.219C210.144 494.865 212.161 494.215 213.596 494.531C215.201 494.885 216.734 496.731 216.734 496.731C216.734 496.731 215.236 496.466 214.142 497.104C213.645 497.394 212.432 499.17 211.075 500.197C210.291 500.79 208.905 501.158 207.697 500.605C205.965 499.812 205.992 499.086 204.653 498.435C203.598 497.922 201.729 498.26 201.729 498.26C201.729 498.26 201.966 496.343 204.047 496.334C205.603 496.326 205.654 496.511 207.061 495.425C207.592 495.014 208.867 495.028 209.217 496.074C209.648 497.36 207.621 497.574 207.621 497.574C207.621 497.574 208.999 497.031 208.715 496.312C208.432 495.594 207.627 495.604 207.063 495.88C206.765 496.026 206.03 497.017 204.52 496.787C202.821 496.528 202.308 497.818 202.308 497.818C202.308 497.818 203.946 497.658 204.415 497.808C206.048 498.33 206.294 499.673 208.089 500.21C209.248 500.557 210.123 500.263 210.744 499.9C212.092 498.983 212.825 497.723 214.015 496.744C214.985 496.195 215.979 496.452 215.979 496.452C215.979 496.452 214.825 495.08 213.409 494.893C211.455 494.634 209.809 495.145 209.431 494.676C208.288 493.257 206.888 493.369 206.876 493.431C206.815 493.753 206.513 494.197 206.019 494.456C203.902 495.565 202.814 493.345 201.706 493.313C200.714 493.284 200.161 493.889 199.809 494.311C198.652 495.698 199.142 496.372 196.014 496.386C192.886 496.4 193.495 498.989 193.589 498.988C193.683 498.988 195.953 496.732 196.937 498.973C197.725 500.766 199.974 500.682 201 500.415C202.997 500.004 204.146 500.778 205.253 502.391C206.662 504.442 210.251 504.519 212.217 502.359C213.953 500.45 214.015 500.262 215.995 499.97C217.578 499.737 218.294 498.535 218.454 497.964Z" fill="#FCDB00" fill-opacity="0.85"/>
<path d="M369.957 301.32C373.094 322.308 366.178 339.45 353.913 353.471C341.598 367.55 323.897 378.458 305.628 386.746C287.38 395.023 268.706 400.624 254.576 404.156C247.515 405.921 241.6 407.167 237.454 407.971C235.381 408.373 233.751 408.664 232.642 408.855C232.088 408.95 231.663 409.02 231.379 409.066C231.237 409.089 231.13 409.106 231.059 409.117L230.981 409.129L230.968 409.131L230.964 409.132L230.962 409.132L230.958 409.133L230.947 409.134L230.871 409.145C230.804 409.154 230.702 409.169 230.566 409.187L230.467 409.201C230.199 409.237 229.826 409.286 229.353 409.346C228.287 409.481 226.716 409.668 224.709 409.876C220.695 410.291 214.938 410.79 207.988 411.12C194.076 411.779 175.427 411.758 156.405 409.054C137.36 406.347 118.09 400.971 102.828 391.025C87.6304 381.12 76.3942 366.685 73.2524 345.662C66.8372 302.738 74.581 260.636 95.5722 227.556C116.541 194.511 150.794 170.358 197.672 163.353C244.55 156.347 284.367 169.429 314.082 194.9C343.827 220.397 363.542 258.395 369.957 301.32Z" fill="white" stroke="#02559E" stroke-width="4"/>
<path d="M322.226 278.972C326.106 304.933 326.236 327.447 308.157 342.568C299.138 350.112 285.004 358.784 228.196 367.274C171.413 375.76 154.593 371.176 144.489 367.019C124.506 358.797 116.334 336.247 112.459 310.322C110.546 297.52 110.883 286.659 114.089 277.843C117.268 269.104 123.323 262.212 133.217 257.38C142.924 252.639 154.298 253.61 167.67 255.426C168.955 255.601 170.257 255.783 171.574 255.967C183.787 257.674 197.364 259.573 211.78 257.53C227.499 255.303 241.235 249.549 253.545 244.392L253.671 244.34C266.143 239.115 276.95 234.624 287.247 234.437C297.236 234.255 304.94 238.922 310.703 246.861C316.518 254.87 320.314 266.178 322.226 278.972Z" fill="#0A66AC" stroke="#02559E" stroke-width="4"/>
<path d="M183.157 317.371C185.213 331.125 179.378 343.396 170.125 344.779C160.873 346.161 151.705 336.133 149.65 322.378C147.594 308.624 149.65 307 166.501 300.002C176.5 295.85 181.102 303.616 183.157 317.371Z" fill="white" stroke="#02559E" stroke-width="3"/>
<path d="M255.974 303.91C258.03 317.664 267.197 327.693 276.45 326.31C285.703 324.927 291.537 312.656 289.482 298.902C287.426 285.148 284.986 284.196 266.825 282.43C256.048 281.383 253.918 290.155 255.974 303.91Z" fill="white" stroke="#02559E" stroke-width="3"/>
<path d="M60.0879 120.843L66.4671 117.61L65.1633 110.898L76.8295 104.93L81.4944 109.992L87.8735 106.758L67.708 85.8751C65.1389 83.2489 61.8105 83.0527 59.0705 84.4418C56.3732 85.8091 54.5641 88.6098 55.1638 92.2343L60.0879 120.843ZM61.4487 91.3623C61.3161 90.6761 61.4855 90.2673 61.9565 90.0286C62.4702 89.7681 62.8573 89.8948 63.3324 90.4073L72.3812 100.189L63.947 104.465L61.4487 91.3623Z" fill="#02559E"/>
<path d="M199.875 138.003C203.139 137.962 205.714 136.634 207.368 134.501L207.403 137.285L213.882 137.204L213.733 125.253C213.644 118.101 208.105 112.794 200.666 112.887C193.37 112.978 187.874 118.759 187.959 125.574C188.045 132.486 192.964 138.089 199.875 138.003ZM200.899 131.606C197.396 131.649 194.817 128.897 194.775 125.537C194.733 122.178 197.242 119.362 200.746 119.318C204.25 119.275 206.876 122.026 206.918 125.386C206.96 128.746 204.403 131.562 200.899 131.606Z" fill="#02559E"/>
<path d="M264.749 145.83C267.911 146.638 270.744 146.025 272.894 144.395L272.205 147.092L278.483 148.697L281.443 137.117C283.215 130.188 279.245 123.624 272.037 121.781C264.969 119.974 258.159 124.129 256.471 130.732C254.759 137.429 258.052 144.117 264.749 145.83ZM267.4 139.918C264.005 139.05 262.23 135.723 263.062 132.467C263.895 129.212 267.049 127.145 270.444 128.013C273.839 128.881 275.66 132.22 274.828 135.476C273.996 138.731 270.795 140.786 267.4 139.918Z" fill="#02559E"/>
<path d="M325.164 142.45C321.395 140.439 317.482 140.636 314.633 142.816C314.941 139.281 312.968 135.943 308.945 133.796C302.169 130.181 296.117 133.263 292.999 139.107L287.147 150.076L293.161 153.284L298.493 143.29C300.188 140.114 302.947 138.104 306.292 139.889C309.553 141.629 309.527 145.042 307.81 148.261L302.477 158.255L308.491 161.464L313.846 151.427C315.541 148.251 318.362 146.329 321.623 148.069C324.926 149.831 324.877 153.287 323.16 156.506L317.85 166.458L323.864 169.666L329.716 158.698C332.834 152.854 331.983 146.088 325.164 142.45Z" fill="#02559E"/>
<path d="M229.806 137.876L231.005 126.371C231.393 122.647 233.916 120.207 237.306 120.56C240.743 120.919 242.249 124.068 241.9 127.41L240.696 138.963L247.47 139.717L248.749 127.448C249.526 120 246.232 115.024 239.023 114.273C236.445 114.004 234.021 114.572 232.12 115.677L233.404 103.359L226.625 102.653L223.027 137.17L229.806 137.876Z" fill="#02559E"/>
<path d="M105.276 167.227C108.141 165.664 109.796 163.285 110.259 160.626L111.592 163.07L117.281 159.967L111.557 149.475C108.132 143.196 100.754 141.097 94.2228 144.66C87.8178 148.154 85.6652 155.835 88.9292 161.819C92.2393 167.886 99.2076 170.537 105.276 167.227ZM103.188 161.094C100.111 162.772 96.5449 161.546 94.9358 158.597C93.3268 155.647 94.2269 151.985 97.303 150.307C100.379 148.629 103.988 149.831 105.597 152.781C107.206 155.731 106.264 159.416 103.188 161.094Z" fill="#02559E"/>
<path d="M168.639 142.108L167.137 133.746L171.815 132.906C180.555 131.337 185.242 126.204 183.868 118.55C182.545 111.18 176.262 107.968 167.239 109.588L156.042 111.598L161.749 143.393L168.639 142.108ZM168.572 115.932C173.108 115.118 176.153 116.326 176.781 119.823C177.443 123.508 175.016 125.748 170.481 126.562L165.992 127.367L164.084 116.737L168.572 115.932Z" fill="#02559E"/>
<path d="M83.2281 185.585C88.4591 181.925 90.9262 176.743 90.8174 172.484L85.3695 164.697L79.7844 168.604L83.9234 174.437C83.5846 176.548 82.1645 178.538 79.5686 180.354C74.9275 183.6 69.2929 182.329 65.8261 177.373C62.4693 172.574 63.0844 166.755 67.5289 163.646C70.6754 161.445 73.7111 161.43 76.6992 162.854L79.5362 156.945C74.598 154.073 68.5184 154.928 63.9953 158.092C56.1684 163.568 54.5335 173.791 59.8714 181.421C65.2092 189.052 75.4798 191.005 83.2281 185.585Z" fill="#02559E"/>
<path d="M104.381 99.7097C111.39 97.214 114.758 90.3591 112.343 83.5763L104.678 62.0521L98.2572 64.3385L102.414 76.1567C100.32 75.425 97.8593 75.384 95.5984 76.189C88.6346 78.6687 85.5804 85.259 88.06 92.2227C90.3625 98.689 97.5079 102.157 104.381 99.7097ZM102.224 93.6504C98.9226 94.8258 95.6082 93.1017 94.4811 89.9363C93.354 86.771 94.8167 83.295 98.1177 82.1195C101.419 80.9441 104.794 82.6974 105.921 85.8627C107.049 89.028 105.525 92.475 102.224 93.6504Z" fill="#02559E"/>
<path d="M135.257 84.4399C131.782 84.8937 129.665 82.0237 129.192 78.4064L127.763 67.4593L121.004 68.342L122.533 80.0505C123.434 86.9519 128.255 91.9861 136.108 90.9606C144.009 89.9288 147.375 83.8255 146.474 76.9241L144.945 65.2155L138.186 66.0981L139.61 76.9976C140.088 80.6625 138.731 83.9862 135.257 84.4399Z" fill="#02559E"/>
<path d="M163.996 85.4954L164.24 73.93C164.319 70.1868 166.632 67.5471 170.039 67.6191C173.494 67.6922 175.255 70.7061 175.184 74.0653L174.938 85.6787L181.752 85.8708L182.012 73.5375C182.171 66.0512 178.477 61.3641 171.231 61.2109C168.639 61.1561 166.27 61.9222 164.467 63.1804L164.729 50.7992L157.915 50.6551L157.181 85.3514L163.996 85.4954Z" fill="#02559E"/>
<path d="M104.67 352.246C113.199 349.704 122.088 354.954 123.979 363.651L138.952 432.501C139.1 433.182 139.173 433.881 139.169 434.579C139.116 444.132 126.64 447.672 121.623 439.638C121.32 439.154 121.062 438.643 120.851 438.112L94.8258 372.541C91.5146 364.198 96.0679 354.811 104.67 352.246Z" fill="#FCDB00" stroke="#02559E" stroke-width="4"/>
<path d="M373.202 223.017C373.202 223.017 370.316 210.535 365.639 202.79C357.234 188.869 346.587 183.241 346.587 183.241" stroke="#02559E" stroke-width="3" stroke-linecap="round"/>
<path d="M395.79 219.505C395.79 219.505 392.288 201.837 385.206 191.2C372.479 172.082 355 165.171 355 165.171" stroke="#02559E" stroke-width="3" stroke-linecap="round"/>
</svg>
