<svg width="452" height="482" viewBox="0 0 452 482" fill="none" xmlns="http://www.w3.org/2000/svg">
<path d="M364.832 447.14C372.826 442.45 375.141 431.95 369.86 424.333L328.247 364.306C327.832 363.707 327.351 363.154 326.815 362.66C319.482 355.897 307.89 362.902 310.453 372.459C310.608 373.035 310.814 373.596 311.07 374.135L342.383 440.224C346.385 448.671 356.769 451.871 364.832 447.14Z" fill="#FCDB00" stroke="#02559E" stroke-width="4"/>
<path d="M62.0775 300.253C68.5632 293.63 79.3127 293.924 85.427 300.891L133.603 355.789C134.084 356.337 134.504 356.938 134.854 357.578C139.642 366.33 130.04 375.884 121.386 371.085C120.865 370.795 120.37 370.459 119.908 370.081L63.3581 323.712C56.1286 317.784 55.5363 306.933 62.0775 300.253Z" fill="#FCDB00" stroke="#02559E" stroke-width="4"/>
<path d="M225.468 480C242.297 480 257.123 467.483 269.669 449.502C282.15 431.616 291.988 408.865 298.956 389.554C305.666 370.956 291.383 352.347 271.301 352.347H179.635C159.553 352.347 145.27 370.956 151.98 389.554C158.948 408.865 168.786 431.616 181.267 449.502C193.813 467.483 208.639 480 225.468 480Z" fill="white" stroke="#02559E" stroke-width="4"/>
<path d="M206.697 403.086V391.499L212.884 402.179C213.396 403.04 214.256 403.389 215.257 403.389C216.489 403.389 217.629 402.505 217.629 400.946V387.427H214.419V398.945L208.232 388.335C207.72 387.474 206.906 387.102 205.883 387.102C204.604 387.102 203.464 388.009 203.464 389.568V403.086H206.697ZM226.104 403.389C227.686 403.389 228.942 402.761 229.756 401.737V403.086H232.896V397.293C232.896 393.826 230.244 391.22 226.639 391.22C223.104 391.22 220.406 393.989 220.406 397.293C220.406 400.643 222.755 403.389 226.104 403.389ZM226.639 400.294C224.941 400.294 223.708 398.945 223.708 397.316C223.708 395.687 224.941 394.338 226.639 394.338C228.337 394.338 229.593 395.687 229.593 397.316C229.593 398.945 228.337 400.294 226.639 400.294ZM241.336 400.201C239.638 400.201 238.801 398.689 238.801 396.92V391.569H235.498V397.293C235.498 400.666 237.498 403.389 241.336 403.389C245.197 403.389 247.198 400.666 247.198 397.293V391.569H243.895V396.897C243.895 398.689 243.034 400.201 241.336 400.201Z" fill="#02559E"/>
<path d="M289.251 389.055C290.819 386.284 294.064 386.467 295.725 386.384C295.725 386.384 292.809 382.838 290.389 382.838C282.247 382.838 285.054 377.285 279.187 378.046C273.321 378.807 273.983 377.976 271.831 376.074C269.401 373.927 266.513 374.474 264.938 376.081C263.755 377.286 263.289 379.144 264.116 380.517C264.645 381.394 265.684 383.438 268.744 382.664C271.346 381.359 268.87 377.971 267.884 380.517C267.884 380.517 267.133 380.232 267.479 379.419C267.777 378.72 268.643 378.495 269.275 378.67C269.907 378.845 270.661 379.419 270.661 380.892C270.679 380.957 273.093 380.517 275.091 383.039C275.907 384.069 279.157 383.05 281.463 383.563C284.042 384.137 286.495 387.083 286.495 387.083C286.495 387.083 284.087 386.651 282.323 387.657C281.52 388.115 279.556 390.929 277.366 392.55C276.1 393.488 273.869 394.062 271.93 393.175C269.148 391.901 269.197 390.749 267.049 389.704C265.355 388.881 262.346 389.405 262.346 389.405C262.346 389.405 262.741 386.359 266.089 386.359C268.592 386.359 268.674 386.653 270.944 384.936C271.802 384.287 273.853 384.319 274.408 385.985C275.091 388.032 271.829 388.356 271.829 388.356C271.829 388.356 274.049 387.503 273.599 386.359C273.148 385.215 271.854 385.226 270.944 385.66C270.463 385.89 269.275 387.46 266.847 387.083C264.116 386.659 263.282 388.706 263.282 388.706C263.282 388.706 265.917 388.464 266.67 388.706C269.293 389.547 269.679 391.684 272.562 392.55C274.425 393.111 275.833 392.65 276.835 392.076C279.01 390.628 280.199 388.631 282.12 387.083C283.685 386.219 285.281 386.634 285.281 386.634C285.281 386.634 283.435 384.445 281.159 384.137C278.018 383.712 275.367 384.512 274.762 383.763C272.935 381.5 270.68 381.668 270.661 381.766C270.561 382.277 270.072 382.98 269.275 383.388C265.861 385.136 264.127 381.6 262.346 381.541C260.75 381.488 259.856 382.445 259.286 383.114C257.415 385.311 258.199 386.384 253.167 386.384C248.135 386.384 249.096 390.503 249.248 390.503C249.399 390.503 253.066 386.933 254.634 390.503C255.888 393.359 259.506 393.241 261.158 392.825C264.374 392.186 266.216 393.424 267.985 395.996C270.236 399.266 276.009 399.416 279.187 395.996C281.994 392.975 282.095 392.675 285.281 392.226C287.83 391.866 288.99 389.962 289.251 389.055Z" fill="#FCDB00" fill-opacity="0.85"/>
<path d="M168.473 370.395C166.906 367.624 163.66 367.807 162 367.724C162 367.724 164.915 364.178 167.335 364.178C175.478 364.178 172.671 358.624 178.538 359.386C184.404 360.147 183.742 359.316 185.894 357.414C188.323 355.266 191.211 355.814 192.787 357.421C193.969 358.626 194.436 360.484 193.608 361.857C193.08 362.734 192.041 364.778 188.981 364.004C186.378 362.699 188.854 359.311 189.841 361.857C189.841 361.857 190.592 361.571 190.245 360.759C189.947 360.06 189.082 359.835 188.45 360.01C187.818 360.185 187.064 360.759 187.064 362.232C187.046 362.297 184.632 361.857 182.634 364.379C181.818 365.409 178.567 364.39 176.262 364.903C173.682 365.477 171.23 368.423 171.23 368.423C171.23 368.423 173.638 367.991 175.402 368.997C176.204 369.455 178.168 372.269 180.358 373.89C181.625 374.828 183.856 375.402 185.795 374.514C188.576 373.241 188.528 372.089 190.675 371.044C192.369 370.22 195.378 370.745 195.378 370.745C195.378 370.745 194.983 367.699 191.636 367.699C189.133 367.699 189.051 367.993 186.781 366.276C185.923 365.627 183.872 365.659 183.317 367.325C182.634 369.372 185.896 369.696 185.896 369.696C185.896 369.696 183.675 368.843 184.126 367.699C184.577 366.555 185.871 366.566 186.781 367C187.261 367.229 188.45 368.8 190.877 368.423C193.608 367.999 194.443 370.046 194.443 370.046C194.443 370.046 191.808 369.804 191.054 370.046C188.431 370.887 188.045 373.024 185.163 373.89C183.299 374.45 181.891 373.989 180.889 373.416C178.715 371.968 177.526 369.971 175.604 368.423C174.04 367.558 172.443 367.974 172.443 367.974C172.443 367.974 174.289 365.785 176.565 365.477C179.707 365.052 182.358 365.852 182.963 365.103C184.79 362.84 187.044 363.008 187.064 363.106C187.164 363.617 187.653 364.32 188.45 364.728C191.864 366.476 193.597 362.94 195.378 362.881C196.975 362.828 197.868 363.785 198.438 364.454C200.309 366.651 199.525 367.724 204.558 367.724C209.59 367.724 208.629 371.843 208.477 371.843C208.325 371.843 204.659 368.273 203.091 371.843C201.837 374.699 198.219 374.581 196.567 374.165C193.35 373.526 191.509 374.764 189.74 377.335C187.489 380.606 181.715 380.756 178.538 377.335C175.731 374.315 175.63 374.015 172.443 373.566C169.895 373.206 168.735 371.302 168.473 370.395Z" fill="#FCDB00" fill-opacity="0.85"/>
<path d="M243.109 373.044C241.857 371.395 239.803 371.804 238.735 371.899C238.735 371.899 240.275 369.347 241.819 369.13C247.015 368.401 244.721 365.066 248.534 365.032C252.347 364.999 251.849 364.521 253.05 363.1C254.406 361.495 256.298 361.59 257.449 362.487C258.313 363.159 258.78 364.318 258.376 365.279C258.118 365.892 257.64 367.305 255.617 367.08C253.838 366.47 255.111 364.06 255.971 365.616C255.971 365.616 256.425 365.364 256.13 364.87C255.876 364.446 255.304 364.378 254.916 364.547C254.529 364.717 254.099 365.155 254.233 366.107C254.227 366.15 252.647 366.083 251.601 367.89C251.173 368.629 249.006 368.261 247.581 368.799C245.987 369.401 244.689 371.523 244.689 371.523C244.689 371.523 246.187 371.028 247.404 371.521C247.957 371.744 249.466 373.386 251.01 374.237C251.904 374.729 253.379 374.9 254.537 374.153C256.196 373.081 256.061 372.341 257.337 371.475C258.343 370.791 260.311 370.86 260.311 370.86C260.311 370.86 259.783 368.928 257.647 369.228C256.049 369.452 256.023 369.65 254.419 368.744C253.813 368.402 252.507 368.606 252.303 369.731C252.053 371.115 254.164 371.032 254.164 371.032C254.164 371.032 252.67 370.68 252.854 369.901C253.038 369.122 253.864 369.012 254.485 369.211C254.812 369.317 255.713 370.225 257.228 369.764C258.932 369.245 259.651 370.492 259.651 370.492C259.651 370.492 257.947 370.572 257.488 370.796C255.89 371.574 255.838 372.988 254.077 373.806C252.938 374.335 251.998 374.163 251.306 373.883C249.787 373.143 248.848 371.959 247.481 371.132C246.404 370.713 245.423 371.125 245.423 371.125C245.423 371.125 246.403 369.546 247.827 369.143C249.793 368.587 251.558 368.866 251.876 368.328C252.837 366.703 254.291 366.609 254.312 366.671C254.422 366.992 254.798 367.403 255.344 367.595C257.681 368.418 258.467 365.978 259.598 365.781C260.612 365.604 261.269 366.142 261.693 366.523C263.087 367.774 262.684 368.537 265.895 368.087C269.107 367.636 268.867 370.382 268.77 370.396C268.673 370.41 266.01 368.432 265.333 370.878C264.791 372.835 262.472 373.083 261.38 372.962C259.269 372.838 258.206 373.802 257.31 375.621C256.17 377.935 252.499 378.549 250.161 376.625C248.096 374.925 248.004 374.741 245.93 374.736C244.271 374.732 243.358 373.606 243.109 373.044Z" fill="#FCDB00" fill-opacity="0.85"/>
<path d="M221.559 433.712C222.561 431.901 224.653 432.011 225.722 431.951C225.722 431.951 223.833 429.647 222.273 429.654C217.026 429.678 218.819 426.048 215.04 426.562C211.262 427.076 211.686 426.532 210.293 425.298C208.721 423.904 206.862 424.27 205.851 425.322C205.093 426.112 204.798 427.325 205.335 428.218C205.678 428.788 206.354 430.119 208.324 429.605C209.997 428.746 208.391 426.544 207.763 428.207C207.763 428.207 207.278 428.023 207.499 427.492C207.689 427.035 208.246 426.886 208.654 426.998C209.062 427.11 209.55 427.483 209.554 428.443C209.566 428.485 211.12 428.192 212.415 429.83C212.944 430.5 215.036 429.826 216.523 430.154C218.187 430.52 219.777 432.434 219.777 432.434C219.777 432.434 218.223 432.159 217.089 432.821C216.574 433.122 215.316 434.963 213.91 436.027C213.096 436.642 211.661 437.023 210.408 436.45C208.612 435.628 208.64 434.876 207.253 434.201C206.159 433.669 204.221 434.02 204.221 434.02C204.221 434.02 204.467 432.032 206.624 432.022C208.237 432.015 208.291 432.206 209.748 431.08C210.299 430.654 211.621 430.669 211.984 431.754C212.43 433.087 210.329 433.308 210.329 433.308C210.329 433.308 211.757 432.745 211.464 432C211.17 431.255 210.336 431.266 209.75 431.552C209.441 431.703 208.68 432.731 207.115 432.492C205.354 432.223 204.822 433.561 204.822 433.561C204.822 433.561 206.519 433.396 207.006 433.551C208.699 434.092 208.954 435.484 210.814 436.041C212.016 436.401 212.922 436.096 213.566 435.719C214.964 434.768 215.724 433.462 216.957 432.447C217.963 431.879 218.993 432.145 218.993 432.145C218.993 432.145 217.797 430.723 216.329 430.529C214.304 430.261 212.597 430.79 212.205 430.304C211.021 428.833 209.569 428.949 209.557 429.013C209.494 429.347 209.181 429.807 208.668 430.075C206.473 431.225 205.346 428.924 204.198 428.891C203.169 428.861 202.596 429.488 202.231 429.926C201.031 431.364 201.54 432.062 198.297 432.077C195.054 432.091 195.685 434.775 195.783 434.774C195.881 434.774 198.233 432.435 199.254 434.759C200.071 436.617 202.402 436.53 203.465 436.254C205.536 435.827 206.727 436.629 207.875 438.301C209.335 440.427 213.056 440.508 215.094 438.268C216.893 436.29 216.958 436.094 219.01 435.792C220.651 435.55 221.393 434.305 221.559 433.712Z" fill="#FCDB00" fill-opacity="0.85"/>
<path d="M77.7484 240.012C76.0204 261.968 84.4225 279.214 98.132 292.839C111.896 306.518 131 316.523 150.497 323.774C169.971 331.017 189.692 335.459 204.563 338.091C211.993 339.405 218.202 340.266 222.548 340.798C224.721 341.064 226.428 341.247 227.589 341.364C228.17 341.422 228.614 341.464 228.911 341.491C229.06 341.504 229.172 341.514 229.246 341.521L229.329 341.528L229.342 341.529L229.346 341.529L229.348 341.529L229.353 341.53L229.365 341.531L229.444 341.536C229.514 341.541 229.621 341.549 229.763 341.558C230.048 341.577 230.473 341.604 231.029 341.635C232.142 341.697 233.78 341.777 235.872 341.847C240.054 341.986 246.044 342.086 253.258 341.924C267.694 341.6 286.982 340.229 306.464 336.056C325.968 331.878 345.518 324.923 360.594 313.524C375.608 302.172 386.196 286.414 387.927 264.423C391.458 219.555 380.402 176.559 356.291 143.853C332.204 111.179 295.017 88.6693 246.013 84.8128C197.008 80.9563 156.758 97.3716 127.856 125.875C98.9253 154.407 81.2795 195.144 77.7484 240.012Z" fill="white" stroke="#02559E" stroke-width="4"/>
<path d="M125.492 213.451C123.357 240.577 124.845 263.909 144.669 278.264C154.558 285.425 169.818 293.372 229.181 298.044C288.52 302.714 305.598 296.758 315.764 291.719C335.873 281.753 342.695 257.802 344.827 230.713C345.881 217.33 344.747 206.109 340.787 197.208C336.86 188.383 330.085 181.68 319.488 177.392C309.082 173.182 297.37 175.014 283.675 177.859C282.359 178.133 281.026 178.415 279.677 178.701C267.17 181.35 253.278 184.292 238.233 183.223C221.826 182.057 207.213 177.103 194.108 172.66L193.978 172.616C180.706 168.117 169.191 164.248 158.513 164.8C148.141 165.336 140.493 170.735 135.096 179.378C129.654 188.095 126.545 200.075 125.492 213.451Z" fill="#0A66AC" stroke="#02559E" stroke-width="4"/>
<path d="M272.153 243.109C271.022 257.481 275.746 259.125 288.186 260.68C300.625 262.235 306.035 260.237 307.166 245.865C308.297 231.493 301.376 219.225 291.708 218.464C282.039 217.703 273.284 228.737 272.153 243.109Z" fill="white" stroke="#02559E" stroke-width="3"/>
<path d="M198.024 237.108C196.892 251.48 191.97 252.365 179.44 251.955C166.91 251.545 161.879 248.725 163.011 234.353C164.142 219.981 172.897 208.947 182.565 209.708C192.234 210.469 199.155 222.736 198.024 237.108Z" fill="white" stroke="#02559E" stroke-width="3"/>
<path d="M159.816 64.6288L155.272 52.5943L169.058 47.3885L173.602 59.4231L180.158 56.9474L168.746 26.7263L162.19 29.202L166.786 41.3712L153 46.577L148.404 34.4078L141.848 36.8835L153.26 67.1046L159.816 64.6288Z" fill="#02559E"/>
<path d="M197.295 55.9969L204.376 54.9888L205.302 48.2146L218.269 46.3199L221.056 52.6139L228.136 51.6057L215.767 25.3431C214.18 22.0297 211.092 20.7725 208.05 21.2055C205.057 21.6318 202.442 23.701 201.843 27.3256L197.295 55.9969ZM208.074 28.5232C208.169 27.8309 208.462 27.4984 208.984 27.4239C209.555 27.3427 209.88 27.5873 210.165 28.2255L215.583 40.3993L206.222 41.7322L208.074 28.5232Z" fill="#02559E"/>
<path d="M251.706 21.7004L245.385 53.3799L252.257 54.7512L258.579 23.0717L251.706 21.7004Z" fill="#02559E"/>
<path d="M299.238 31.8275L292.109 51.6061L298.702 53.9823L305.831 34.2037L299.238 31.8275ZM291.234 63.9442C293.311 64.6929 295.645 63.5954 296.394 61.5182C297.143 59.441 296.045 57.1065 293.968 56.3579C291.936 55.6255 289.556 56.7067 288.808 58.7839C288.059 60.8611 289.202 63.2118 291.234 63.9442Z" fill="#02559E"/>
<path d="M86.5685 370.826C86.5685 370.826 81.3144 359.91 80.4393 351.385C78.8665 336.063 84.2233 325.466 84.2233 325.466" stroke="#02559E" stroke-width="3" stroke-linecap="round"/>
<path d="M75.3729 376.271C75.3729 376.271 67.7529 362.125 67.3056 350.683C66.5015 330.116 76.9326 315.102 76.9326 315.102" stroke="#02559E" stroke-width="3" stroke-linecap="round"/>
<line x1="10.5" y1="-10.5" x2="60.4548" y2="-10.5" transform="matrix(-0.90581 0.423685 0.423685 0.90581 451.975 125.396)" stroke="#69D8FF" stroke-width="21" stroke-linecap="round"/>
<line x1="10.5" y1="-10.5" x2="66.085" y2="-10.5" transform="matrix(-0.636182 0.771539 0.771539 0.636182 407.399 47.6484)" stroke="#69D8FF" stroke-width="21" stroke-linecap="round"/>
<line x1="10.5" y1="-10.5" x2="57.8395" y2="-10.5" transform="matrix(-0.985981 -0.166858 -0.166858 0.985981 67.3818 185.521)" stroke="#69D8FF" stroke-width="21" stroke-linecap="round"/>
<path d="M80.0467 118.122L31.83 83.9318" stroke="#69D8FF" stroke-width="21" stroke-linecap="round"/>
</svg>
