<svg width="452" height="481" viewBox="0 0 452 481" fill="none" xmlns="http://www.w3.org/2000/svg">
<path d="M82.1141 423.331L123.728 363.304C124.142 362.705 124.624 362.152 125.16 361.658C132.493 354.895 144.084 361.9 141.521 371.457C141.367 372.033 141.16 372.594 140.905 373.133L109.592 439.222C105.589 447.669 95.2053 450.869 87.1428 446.138C79.1487 441.448 76.8336 430.948 82.1141 423.331Z" fill="#FCDB00" stroke="#02559E" stroke-width="4"/>
<path d="M366.548 299.891L318.371 354.789C317.891 355.337 317.47 355.938 317.12 356.578C312.332 365.33 321.935 374.884 330.588 370.085C331.11 369.795 331.605 369.459 332.066 369.081L388.617 322.712C395.846 316.784 396.438 305.933 389.897 299.253C383.411 292.63 372.662 292.924 366.548 299.891Z" fill="#FCDB00" stroke="#02559E" stroke-width="4"/>
<path d="M226.507 479C209.677 479 194.852 466.483 182.305 448.502C169.825 430.616 159.986 407.865 153.019 388.554C146.308 369.956 160.592 351.347 180.673 351.347H272.34C292.421 351.347 306.705 369.956 299.994 388.554C293.027 407.865 283.188 430.616 270.708 448.502C258.161 466.483 243.336 479 226.507 479Z" fill="white" stroke="#02559E" stroke-width="4"/>
<path d="M208.487 401.614V390.026L214.674 400.706C215.186 401.567 216.047 401.916 217.047 401.916C218.279 401.916 219.419 401.032 219.419 399.473V385.955H216.209V397.472L210.022 386.862C209.51 386.001 208.696 385.629 207.673 385.629C206.394 385.629 205.254 386.536 205.254 388.095V401.614H208.487ZM227.894 401.916C229.476 401.916 230.732 401.288 231.546 400.264V401.614H234.686V395.82C234.686 392.353 232.034 389.747 228.429 389.747C224.894 389.747 222.196 392.516 222.196 395.82C222.196 399.171 224.545 401.916 227.894 401.916ZM228.429 398.822C226.731 398.822 225.498 397.472 225.498 395.843C225.498 394.215 226.731 392.865 228.429 392.865C230.127 392.865 231.383 394.215 231.383 395.843C231.383 397.472 230.127 398.822 228.429 398.822ZM243.126 398.728C241.428 398.728 240.591 397.216 240.591 395.448V390.096H237.288V395.82C237.288 399.194 239.288 401.916 243.126 401.916C246.987 401.916 248.988 399.194 248.988 395.82V390.096H245.685V395.424C245.685 397.216 244.824 398.728 243.126 398.728Z" fill="#02559E"/>
<path d="M291.041 387.583C292.609 384.812 295.854 384.995 297.515 384.911C297.515 384.911 294.599 381.365 292.179 381.365C284.037 381.365 286.844 375.812 280.977 376.573C275.111 377.335 275.773 376.503 273.621 374.601C271.191 372.454 268.303 373.002 266.728 374.608C265.545 375.813 265.079 377.672 265.906 379.045C266.435 379.921 267.474 381.966 270.534 381.192C273.136 379.887 270.66 376.498 269.674 379.045C269.674 379.045 268.923 378.759 269.269 377.946C269.568 377.247 270.433 377.023 271.065 377.197C271.697 377.372 272.451 377.946 272.451 379.419C272.469 379.484 274.883 379.045 276.881 381.566C277.697 382.597 280.947 381.577 283.253 382.09C285.832 382.665 288.285 385.611 288.285 385.611C288.285 385.611 285.877 385.178 284.113 386.185C283.311 386.642 281.346 389.456 279.156 391.078C277.89 392.016 275.659 392.589 273.72 391.702C270.938 390.429 270.987 389.276 268.84 388.232C267.145 387.408 264.136 387.932 264.136 387.932C264.136 387.932 264.531 384.887 267.879 384.887C270.382 384.887 270.464 385.181 272.734 383.464C273.592 382.814 275.643 382.847 276.198 384.512C276.881 386.559 273.619 386.884 273.619 386.884C273.619 386.884 275.839 386.031 275.389 384.887C274.938 383.743 273.644 383.753 272.734 384.188C272.253 384.417 271.065 385.988 268.637 385.611C265.906 385.186 265.072 387.233 265.072 387.233C265.072 387.233 267.707 386.992 268.46 387.233C271.083 388.074 271.469 390.211 274.352 391.078C276.215 391.638 277.623 391.177 278.625 390.603C280.8 389.155 281.989 387.158 283.91 385.611C285.475 384.746 287.071 385.161 287.071 385.161C287.071 385.161 285.225 382.973 282.95 382.665C279.808 382.239 277.157 383.039 276.552 382.29C274.725 380.027 272.47 380.195 272.451 380.293C272.351 380.805 271.862 381.508 271.065 381.916C267.651 383.663 265.917 380.127 264.136 380.068C262.54 380.016 261.646 380.972 261.077 381.641C259.205 383.838 259.989 384.911 254.957 384.911C249.925 384.911 250.886 389.031 251.038 389.031C251.189 389.031 254.856 385.461 256.424 389.031C257.678 391.887 261.296 391.768 262.948 391.352C266.164 390.713 268.006 391.952 269.775 394.523C272.026 397.793 277.799 397.943 280.977 394.523C283.784 391.502 283.885 391.203 287.071 390.753C289.62 390.394 290.78 388.49 291.041 387.583Z" fill="#FCDB00" fill-opacity="0.85"/>
<path d="M170.262 368.923C168.695 366.151 165.45 366.335 163.789 366.251C163.789 366.251 166.704 362.705 169.125 362.705C177.267 362.705 174.46 357.152 180.327 357.913C186.193 358.675 185.531 357.843 187.683 355.941C190.113 353.794 193 354.342 194.576 355.948C195.758 357.153 196.225 359.012 195.397 360.385C194.869 361.261 193.83 363.306 190.77 362.532C188.167 361.227 190.644 357.838 191.63 360.385C191.63 360.385 192.381 360.099 192.034 359.286C191.736 358.587 190.871 358.363 190.239 358.537C189.607 358.712 188.853 359.286 188.853 360.759C188.835 360.824 186.421 360.385 184.423 362.906C183.607 363.936 180.356 362.917 178.051 363.43C175.472 364.005 173.019 366.95 173.019 366.95C173.019 366.95 175.427 366.518 177.191 367.525C177.993 367.982 179.957 370.796 182.147 372.418C183.414 373.356 185.645 373.929 187.584 373.042C190.365 371.769 190.317 370.616 192.464 369.572C194.158 368.748 197.168 369.272 197.168 369.272C197.168 369.272 196.772 366.226 193.425 366.226C190.922 366.226 190.84 366.52 188.57 364.803C187.712 364.154 185.661 364.187 185.106 365.852C184.423 367.899 187.685 368.224 187.685 368.224C187.685 368.224 185.464 367.37 185.915 366.226C186.366 365.082 187.66 365.093 188.57 365.527C189.05 365.757 190.239 367.328 192.666 366.95C195.397 366.526 196.232 368.573 196.232 368.573C196.232 368.573 193.597 368.332 192.843 368.573C190.22 369.414 189.834 371.551 186.952 372.418C185.089 372.978 183.68 372.517 182.678 371.943C180.504 370.495 179.315 368.498 177.393 366.95C175.829 366.086 174.232 366.501 174.232 366.501C174.232 366.501 176.078 364.313 178.354 364.005C181.496 363.579 184.147 364.379 184.752 363.63C186.579 361.367 188.833 361.535 188.853 361.633C188.953 362.144 189.442 362.848 190.239 363.256C193.653 365.003 195.386 361.467 197.168 361.408C198.764 361.356 199.657 362.312 200.227 362.981C202.098 365.178 201.315 366.251 206.347 366.251C211.379 366.251 210.418 370.37 210.266 370.37C210.114 370.37 206.448 366.801 204.88 370.37C203.626 373.226 200.008 373.108 198.356 372.692C195.14 372.053 193.298 373.291 191.529 375.863C189.278 379.133 183.505 379.283 180.327 375.863C177.52 372.842 177.419 372.542 174.232 372.093C171.684 371.734 170.524 369.83 170.262 368.923Z" fill="#FCDB00" fill-opacity="0.85"/>
<path d="M244.899 371.571C243.647 369.922 241.593 370.331 240.525 370.426C240.525 370.426 242.065 367.875 243.609 367.658C248.805 366.928 246.511 363.593 250.324 363.56C254.137 363.526 253.639 363.048 254.84 361.627C256.196 360.023 258.088 360.118 259.239 361.014C260.103 361.687 260.57 362.845 260.166 363.806C259.908 364.419 259.43 365.833 257.407 365.607C255.628 364.997 256.901 362.587 257.761 364.143C257.761 364.143 258.215 363.891 257.92 363.398C257.666 362.973 257.094 362.905 256.706 363.075C256.319 363.244 255.889 363.683 256.023 364.634C256.017 364.677 254.437 364.61 253.391 366.417C252.963 367.156 250.796 366.789 249.371 367.327C247.777 367.929 246.479 370.051 246.479 370.051C246.479 370.051 247.977 369.556 249.194 370.048C249.747 370.272 251.256 371.913 252.8 372.764C253.694 373.256 255.169 373.427 256.327 372.68C257.986 371.609 257.851 370.869 259.127 370.002C260.133 369.318 262.101 369.387 262.101 369.387C262.101 369.387 261.573 367.456 259.437 367.755C257.839 367.98 257.813 368.177 256.209 367.271C255.603 366.929 254.297 367.133 254.093 368.259C253.843 369.642 255.954 369.559 255.954 369.559C255.954 369.559 254.46 369.207 254.644 368.428C254.828 367.649 255.654 367.54 256.275 367.739C256.602 367.844 257.503 368.752 259.018 368.291C260.722 367.772 261.441 369.02 261.441 369.02C261.441 369.02 259.737 369.1 259.278 369.323C257.68 370.101 257.628 371.516 255.867 372.334C254.728 372.862 253.788 372.691 253.096 372.41C251.577 371.67 250.638 370.486 249.271 369.659C248.194 369.241 247.213 369.652 247.213 369.652C247.213 369.652 248.193 368.073 249.617 367.67C251.583 367.114 253.348 367.393 253.666 366.855C254.627 365.23 256.081 365.137 256.102 365.198C256.212 365.52 256.588 365.93 257.134 366.122C259.471 366.945 260.257 364.506 261.388 364.308C262.402 364.131 263.059 364.669 263.483 365.05C264.877 366.301 264.474 367.065 267.685 366.614C270.897 366.163 270.657 368.91 270.56 368.923C270.463 368.937 267.8 366.96 267.123 369.406C266.581 371.363 264.262 371.61 263.17 371.49C261.059 371.365 259.996 372.33 259.1 374.149C257.96 376.463 254.289 377.076 251.951 375.152C249.886 373.453 249.794 373.268 247.72 373.263C246.061 373.26 245.148 372.134 244.899 371.571Z" fill="#FCDB00" fill-opacity="0.85"/>
<path d="M223.348 432.24C224.35 430.428 226.442 430.538 227.511 430.479C227.511 430.479 225.622 428.174 224.062 428.182C218.815 428.206 220.608 424.576 216.829 425.089C213.051 425.603 213.475 425.059 212.083 423.825C210.511 422.432 208.651 422.798 207.64 423.85C206.882 424.639 206.587 425.853 207.124 426.746C207.468 427.316 208.143 428.646 210.113 428.132C211.786 427.273 210.18 425.071 209.552 426.735C209.552 426.735 209.068 426.55 209.288 426.019C209.478 425.563 210.035 425.414 210.443 425.526C210.851 425.638 211.339 426.01 211.343 426.971C211.355 427.013 212.909 426.719 214.204 428.358C214.733 429.027 216.825 428.353 218.312 428.681C219.976 429.048 221.566 430.962 221.566 430.962C221.566 430.962 220.012 430.687 218.879 431.348C218.363 431.649 217.105 433.49 215.699 434.554C214.886 435.17 213.45 435.55 212.197 434.977C210.401 434.155 210.429 433.403 209.042 432.728C207.948 432.196 206.01 432.547 206.01 432.547C206.01 432.547 206.256 430.559 208.413 430.55C210.026 430.542 210.08 430.734 211.537 429.607C212.088 429.181 213.41 429.197 213.773 430.281C214.219 431.614 212.118 431.835 212.118 431.835C212.118 431.835 213.546 431.272 213.253 430.527C212.959 429.783 212.125 429.793 211.539 430.079C211.231 430.23 210.469 431.258 208.904 431.02C207.143 430.751 206.611 432.088 206.611 432.088C206.611 432.088 208.309 431.923 208.795 432.078C210.488 432.619 210.743 434.012 212.603 434.568C213.805 434.928 214.711 434.623 215.355 434.246C216.753 433.296 217.513 431.99 218.746 430.975C219.752 430.406 220.782 430.672 220.782 430.672C220.782 430.672 219.586 429.25 218.118 429.056C216.093 428.788 214.387 429.317 213.995 428.831C212.81 427.36 211.358 427.477 211.346 427.54C211.283 427.874 210.97 428.334 210.457 428.603C208.263 429.752 207.135 427.451 205.987 427.418C204.958 427.389 204.385 428.015 204.02 428.453C202.82 429.891 203.329 430.589 200.086 430.604C196.843 430.619 197.474 433.302 197.572 433.302C197.67 433.301 200.022 430.962 201.043 433.286C201.86 435.145 204.191 435.057 205.254 434.781C207.325 434.355 208.516 435.157 209.664 436.829C211.124 438.955 214.845 439.035 216.883 436.796C218.682 434.817 218.747 434.622 220.799 434.319C222.44 434.077 223.182 432.832 223.348 432.24Z" fill="#FCDB00" fill-opacity="0.85"/>
<path d="M374.226 239.01C375.954 260.966 367.552 278.212 353.843 291.837C340.078 305.517 320.975 315.521 301.478 322.772C282.004 330.015 262.283 334.457 247.412 337.089C239.982 338.403 233.773 339.264 229.426 339.796C227.253 340.062 225.546 340.245 224.385 340.362C223.805 340.42 223.361 340.462 223.063 340.489C222.915 340.503 222.803 340.512 222.729 340.519L222.646 340.526L222.632 340.527L222.628 340.527L222.626 340.527L222.622 340.528L222.61 340.529L222.531 340.534C222.46 340.539 222.353 340.547 222.211 340.556C221.927 340.575 221.502 340.602 220.946 340.633C219.833 340.695 218.194 340.775 216.103 340.845C211.921 340.984 205.93 341.084 198.717 340.922C184.281 340.598 164.992 339.227 145.51 335.054C126.006 330.876 106.456 323.921 91.3807 312.523C76.3666 301.17 65.7781 285.412 64.0475 263.421C60.5163 218.553 71.5721 175.557 95.6833 142.851C119.77 110.177 156.957 87.6673 205.962 83.8108C254.966 79.9543 295.217 96.3697 324.118 124.873C353.049 153.405 370.695 194.142 374.226 239.01Z" fill="white" stroke="#02559E" stroke-width="4"/>
<path d="M326.483 212.449C328.618 239.575 327.13 262.907 307.306 277.262C297.417 284.423 282.156 292.37 222.793 297.042C163.454 301.712 146.376 295.756 136.21 290.717C116.102 280.751 109.279 256.8 107.147 229.711C106.094 216.328 107.227 205.107 111.188 196.206C115.115 187.381 121.89 180.678 132.487 176.391C142.892 172.18 154.605 174.012 168.3 176.857C169.616 177.131 170.949 177.413 172.298 177.699C184.805 180.348 198.697 183.29 213.742 182.221C230.149 181.055 244.761 176.101 257.866 171.658L257.997 171.614C271.269 167.115 282.783 163.246 293.462 163.798C303.833 164.334 311.482 169.733 316.878 178.376C322.321 187.093 325.43 199.073 326.483 212.449Z" fill="#0A66AC" stroke="#02559E" stroke-width="4"/>
<path d="M179.821 242.107C180.952 256.479 176.229 258.123 163.789 259.678C151.349 261.233 145.94 259.235 144.809 244.863C143.678 230.491 150.599 218.223 160.267 217.462C169.935 216.701 178.69 227.735 179.821 242.107Z" fill="white" stroke="#02559E" stroke-width="3"/>
<path d="M253.951 236.107C255.082 250.479 260.005 251.363 272.535 250.953C285.065 250.543 290.095 247.723 288.964 233.351C287.833 218.979 279.078 207.945 269.41 208.706C259.741 209.467 252.82 221.735 253.951 236.107Z" fill="white" stroke="#02559E" stroke-width="3"/>
<path d="M159.473 62.977L157.232 50.3096L171.743 47.7431L173.983 60.4104L180.884 59.1899L175.258 27.3796L168.357 28.6002L170.623 41.4094L156.112 43.9759L153.846 31.1667L146.945 32.3873L152.572 64.1976L159.473 62.977Z" fill="#02559E"/>
<path d="M193.901 52.5767L201.049 52.8225L203.146 46.3147L216.244 46.7172L217.887 53.4016L225.035 53.6474L217.449 25.6261C216.466 22.0863 213.646 20.3083 210.576 20.2027C207.553 20.0987 204.617 21.6788 203.394 25.1427L193.901 52.5767ZM209.319 27.4117C209.534 26.7467 209.88 26.4705 210.408 26.4886C210.983 26.5084 211.261 26.8061 211.43 27.4843L214.635 40.4182L205.185 40.0931L209.319 27.4117Z" fill="#02559E"/>
<path d="M253.187 20.1837L246.239 19.2727L242.819 45.3534C242.339 49.0181 243.753 51.5272 248.179 52.1075L263.932 54.173L264.774 47.748L249.83 45.7886L253.187 20.1837Z" fill="#02559E"/>
<path d="M293.91 65.7984C302.996 68.7453 312.157 64.1475 315.104 55.0614C318.036 46.021 313.378 36.8905 304.246 33.9287C295.16 30.9818 286.03 35.6401 283.097 44.6805C280.151 53.7666 284.824 62.8515 293.91 65.7984ZM295.953 59.4975C290.84 57.839 288.184 52.3352 289.946 46.9018C291.709 41.4685 297.089 38.571 302.203 40.2296C307.362 41.903 309.972 47.3919 308.21 52.8253C306.447 58.2587 301.067 61.1561 295.953 59.4975Z" fill="#02559E"/>
<path d="M349.749 41.2437L338.06 58.7189L343.885 62.6151L355.574 45.14L349.749 41.2437ZM334.235 70.4816C336.07 71.7091 338.6 71.2071 339.828 69.3718C341.055 67.5365 340.553 65.0063 338.718 63.7788C336.923 62.5779 334.352 63.0532 333.125 64.8885C331.897 66.7238 332.439 69.2807 334.235 70.4816Z" fill="#02559E"/>
<path d="M365.406 369.826C365.406 369.826 370.66 358.91 371.535 350.385C373.108 335.063 367.751 324.466 367.751 324.466" stroke="#02559E" stroke-width="3" stroke-linecap="round"/>
<path d="M376.602 375.271C376.602 375.271 384.222 361.125 384.669 349.683C385.473 329.116 375.042 314.102 375.042 314.102" stroke="#02559E" stroke-width="3" stroke-linecap="round"/>
<line x1="13.9597" y1="119.334" x2="59.2092" y2="140.499" stroke="#69D8FF" stroke-width="21" stroke-linecap="round"/>
<line x1="59.3563" y1="48.0697" x2="94.7184" y2="90.9557" stroke="#69D8FF" stroke-width="21" stroke-linecap="round"/>
<line x1="393.194" y1="172.417" x2="439.869" y2="164.518" stroke="#69D8FF" stroke-width="21" stroke-linecap="round"/>
<path d="M371.928 117.12L420.145 82.9298" stroke="#69D8FF" stroke-width="21" stroke-linecap="round"/>
</svg>
