<svg width="363" height="455" viewBox="0 0 363 455" fill="none" xmlns="http://www.w3.org/2000/svg">
<path d="M25.6486 280.59C31.3574 273.763 41.668 273.234 48.045 279.442L98.5312 328.591C99.0308 329.078 99.4773 329.62 99.8594 330.204C105.088 338.2 96.6382 348.038 88.0201 344.108C87.5003 343.871 87.0029 343.587 86.5341 343.261L28.641 302.946C21.2751 297.817 19.8909 287.476 25.6486 280.59Z" fill="#FCDB00" stroke="#02559E" stroke-width="4"/>
<path d="M318.756 421.313C326.433 416.809 328.656 406.725 323.585 399.41L283.444 341.505C283.046 340.932 282.585 340.402 282.072 339.929C275.048 333.452 263.949 340.162 266.402 349.312C266.55 349.864 266.748 350.402 266.993 350.918L297.197 414.671C301.041 422.783 311.013 425.856 318.756 421.313Z" fill="#FCDB00" stroke="#02559E" stroke-width="4"/>
<path d="M183.501 453C167.507 453 153.379 441.254 141.371 424.253C129.427 407.341 119.959 385.754 113.185 367.197C106.407 348.631 120.681 330 140.764 330H226.238C246.321 330 260.595 348.631 253.817 367.197C247.043 385.754 237.575 407.341 225.631 424.253C213.623 441.254 199.495 453 183.501 453Z" fill="white" stroke="#02559E" stroke-width="4"/>
<path d="M166.119 378.42V367.242L172.087 377.544C172.581 378.375 173.411 378.712 174.376 378.712C175.565 378.712 176.665 377.859 176.665 376.355V363.314H173.568V374.425L167.6 364.19C167.106 363.359 166.321 363 165.334 363C164.099 363 163 363.875 163 365.379V378.42H166.119ZM184.84 378.712C186.366 378.712 187.578 378.106 188.363 377.118V378.42H191.392V372.831C191.392 369.487 188.834 366.973 185.356 366.973C181.946 366.973 179.343 369.644 179.343 372.831C179.343 376.063 181.609 378.712 184.84 378.712ZM185.356 375.726C183.718 375.726 182.529 374.425 182.529 372.853C182.529 371.282 183.718 369.98 185.356 369.98C186.994 369.98 188.206 371.282 188.206 372.853C188.206 374.425 186.994 375.726 185.356 375.726ZM199.534 375.637C197.896 375.637 197.088 374.178 197.088 372.472V367.309H193.902V372.831C193.902 376.085 195.832 378.712 199.534 378.712C203.259 378.712 205.188 376.085 205.188 372.831V367.309H202.002V372.449C202.002 374.178 201.172 375.637 199.534 375.637Z" fill="#02559E"/>
<path d="M245.755 364.885C247.268 362.211 250.398 362.388 252 362.308C252 362.308 249.188 358.887 246.853 358.887C238.999 358.887 241.706 353.53 236.047 354.264C230.388 354.999 231.027 354.197 228.95 352.362C226.607 350.29 223.821 350.819 222.301 352.369C221.16 353.531 220.71 355.324 221.509 356.648C222.019 357.494 223.021 359.466 225.973 358.719C228.483 357.461 226.095 354.192 225.143 356.648C225.143 356.648 224.419 356.373 224.753 355.589C225.041 354.914 225.875 354.698 226.485 354.866C227.095 355.035 227.822 355.589 227.822 357.01C227.839 357.072 230.168 356.648 232.095 359.081C232.883 360.075 236.018 359.091 238.242 359.586C240.73 360.14 243.097 362.982 243.097 362.982C243.097 362.982 240.773 362.565 239.072 363.536C238.298 363.978 236.403 366.692 234.291 368.256C233.069 369.161 230.917 369.714 229.046 368.858C226.363 367.63 226.41 366.518 224.338 365.511C222.704 364.716 219.801 365.222 219.801 365.222C219.801 365.222 220.182 362.284 223.411 362.284C225.826 362.284 225.905 362.567 228.095 360.911C228.923 360.285 230.901 360.316 231.437 361.922C232.095 363.897 228.949 364.21 228.949 364.21C228.949 364.21 231.091 363.387 230.656 362.284C230.221 361.18 228.973 361.19 228.095 361.609C227.631 361.831 226.485 363.346 224.143 362.982C221.509 362.573 220.704 364.547 220.704 364.547C220.704 364.547 223.246 364.315 223.972 364.547C226.503 365.359 226.875 367.42 229.656 368.256C231.453 368.796 232.812 368.352 233.778 367.799C235.876 366.402 237.023 364.475 238.877 362.982C240.386 362.148 241.926 362.549 241.926 362.549C241.926 362.549 240.145 360.438 237.95 360.14C234.919 359.73 232.362 360.502 231.778 359.779C230.015 357.596 227.841 357.758 227.822 357.853C227.726 358.346 227.254 359.024 226.485 359.418C223.192 361.104 221.519 357.692 219.801 357.636C218.261 357.585 217.399 358.508 216.85 359.153C215.045 361.272 215.801 362.308 210.947 362.308C206.092 362.308 207.019 366.281 207.166 366.281C207.312 366.281 210.849 362.838 212.361 366.281C213.571 369.036 217.061 368.922 218.655 368.521C221.758 367.904 223.534 369.099 225.241 371.579C227.412 374.734 232.981 374.879 236.047 371.579C238.755 368.665 238.852 368.376 241.926 367.943C244.385 367.596 245.503 365.76 245.755 364.885Z" fill="#FCDB00" fill-opacity="0.85"/>
<path d="M129.245 346.885C127.732 344.211 124.602 344.388 123 344.308C123 344.308 125.812 340.887 128.147 340.887C136.001 340.887 133.294 335.53 138.953 336.264C144.612 336.999 143.973 336.197 146.05 334.362C148.393 332.29 151.179 332.819 152.699 334.369C153.84 335.531 154.29 337.324 153.491 338.648C152.981 339.494 151.979 341.466 149.027 340.719C146.517 339.461 148.905 336.192 149.857 338.648C149.857 338.648 150.581 338.373 150.247 337.589C149.959 336.914 149.125 336.698 148.515 336.866C147.905 337.035 147.178 337.589 147.178 339.01C147.161 339.072 144.832 338.648 142.905 341.081C142.117 342.075 138.982 341.091 136.758 341.586C134.27 342.14 131.903 344.982 131.903 344.982C131.903 344.982 134.227 344.565 135.928 345.536C136.702 345.978 138.597 348.692 140.709 350.256C141.931 351.161 144.083 351.714 145.954 350.858C148.637 349.63 148.59 348.518 150.662 347.511C152.296 346.716 155.199 347.222 155.199 347.222C155.199 347.222 154.818 344.284 151.589 344.284C149.174 344.284 149.095 344.567 146.905 342.911C146.077 342.285 144.099 342.316 143.563 343.922C142.905 345.897 146.051 346.21 146.051 346.21C146.051 346.21 143.909 345.387 144.344 344.284C144.779 343.18 146.027 343.19 146.905 343.609C147.369 343.831 148.515 345.346 150.857 344.982C153.491 344.573 154.296 346.547 154.296 346.547C154.296 346.547 151.754 346.315 151.028 346.547C148.497 347.359 148.125 349.42 145.344 350.256C143.547 350.796 142.188 350.352 141.222 349.799C139.124 348.402 137.977 346.475 136.123 344.982C134.614 344.148 133.074 344.549 133.074 344.549C133.074 344.549 134.855 342.438 137.05 342.14C140.081 341.73 142.638 342.502 143.222 341.779C144.985 339.596 147.159 339.758 147.178 339.853C147.274 340.346 147.746 341.024 148.515 341.418C151.808 343.104 153.481 339.692 155.199 339.636C156.739 339.585 157.601 340.508 158.15 341.153C159.955 343.272 159.199 344.308 164.053 344.308C168.908 344.308 167.981 348.281 167.834 348.281C167.688 348.281 164.151 344.838 162.639 348.281C161.429 351.036 157.939 350.922 156.345 350.521C153.242 349.904 151.466 351.099 149.759 353.579C147.588 356.734 142.019 356.879 138.953 353.579C136.245 350.665 136.148 350.376 133.074 349.943C130.615 349.596 129.497 347.76 129.245 346.885Z" fill="#FCDB00" fill-opacity="0.85"/>
<path d="M201.244 349.439C200.036 347.848 198.055 348.243 197.025 348.334C197.025 348.334 198.51 345.873 200 345.664C205.012 344.96 202.799 341.743 206.477 341.711C210.155 341.678 209.675 341.217 210.833 339.846C212.141 338.298 213.967 338.39 215.078 339.255C215.911 339.904 216.361 341.021 215.971 341.948C215.723 342.54 215.261 343.903 213.31 343.685C211.594 343.097 212.822 340.772 213.652 342.274C213.652 342.274 214.089 342.031 213.805 341.554C213.56 341.145 213.008 341.079 212.634 341.243C212.26 341.406 211.846 341.829 211.975 342.747C211.969 342.789 210.445 342.724 209.435 344.467C209.023 345.18 206.933 344.825 205.558 345.344C204.021 345.925 202.768 347.972 202.768 347.972C202.768 347.972 204.213 347.495 205.387 347.969C205.921 348.185 207.376 349.769 208.866 350.59C209.728 351.065 211.151 351.229 212.268 350.509C213.869 349.475 213.738 348.761 214.969 347.925C215.94 347.266 217.838 347.332 217.838 347.332C217.838 347.332 217.329 345.469 215.268 345.758C213.727 345.974 213.702 346.165 212.154 345.291C211.569 344.961 210.31 345.158 210.113 346.244C209.872 347.578 211.909 347.498 211.909 347.498C211.909 347.498 210.467 347.159 210.644 346.407C210.822 345.655 211.619 345.55 212.218 345.742C212.534 345.843 213.403 346.719 214.864 346.275C216.508 345.774 217.201 346.977 217.201 346.977C217.201 346.977 215.557 347.055 215.115 347.27C213.573 348.021 213.523 349.386 211.824 350.175C210.726 350.685 209.819 350.519 209.152 350.248C207.686 349.534 206.78 348.393 205.461 347.594C204.423 347.191 203.476 347.587 203.476 347.587C203.476 347.587 204.421 346.065 205.795 345.676C207.692 345.14 209.394 345.409 209.701 344.89C210.628 343.322 212.031 343.232 212.051 343.291C212.158 343.601 212.52 343.997 213.046 344.182C215.301 344.976 216.059 342.623 217.15 342.433C218.129 342.262 218.762 342.781 219.172 343.148C220.516 344.355 220.127 345.092 223.225 344.657C226.323 344.222 226.091 346.872 225.998 346.885C225.905 346.898 223.335 344.99 222.682 347.35C222.16 349.238 219.922 349.477 218.869 349.36C216.833 349.24 215.807 350.171 214.943 351.925C213.843 354.157 210.302 354.75 208.047 352.893C206.054 351.254 205.966 351.076 203.965 351.071C202.365 351.068 201.484 349.982 201.244 349.439Z" fill="#FCDB00" fill-opacity="0.85"/>
<path d="M180.454 407.964C181.42 406.216 183.438 406.322 184.47 406.265C184.47 406.265 182.648 404.042 181.143 404.049C176.081 404.072 177.81 400.571 174.166 401.066C170.521 401.562 170.93 401.037 169.587 399.847C168.07 398.503 166.276 398.855 165.301 399.87C164.57 400.632 164.285 401.803 164.804 402.664C165.135 403.214 165.787 404.497 167.687 404.002C169.301 403.173 167.752 401.049 167.146 402.653C167.146 402.653 166.678 402.476 166.891 401.963C167.075 401.523 167.612 401.379 168.005 401.487C168.399 401.595 168.869 401.954 168.873 402.881C168.885 402.922 170.384 402.639 171.633 404.219C172.144 404.865 174.161 404.215 175.596 404.531C177.201 404.885 178.734 406.731 178.734 406.731C178.734 406.731 177.236 406.466 176.142 407.104C175.645 407.394 174.432 409.17 173.075 410.197C172.291 410.79 170.905 411.158 169.697 410.605C167.965 409.812 167.992 409.086 166.653 408.435C165.598 407.922 163.729 408.26 163.729 408.26C163.729 408.26 163.966 406.343 166.047 406.334C167.603 406.326 167.654 406.511 169.061 405.425C169.592 405.014 170.867 405.028 171.217 406.074C171.648 407.36 169.621 407.574 169.621 407.574C169.621 407.574 170.999 407.031 170.715 406.312C170.432 405.594 169.627 405.604 169.063 405.88C168.765 406.026 168.03 407.017 166.52 406.787C164.821 406.528 164.308 407.818 164.308 407.818C164.308 407.818 165.946 407.658 166.415 407.808C168.048 408.33 168.294 409.673 170.089 410.21C171.248 410.557 172.123 410.263 172.744 409.9C174.092 408.983 174.825 407.723 176.015 406.744C176.985 406.195 177.979 406.452 177.979 406.452C177.979 406.452 176.825 405.08 175.409 404.893C173.455 404.634 171.809 405.145 171.431 404.676C170.288 403.257 168.888 403.369 168.876 403.431C168.815 403.753 168.513 404.197 168.019 404.456C165.902 405.565 164.814 403.345 163.706 403.313C162.714 403.284 162.161 403.889 161.809 404.311C160.652 405.698 161.142 406.372 158.014 406.386C154.886 406.4 155.495 408.989 155.589 408.988C155.683 408.988 157.953 406.732 158.937 408.973C159.725 410.766 161.974 410.682 163 410.415C164.997 410.004 166.146 410.778 167.253 412.391C168.662 414.442 172.251 414.519 174.217 412.359C175.953 410.45 176.015 410.262 177.995 409.97C179.578 409.737 180.294 408.535 180.454 407.964Z" fill="#FCDB00" fill-opacity="0.85"/>
<path d="M340.483 253.501C337.897 274.565 326.652 289.235 311.086 299.468C295.456 309.744 275.485 315.525 255.665 318.629C235.869 321.729 216.377 322.136 201.816 321.763C194.541 321.577 188.508 321.197 184.298 320.864C182.193 320.697 180.545 320.542 179.425 320.429C178.865 320.373 178.438 320.327 178.152 320.295C178.009 320.28 177.901 320.267 177.83 320.259L177.751 320.25L177.738 320.249L177.734 320.248L177.732 320.248L177.728 320.247L177.717 320.246L177.641 320.236C177.574 320.227 177.471 320.214 177.335 320.195L177.236 320.182C176.968 320.145 176.596 320.093 176.125 320.024C175.061 319.869 173.497 319.63 171.508 319.294C167.528 318.621 161.848 317.564 155.062 316.024C141.481 312.941 123.515 307.937 105.907 300.248C88.2786 292.55 71.1461 282.221 59.0971 268.557C47.099 254.951 40.1292 238.038 42.7196 216.941C48.0089 173.863 66.7223 135.362 95.7903 109.094C124.828 82.8547 164.289 68.7346 211.334 74.5112C258.379 80.2878 293.253 103.535 315.08 136.02C336.93 168.539 345.773 210.424 340.483 253.501Z" fill="white" stroke="#02559E" stroke-width="4"/>
<path d="M300.46 219.212C297.261 245.266 291.37 266.996 269.908 276.735C259.201 281.594 243.263 286.174 186.253 279.174C129.267 272.177 114.284 263.264 105.658 256.558C88.5998 243.296 86.7504 219.381 89.945 193.364C91.5224 180.517 94.7493 170.141 100.195 162.502C105.594 154.931 113.271 149.907 124.096 147.895C134.717 145.921 145.418 149.895 157.819 155.219C159.01 155.731 160.216 156.254 161.436 156.784C172.749 161.693 185.324 167.15 199.762 169.034C215.504 171.089 230.278 169.215 243.519 167.536L243.654 167.519C257.069 165.817 268.683 164.378 278.655 166.949C288.33 169.444 294.506 175.999 297.938 185.189C301.401 194.461 302.037 206.372 300.46 219.212Z" fill="#0A66AC" stroke="#02559E" stroke-width="4"/>
<ellipse cx="139.375" cy="216.985" rx="16.9398" ry="25.1807" transform="rotate(7 139.375 216.985)" fill="white" stroke="#02559E" stroke-width="3"/>
<path d="M230.764 230.585C228.589 228.965 229.003 225.594 231.505 224.549L262.433 211.622C266.339 209.989 269.248 215.403 265.73 217.759L248.478 229.315C248.225 229.485 248.181 229.84 248.386 230.066L262.33 245.452C265.173 248.59 261.041 253.139 257.645 250.609L230.764 230.585Z" fill="white" stroke="#02559E" stroke-width="3"/>
<path d="M287.833 209.424C288.116 209.429 288.405 209.432 288.7 209.432C292.028 209.433 296.184 209.095 299.076 207.626C302.782 205.743 305.408 201.509 307.087 197.904C307.36 197.317 307.61 196.742 307.838 196.191C307.828 196.623 307.821 197.07 307.817 197.529C307.79 201.222 308.016 205.756 309.1 208.755C310.192 211.775 312.705 214.784 314.876 216.996C315.756 217.892 316.593 218.671 317.279 219.282C316.554 219.276 315.694 219.296 314.757 219.375C312.072 219.599 308.655 220.304 306.023 222.301C304.717 223.292 303.289 224.842 301.899 226.568C300.502 228.303 299.111 230.255 297.882 232.082C297.091 233.256 296.365 234.381 295.743 235.367C295.959 234.072 296.186 232.55 296.372 230.924C296.642 228.577 296.83 225.999 296.781 223.568C296.733 221.149 296.45 218.816 295.742 216.989C294.355 213.412 291.076 211.071 288.27 209.641C288.123 209.567 287.978 209.494 287.833 209.424Z" fill="#FCDB00" stroke="#02559E" stroke-width="1.5"/>
<path d="M55.1163 119.969C62.0682 113.418 62.4403 103.174 55.8895 96.2223C49.3716 89.3054 39.1259 89.0011 32.1392 95.5848C25.1874 102.136 24.8831 112.381 31.4009 119.298C37.9517 126.25 48.1645 126.519 55.1163 119.969ZM50.5736 115.148C46.661 118.835 40.5583 118.518 36.641 114.36C32.7237 110.203 32.7694 104.093 36.6819 100.406C40.6295 96.6859 46.6972 97.0359 50.6145 101.193C54.5318 105.35 54.4862 111.461 50.5736 115.148Z" fill="#02559E"/>
<path d="M75.6712 89.3394L67.9667 79.0378L71.3109 76.5367C72.2222 77.1139 73.2871 77.5762 74.5059 77.9234L86.3957 81.3187L93.2762 76.1729L78.3346 72.063C76.2618 71.4554 75.0337 70.9353 74.315 69.9744C73.5963 69.0134 73.4158 67.6499 73.4187 65.4899L73.6982 50.4759L67.3174 55.2481L67.0026 67.8909C67.0201 69.1965 67.1241 70.3774 67.4203 71.4146L64.1145 73.8869L56.3238 63.47L50.7117 67.6672L70.0591 93.5366L75.6712 89.3394Z" fill="#02559E"/>
<path d="M97.9771 71.9019L104.445 68.8486L103.33 62.1028L115.159 56.465L119.68 61.6559L126.148 58.6025L106.577 37.1615C104.083 34.4642 100.761 34.1745 97.9831 35.486C95.2485 36.777 93.3614 39.5257 93.8589 43.1656L97.9771 71.9019ZM100.166 42.4706C100.053 41.7809 100.233 41.3771 100.711 41.1517C101.232 40.9058 101.615 41.0432 102.076 41.569L110.846 51.6009L102.295 55.6379L100.166 42.4706Z" fill="#02559E"/>
<path d="M137.026 40.9741C138.252 42.7925 139.786 43.917 141.362 44.4959L143.215 54.2088L150.099 52.8958L148.237 43.1357C149.49 42.0172 150.455 40.4161 150.888 38.33L155.221 19.0324L147.771 20.4534L144.351 37.6222C144.176 38.2419 144.107 38.6461 143.824 38.7001C143.541 38.754 143.337 38.4509 142.937 37.892L133.39 23.1963L125.988 24.6083L137.026 40.9741Z" fill="#02559E"/>
<path d="M183.482 17.6063L180.19 38.3709L187.111 39.4683L190.403 18.7037L183.482 17.6063ZM181.644 50.6542C183.825 51 185.912 49.4841 186.258 47.3033C186.604 45.1226 185.088 43.0354 182.907 42.6897C180.774 42.3514 178.639 43.8598 178.293 46.0406C177.948 48.2213 179.511 50.316 181.644 50.6542Z" fill="#02559E"/>
</svg>
