<svg width="344" height="501" viewBox="0 0 344 501" fill="none" xmlns="http://www.w3.org/2000/svg">
<path d="M36.0964 467.312C28.4204 462.808 26.1974 452.726 31.2678 445.412L71.4105 387.506C71.8077 386.933 72.2689 386.404 72.7822 385.93C79.8048 379.454 90.9028 386.164 88.4489 395.312C88.3009 395.864 88.1034 396.402 87.8587 396.918L57.6522 460.671C53.8089 468.782 43.8382 471.854 36.0964 467.312Z" fill="#FCDB00" stroke="#02559E" stroke-width="4"/>
<path d="M305.754 467.315C313.431 462.811 315.654 452.727 310.583 445.412L270.442 387.507C270.044 386.934 269.583 386.404 269.07 385.931C262.046 379.454 250.947 386.164 253.4 395.314C253.548 395.866 253.746 396.404 253.991 396.92L284.195 460.673C288.039 468.785 298.011 471.858 305.754 467.315Z" fill="#FCDB00" stroke="#02559E" stroke-width="4"/>
<path d="M170.5 499C154.506 499 140.378 487.254 128.37 470.253C116.426 453.341 106.958 431.754 100.184 413.197C93.4061 394.631 107.68 376 127.763 376H213.237C233.32 376 247.594 394.631 240.816 413.197C234.042 431.754 224.574 453.341 212.63 470.253C200.622 487.254 186.494 499 170.5 499Z" fill="white" stroke="#02559E" stroke-width="4"/>
<path d="M153.118 424.42V413.242L159.086 423.544C159.58 424.375 160.41 424.712 161.375 424.712C162.564 424.712 163.664 423.859 163.664 422.355V409.314H160.567V420.425L154.599 410.19C154.105 409.359 153.32 409 152.333 409C151.098 409 149.999 409.875 149.999 411.379V424.42H153.118ZM171.839 424.712C173.365 424.712 174.577 424.106 175.362 423.118V424.42H178.391V418.831C178.391 415.487 175.833 412.973 172.355 412.973C168.945 412.973 166.342 415.644 166.342 418.831C166.342 422.063 168.608 424.712 171.839 424.712ZM172.355 421.726C170.717 421.726 169.528 420.425 169.528 418.853C169.528 417.282 170.717 415.98 172.355 415.98C173.993 415.98 175.205 417.282 175.205 418.853C175.205 420.425 173.993 421.726 172.355 421.726ZM186.533 421.637C184.895 421.637 184.087 420.178 184.087 418.472V413.309H180.901V418.831C180.901 422.085 182.831 424.712 186.533 424.712C190.258 424.712 192.187 422.085 192.187 418.831V413.309H189.001V418.449C189.001 420.178 188.171 421.637 186.533 421.637Z" fill="#02559E"/>
<path d="M232.754 410.885C234.267 408.211 237.397 408.388 238.999 408.308C238.999 408.308 236.187 404.887 233.852 404.887C225.998 404.887 228.705 399.53 223.046 400.264C217.387 400.999 218.026 400.197 215.949 398.362C213.606 396.29 210.82 396.819 209.3 398.369C208.16 399.531 207.709 401.324 208.508 402.648C209.018 403.494 210.02 405.466 212.972 404.719C215.482 403.461 213.094 400.192 212.142 402.648C212.142 402.648 211.418 402.373 211.752 401.589C212.04 400.914 212.874 400.698 213.484 400.866C214.094 401.035 214.821 401.589 214.821 403.01C214.839 403.072 217.167 402.648 219.094 405.081C219.882 406.075 223.017 405.091 225.241 405.586C227.729 406.14 230.096 408.982 230.096 408.982C230.096 408.982 227.772 408.565 226.071 409.536C225.297 409.978 223.402 412.692 221.29 414.256C220.068 415.161 217.916 415.714 216.045 414.858C213.362 413.63 213.409 412.518 211.337 411.511C209.703 410.716 206.8 411.222 206.8 411.222C206.8 411.222 207.181 408.284 210.41 408.284C212.825 408.284 212.904 408.567 215.094 406.911C215.922 406.285 217.9 406.316 218.436 407.922C219.094 409.897 215.948 410.21 215.948 410.21C215.948 410.21 218.09 409.387 217.655 408.284C217.22 407.18 215.972 407.19 215.094 407.609C214.63 407.831 213.484 409.346 211.142 408.982C208.508 408.573 207.703 410.547 207.703 410.547C207.703 410.547 210.245 410.315 210.971 410.547C213.502 411.359 213.874 413.42 216.655 414.256C218.452 414.796 219.811 414.352 220.777 413.799C222.875 412.402 224.022 410.475 225.876 408.982C227.385 408.148 228.925 408.549 228.925 408.549C228.925 408.549 227.144 406.438 224.949 406.14C221.918 405.73 219.361 406.502 218.777 405.779C217.014 403.596 214.84 403.758 214.821 403.853C214.725 404.346 214.253 405.024 213.484 405.418C210.191 407.104 208.519 403.692 206.8 403.636C205.26 403.585 204.398 404.508 203.849 405.153C202.044 407.272 202.8 408.308 197.946 408.308C193.091 408.308 194.018 412.281 194.165 412.281C194.311 412.281 197.848 408.838 199.36 412.281C200.57 415.036 204.06 414.922 205.654 414.521C208.757 413.904 210.533 415.099 212.24 417.579C214.411 420.734 219.98 420.879 223.046 417.579C225.754 414.665 225.851 414.376 228.925 413.943C231.384 413.596 232.502 411.76 232.754 410.885Z" fill="#FCDB00" fill-opacity="0.85"/>
<path d="M116.244 392.885C114.731 390.211 111.601 390.388 109.999 390.308C109.999 390.308 112.811 386.887 115.146 386.887C123 386.887 120.293 381.53 125.952 382.264C131.611 382.999 130.972 382.197 133.049 380.362C135.392 378.29 138.178 378.819 139.698 380.369C140.839 381.531 141.289 383.324 140.49 384.648C139.98 385.494 138.978 387.466 136.026 386.719C133.516 385.461 135.904 382.192 136.856 384.648C136.856 384.648 137.58 384.373 137.246 383.589C136.958 382.914 136.124 382.698 135.514 382.866C134.904 383.035 134.177 383.589 134.177 385.01C134.16 385.072 131.831 384.648 129.904 387.081C129.116 388.075 125.981 387.091 123.757 387.586C121.269 388.14 118.902 390.982 118.902 390.982C118.902 390.982 121.226 390.565 122.927 391.536C123.701 391.978 125.596 394.692 127.708 396.256C128.93 397.161 131.082 397.714 132.953 396.858C135.636 395.63 135.589 394.518 137.661 393.511C139.295 392.716 142.198 393.222 142.198 393.222C142.198 393.222 141.817 390.284 138.588 390.284C136.173 390.284 136.094 390.567 133.904 388.911C133.076 388.285 131.098 388.316 130.562 389.922C129.904 391.897 133.05 392.21 133.05 392.21C133.05 392.21 130.908 391.387 131.343 390.284C131.778 389.18 133.026 389.19 133.904 389.609C134.368 389.831 135.514 391.346 137.856 390.982C140.49 390.573 141.295 392.547 141.295 392.547C141.295 392.547 138.753 392.315 138.027 392.547C135.496 393.359 135.124 395.42 132.343 396.256C130.546 396.796 129.187 396.352 128.221 395.799C126.123 394.402 124.976 392.475 123.122 390.982C121.613 390.148 120.073 390.549 120.073 390.549C120.073 390.549 121.854 388.438 124.049 388.14C127.08 387.73 129.637 388.502 130.221 387.779C131.984 385.596 134.158 385.758 134.177 385.853C134.273 386.346 134.745 387.024 135.514 387.418C138.807 389.104 140.48 385.692 142.198 385.636C143.738 385.585 144.6 386.508 145.149 387.153C146.954 389.272 146.198 390.308 151.052 390.308C155.907 390.308 154.98 394.281 154.833 394.281C154.687 394.281 151.15 390.838 149.638 394.281C148.428 397.036 144.938 396.922 143.344 396.521C140.241 395.904 138.465 397.099 136.758 399.579C134.587 402.734 129.018 402.879 125.952 399.579C123.244 396.665 123.147 396.376 120.073 395.943C117.615 395.596 116.496 393.76 116.244 392.885Z" fill="#FCDB00" fill-opacity="0.85"/>
<path d="M188.243 395.439C187.035 393.848 185.054 394.243 184.024 394.334C184.024 394.334 185.509 391.873 186.999 391.664C192.011 390.96 189.798 387.743 193.476 387.711C197.154 387.678 196.674 387.217 197.832 385.846C199.14 384.298 200.966 384.39 202.077 385.255C202.91 385.904 203.36 387.021 202.97 387.948C202.722 388.54 202.26 389.903 200.309 389.685C198.593 389.097 199.821 386.772 200.651 388.274C200.651 388.274 201.088 388.031 200.804 387.554C200.559 387.145 200.007 387.079 199.633 387.243C199.259 387.406 198.845 387.829 198.974 388.747C198.968 388.789 197.444 388.724 196.434 390.467C196.022 391.18 193.932 390.825 192.557 391.344C191.02 391.925 189.767 393.972 189.767 393.972C189.767 393.972 191.212 393.495 192.386 393.969C192.92 394.185 194.375 395.769 195.865 396.59C196.727 397.065 198.15 397.229 199.267 396.509C200.868 395.475 200.737 394.761 201.968 393.925C202.939 393.266 204.837 393.332 204.837 393.332C204.837 393.332 204.328 391.469 202.267 391.758C200.726 391.974 200.701 392.165 199.153 391.291C198.568 390.961 197.309 391.158 197.112 392.244C196.871 393.578 198.908 393.498 198.908 393.498C198.908 393.498 197.466 393.159 197.643 392.407C197.821 391.655 198.618 391.55 199.217 391.742C199.533 391.843 200.402 392.719 201.863 392.275C203.507 391.774 204.2 392.977 204.2 392.977C204.2 392.977 202.556 393.055 202.114 393.27C200.573 394.021 200.522 395.386 198.823 396.175C197.725 396.685 196.818 396.519 196.151 396.248C194.685 395.534 193.779 394.393 192.46 393.594C191.422 393.191 190.475 393.587 190.475 393.587C190.475 393.587 191.42 392.065 192.794 391.676C194.691 391.14 196.393 391.409 196.7 390.89C197.627 389.322 199.03 389.232 199.05 389.291C199.157 389.601 199.519 389.997 200.046 390.182C202.3 390.976 203.058 388.623 204.149 388.433C205.128 388.262 205.761 388.781 206.171 389.148C207.515 390.355 207.126 391.092 210.224 390.657C213.322 390.222 213.09 392.872 212.997 392.885C212.904 392.898 210.334 390.99 209.681 393.35C209.159 395.238 206.921 395.477 205.868 395.36C203.832 395.24 202.806 396.171 201.942 397.925C200.842 400.157 197.301 400.75 195.046 398.893C193.053 397.254 192.965 397.076 190.964 397.071C189.364 397.068 188.483 395.982 188.243 395.439Z" fill="#FCDB00" fill-opacity="0.85"/>
<path d="M167.453 453.964C168.419 452.216 170.437 452.322 171.469 452.265C171.469 452.265 169.647 450.042 168.142 450.049C163.08 450.072 164.809 446.571 161.165 447.066C157.52 447.562 157.929 447.037 156.586 445.847C155.069 444.503 153.275 444.855 152.3 445.87C151.569 446.632 151.284 447.803 151.803 448.664C152.134 449.214 152.786 450.497 154.686 450.002C156.3 449.173 154.751 447.049 154.145 448.653C154.145 448.653 153.677 448.476 153.89 447.963C154.074 447.523 154.611 447.379 155.004 447.487C155.398 447.595 155.868 447.954 155.872 448.881C155.884 448.922 157.383 448.639 158.632 450.219C159.143 450.865 161.16 450.215 162.595 450.531C164.2 450.885 165.733 452.731 165.733 452.731C165.733 452.731 164.235 452.466 163.141 453.104C162.644 453.394 161.431 455.17 160.074 456.197C159.29 456.79 157.904 457.158 156.696 456.605C154.964 455.812 154.991 455.086 153.653 454.435C152.597 453.922 150.728 454.26 150.728 454.26C150.728 454.26 150.965 452.343 153.046 452.334C154.602 452.326 154.653 452.511 156.06 451.425C156.591 451.014 157.866 451.028 158.216 452.074C158.647 453.36 156.62 453.574 156.62 453.574C156.62 453.574 157.998 453.031 157.714 452.312C157.431 451.594 156.626 451.604 156.062 451.88C155.764 452.026 155.029 453.017 153.519 452.787C151.82 452.528 151.307 453.818 151.307 453.818C151.307 453.818 152.945 453.658 153.414 453.808C155.047 454.33 155.293 455.673 157.088 456.21C158.247 456.557 159.122 456.263 159.743 455.9C161.091 454.983 161.824 453.723 163.014 452.744C163.984 452.195 164.978 452.452 164.978 452.452C164.978 452.452 163.824 451.08 162.408 450.893C160.454 450.634 158.808 451.145 158.43 450.676C157.287 449.257 155.887 449.369 155.875 449.431C155.814 449.753 155.512 450.197 155.018 450.456C152.901 451.565 151.813 449.345 150.705 449.313C149.713 449.284 149.16 449.889 148.808 450.311C147.651 451.698 148.141 452.372 145.013 452.386C141.885 452.4 142.494 454.989 142.588 454.988C142.682 454.988 144.952 452.732 145.936 454.973C146.724 456.766 148.973 456.682 149.999 456.415C151.996 456.004 153.145 456.778 154.252 458.391C155.661 460.442 159.25 460.519 161.216 458.359C162.952 456.45 163.014 456.262 164.994 455.97C166.577 455.737 167.293 454.535 167.453 453.964Z" fill="#FCDB00" fill-opacity="0.85"/>
<path d="M320.999 279.917C320.999 301.138 311.625 317.069 297.423 329.123C283.162 341.228 264.044 349.4 244.749 354.896C225.479 360.385 206.182 363.164 191.685 364.569C184.441 365.271 178.406 365.629 174.187 365.811C172.078 365.902 170.422 365.95 169.298 365.974C168.735 365.986 168.305 365.993 168.018 365.996C167.874 365.998 167.765 365.999 167.694 365.999L167.614 366L167.601 366L167.597 366H167.595L167.591 366L167.579 366L167.504 365.999C167.435 365.999 167.332 365.998 167.195 365.996L167.095 365.995C166.824 365.991 166.448 365.985 165.972 365.974C164.898 365.95 163.317 365.902 161.301 365.811C157.269 365.629 151.502 365.272 144.579 364.57C130.723 363.166 112.282 360.388 93.8684 354.903C75.4329 349.41 57.1692 341.246 43.5449 329.153C29.9781 317.11 20.999 301.172 20.999 279.917C20.999 236.515 34.8808 196.021 60.531 166.407C86.1542 136.824 123.601 118 170.999 118C218.397 118 255.844 136.824 281.467 166.407C307.117 196.021 320.999 236.515 320.999 279.917Z" fill="white" stroke="#02559E" stroke-width="4"/>
<path d="M104.48 106.181L100.038 95.5004C98.5997 92.0435 99.6505 88.6953 102.797 87.3865C105.988 86.0594 108.815 88.1067 110.106 91.2091L114.566 101.934L120.878 99.3613L116.141 87.9711C113.265 81.0573 107.994 78.2588 101.302 81.0422C98.909 82.0376 97.0507 83.6942 95.9085 85.5729L91.1528 74.1384L84.8594 76.7559L98.1865 108.799L104.48 106.181Z" fill="#02559E"/>
<path d="M181.508 65.6799C177.236 65.7332 173.902 67.7909 172.454 71.0732C171.022 67.8268 167.685 65.8523 163.125 65.9092C155.446 66.005 151.628 71.621 151.71 78.2445L151.865 90.6756L158.681 90.5905L158.54 79.2634C158.495 75.6637 159.944 72.5734 163.736 72.5261C167.432 72.48 169.053 75.484 169.099 79.1317L169.24 90.4588L176.056 90.3738L175.914 78.9987C175.869 75.399 177.415 72.3554 181.111 72.3093C184.854 72.2626 186.476 75.3146 186.522 78.9624L186.663 90.2415L193.478 90.1565L193.323 77.7254C193.24 71.1019 189.235 65.5835 181.508 65.6799Z" fill="#02559E"/>
<path d="M232.925 100.777L235.944 91.8163L238.037 92.5214C238.111 93.0529 238.23 93.5997 238.411 94.1164L242.068 103.858L249.755 106.448L244.247 91.98L257.387 83.9474L249.7 81.3572L240.939 86.7628C240.483 87.0649 240.072 87.3823 239.707 87.7151L237.569 86.9947L244.006 67.8901L237.547 65.7137L226.466 98.6009L232.925 100.777Z" fill="#02559E"/>
<path d="M262.106 111.492C268.496 115.013 276.148 112.763 279.484 106.709C282.774 100.74 280.654 93.0497 274.222 89.5052C267.874 86.007 260.222 88.2572 256.909 94.2688C253.573 100.322 255.716 107.97 262.106 111.492ZM265.187 105.901C262.118 104.209 261.234 100.543 262.856 97.6005C264.477 94.6577 268.049 93.4473 271.118 95.1385C274.187 96.8296 275.113 100.519 273.491 103.462C271.87 106.404 268.256 107.592 265.187 105.901Z" fill="#02559E"/>
<path d="M80.7814 118.305C83.6468 116.742 85.3016 114.363 85.765 111.705L87.0983 114.149L92.7869 111.045L87.0633 100.553C83.6383 94.2744 76.2601 92.1754 69.7287 95.7383C63.3237 99.2322 61.171 106.913 64.4351 112.897C67.7451 118.965 74.7135 121.615 80.7814 118.305ZM78.6934 112.172C75.6173 113.85 72.0508 112.624 70.4417 109.675C68.8327 106.725 69.7328 103.063 72.8088 101.385C75.8849 99.7068 79.4936 100.91 81.1027 103.859C82.7117 106.809 81.7695 110.494 78.6934 112.172Z" fill="#02559E"/>
<path d="M133.525 97.2106C136.738 96.6339 139.06 94.9004 140.34 92.5247L140.832 95.2649L147.21 94.12L145.098 82.356C143.835 75.3166 137.499 70.992 130.176 72.3065C122.995 73.5957 118.524 80.2016 119.728 86.9104C120.949 93.7136 126.722 98.4319 133.525 97.2106ZM133.484 90.732C130.035 91.3511 127.039 89.0604 126.445 85.7533C125.852 82.4462 127.864 79.2565 131.313 78.6374C134.761 78.0182 137.805 80.3005 138.398 83.6076C138.992 86.9147 136.933 90.1129 133.484 90.732Z" fill="#02559E"/>
<path d="M57.1426 135.141L51.706 128.612L55.3578 125.571C62.1817 119.889 63.7207 113.111 58.7448 107.135C53.9533 101.381 46.904 101.692 39.8587 107.558L31.1167 114.838L51.7879 139.662L57.1426 135.141ZM44.1528 112.415C47.6939 109.466 50.939 109.013 53.2119 111.742C55.6077 114.62 54.6047 117.766 51.0637 120.714L47.5595 123.632L40.6486 115.333L44.1528 112.415Z" fill="#02559E"/>
<path d="M281.52 121.416L287.066 113.757L288.854 115.052C288.767 115.582 288.719 116.14 288.738 116.687L289.334 127.075L295.905 131.833L294.945 116.381L309.879 112.616L303.308 107.859L293.337 110.417C292.812 110.57 292.325 110.75 291.877 110.96L290.05 109.636L301.874 93.3079L296.353 89.3103L275.999 117.419L281.52 121.416Z" fill="#02559E"/>
<path d="M277.095 272.76C277.095 285.84 276.304 296.386 273.013 305.219C269.759 313.951 264.007 321.141 253.781 327.385C243.746 333.512 228.485 340 171.047 340C113.633 340 97.6756 332.98 88.2967 327.375C78.8915 321.754 73.1193 314.575 69.6595 305.648C66.1717 296.649 64.999 285.784 64.999 272.76C64.999 259.816 66.9374 249.124 71.412 240.878C75.8472 232.706 82.8547 226.784 93.3538 223.468C103.656 220.213 114.761 222.854 127.718 226.628C128.963 226.99 130.224 227.363 131.499 227.739C143.326 231.233 156.472 235.117 171.032 235.228C186.908 235.349 201.343 231.689 214.281 228.408L214.412 228.375C227.52 225.051 238.872 222.207 249.083 223.544C258.99 224.84 265.919 230.595 270.446 239.298C275.013 248.079 277.095 259.823 277.095 272.76Z" fill="#0A66AC" stroke="#02559E" stroke-width="4"/>
<path d="M117.499 278.039C130.998 278.039 136.999 299.903 136.999 288.908C136.999 277.913 128.269 269 117.499 269C106.729 269 97.999 277.913 97.999 288.908C97.999 299.903 104.921 278.039 117.499 278.039Z" fill="white" stroke="#02559E" stroke-width="3"/>
<path d="M222.499 278.039C235.998 278.039 241.999 299.903 241.999 288.908C241.999 277.913 233.269 269 222.499 269C211.729 269 202.999 277.913 202.999 288.908C202.999 299.903 209.921 278.039 222.499 278.039Z" fill="white" stroke="#02559E" stroke-width="3"/>
<path d="M273.981 362.274C273.981 362.274 281.602 353.414 284.545 345.69C289.836 331.805 287.491 320.594 287.491 320.594" stroke="#02559E" stroke-width="3" stroke-linecap="round"/>
<path d="M283.053 370.142C283.053 370.142 293.685 358.863 296.959 348.313C302.843 329.35 296.872 312.756 296.872 312.756" stroke="#02559E" stroke-width="3" stroke-linecap="round"/>
</svg>
