<svg width="425" height="515" viewBox="0 0 425 515" fill="none" xmlns="http://www.w3.org/2000/svg">
<path d="M208.499 513C192.505 513 178.377 501.254 166.369 484.253C154.425 467.341 144.957 445.754 138.183 427.197C131.405 408.631 145.679 390 165.762 390H251.236C271.319 390 285.593 408.631 278.815 427.197C272.041 445.754 262.573 467.341 250.629 484.253C238.621 501.254 224.493 513 208.499 513Z" fill="white" stroke="#02559E" stroke-width="4"/>
<path d="M191.118 438.42V427.242L197.086 437.544C197.58 438.375 198.41 438.712 199.375 438.712C200.564 438.712 201.664 437.859 201.664 436.355V423.314H198.567V434.425L192.599 424.19C192.105 423.359 191.32 423 190.333 423C189.098 423 187.999 423.875 187.999 425.379V438.42H191.118ZM209.839 438.712C211.365 438.712 212.577 438.106 213.362 437.118V438.42H216.391V432.831C216.391 429.487 213.833 426.973 210.355 426.973C206.945 426.973 204.342 429.644 204.342 432.831C204.342 436.063 206.608 438.712 209.839 438.712ZM210.355 435.726C208.717 435.726 207.528 434.425 207.528 432.853C207.528 431.282 208.717 429.98 210.355 429.98C211.993 429.98 213.205 431.282 213.205 432.853C213.205 434.425 211.993 435.726 210.355 435.726ZM224.533 435.637C222.895 435.637 222.087 434.178 222.087 432.472V427.309H218.901V432.831C218.901 436.085 220.831 438.712 224.533 438.712C228.258 438.712 230.187 436.085 230.187 432.831V427.309H227.001V432.449C227.001 434.178 226.171 435.637 224.533 435.637Z" fill="#02559E"/>
<path d="M270.754 424.885C272.267 422.211 275.397 422.388 276.999 422.308C276.999 422.308 274.187 418.887 271.852 418.887C263.998 418.887 266.705 413.53 261.046 414.264C255.387 414.999 256.026 414.197 253.949 412.362C251.606 410.29 248.82 410.819 247.3 412.369C246.16 413.531 245.709 415.324 246.508 416.648C247.018 417.494 248.02 419.466 250.972 418.719C253.482 417.461 251.094 414.192 250.142 416.648C250.142 416.648 249.418 416.373 249.752 415.589C250.04 414.914 250.874 414.698 251.484 414.866C252.094 415.035 252.821 415.589 252.821 417.01C252.839 417.072 255.167 416.648 257.094 419.081C257.882 420.075 261.017 419.091 263.241 419.586C265.729 420.14 268.096 422.982 268.096 422.982C268.096 422.982 265.772 422.565 264.071 423.536C263.297 423.978 261.402 426.692 259.29 428.256C258.068 429.161 255.916 429.714 254.045 428.858C251.362 427.63 251.409 426.518 249.337 425.511C247.703 424.716 244.8 425.222 244.8 425.222C244.8 425.222 245.181 422.284 248.41 422.284C250.825 422.284 250.904 422.567 253.094 420.911C253.922 420.285 255.9 420.316 256.436 421.922C257.094 423.897 253.948 424.21 253.948 424.21C253.948 424.21 256.09 423.387 255.655 422.284C255.22 421.18 253.972 421.19 253.094 421.609C252.63 421.831 251.484 423.346 249.142 422.982C246.508 422.573 245.703 424.547 245.703 424.547C245.703 424.547 248.245 424.315 248.971 424.547C251.502 425.359 251.874 427.42 254.655 428.256C256.452 428.796 257.811 428.352 258.777 427.799C260.875 426.402 262.022 424.475 263.876 422.982C265.385 422.148 266.925 422.549 266.925 422.549C266.925 422.549 265.144 420.438 262.949 420.14C259.918 419.73 257.361 420.502 256.777 419.779C255.014 417.596 252.84 417.758 252.821 417.853C252.725 418.346 252.253 419.024 251.484 419.418C248.191 421.104 246.519 417.692 244.8 417.636C243.26 417.585 242.398 418.508 241.849 419.153C240.044 421.272 240.8 422.308 235.946 422.308C231.091 422.308 232.018 426.281 232.165 426.281C232.311 426.281 235.848 422.838 237.36 426.281C238.57 429.036 242.06 428.922 243.654 428.521C246.757 427.904 248.533 429.099 250.24 431.579C252.411 434.734 257.98 434.879 261.046 431.579C263.754 428.665 263.851 428.376 266.925 427.943C269.384 427.596 270.502 425.76 270.754 424.885Z" fill="#FCDB00" fill-opacity="0.85"/>
<path d="M154.244 406.885C152.731 404.211 149.601 404.388 147.999 404.308C147.999 404.308 150.811 400.887 153.146 400.887C161 400.887 158.293 395.53 163.952 396.264C169.611 396.999 168.972 396.197 171.049 394.362C173.392 392.29 176.178 392.819 177.698 394.369C178.839 395.531 179.289 397.324 178.49 398.648C177.98 399.494 176.978 401.466 174.026 400.719C171.516 399.461 173.904 396.192 174.856 398.648C174.856 398.648 175.58 398.373 175.246 397.589C174.958 396.914 174.124 396.698 173.514 396.866C172.904 397.035 172.177 397.589 172.177 399.01C172.16 399.072 169.831 398.648 167.904 401.081C167.116 402.075 163.981 401.091 161.757 401.586C159.269 402.14 156.902 404.982 156.902 404.982C156.902 404.982 159.226 404.565 160.927 405.536C161.701 405.978 163.596 408.692 165.708 410.256C166.93 411.161 169.082 411.714 170.953 410.858C173.636 409.63 173.589 408.518 175.661 407.511C177.295 406.716 180.198 407.222 180.198 407.222C180.198 407.222 179.817 404.284 176.588 404.284C174.173 404.284 174.094 404.567 171.904 402.911C171.076 402.285 169.098 402.316 168.562 403.922C167.904 405.897 171.05 406.21 171.05 406.21C171.05 406.21 168.908 405.387 169.343 404.284C169.778 403.18 171.026 403.19 171.904 403.609C172.368 403.831 173.514 405.346 175.856 404.982C178.49 404.573 179.295 406.547 179.295 406.547C179.295 406.547 176.753 406.315 176.027 406.547C173.496 407.359 173.124 409.42 170.343 410.256C168.546 410.796 167.187 410.352 166.221 409.799C164.123 408.402 162.976 406.475 161.122 404.982C159.613 404.148 158.073 404.549 158.073 404.549C158.073 404.549 159.854 402.438 162.049 402.14C165.08 401.73 167.637 402.502 168.221 401.779C169.984 399.596 172.158 399.758 172.177 399.853C172.273 400.346 172.745 401.024 173.514 401.418C176.807 403.104 178.48 399.692 180.198 399.636C181.738 399.585 182.6 400.508 183.149 401.153C184.954 403.272 184.198 404.308 189.052 404.308C193.907 404.308 192.98 408.281 192.833 408.281C192.687 408.281 189.15 404.838 187.638 408.281C186.428 411.036 182.938 410.922 181.344 410.521C178.241 409.904 176.465 411.099 174.758 413.579C172.587 416.734 167.018 416.879 163.952 413.579C161.244 410.665 161.147 410.376 158.073 409.943C155.615 409.596 154.496 407.76 154.244 406.885Z" fill="#FCDB00" fill-opacity="0.85"/>
<path d="M226.243 409.439C225.035 407.848 223.054 408.243 222.024 408.334C222.024 408.334 223.509 405.873 224.999 405.664C230.011 404.96 227.798 401.743 231.476 401.711C235.154 401.678 234.674 401.217 235.832 399.846C237.14 398.298 238.966 398.39 240.077 399.255C240.91 399.904 241.36 401.021 240.97 401.948C240.722 402.54 240.26 403.903 238.309 403.685C236.593 403.097 237.821 400.772 238.651 402.274C238.651 402.274 239.088 402.031 238.804 401.554C238.559 401.145 238.007 401.079 237.633 401.243C237.259 401.406 236.845 401.829 236.974 402.747C236.968 402.789 235.444 402.724 234.434 404.467C234.022 405.18 231.932 404.825 230.557 405.344C229.02 405.925 227.767 407.972 227.767 407.972C227.767 407.972 229.212 407.495 230.386 407.969C230.92 408.185 232.375 409.769 233.865 410.59C234.727 411.065 236.15 411.229 237.267 410.509C238.868 409.475 238.737 408.761 239.968 407.925C240.939 407.266 242.837 407.332 242.837 407.332C242.837 407.332 242.328 405.469 240.267 405.758C238.726 405.974 238.701 406.165 237.153 405.291C236.568 404.961 235.309 405.158 235.112 406.244C234.871 407.578 236.908 407.498 236.908 407.498C236.908 407.498 235.466 407.159 235.643 406.407C235.821 405.655 236.618 405.55 237.217 405.742C237.533 405.843 238.402 406.719 239.863 406.275C241.507 405.774 242.2 406.977 242.2 406.977C242.2 406.977 240.556 407.055 240.114 407.27C238.573 408.021 238.522 409.386 236.823 410.175C235.725 410.685 234.818 410.519 234.151 410.248C232.685 409.534 231.779 408.393 230.46 407.594C229.422 407.191 228.475 407.587 228.475 407.587C228.475 407.587 229.42 406.065 230.794 405.676C232.691 405.14 234.393 405.409 234.7 404.89C235.627 403.322 237.03 403.232 237.05 403.291C237.157 403.601 237.519 403.997 238.046 404.182C240.3 404.976 241.058 402.623 242.149 402.433C243.128 402.262 243.761 402.781 244.171 403.148C245.515 404.355 245.126 405.092 248.224 404.657C251.322 404.222 251.09 406.872 250.997 406.885C250.904 406.898 248.334 404.99 247.681 407.35C247.159 409.238 244.921 409.477 243.868 409.36C241.832 409.24 240.806 410.171 239.942 411.925C238.842 414.157 235.301 414.75 233.046 412.893C231.053 411.254 230.965 411.076 228.964 411.071C227.364 411.068 226.483 409.982 226.243 409.439Z" fill="#FCDB00" fill-opacity="0.85"/>
<path d="M205.453 467.964C206.419 466.216 208.437 466.322 209.469 466.265C209.469 466.265 207.647 464.042 206.142 464.049C201.08 464.072 202.809 460.571 199.165 461.066C195.52 461.562 195.929 461.037 194.586 459.847C193.069 458.503 191.275 458.855 190.3 459.87C189.569 460.632 189.284 461.803 189.803 462.664C190.134 463.214 190.786 464.497 192.686 464.002C194.3 463.173 192.751 461.049 192.145 462.653C192.145 462.653 191.677 462.476 191.89 461.963C192.074 461.523 192.611 461.379 193.004 461.487C193.398 461.595 193.868 461.954 193.872 462.881C193.884 462.922 195.383 462.639 196.632 464.219C197.143 464.865 199.16 464.215 200.595 464.531C202.2 464.885 203.733 466.731 203.733 466.731C203.733 466.731 202.235 466.466 201.141 467.104C200.644 467.394 199.431 469.17 198.074 470.197C197.29 470.79 195.904 471.158 194.696 470.605C192.964 469.812 192.991 469.086 191.653 468.435C190.597 467.922 188.728 468.26 188.728 468.26C188.728 468.26 188.965 466.343 191.046 466.334C192.602 466.326 192.653 466.511 194.06 465.425C194.591 465.014 195.866 465.028 196.216 466.074C196.647 467.36 194.62 467.574 194.62 467.574C194.62 467.574 195.998 467.031 195.714 466.312C195.431 465.594 194.626 465.604 194.062 465.88C193.764 466.026 193.029 467.017 191.519 466.787C189.82 466.528 189.307 467.818 189.307 467.818C189.307 467.818 190.945 467.658 191.414 467.808C193.047 468.33 193.293 469.673 195.088 470.21C196.247 470.557 197.122 470.263 197.743 469.9C199.091 468.983 199.824 467.723 201.014 466.744C201.984 466.195 202.978 466.452 202.978 466.452C202.978 466.452 201.824 465.08 200.408 464.893C198.454 464.634 196.808 465.145 196.43 464.676C195.287 463.257 193.887 463.369 193.875 463.431C193.814 463.753 193.512 464.197 193.018 464.456C190.901 465.565 189.813 463.345 188.705 463.313C187.713 463.284 187.16 463.889 186.808 464.311C185.651 465.698 186.141 466.372 183.013 466.386C179.885 466.4 180.494 468.989 180.588 468.988C180.682 468.988 182.952 466.732 183.936 468.973C184.724 470.766 186.973 470.682 187.999 470.415C189.996 470.004 191.145 470.778 192.252 472.391C193.661 474.442 197.25 474.519 199.216 472.359C200.952 470.45 201.014 470.262 202.994 469.97C204.577 469.737 205.293 468.535 205.453 467.964Z" fill="#FCDB00" fill-opacity="0.85"/>
<path d="M209.042 439.477C205.015 447.414 195.088 450.248 187.478 445.634L127.229 409.101C126.633 408.74 126.076 408.312 125.572 407.828C118.679 401.214 124.699 389.727 133.981 391.618C134.54 391.732 135.089 391.896 135.619 392.109L201.097 418.367C209.428 421.708 213.103 431.473 209.042 439.477Z" fill="#FCDB00" stroke="#02559E" stroke-width="4"/>
<path d="M212.293 441.237C216.301 449.184 226.224 452.042 233.846 447.445L294.177 411.053C294.775 410.692 295.333 410.265 295.838 409.783C302.747 403.184 296.753 391.682 287.466 393.551C286.906 393.664 286.357 393.827 285.826 394.038L220.288 420.142C211.948 423.464 208.25 433.222 212.293 441.237Z" fill="#FCDB00" stroke="#02559E" stroke-width="4"/>
<path d="M363.89 300.356C363.15 321.565 353.226 337.159 338.611 348.71C323.936 360.31 304.545 367.809 285.07 372.629C265.62 377.442 246.238 379.546 231.7 380.444C224.436 380.893 218.393 381.04 214.17 381.075C212.059 381.092 210.403 381.082 209.278 381.067C208.715 381.06 208.286 381.051 207.998 381.045C207.854 381.041 207.746 381.038 207.674 381.036L207.594 381.034L207.582 381.034L207.578 381.034L207.575 381.034L207.571 381.033L207.56 381.033L207.484 381.03C207.416 381.027 207.313 381.022 207.175 381.016L207.076 381.011C206.806 380.998 206.43 380.978 205.955 380.951C204.882 380.889 203.303 380.787 201.292 380.625C197.269 380.303 191.518 379.744 184.624 378.801C170.825 376.914 152.492 373.495 134.281 367.37C116.049 361.238 98.0809 352.441 84.887 339.879C71.7487 327.371 63.3313 311.129 64.0731 289.887C65.5878 246.512 80.8743 206.526 107.542 177.825C134.182 149.155 172.263 131.649 219.633 133.304C267.002 134.958 303.769 155.077 328.344 185.536C352.945 216.027 365.405 256.982 363.89 300.356Z" fill="white" stroke="#02559E" stroke-width="4"/>
<path d="M321.066 268.686C320.15 294.919 316.175 317.08 295.644 328.653C285.401 334.427 269.923 340.378 212.52 338.373C155.141 336.369 139.438 328.797 130.26 322.868C112.111 311.142 108.184 287.48 109.099 261.284C109.551 248.348 111.861 237.73 116.621 229.646C121.338 221.633 128.548 215.959 139.157 213.011C149.566 210.119 160.572 213.146 173.39 217.369C174.621 217.774 175.868 218.191 177.13 218.612C188.827 222.516 201.83 226.857 216.377 227.475C232.239 228.15 246.793 224.996 259.837 222.169L259.97 222.14C273.186 219.276 284.63 216.83 294.789 218.522C304.644 220.164 311.368 226.156 315.588 235.012C319.846 243.947 321.518 255.757 321.066 268.686Z" fill="#0A66AC" stroke="#02559E" stroke-width="4"/>
<path d="M160.5 278.039C173.998 278.039 180 299.903 180 288.908C180 277.913 171.27 269 160.5 269C149.73 269 141 277.913 141 288.908C141 299.903 147.922 278.039 160.5 278.039Z" fill="white" stroke="#02559E" stroke-width="3"/>
<path d="M268.5 278.039C281.998 278.039 288 299.903 288 288.908C288 277.913 279.27 269 268.5 269C257.73 269 249 277.913 249 288.908C249 299.903 255.922 278.039 268.5 278.039Z" fill="white" stroke="#02559E" stroke-width="3"/>
<path d="M389.103 202.807C389.386 202.812 389.675 202.815 389.97 202.815C393.298 202.816 397.453 202.478 400.345 201.009C404.052 199.126 406.677 194.892 408.356 191.287C408.63 190.7 408.88 190.125 409.108 189.573C409.097 190.006 409.09 190.453 409.087 190.912C409.06 194.605 409.286 199.138 410.37 202.138C411.461 205.158 413.975 208.167 416.145 210.378C417.025 211.275 417.862 212.054 418.549 212.665C417.824 212.659 416.963 212.679 416.026 212.758C413.342 212.982 409.925 213.686 407.293 215.683C405.986 216.675 404.559 218.225 403.169 219.951C401.771 221.686 400.381 223.638 399.151 225.464C398.36 226.639 397.634 227.764 397.012 228.75C397.229 227.455 397.455 225.933 397.642 224.307C397.911 221.959 398.099 219.382 398.051 216.951C398.003 214.532 397.72 212.199 397.011 210.372C395.624 206.795 392.346 204.454 389.539 203.024C389.393 202.949 389.247 202.877 389.103 202.807Z" fill="#FCDB00" stroke="#02559E" stroke-width="1.5"/>
<path d="M22.3318 200.41C22.6001 200.321 22.8738 200.227 23.1517 200.129C26.2905 199.023 30.0965 197.32 32.3347 194.973C35.2034 191.963 36.27 187.098 36.6536 183.139C36.716 182.494 36.7607 181.869 36.7919 181.273C36.9262 181.684 37.0682 182.108 37.2176 182.542C38.4213 186.033 40.1429 190.234 42.1635 192.701C44.1978 195.186 47.5694 197.187 50.3521 198.55C51.4804 199.103 52.529 199.558 53.3801 199.906C52.6943 200.141 51.8897 200.447 51.032 200.833C48.5751 201.938 45.5873 203.74 43.7699 206.499C42.8678 207.868 42.0376 209.805 41.3013 211.895C40.561 213.997 39.8997 216.3 39.3478 218.432C38.993 219.802 38.6825 221.105 38.4244 222.242C38.1974 220.949 37.9044 219.438 37.5393 217.842C37.0122 215.539 36.3317 213.046 35.4769 210.769C34.6264 208.505 33.5832 206.399 32.3073 204.912C29.8085 202 25.9379 200.884 22.8156 200.469C22.6526 200.448 22.4913 200.428 22.3318 200.41Z" fill="#FCDB00" stroke="#02559E" stroke-width="1.5"/>
<path d="M416.273 306.277C415.995 306.328 415.71 306.382 415.421 306.439C412.157 307.089 408.148 308.234 405.6 310.241C402.333 312.813 400.587 317.478 399.646 321.343C399.493 321.971 399.36 322.584 399.244 323.17C399.17 322.744 399.089 322.304 399.003 321.853C398.307 318.226 397.198 313.824 395.548 311.095C393.887 308.347 390.833 305.888 388.272 304.144C387.234 303.437 386.26 302.837 385.467 302.372C386.179 302.236 387.019 302.048 387.923 301.788C390.512 301.043 393.725 299.683 395.915 297.209C397.003 295.982 398.099 294.182 399.124 292.218C400.155 290.242 401.137 288.056 401.985 286.024C402.531 284.718 403.023 283.472 403.44 282.383C403.481 283.696 403.557 285.233 403.692 286.864C403.887 289.219 404.207 291.783 404.73 294.158C405.251 296.521 405.985 298.753 407.037 300.406C409.097 303.643 412.771 305.297 415.802 306.15C415.961 306.195 416.118 306.237 416.273 306.277Z" fill="#FCDB00" stroke="#02559E" stroke-width="1.5"/>
<path d="M42.5148 300.611C42.2746 300.76 42.03 300.914 41.7823 301.074C38.9857 302.878 35.678 305.416 34.0452 308.219C31.9523 311.811 32.0429 316.792 32.5877 320.732C32.6764 321.373 32.7779 321.992 32.8857 322.579C32.6599 322.21 32.4233 321.83 32.1774 321.443C30.197 318.326 27.5485 314.639 25.0108 312.707C22.4558 310.762 18.7122 309.597 15.6893 308.917C14.4636 308.641 13.3379 308.44 12.4293 308.299C13.0419 307.911 13.7537 307.427 14.4986 306.853C16.6324 305.209 19.121 302.764 20.2492 299.658C20.8091 298.117 21.1677 296.041 21.3994 293.837C21.6322 291.621 21.7414 289.227 21.784 287.025C21.8114 285.61 21.8114 284.271 21.7988 283.105C22.3195 284.31 22.9547 285.712 23.6798 287.179C24.7267 289.297 25.9667 291.565 27.326 293.581C28.6784 295.587 30.1814 297.394 31.7673 298.544C34.8732 300.797 38.8972 300.986 42.0304 300.665C42.1939 300.648 42.3555 300.63 42.5148 300.611Z" fill="#FCDB00" stroke="#02559E" stroke-width="1.5"/>
<path d="M148.195 105.365C149.746 104.72 151.505 103.573 152.318 102.403L149.977 96.7745C149.189 97.8817 147.716 98.9626 146.43 99.4971C144.126 100.456 142.073 99.6457 141.059 97.2081L137.834 89.4522L145.59 86.2264L143.378 80.9081L135.622 84.1339L133.299 78.5496L127.006 81.1671L129.328 86.7514L125.295 88.4288L127.507 93.7471L131.54 92.0697L134.84 100.003C137.125 105.499 141.857 108.001 148.195 105.365Z" fill="#02559E"/>
<path d="M197.686 92.3437L197.519 78.9527C197.483 76.1209 199.094 74.3727 201.781 74.3392C203.029 74.3236 204.425 74.6422 205.586 75.2998L205.503 68.6763C204.296 68.1633 202.613 67.8963 201.077 67.9155C194.022 68.0035 190.624 72.7022 190.7 78.7978L190.87 92.4287L197.686 92.3437Z" fill="#02559E"/>
<path d="M272.323 97.9461C269.1 96.571 268.735 93.0232 270.166 89.6678L274.499 79.5134L268.23 76.8386L263.596 87.6994C260.865 94.1011 262.458 100.887 269.742 103.995C277.071 107.121 283.072 103.576 285.803 97.1741L290.437 86.3133L284.168 83.6385L279.854 93.7488C278.404 97.1483 275.546 99.3211 272.323 97.9461Z" fill="#02559E"/>
<path d="M295.401 111.565C297.839 112.908 300.5 112.456 302.836 109.907L312.781 99.22C312.781 99.22 312.762 99.1548 312.846 99.2011C312.973 99.2706 312.907 99.2895 312.907 99.2895L309.184 113.405C308.319 116.765 309.316 119.233 311.754 120.576C314.024 121.827 317.185 121.761 319.526 119.104L332.711 104.229L327.203 101.194L314.98 115.12C314.934 115.204 314.911 115.246 314.785 115.176C314.659 115.107 314.682 115.065 314.705 115.023L318.331 101.182C319.215 97.8878 318.344 95.4897 315.738 94.0534C313.174 92.6402 310.639 93.1618 308.196 95.7064L298.478 106.081C298.478 106.081 298.497 106.146 298.371 106.076C298.202 105.984 298.244 106.007 298.291 105.923L303.409 88.0815L297.818 85.0003L292.452 104.185C291.522 107.564 293.089 110.29 295.401 111.565Z" fill="#02559E"/>
<path d="M243.66 98.5878C250.436 99.6801 256.511 96.3808 257.435 90.6468C258.604 83.3964 252.624 80.6821 248.015 79.1126C244.655 77.9389 242.108 76.8477 242.52 74.2888C242.834 72.3458 244.833 71.404 247.439 71.8242C250.662 72.3436 252.518 74.1014 253.232 76.3071L259.479 74.3484C258.175 69.4706 254.015 66.3205 248.755 65.4726C242.168 64.4108 236.457 67.866 235.556 73.4578C234.395 80.6608 240.612 83.4133 245.268 84.9905C248.494 86.0938 250.937 86.9252 250.509 89.5789C250.142 91.8536 247.669 92.719 244.684 92.2378C241.366 91.703 239.33 90.1593 238.662 87.6692L232.415 89.628C233.719 94.5057 237.926 97.6635 243.66 98.5878Z" fill="#02559E"/>
<path d="M119.693 119.247C122.559 117.684 124.214 115.305 124.677 112.646L126.01 115.09L131.699 111.987L125.975 101.494C122.55 95.2158 115.172 93.1168 108.641 96.6797C102.236 100.174 100.083 107.855 103.347 113.838C106.657 119.906 113.626 122.557 119.693 119.247ZM117.605 113.114C114.529 114.792 110.963 113.566 109.354 110.616C107.745 107.667 108.645 104.004 111.721 102.326C114.797 100.648 118.406 101.851 120.015 104.801C121.624 107.75 120.682 111.436 117.605 113.114Z" fill="#02559E"/>
<path d="M169.077 92.4923C165.628 93.1114 163.376 90.3458 162.731 86.7552L160.781 75.8889L154.072 77.0932L156.158 88.7154C157.388 95.5659 162.443 100.364 170.239 98.9648C178.081 97.557 181.152 91.3 179.922 84.4495L177.836 72.8272L171.127 74.0315L173.069 84.8506C173.722 88.4885 172.526 91.8732 169.077 92.4923Z" fill="#02559E"/>
<path d="M79.5003 149.355L66.0554 127.508C65.9018 127.324 65.9511 127.158 66.0617 127.066C66.1355 127.004 66.24 126.98 66.4304 127.134L84.8322 139.856C86.7799 141.295 89.1032 140.859 90.7999 139.447C92.5705 137.972 93.278 135.822 92.228 133.51L83.1399 113.22C83.0539 113.041 83.0662 112.906 83.1769 112.814C83.3244 112.691 83.4535 112.771 83.607 112.956L102.222 130.435L107.681 125.889L86.9279 107.192C84.3476 104.843 81.4099 104.916 78.9385 106.974C76.6884 108.848 75.6611 111.515 77.0305 114.434L85.7443 133.225C85.8365 133.336 85.7996 133.367 85.7627 133.397C85.7627 133.397 85.7258 133.428 85.6337 133.317L68.5652 121.296C65.9786 119.39 63.2988 119.997 61.0856 121.84C58.5773 123.929 57.9064 126.799 59.6138 129.749L74.0411 153.901L79.5003 149.355Z" fill="#02559E"/>
<path d="M363.615 141.47C366.662 143.886 366.115 147.434 363.848 150.292L356.988 158.942L362.328 163.178L369.695 153.888C374.02 148.435 374.238 141.44 367.731 136.28C361.225 131.12 354.509 133.023 350.214 138.439L342.847 147.728L348.187 151.963L355.047 143.313C357.314 140.455 360.607 139.084 363.615 141.47Z" fill="#02559E"/>
<path d="M338.003 136.254C345.295 136.507 351.104 131.041 351.344 124.133C351.58 117.321 346.213 111.42 338.874 111.165C331.63 110.914 325.821 116.38 325.583 123.24C325.343 130.147 330.712 136.001 338.003 136.254ZM338.225 129.874C334.723 129.752 332.277 126.882 332.393 123.524C332.51 120.166 335.149 117.472 338.651 117.593C342.153 117.715 344.647 120.587 344.53 123.945C344.414 127.303 341.727 129.995 338.225 129.874Z" fill="#02559E"/>
</svg>
