<svg width="145" height="145" viewBox="0 0 145 145" fill="none" xmlns="http://www.w3.org/2000/svg">
<path d="M125.561 19.4392C124.949 18.8305 124.177 18.4091 123.334 18.2245C122.491 18.0398 121.613 18.0997 120.803 18.397L21.1157 54.647C20.2559 54.9731 19.5158 55.553 18.9935 56.3097C18.4711 57.0665 18.1914 57.9642 18.1914 58.8837C18.1914 59.8032 18.4711 60.7009 18.9935 61.4576C19.5158 62.2144 20.2559 62.7943 21.1157 63.1204L60.0391 78.6626L88.7672 49.8439L95.1563 56.2329L66.2922 85.097L81.8797 124.02C82.2155 124.864 82.7967 125.586 83.5481 126.095C84.2994 126.604 85.1863 126.876 86.0938 126.875C87.0095 126.856 87.898 126.56 88.6422 126.027C89.3864 125.493 89.9513 124.746 90.2625 123.884L126.513 24.197C126.821 23.3953 126.896 22.5224 126.727 21.68C126.559 20.8376 126.154 20.0604 125.561 19.4392Z" fill="#85B6FF"/>
</svg>
