<svg width="109" height="109" viewBox="0 0 109 109" fill="none" xmlns="http://www.w3.org/2000/svg">
<path d="M54.4999 99.9168C48.5341 99.9228 42.6256 98.7521 37.1127 96.4718C31.5998 94.1915 26.5907 90.8464 22.3722 86.6279C18.1537 82.4094 14.8085 77.4003 12.5282 71.8874C10.248 66.3745 9.0773 60.466 9.08327 54.5001V53.5918C9.26498 44.6875 12.0594 36.0328 17.1192 28.7036C22.1791 21.3743 29.2812 15.6936 37.543 12.3674C45.8047 9.04118 54.8618 8.21621 63.5886 9.995C72.3153 11.7738 80.3269 16.0779 86.6277 22.3724C92.9847 28.7241 97.3145 36.819 99.0691 45.6325C100.824 54.4459 99.9243 63.5819 96.4846 71.8839C93.0449 80.186 87.2197 87.2811 79.746 92.2712C72.2724 97.2613 63.4864 99.9221 54.4999 99.9168V99.9168ZM54.4999 60.9039L66.2629 72.6668L72.6666 66.2631L60.9037 54.5001L72.6666 42.7372L66.2629 36.3335L54.4999 48.0964L42.737 36.3335L36.3333 42.7372L48.0962 54.5001L36.3333 66.2631L42.737 72.6668L54.4999 60.9084V60.9039Z" fill="#85B6FF"/>
</svg>
