<svg width="296" height="296" viewBox="0 0 296 296" fill="none" xmlns="http://www.w3.org/2000/svg">
<path d="M148 0.9375C66.9106 0.9375 0.9375 66.9106 0.9375 148C0.9375 229.089 66.9106 295.062 148 295.062C229.089 295.062 295.062 229.089 295.062 148C295.062 66.9106 229.089 0.9375 148 0.9375ZM201.247 185.253C202.341 186.293 203.217 187.542 203.821 188.926C204.426 190.309 204.747 191.8 204.766 193.31C204.786 194.82 204.503 196.318 203.934 197.717C203.365 199.116 202.522 200.386 201.454 201.454C200.386 202.522 199.116 203.365 197.717 203.934C196.318 204.503 194.82 204.786 193.31 204.766C191.8 204.747 190.309 204.426 188.926 203.821C187.542 203.217 186.293 202.341 185.253 201.247L148 164L110.747 201.247C108.608 203.278 105.76 204.395 102.81 204.357C99.8601 204.319 97.0417 203.13 94.9557 201.044C92.8696 198.958 91.681 196.14 91.6432 193.19C91.6055 190.24 92.7215 187.392 94.7535 185.253L132 148L94.7535 110.747C92.7215 108.608 91.6055 105.76 91.6432 102.81C91.681 99.8601 92.8696 97.0417 94.9557 94.9557C97.0417 92.8696 99.8601 91.681 102.81 91.6432C105.76 91.6055 108.608 92.7215 110.747 94.7535L148 132L185.253 94.7535C187.392 92.7215 190.24 91.6055 193.19 91.6432C196.14 91.681 198.958 92.8696 201.044 94.9557C203.13 97.0417 204.319 99.8601 204.357 102.81C204.395 105.76 203.278 108.608 201.247 110.747L164 148L201.247 185.253Z" fill="#5B518F"/>
</svg>
