<svg width="100" height="100" viewBox="0 0 100 100" fill="none" xmlns="http://www.w3.org/2000/svg">
<path d="M69.7277 37.8269C70.1644 37.4198 70.5165 36.9307 70.7642 36.3875C71.0118 35.8443 71.15 35.2576 71.1709 34.661C71.1918 34.0644 71.0949 33.4695 70.8859 32.9103C70.6769 32.3511 70.3598 31.8386 69.9527 31.4019C69.5456 30.9653 69.0565 30.6131 68.5133 30.3655C67.9701 30.1179 67.3834 29.9797 66.7868 29.9588C66.1902 29.9379 65.5953 30.0347 65.0361 30.2437C64.4769 30.4527 63.9644 30.7698 63.5277 31.1769L50.2277 43.5769L37.8277 30.2724C36.998 29.4226 35.8687 28.9313 34.6813 28.9036C33.494 28.8759 32.343 29.314 31.4746 30.1242C30.6062 30.9344 30.0893 32.0523 30.0347 33.2387C29.9801 34.4251 30.392 35.5858 31.1823 36.4724L43.5823 49.7724L30.2777 62.1724C29.8256 62.5753 29.4587 63.0646 29.1983 63.6114C28.938 64.1581 28.7895 64.7514 28.7616 65.3564C28.7338 65.9614 28.8271 66.5658 29.0361 67.1342C29.2451 67.7026 29.5656 68.2235 29.9787 68.6663C30.3918 69.1091 30.8893 69.4649 31.4418 69.7127C31.9944 69.9606 32.5909 70.0956 33.1963 70.1097C33.8018 70.1238 34.4039 70.0168 34.9674 69.795C35.5309 69.5731 36.0444 69.2409 36.4777 68.8178L49.7777 56.4224L62.1777 69.7224C62.5781 70.1828 63.0671 70.5579 63.6155 70.8253C64.1639 71.0927 64.7606 71.247 65.3699 71.2789C65.9792 71.3108 66.5887 71.2197 67.1621 71.0111C67.7355 70.8024 68.261 70.4805 68.7072 70.0644C69.1535 69.6483 69.5115 69.1466 69.7598 68.5893C70.0081 68.0319 70.1416 67.4303 70.1524 66.8202C70.1632 66.2102 70.0511 65.6042 69.8227 65.0384C69.5944 64.4726 69.2544 63.9585 68.8232 63.5269L56.4277 50.2269L69.7277 37.8269Z" fill="#02559E"/>
<path fill-rule="evenodd" clip-rule="evenodd" d="M0 50C0 22.3864 22.3864 0 50 0C77.6136 0 100 22.3864 100 50C100 77.6136 77.6136 100 50 100C22.3864 100 0 77.6136 0 50ZM50 90.9091C44.6277 90.9091 39.3081 89.851 34.3448 87.7951C29.3814 85.7392 24.8717 82.7259 21.0729 78.9271C17.2741 75.1283 14.2608 70.6186 12.2049 65.6552C10.1491 60.6919 9.09091 55.3723 9.09091 50C9.09091 44.6277 10.1491 39.3081 12.2049 34.3448C14.2608 29.3814 17.2741 24.8717 21.0729 21.0729C24.8717 17.2741 29.3814 14.2608 34.3448 12.2049C39.3081 10.1491 44.6277 9.09091 50 9.09091C60.8498 9.09091 71.2551 13.401 78.9271 21.0729C86.599 28.7448 90.9091 39.1502 90.9091 50C90.9091 60.8498 86.599 71.2551 78.9271 78.9271C71.2551 86.599 60.8498 90.9091 50 90.9091Z" fill="#02559E"/>
</svg>
