<svg width="27" height="27" viewBox="0 0 27 27" fill="none" xmlns="http://www.w3.org/2000/svg">
<path d="M0.564173 0.58877C0.925522 0.227219 1.41555 0.0241104 1.9265 0.0241104C2.43745 0.0241104 2.92747 0.227219 3.28882 0.58877L13.488 10.7967L23.6871 0.58877C23.8648 0.404572 24.0775 0.257649 24.3126 0.156574C24.5476 0.0554999 24.8005 0.00229803 25.0563 7.28165e-05C25.3122 -0.0021524 25.5659 0.0466438 25.8027 0.143614C26.0396 0.240584 26.2547 0.383787 26.4356 0.564865C26.6165 0.745944 26.7596 0.961273 26.8565 1.19829C26.9534 1.4353 27.0022 1.68926 26.9999 1.94533C26.9977 2.2014 26.9445 2.45447 26.8436 2.68976C26.7426 2.92506 26.5958 3.13787 26.4117 3.31577L16.2126 13.5237L26.4117 23.7316C26.7627 24.0954 26.957 24.5825 26.9526 25.0882C26.9482 25.5939 26.7455 26.0776 26.3883 26.4351C26.031 26.7927 25.5477 26.9955 25.0425 26.9999C24.5372 27.0043 24.0505 26.8099 23.6871 26.4586L13.488 16.2507L3.28882 26.4586C2.9254 26.8099 2.43866 27.0043 1.93343 26.9999C1.4282 26.9955 0.94491 26.7927 0.587645 26.4351C0.230381 26.0776 0.02773 25.5939 0.0233397 25.0882C0.0189494 24.5825 0.213171 24.0954 0.564173 23.7316L10.7633 13.5237L0.564173 3.31577C0.202933 2.95411 0 2.46366 0 1.95227C0 1.44088 0.202933 0.950431 0.564173 0.58877V0.58877Z" fill="white"/>
</svg>
