<svg width="100" height="100" viewBox="0 0 100 100" fill="none" xmlns="http://www.w3.org/2000/svg">
<circle cx="50" cy="50" r="50" fill="#02559E"/>
<path fill-rule="evenodd" clip-rule="evenodd" d="M50.4019 72.3685C51.3152 72.3685 52.3666 72.2204 53.1267 71.731C53.8867 71.2417 54.0012 71.3085 55.3129 69.6186L74.6433 41.74C75.1158 40.6454 75.119 39.4143 74.6521 38.3175C74.1852 37.2207 73.2864 36.348 72.1536 35.8915C71.0208 35.4349 69.7467 35.4318 68.6116 35.883C67.4765 36.3341 66.7817 37.1794 66.1008 38.297L50.4019 60.5724L33.899 38.2766C33.0933 37.1385 32.5234 36.3137 31.3882 35.8625C30.2531 35.4114 28.979 35.4144 27.8463 35.871C26.7135 36.3276 25.8148 37.2002 25.3479 38.2971C24.881 39.3939 24.8842 40.625 25.3567 41.7196L45.6935 69.6186C46.568 70.8861 47.1197 71.2417 47.8798 71.731C48.6398 72.2204 49.4886 72.3685 50.4019 72.3685Z" fill="white"/>
</svg>
