<svg width="305" height="305" viewBox="0 0 305 305" fill="none" xmlns="http://www.w3.org/2000/svg">
<path fill-rule="evenodd" clip-rule="evenodd" d="M152.5 0C68.2437 0 0 68.2437 0 152.5C0 219.981 43.6531 276.978 104.272 297.184C111.897 298.519 114.756 293.944 114.756 289.941C114.756 286.319 114.566 274.309 114.566 261.537C76.25 268.591 66.3375 252.197 63.2875 243.619C61.5719 239.234 54.1375 225.7 47.6562 222.078C42.3187 219.219 34.6937 212.166 47.4656 211.975C59.475 211.784 68.0531 223.031 70.9125 227.606C84.6375 250.672 106.559 244.191 115.328 240.187C116.662 230.275 120.666 223.603 125.05 219.791C91.1187 215.978 55.6625 202.825 55.6625 144.494C55.6625 127.909 61.5719 114.184 71.2937 103.509C69.7687 99.6969 64.4312 84.0656 72.8187 63.0969C72.8187 63.0969 85.5906 59.0938 114.756 78.7281C126.956 75.2969 139.919 73.5812 152.881 73.5812C165.844 73.5812 178.806 75.2969 191.006 78.7281C220.172 58.9031 232.944 63.0969 232.944 63.0969C241.331 84.0656 235.994 99.6969 234.469 103.509C244.191 114.184 250.1 127.719 250.1 144.494C250.1 203.016 214.453 215.978 180.522 219.791C186.05 224.556 190.816 233.706 190.816 248.003C190.816 268.4 190.625 284.794 190.625 289.941C190.625 293.944 193.484 298.709 201.109 297.184C231.383 286.963 257.689 267.506 276.326 241.552C294.962 215.598 304.991 184.452 305 152.5C305 68.2437 236.756 0 152.5 0Z" fill="#424242"/>
</svg>
