<svg width="248" height="248" viewBox="0 0 248 248" fill="none" xmlns="http://www.w3.org/2000/svg">
<path d="M196.333 41.334H51.6665C43.4448 41.334 35.5598 44.6 29.7462 50.4137C23.9326 56.2273 20.6665 64.1123 20.6665 72.334V175.667C20.6665 183.889 23.9326 191.774 29.7462 197.588C35.5598 203.401 43.4448 206.667 51.6665 206.667H196.333C204.555 206.667 212.44 203.401 218.253 197.588C224.067 191.774 227.333 183.889 227.333 175.667V72.334C227.333 64.1123 224.067 56.2273 218.253 50.4137C212.44 44.6 204.555 41.334 196.333 41.334V41.334ZM196.333 62.0006L129.167 108.191C127.596 109.098 125.814 109.575 124 109.575C122.186 109.575 120.404 109.098 118.833 108.191L51.6665 62.0006H196.333Z" fill="#2D85EE"/>
</svg>
