<svg width="139" height="139" viewBox="0 0 139 139" fill="none" xmlns="http://www.w3.org/2000/svg">
<path d="M17.375 32.5781C17.375 30.8501 18.0615 29.1928 19.2834 27.9709C20.5053 26.749 22.1626 26.0625 23.8906 26.0625H89.0469C90.7749 26.0625 92.4322 26.749 93.6541 27.9709C94.876 29.1928 95.5625 30.8501 95.5625 32.5781C95.5625 34.3062 94.876 35.9635 93.6541 37.1854C92.4322 38.4073 90.7749 39.0937 89.0469 39.0938H23.8906C22.1626 39.0937 20.5053 38.4073 19.2834 37.1854C18.0615 35.9635 17.375 34.3062 17.375 32.5781V32.5781ZM17.375 102.078C17.375 100.35 18.0615 98.6928 19.2834 97.4709C20.5053 96.249 22.1626 95.5625 23.8906 95.5625H80.3594C82.0874 95.5625 83.7447 96.249 84.9666 97.4709C86.1885 98.6928 86.875 100.35 86.875 102.078C86.875 103.806 86.1885 105.463 84.9666 106.685C83.7447 107.907 82.0874 108.594 80.3594 108.594H23.8906C22.1626 108.594 20.5053 107.907 19.2834 106.685C18.0615 105.463 17.375 103.806 17.375 102.078V102.078ZM23.8906 60.8125C22.1626 60.8125 20.5053 61.499 19.2834 62.7209C18.0615 63.9428 17.375 65.6001 17.375 67.3281C17.375 69.0562 18.0615 70.7134 19.2834 71.9354C20.5053 73.1573 22.1626 73.8438 23.8906 73.8438H115.109C116.837 73.8437 118.495 73.1573 119.717 71.9354C120.939 70.7134 121.625 69.0562 121.625 67.3281C121.625 65.6001 120.939 63.9428 119.717 62.7209C118.495 61.499 116.837 60.8125 115.109 60.8125H23.8906Z" fill="#41407C"/>
</svg>
