<svg width="100" height="100" viewBox="0 0 100 100" fill="none" xmlns="http://www.w3.org/2000/svg">
<path d="M55.01 11.94C53.6334 10.7031 51.8481 10.0189 49.9975 10.0189C48.1469 10.0189 46.3616 10.7031 44.985 11.94L17.485 36.65C16.7031 37.3531 16.0778 38.2128 15.6497 39.1732C15.2216 40.1337 15.0002 41.1734 15 42.225V77.5C15 79.4891 15.7902 81.3967 17.1967 82.8033C18.6032 84.2098 20.5109 85 22.5 85H32.5C34.4891 85 36.3968 84.2098 37.8033 82.8033C39.2098 81.3967 40 79.4891 40 77.5V57.5C40 56.8369 40.2634 56.201 40.7322 55.7322C41.2011 55.2634 41.837 55 42.5 55H57.5C58.163 55 58.7989 55.2634 59.2678 55.7322C59.7366 56.201 60 56.8369 60 57.5V77.5C60 79.4891 60.7902 81.3967 62.1967 82.8033C63.6032 84.2098 65.5109 85 67.5 85H77.5C79.4891 85 81.3968 84.2098 82.8033 82.8033C84.2098 81.3967 85 79.4891 85 77.5V42.225C84.9998 41.1734 84.7784 40.1337 84.3503 39.1732C83.9222 38.2128 83.2969 37.3531 82.515 36.65L55.015 11.94H55.01Z" fill="#41407C"/>
</svg>
