<svg width="100" height="100" viewBox="0 0 100 100" fill="none" xmlns="http://www.w3.org/2000/svg">
<path d="M55.01 11.9396C53.6334 10.7028 51.8481 10.0186 49.9975 10.0186C48.1469 10.0186 46.3616 10.7028 44.985 11.9396L17.485 36.6496C16.7031 37.3527 16.0778 38.2124 15.6497 39.1729C15.2216 40.1333 15.0002 41.173 15 42.2246V77.4996C15 79.4887 15.7902 81.3964 17.1967 82.8029C18.6032 84.2094 20.5109 84.9996 22.5 84.9996H32.5C34.4891 84.9996 36.3968 84.2094 37.8033 82.8029C39.2098 81.3964 40 79.4887 40 77.4996V57.4996C40 56.8365 40.2634 56.2007 40.7322 55.7318C41.2011 55.263 41.837 54.9996 42.5 54.9996H57.5C58.163 54.9996 58.7989 55.263 59.2678 55.7318C59.7366 56.2007 60 56.8365 60 57.4996V77.4996C60 79.4887 60.7902 81.3964 62.1967 82.8029C63.6032 84.2094 65.5109 84.9996 67.5 84.9996H77.5C79.4891 84.9996 81.3968 84.2094 82.8033 82.8029C84.2098 81.3964 85 79.4887 85 77.4996V42.2246C84.9998 41.173 84.7784 40.1333 84.3503 39.1729C83.9222 38.2124 83.2969 37.3527 82.515 36.6496L55.015 11.9396H55.01Z" fill="#02559E"/>
</svg>
