<svg width="100" height="100" viewBox="0 0 100 100" fill="none" xmlns="http://www.w3.org/2000/svg">
<path d="M50 93.75C38.3968 93.75 27.2688 89.1406 19.0641 80.9359C10.8594 72.7312 6.25 61.6032 6.25 50C6.25 38.3968 10.8594 27.2688 19.0641 19.0641C27.2688 10.8594 38.3968 6.25 50 6.25C61.6032 6.25 72.7312 10.8594 80.9359 19.0641C89.1406 27.2688 93.75 38.3968 93.75 50C93.75 61.6032 89.1406 72.7312 80.9359 80.9359C72.7312 89.1406 61.6032 93.75 50 93.75ZM50 100C63.2608 100 75.9785 94.7322 85.3553 85.3553C94.7322 75.9785 100 63.2608 100 50C100 36.7392 94.7322 24.0215 85.3553 14.6447C75.9785 5.26784 63.2608 0 50 0C36.7392 0 24.0215 5.26784 14.6447 14.6447C5.26784 24.0215 0 36.7392 0 50C0 63.2608 5.26784 75.9785 14.6447 85.3553C24.0215 94.7322 36.7392 100 50 100Z" fill="#02559E"/>
<path d="M55.8122 41.175L41.4997 42.9687L40.9872 45.3437L43.7997 45.8625C45.6372 46.3 45.9997 46.9625 45.5997 48.7937L40.9872 70.4687C39.7747 76.075 41.6435 78.7125 46.0372 78.7125C49.4435 78.7125 53.3997 77.1375 55.1935 74.975L55.7435 72.375C54.4935 73.475 52.6685 73.9125 51.456 73.9125C49.7372 73.9125 49.1122 72.7062 49.556 70.5812L55.8122 41.175ZM56.2497 28.125C56.2497 29.7826 55.5912 31.3723 54.4191 32.5444C53.247 33.7165 51.6573 34.375 49.9997 34.375C48.3421 34.375 46.7524 33.7165 45.5803 32.5444C44.4082 31.3723 43.7497 29.7826 43.7497 28.125C43.7497 26.4674 44.4082 24.8777 45.5803 23.7056C46.7524 22.5335 48.3421 21.875 49.9997 21.875C51.6573 21.875 53.247 22.5335 54.4191 23.7056C55.5912 24.8777 56.2497 26.4674 56.2497 28.125Z" fill="#02559E"/>
</svg>
