<svg width="248" height="248" viewBox="0 0 248 248" fill="none" xmlns="http://www.w3.org/2000/svg">
<path fill-rule="evenodd" clip-rule="evenodd" d="M77.1385 11.015C89.2595 10.457 93.1242 10.333 124 10.333C154.876 10.333 158.741 10.4673 170.851 11.015C182.962 11.5627 191.229 13.495 198.462 16.2953C206.036 19.1577 212.908 23.632 218.591 29.4187C224.378 35.0917 228.842 41.953 231.694 49.5377C234.505 56.771 236.427 65.0377 236.985 77.1277C237.543 89.2693 237.667 93.134 237.667 124C237.667 154.876 237.532 158.74 236.985 170.861C236.437 182.951 234.505 191.218 231.694 198.451C228.842 206.037 224.371 212.91 218.591 218.591C212.908 224.378 206.036 228.842 198.462 231.694C191.229 234.504 182.962 236.426 170.872 236.984C158.741 237.542 154.876 237.666 124 237.666C93.1242 237.666 89.2595 237.532 77.1385 236.984C65.0485 236.437 56.7818 234.504 49.5485 231.694C41.963 228.841 35.0903 224.37 29.4088 218.591C23.6261 212.915 19.1511 206.045 16.2958 198.462C13.4955 191.228 11.5735 182.962 11.0155 170.872C10.4575 158.73 10.3335 154.865 10.3335 124C10.3335 93.1237 10.4678 89.259 11.0155 77.1483C11.5632 65.0377 13.4955 56.771 16.2958 49.5377C19.1553 41.9538 23.6337 35.0846 29.4192 29.4083C35.0926 23.6269 41.9584 19.1519 49.5382 16.2953C56.7715 13.495 65.0382 11.573 77.1282 11.015H77.1385ZM169.932 31.475C157.945 30.9273 154.349 30.8137 124 30.8137C93.6512 30.8137 90.0552 30.9273 78.0685 31.475C66.9808 31.9813 60.9668 33.831 56.9575 35.3913C51.6565 37.458 47.8642 39.907 43.8858 43.8853C40.1146 47.5542 37.2124 52.0206 35.3918 56.957C33.8315 60.9663 31.9818 66.9803 31.4755 78.068C30.9278 90.0547 30.8142 93.6507 30.8142 124C30.8142 154.349 30.9278 157.945 31.4755 169.931C31.9818 181.019 33.8315 187.033 35.3918 191.042C37.2105 195.971 40.1142 200.446 43.8858 204.114C47.5542 207.886 52.0285 210.789 56.9575 212.608C60.9668 214.168 66.9808 216.018 78.0685 216.524C90.0552 217.072 93.6408 217.186 124 217.186C154.359 217.186 157.945 217.072 169.932 216.524C181.019 216.018 187.033 214.168 191.043 212.608C196.344 210.541 200.136 208.092 204.114 204.114C207.886 200.446 210.79 195.971 212.608 191.042C214.169 187.033 216.018 181.019 216.525 169.931C217.072 157.945 217.186 154.349 217.186 124C217.186 93.6507 217.072 90.0547 216.525 78.068C216.018 66.9803 214.169 60.9663 212.608 56.957C210.542 51.656 208.093 47.8637 204.114 43.8853C200.445 40.1144 195.979 37.2122 191.043 35.3913C187.033 33.831 181.019 31.9813 169.932 31.475V31.475ZM109.482 159.04C117.59 162.415 126.618 162.871 135.025 160.329C143.432 157.787 150.695 152.405 155.575 145.103C160.454 137.801 162.647 129.031 161.779 120.291C160.911 111.552 157.036 103.384 150.815 97.1847C146.85 93.2216 142.055 90.1871 136.776 88.2995C131.497 86.412 125.865 85.7184 120.285 86.2687C114.706 86.819 109.318 88.5995 104.509 91.482C99.7009 94.3645 95.5912 98.2774 92.4763 102.939C89.3614 107.6 87.3188 112.894 86.4955 118.44C85.6722 123.986 86.0887 129.645 87.7151 135.01C89.3414 140.375 92.1371 145.313 95.9009 149.468C99.6647 153.624 104.303 156.893 109.482 159.04ZM82.6875 82.687C88.1127 77.2617 94.5535 72.9582 101.642 70.0221C108.73 67.0859 116.328 65.5747 124 65.5747C131.673 65.5747 139.27 67.0859 146.358 70.0221C153.447 72.9582 159.888 77.2617 165.313 82.687C170.738 88.1123 175.042 94.553 177.978 101.641C180.914 108.73 182.425 116.327 182.425 124C182.425 131.672 180.914 139.269 177.978 146.358C175.042 153.446 170.738 159.887 165.313 165.312C154.356 176.269 139.495 182.425 124 182.425C108.505 182.425 93.6443 176.269 82.6875 165.312C71.7307 154.356 65.5752 139.495 65.5752 124C65.5752 108.504 71.7307 93.6438 82.6875 82.687V82.687ZM195.383 74.2757C196.727 73.0075 197.804 71.4824 198.548 69.7907C199.292 68.0991 199.69 66.2753 199.717 64.4273C199.744 62.5793 199.4 60.7447 198.705 59.032C198.01 57.3194 196.979 55.7636 195.672 54.4567C194.365 53.1499 192.809 52.1185 191.096 51.4237C189.384 50.7289 187.549 50.3848 185.701 50.4117C183.853 50.4386 182.029 50.8361 180.338 51.5805C178.646 52.325 177.121 53.4013 175.853 54.7457C173.386 57.3603 172.036 60.8333 172.088 64.4273C172.141 68.0213 173.592 71.4534 176.133 73.995C178.675 76.5367 182.107 77.9877 185.701 78.0401C189.295 78.0925 192.768 76.7421 195.383 74.2757V74.2757Z" fill="#69D8FF"/>
</svg>
