<svg width="1920" height="1065" viewBox="0 0 1920 1065" fill="none" xmlns="http://www.w3.org/2000/svg">
<rect width="1920" height="5400" transform="translate(0 -42)" fill="#9BA9FF"/>
<path d="M591.347 2135.9L1429.52 2126.18L1921.67 2126.18L1922.04 556.2C1906.34 553.021 1879.17 539.614 1869.1 549.061C1849.99 566.991 1829.11 574.882 1808.21 566.288C1796.7 561.555 1797.92 556.75 1785.45 546.474C1779.82 541.831 1766.18 547.797 1758.53 541.195C1746.28 530.609 1744.65 520.769 1744.65 520.769C1744.65 520.769 1743.94 520.117 1748.98 520.718C1780 524.425 1777.7 494.206 1799.58 493.952C1814.52 493.779 1820.92 509.253 1832.98 516.693C1841.71 522.071 1852.64 524.598 1852.64 524.598C1852.64 524.598 1843.85 538.425 1825.62 535.333C1817.57 533.967 1815.73 542.31 1807.92 540.621C1800.1 538.933 1796.19 533.165 1797.34 526.765C1798.49 520.365 1804.15 520.078 1805.94 521.836C1807.72 523.595 1805.99 526.665 1805.99 526.665C1805.99 526.665 1804.81 522.669 1802.32 525.182C1799.84 527.696 1801.66 537.13 1809.74 535.517C1813.97 534.672 1818.28 529.997 1823.84 531.033C1839.25 533.904 1846.02 526.757 1844.24 526.221C1814.89 517.412 1817.61 498.572 1800.93 498.766C1787.12 498.926 1785.43 507.987 1772.37 520.447C1764.02 528.423 1755.44 524.226 1750.33 524.769C1750.39 529.852 1761.7 541.464 1773.89 539.237C1793.13 535.724 1793.37 550.016 1808.12 558.156C1821.2 565.375 1847.12 563.502 1865.16 545.548C1880.15 530.633 1894.86 551.512 1907.31 537.688C1916.19 527.84 1921.67 524.301 1921.67 524.301C1921.67 524.301 1902.45 529.091 1887.73 511.345C1877.62 499.159 1863.59 503.706 1849.64 495.723C1827.66 483.148 1823.15 471.74 1807.1 470.422C1787.77 468.835 1781.42 478.405 1770.25 487.176C1759.09 495.947 1764.73 496.708 1741.34 496.98C1717.95 497.251 1718.05 524.325 1682.93 522.696C1682.93 522.696 1682.41 477.776 1623.95 484.338C1565.48 490.899 1564.98 426.307 1516.59 433.77C1468.19 441.232 1473.58 433.636 1455.59 416.603C1435.3 397.378 1412.24 396.828 1397.65 412.298C1388.15 422.363 1385.34 445.249 1392.32 457.612C1396.78 465.506 1405.58 483.932 1430.78 476.624C1452.15 464.548 1431.33 434.08 1423.45 457.251C1423.45 457.251 1417.22 454.732 1419.99 447.335C1422.38 440.972 1429.51 438.853 1434.75 440.376C1439.99 441.899 1446.28 447.03 1446.44 460.378C1446.59 460.963 1467.34 457.873 1484.11 480.531C1490.97 489.79 1516.86 479.118 1535.97 483.549C1557.34 488.505 1577.92 514.965 1577.92 514.965C1577.92 514.965 1557.97 511.277 1543.5 520.569C1536.92 524.794 1520.99 550.482 1503.07 565.385C1492.7 574.007 1474.33 579.42 1458.21 571.563C1435.1 560.292 1435.38 549.842 1417.52 540.584C1403.44 533.281 1378.63 538.321 1378.63 538.321C1378.63 538.321 1381.57 510.682 1409.23 510.361C1429.92 510.121 1430.62 512.778 1449.2 497C1456.22 491.036 1473.17 491.132 1477.93 506.17C1483.79 524.656 1456.87 527.909 1456.87 527.909C1456.87 527.909 1475.13 519.965 1471.29 509.641C1467.44 499.317 1456.75 499.536 1449.27 503.561C1445.33 505.686 1435.67 520.035 1415.58 516.849C1392.97 513.265 1386.29 531.896 1386.29 531.896C1386.29 531.896 1408.04 529.456 1414.28 531.571C1436.05 538.94 1439.46 558.269 1463.37 565.846C1478.82 570.744 1490.41 566.43 1498.63 561.138C1516.45 547.808 1526.06 529.595 1541.77 515.385C1554.61 507.399 1567.84 511.009 1567.84 511.009C1567.84 511.009 1552.36 491.355 1533.52 488.781C1507.52 485.228 1490.57 496.52 1480.62 486.001C1463.28 467.656 1446.68 467.408 1446.53 468.296C1445.76 472.942 1441.79 479.36 1435.25 483.134C1407.22 499.298 1392.53 467.418 1377.8 467.057C1364.61 466.734 1357.33 475.487 1352.69 481.603C1337.46 501.691 1339.01 504.841 1310.15 511.511C1269.45 520.917 1262.8 530.877 1255.93 542.46C1243.1 564.104 1227.55 559.097 1221.17 549.66C1214.79 540.222 1211.61 515.204 1177.08 522.213C1153.14 527.075 1156.52 496.362 1132.47 483.891C1108.42 471.419 1103.38 507.904 1076.92 503.297C1058.21 500.041 1054.14 482.72 1054.14 482.72C1045.03 482.826 1034.45 485.518 1025.65 500.08C1015.6 516.717 992.701 505.077 974.045 506.27C955.39 507.464 936.978 529.575 936.978 529.575C967.154 520.584 983.793 561.506 1006.74 576.802C1039.21 598.45 1068.69 559.054 1068.69 559.054C1085.52 538.018 1115.66 545.801 1115.66 545.801C1102.63 522.061 1088.39 530.614 1078.6 530.727C1068.01 530.85 1061.51 528.892 1047.71 517.107C1042.62 512.759 1031.59 516.023 1030.95 524.926C1029.79 541.206 1045.62 533.397 1045.62 533.397C1045.62 533.397 1038.73 547.591 1028.34 535.377C1019.1 524.512 1028.92 506.396 1042.84 509.284C1059.79 512.802 1058.79 529.941 1085.36 524.295C1117.2 517.529 1121.49 549.599 1121.63 550.781C1121.25 550.787 1120.85 550.796 1120.87 550.803C1118.26 550.843 1111.54 550.932 1095.91 551.113C1076.53 551.338 1076.72 564.779 1047.12 583.958C1011.19 607.237 980.976 554.227 965.811 542.203C952.73 531.833 938.819 532.407 932.446 531.407C929.801 530.992 936.813 519.877 955.834 506.482C974.855 493.087 1013.43 511.49 1019.94 498.367C1028.82 480.473 1054.06 475.859 1054.06 475.859C1054.06 475.859 1055.3 464.915 1062.06 459.245C1071.98 450.929 1085.08 461.012 1074.96 471.804C1074.96 471.804 1077.86 466.433 1073.51 464.45C1066.41 461.215 1061.32 471.784 1060.89 475.78C1059.02 493.084 1079.8 496.401 1089.99 491.708C1100.18 487.015 1116.36 460.902 1105.3 437.902C1092.62 411.537 1056.11 417.124 1032.33 447.137C1018.38 464.732 997.068 449.833 971.835 453.176C944.226 456.834 941.425 500.789 919.953 494.699C896.82 488.137 881.289 502.343 868.461 511.054C844.854 527.086 825.773 515.944 817.152 514.199C801.452 511.02 788.857 502.648 778.785 512.095C759.67 530.025 738.793 537.916 717.896 529.322C706.386 524.589 707.604 519.784 695.137 509.508C689.406 505.452 675.857 510.831 668.214 504.229C655.96 493.643 654.329 483.803 654.329 483.803C654.329 483.803 653.625 483.151 658.661 483.752C689.682 487.459 687.381 457.24 709.258 456.986C724.203 456.813 730.598 472.287 742.666 479.727C751.388 485.105 762.322 487.633 762.322 487.633C762.322 487.633 753.532 501.459 735.3 498.367C727.249 497.001 725.416 505.344 717.598 503.656C709.78 501.967 705.875 496.199 707.024 489.799C708.172 483.4 713.835 483.112 715.618 484.87C717.4 486.629 715.674 489.699 715.674 489.699C715.674 489.699 714.489 485.703 712.003 488.217C709.518 490.73 711.338 500.165 719.419 498.551C723.653 497.706 727.96 493.032 733.517 494.067C748.931 496.938 755.704 489.791 753.918 489.255C724.571 480.446 727.291 461.606 710.613 461.8C696.799 461.96 695.107 471.021 682.054 483.481C673.698 491.457 665.119 487.26 660.008 487.803C660.067 492.886 671.378 504.498 683.572 502.271C702.811 498.758 703.051 513.05 717.802 521.19C730.883 528.409 756.801 526.537 774.845 508.583C789.836 493.667 804.544 514.546 816.996 500.723C825.867 490.874 831.354 487.335 831.354 487.335C831.354 487.335 812.127 492.125 797.41 474.379C786.25 460.922 773.276 466.74 759.319 458.757C737.337 446.183 732.334 434.712 716.783 433.456C694.233 431.636 691.098 441.439 679.935 450.21C668.772 458.981 674.413 459.742 651.02 460.014C627.628 460.285 627.737 488.341 592.625 486.712C525.386 483.593 533.655 428.682 485.263 436.144C436.87 443.606 442.255 436.01 424.271 418.977C403.972 399.752 380.916 399.202 366.323 414.672C356.828 424.737 354.015 447.623 360.998 459.986C365.457 467.88 374.259 486.307 399.459 478.998C420.826 466.922 400.009 436.454 392.129 459.625C392.129 459.625 385.893 457.106 388.67 449.709C391.06 443.346 398.184 441.227 403.426 442.75C408.667 444.273 414.959 449.404 415.114 462.752C415.268 463.337 436.018 460.247 452.789 482.905C459.643 492.164 485.544 481.493 504.649 485.923C526.021 490.879 546.597 517.339 546.597 517.339C546.597 517.339 526.652 513.651 512.184 522.943C505.604 527.168 489.668 552.856 471.745 567.76C461.377 576.381 443.006 581.795 426.89 573.937C403.773 562.666 404.055 552.216 386.201 542.959C372.116 535.655 347.308 540.695 347.308 540.695C347.308 540.695 350.251 513.057 377.909 512.736C398.594 512.495 399.3 515.152 417.875 499.375C424.897 493.41 441.845 493.507 446.609 508.544C452.466 527.03 425.547 530.284 425.547 530.284C425.547 530.284 443.806 522.339 439.962 512.015C436.118 501.691 425.426 501.91 417.951 505.935C414.005 508.06 404.351 522.409 384.253 519.224C361.644 515.639 354.965 534.271 354.965 534.271C354.965 534.271 376.714 531.83 382.962 533.946C404.725 541.314 408.138 560.643 432.047 568.22C447.501 573.118 459.089 568.805 467.307 563.512C485.123 550.182 494.735 531.969 510.452 517.759C523.288 509.773 536.521 513.383 536.521 513.383C536.521 513.383 521.039 493.729 502.203 491.155C476.201 487.603 459.243 498.894 449.3 488.376C431.959 470.03 415.354 469.782 415.206 470.67C414.432 475.316 410.465 481.734 403.922 485.508C375.9 501.672 361.204 469.792 346.481 469.431C333.284 469.108 326.002 477.861 321.365 483.978C306.135 504.066 307.688 507.215 278.827 513.886C238.132 523.291 246.687 525.828 224.511 537.371C205.328 545.726 196.286 531.926 186.214 541.373C167.1 559.303 146.223 567.194 125.326 558.601C113.815 553.867 115.033 549.062 102.566 538.786C99.2688 534.046 83.2868 540.11 75.6435 533.507C63.3895 522.922 61.7591 513.081 61.7591 513.081C61.7591 513.081 61.0549 512.429 66.0909 513.031C97.1115 516.737 94.8114 486.519 116.688 486.265C131.633 486.091 138.027 501.566 150.095 509.006C158.817 514.383 169.752 516.911 169.752 516.911C169.752 516.911 160.962 530.737 142.73 527.645C134.679 526.28 132.846 534.622 125.028 532.934C117.21 531.245 113.305 525.477 114.453 519.078C115.602 512.678 121.265 512.39 123.048 514.149C124.83 515.907 123.104 518.977 123.104 518.977C123.104 518.977 121.919 514.981 119.433 517.495C116.947 520.008 118.768 529.443 126.849 527.829C131.083 526.984 135.389 522.31 140.947 523.345C156.361 526.216 163.134 519.07 161.347 518.533C132 509.724 134.721 490.884 118.043 491.078C104.228 491.238 102.537 500.299 89.4837 512.759C81.1278 520.735 72.5483 516.538 67.4377 517.082C67.4967 522.164 78.8078 533.776 91.0015 531.55C110.24 528.036 110.481 542.329 125.231 550.469C138.313 557.687 164.23 555.815 182.275 537.861C197.266 522.945 211.974 543.824 224.426 530.001C233.297 520.153 238.786 516.613 238.786 516.613C238.786 516.613 219.556 521.404 204.84 503.658C193.68 490.2 180.706 496.018 166.749 488.035C144.767 475.461 139.764 463.99 124.213 462.735C101.662 460.914 98.5271 470.717 87.3642 479.488C76.2013 488.259 81.8421 489.02 58.4497 489.292C35.0572 489.563 35.1669 517.619 0.0544355 515.99L0.0949304 2139.77L257.624 2139.78L591.347 2135.9Z" fill="url(#paint0_linear)" fill-opacity="0.74"/>
<path d="M343.344 2449.5L1243.94 2439.05L1792.65 2432.68L1772.72 715.828C1755.85 712.334 1726.66 697.61 1715.84 707.977C1695.3 727.654 1672.87 736.31 1650.42 726.871C1638.05 721.672 1639.36 716.398 1625.96 705.115C1619.9 700.017 1605.24 706.562 1597.03 699.313C1583.86 687.69 1582.1 676.887 1582.1 676.887C1582.1 676.887 1581.35 676.172 1586.76 676.833C1620.09 680.91 1617.61 647.739 1641.12 647.466C1657.18 647.28 1664.05 664.268 1677.02 672.438C1686.39 678.343 1698.14 681.12 1698.14 681.12C1698.14 681.12 1688.7 696.296 1669.11 692.896C1660.46 691.395 1658.49 700.552 1650.09 698.697C1641.69 696.841 1637.49 690.509 1638.72 683.484C1639.96 676.459 1646.04 676.145 1647.96 678.076C1649.87 680.007 1648.02 683.376 1648.02 683.376C1648.02 683.376 1646.75 678.989 1644.08 681.748C1641.4 684.507 1643.36 694.863 1652.05 693.094C1656.6 692.167 1661.22 687.038 1667.19 688.176C1683.76 691.331 1691.03 683.488 1689.11 682.899C1657.58 673.222 1660.49 652.542 1642.57 652.75C1627.73 652.922 1625.92 662.868 1611.89 676.542C1602.92 685.295 1593.7 680.685 1588.21 681.281C1588.27 686.86 1600.43 699.609 1613.53 697.168C1634.2 693.317 1634.46 709.006 1650.31 717.945C1664.37 725.872 1692.22 723.824 1711.6 704.121C1727.71 687.752 1743.52 710.674 1756.89 695.504C1766.42 684.696 1772.31 680.812 1772.31 680.812C1772.31 680.812 1751.66 686.066 1735.84 666.582C1724.98 653.202 1709.91 658.19 1694.91 649.423C1671.28 635.614 1666.44 623.09 1649.2 621.639C1628.43 619.891 1621.6 630.395 1609.61 640.02C1597.62 649.645 1603.68 650.482 1578.54 650.773C1553.41 651.065 1553.52 680.784 1515.8 678.986C1515.8 678.986 1515.22 629.678 1452.4 636.865C1389.58 644.052 1389.03 573.15 1337.03 581.328C1285.04 589.506 1290.82 581.17 1271.49 562.467C1249.68 541.359 1224.91 540.749 1209.23 557.726C1199.03 568.773 1196.01 593.893 1203.52 607.466C1208.31 616.132 1217.78 636.361 1244.85 628.346C1267.81 615.096 1245.43 581.646 1236.97 607.078C1236.97 607.078 1230.27 604.311 1233.25 596.193C1235.82 589.209 1243.47 586.884 1249.1 588.558C1254.74 590.231 1261.5 595.865 1261.67 610.517C1261.83 611.159 1284.13 607.772 1302.15 632.648C1309.52 642.814 1337.35 631.107 1357.87 635.975C1380.84 641.421 1402.96 670.472 1402.96 670.472C1402.96 670.472 1381.52 666.419 1365.98 676.614C1358.91 681.25 1341.8 709.443 1322.54 725.798C1311.41 735.259 1291.67 741.196 1274.35 732.567C1249.51 720.188 1249.81 708.718 1230.62 698.551C1215.49 690.53 1188.83 696.056 1188.83 696.056C1188.83 696.056 1191.99 665.718 1221.71 665.373C1243.93 665.115 1244.69 668.032 1264.64 650.718C1272.19 644.172 1290.4 644.283 1295.52 660.791C1301.82 681.084 1272.9 684.648 1272.9 684.648C1272.9 684.648 1292.51 675.933 1288.38 664.599C1284.25 653.266 1272.76 653.503 1264.73 657.919C1260.49 660.25 1250.12 675.999 1228.52 672.497C1204.23 668.556 1197.06 689.006 1197.06 689.006C1197.06 689.006 1220.43 686.333 1227.14 688.657C1250.53 696.751 1254.2 717.969 1279.89 726.293C1296.5 731.673 1308.95 726.942 1317.78 721.134C1336.91 706.507 1347.24 686.518 1364.12 670.923C1377.91 662.161 1392.13 666.127 1392.13 666.127C1392.13 666.127 1375.49 644.548 1355.25 641.718C1327.31 637.811 1309.09 650.202 1298.41 638.653C1279.77 618.51 1261.93 618.233 1261.77 619.208C1260.94 624.308 1256.68 631.351 1249.65 635.493C1219.54 653.228 1203.74 618.23 1187.92 617.83C1173.74 617.472 1165.92 627.077 1160.94 633.791C1144.58 655.837 1146.25 659.295 1115.24 666.609C1071.52 676.922 1064.38 687.853 1057 700.566C1043.21 724.321 1026.51 718.821 1019.65 708.46C1012.79 698.099 1009.37 670.636 972.271 678.32C946.542 683.651 950.17 649.938 924.325 636.242C898.48 622.546 893.074 662.593 864.639 657.529C844.538 653.95 840.159 634.936 840.159 634.936C830.375 635.05 819.006 638.002 809.557 653.984C798.761 672.244 774.15 659.46 754.106 660.765C734.061 662.07 714.284 686.337 714.284 686.337C746.705 676.475 764.595 721.4 789.252 738.196C824.148 761.968 855.809 718.731 855.809 718.731C873.888 695.644 906.278 704.196 906.278 704.196C892.276 678.133 876.974 687.517 866.456 687.639C855.07 687.772 848.086 685.621 833.258 672.68C827.787 667.906 815.939 671.486 815.256 681.259C814.007 699.129 831.02 690.562 831.02 690.562C831.02 690.562 823.617 706.14 812.453 692.73C802.522 680.801 813.062 660.918 828.021 664.092C846.239 667.958 845.164 686.771 873.713 680.58C907.926 673.162 912.539 708.366 912.697 709.664C912.281 709.671 911.857 709.68 911.88 709.688C909.069 709.731 901.854 709.827 885.063 710.022C864.231 710.264 864.444 725.017 832.642 746.063C794.043 771.606 761.566 713.408 745.267 700.206C731.21 688.819 716.263 689.446 709.415 688.346C706.573 687.89 714.104 675.691 734.538 660.992C754.972 646.294 796.429 666.506 803.42 652.102C812.952 632.462 840.072 627.404 840.072 627.404C840.072 627.404 841.4 615.392 848.666 609.17C859.324 600.044 873.396 611.115 862.526 622.959C862.526 622.959 865.637 617.064 860.964 614.886C853.339 611.333 847.873 622.933 847.409 627.319C845.402 646.314 867.731 649.961 878.679 644.812C889.628 639.663 907.012 611.003 895.118 585.753C881.484 556.809 842.259 562.931 816.71 595.87C801.733 615.18 778.828 598.821 751.717 602.483C722.053 606.491 719.054 654.739 695.981 648.048C671.124 640.84 654.44 656.43 640.659 665.988C615.297 683.58 594.793 671.344 585.53 669.426C568.66 665.932 555.124 656.739 544.304 667.106C523.771 686.783 501.341 695.439 478.885 686C466.516 680.801 467.824 675.527 454.425 664.244C448.266 659.79 433.711 665.691 425.496 658.442C412.327 646.819 410.572 636.016 410.572 636.016C410.572 636.016 409.815 635.301 415.226 635.962C448.558 640.039 446.078 606.868 469.584 606.595C485.642 606.409 492.517 623.397 505.486 631.567C514.86 637.472 526.609 640.249 526.609 640.249C526.609 640.249 517.168 655.425 497.577 652.025C488.927 650.524 486.959 659.681 478.558 657.826C470.157 655.97 465.96 649.638 467.192 642.613C468.425 635.588 474.509 635.274 476.425 637.205C478.341 639.136 476.487 642.505 476.487 642.505C476.487 642.505 475.213 638.118 472.542 640.877C469.872 643.636 471.831 653.992 480.513 652.223C485.063 651.296 489.689 646.167 495.661 647.304C512.223 650.46 519.498 642.617 517.579 642.028C486.044 632.351 488.962 611.671 471.042 611.879C456.198 612.051 454.383 621.997 440.361 635.671C431.385 644.424 422.166 639.814 416.675 640.409C416.74 645.989 428.896 658.738 441.997 656.297C462.668 652.446 462.93 668.135 478.781 677.074C492.839 685.001 520.687 682.953 540.07 663.25C556.173 646.881 571.983 669.803 585.358 654.633C594.887 643.825 600.782 639.941 600.782 639.941C600.782 639.941 580.124 645.195 564.306 625.711C552.311 610.936 538.373 617.319 523.374 608.552C499.752 594.743 494.373 582.15 477.664 580.768C453.433 578.764 450.067 589.524 438.075 599.149C426.084 608.774 432.145 609.611 407.01 609.902C381.876 610.194 382.001 640.991 344.273 639.193C272.025 635.751 280.895 575.478 228.901 583.656C176.906 591.834 182.69 583.498 163.362 564.795C141.546 543.687 116.772 543.077 101.097 560.054C90.8971 571.101 87.8808 596.221 95.3876 609.794C100.18 618.46 109.643 638.689 136.718 630.674C159.674 617.424 137.298 583.974 128.837 609.406C128.837 609.406 122.136 606.639 125.118 598.521C127.684 591.537 135.338 589.212 140.97 590.886C146.603 592.559 153.365 598.193 153.535 612.845C153.701 613.487 175.995 610.1 194.022 634.976C201.388 645.142 229.215 633.435 249.744 638.303C272.709 643.749 294.825 672.8 294.825 672.8C294.825 672.8 273.394 668.747 257.85 678.942C250.781 683.578 233.665 711.772 214.412 728.126C203.274 737.587 183.536 743.525 166.218 734.895C141.376 722.516 141.677 711.046 122.49 700.879C107.354 692.859 80.6994 698.384 80.6994 698.384C80.6994 698.384 83.8546 668.046 113.573 667.701C135.797 667.443 136.557 670.36 156.511 653.046C164.055 646.5 182.265 646.611 187.388 663.119C193.686 683.412 164.763 686.977 164.763 686.977C164.763 686.977 184.379 678.261 180.247 666.927C176.114 655.594 164.626 655.831 156.595 660.248C152.356 662.578 141.986 678.327 120.391 674.825C96.0967 670.885 88.9248 691.334 88.9248 691.334C88.9248 691.334 112.293 688.661 119.007 690.985C142.393 699.079 146.065 720.297 171.758 728.621C188.363 734.002 200.813 729.27 209.642 723.463C228.781 708.835 239.105 688.846 255.988 673.251C269.778 664.489 283.998 668.455 283.998 668.455C283.998 668.455 267.357 646.877 247.117 644.046C219.178 640.14 200.961 652.53 190.274 640.981C171.636 620.838 153.795 620.561 153.636 621.536C152.805 626.636 148.545 633.68 141.515 637.821C111.41 655.556 95.6115 620.558 79.7914 620.158C65.6115 619.8 57.7905 629.405 52.8092 636.119C36.4503 658.165 31.0084 660.686 8.00178e-06 668L-2.06564e-05 721.5L-1.74872e-05 2449.5L343.344 2449.5Z" fill="url(#paint1_linear)"/>
<path d="M873 1131.37V880.157C860.091 849.613 811.016 818.419 777.404 818.419C664.318 818.419 703.301 737.663 621.823 748.735C540.344 759.807 549.544 747.719 519.649 720.054C485.908 688.829 447.168 687.518 422.341 712.067C406.186 728.041 401.012 764.709 412.507 784.676C419.847 797.425 434.282 827.155 476.777 815.898C512.925 796.919 478.533 747.646 464.836 784.676C464.836 784.676 454.404 780.518 459.217 768.702C463.357 758.537 475.372 755.27 484.152 757.811C492.932 760.352 503.407 768.702 503.407 790.122C503.655 791.064 538.588 786.491 566.333 823.159C577.671 838.143 621.407 821.503 653.431 828.967C689.253 837.317 723.319 880.157 723.319 880.157C723.319 880.157 689.87 873.868 665.371 888.507C654.23 895.164 626.949 936.084 596.536 959.663C578.942 973.304 547.961 981.647 521.028 968.739C482.396 950.224 483.074 933.463 453.246 918.276C429.716 906.296 387.923 913.92 387.923 913.92C387.923 913.92 393.409 869.628 439.901 869.628C474.67 869.628 475.804 873.905 507.331 848.935C519.25 839.495 547.732 839.966 555.446 864.183C564.928 893.952 519.623 898.672 519.623 898.672C519.623 898.672 550.466 886.265 544.207 869.628C537.949 852.992 519.974 853.144 507.331 859.463C500.658 862.798 484.152 885.643 450.437 880.157C412.507 873.985 400.918 903.754 400.918 903.754C400.918 903.754 437.519 900.244 447.978 903.754C484.412 915.982 489.771 947.06 529.808 959.663C555.685 967.809 575.244 961.104 589.161 952.765C619.364 931.709 635.871 902.665 662.562 880.157C684.292 867.583 706.462 873.622 706.462 873.622C706.462 873.622 680.824 841.798 649.216 837.317C605.584 831.133 576.869 848.935 560.362 831.872C531.574 802.113 503.673 801.406 503.407 802.828C502.015 810.268 495.224 820.492 484.152 826.426C436.74 851.839 412.662 800.414 387.923 799.561C365.749 798.796 353.342 812.704 345.428 822.433C319.439 854.381 321.987 859.463 273.351 869.628C204.771 883.962 206.001 929.893 206.001 929.893V1448.87L362.474 1562L519.623 1535.42H750.586L873 1448.87V1131.37Z" fill="url(#paint2_linear)"/>
<path d="M0 831.919V3431.44C0 3431.44 100 3311.94 288.5 3311.94C477 3311.94 495.5 3431.44 663.5 3431.44C831.5 3431.44 862 3136.94 1141 3227.94C1420 3318.94 1483.5 3026.44 1655 2995.94C1826.5 2965.44 1920 3076.94 1920 3076.94V1984.44V1305.5C1920 1305.5 1640.78 1082.93 1842.88 963.919C1875.46 944.736 1920 921.055 1920 921.055V443C1920 443 1880.12 604.923 1551.15 588.93C1222.18 572.937 1059.36 644.131 842.7 853.071C626.044 1062.01 410.717 979.982 226.625 831.919C97.697 728.223 0 831.919 0 831.919Z" fill="white"/>
<path d="M1890.72 190.404C1897.81 177.62 1912.49 178.464 1920 178.081C1920 178.081 1906.81 161.719 1895.87 161.719C1859.04 161.719 1871.73 136.099 1845.2 139.612C1818.66 143.124 1821.66 139.29 1811.92 130.513C1800.93 120.607 1787.87 123.134 1780.74 130.545C1775.4 136.106 1773.29 144.679 1777.03 151.014C1779.42 155.059 1784.12 164.491 1797.96 160.919C1809.73 154.898 1798.53 139.266 1794.07 151.014C1794.07 151.014 1790.67 149.695 1792.24 145.946C1793.59 142.721 1797.5 141.685 1800.36 142.491C1803.22 143.297 1806.63 145.946 1806.63 152.742C1806.71 153.041 1817.63 151.014 1826.67 162.647C1830.36 167.401 1845.06 162.698 1855.49 165.066C1867.16 167.715 1878.25 181.305 1878.25 181.305C1878.25 181.305 1867.36 179.31 1859.38 183.955C1855.75 186.067 1846.87 199.049 1836.96 206.529C1831.23 210.856 1821.14 213.504 1812.37 209.408C1799.79 203.534 1800.01 198.217 1790.3 193.399C1782.63 189.598 1769.02 192.017 1769.02 192.017C1769.02 192.017 1770.81 177.965 1785.95 177.965C1797.27 177.965 1797.64 179.322 1807.91 171.4C1811.79 168.406 1821.07 168.555 1823.58 176.238C1826.67 185.682 1811.91 187.179 1811.91 187.179C1811.91 187.179 1821.96 183.243 1819.92 177.965C1817.88 172.687 1812.03 172.736 1807.91 174.74C1805.74 175.799 1800.36 183.046 1789.38 181.305C1777.03 179.347 1773.26 188.792 1773.26 188.792C1773.26 188.792 1785.18 187.678 1788.58 188.792C1800.45 192.671 1802.19 202.531 1815.23 206.529C1823.66 209.113 1830.03 206.986 1834.56 204.341C1844.4 197.661 1849.77 188.446 1858.47 181.305C1865.54 177.316 1872.76 179.232 1872.76 179.232C1872.76 179.232 1864.41 169.136 1854.12 167.715C1839.91 165.753 1827.92 169.442 1825.18 165.987C1816.92 155.547 1806.72 156.322 1806.63 156.773C1806.18 159.133 1803.97 162.377 1800.36 164.259C1784.92 172.322 1777.08 156.007 1769.02 155.736C1761.8 155.494 1757.76 159.906 1755.18 162.992C1746.72 173.128 1750.27 178.081 1727.51 178.081C1704.74 178.081 1709.09 197.085 1709.78 197.085C1710.46 197.085 1727.05 180.614 1734.14 197.085C1739.81 210.261 1756.18 209.716 1763.65 207.796C1778.2 204.847 1786.53 210.56 1794.53 222.423C1804.71 237.511 1830.82 238.202 1845.2 222.423C1857.89 208.487 1858.35 207.105 1872.76 205.032C1884.29 203.373 1889.54 194.589 1890.72 190.404Z" fill="#F1D9FF" fill-opacity="0.53"/>
<rect x="1299" y="819" width="621" height="246" fill="white"/>
<defs>
<linearGradient id="paint0_linear" x1="881" y1="386" x2="1393.5" y2="855" gradientUnits="userSpaceOnUse">
<stop stop-color="#C4BAFF"/>
<stop offset="1" stop-color="#B9B5FF" stop-opacity="0.31"/>
</linearGradient>
<linearGradient id="paint1_linear" x1="874.251" y1="539.404" x2="1335" y2="899" gradientUnits="userSpaceOnUse">
<stop stop-color="#D8C2FF"/>
<stop offset="1" stop-color="#CEBEFF" stop-opacity="0.31"/>
</linearGradient>
<linearGradient id="paint2_linear" x1="539.5" y1="695" x2="539.5" y2="1562" gradientUnits="userSpaceOnUse">
<stop stop-color="#ECCAFF"/>
<stop offset="1" stop-color="#E2C6FF" stop-opacity="0"/>
</linearGradient>
</defs>
</svg>
