<svg width="76" height="76" viewBox="0 0 76 76" fill="none" xmlns="http://www.w3.org/2000/svg">
<circle cx="38" cy="38" r="38" transform="rotate(90 38 38)" fill="#5B518F"/>
<path fill-rule="evenodd" clip-rule="evenodd" d="M21 38.3054C20.9999 38.9995 21.1126 39.7986 21.4845 40.3763C21.8564 40.9539 21.8055 41.0409 23.0899 42.0378L44.2776 56.7289C45.1095 57.088 46.0452 57.0904 46.8787 56.7356C47.7123 56.3808 48.3755 55.6976 48.7225 54.8367C49.0695 53.9758 49.0718 53.0075 48.729 52.1448C48.3861 51.2821 47.7437 50.7541 46.8943 50.2366L29.965 38.3054L46.9098 25.7632C47.7748 25.1509 48.4017 24.7178 48.7445 23.8551C49.0874 22.9924 49.0851 22.0241 48.7381 21.1632C48.3911 20.3022 47.7279 19.6192 46.8943 19.2644C46.0607 18.9096 45.1251 18.912 44.2932 19.2711L23.0899 34.7271C22.1266 35.3917 21.8564 35.811 21.4845 36.3886C21.1126 36.9663 20.9999 37.6113 21 38.3054Z" fill="white"/>
</svg>
