<svg width="100" height="100" viewBox="0 0 100 100" fill="none" xmlns="http://www.w3.org/2000/svg">
<circle cx="50" cy="50" r="50" transform="rotate(90 50 50)" fill="#02559E"/>
<path fill-rule="evenodd" clip-rule="evenodd" d="M27.6315 50.4019C27.6315 51.3152 27.7796 52.3666 28.269 53.1267C28.7583 53.8867 28.6915 54.0012 30.3814 55.3129L58.26 74.6433C59.3546 75.1158 60.5857 75.119 61.6825 74.6521C62.7793 74.1852 63.652 73.2864 64.1085 72.1536C64.5651 71.0208 64.5682 69.7467 64.117 68.6116C63.6659 67.4765 62.8206 66.7817 61.703 66.1008L39.4276 50.4019L61.7234 33.899C62.8615 33.0933 63.6863 32.5234 64.1375 31.3882C64.5886 30.2531 64.5856 28.979 64.129 27.8463C63.6724 26.7135 62.7998 25.8148 61.7029 25.3479C60.6061 24.881 59.375 24.8842 58.2804 25.3567L30.3814 45.6935C29.1139 46.568 28.7583 47.1197 28.269 47.8798C27.7796 48.6398 27.6315 49.4886 27.6315 50.4019Z" fill="white"/>
</svg>
