<svg width="204" height="205" viewBox="0 0 204 205" fill="none" xmlns="http://www.w3.org/2000/svg">
<path d="M0 14.6831C0 6.57281 6.7065 0 14.9812 0H189.019C197.293 0 204 6.57281 204 14.6831V190.317C204 198.427 197.293 205 189.019 205H14.9812C6.7065 205 0 198.427 0 190.317V14.6831ZM63.0232 171.611V79.0403H32.4105V171.611H63.0232ZM47.7233 66.3944C58.395 66.3944 65.0377 59.2963 65.0377 50.4044C64.8465 41.3203 58.4078 34.4144 47.9273 34.4144C37.4468 34.4144 30.6 41.3331 30.6 50.4044C30.6 59.2963 37.2428 66.3944 47.5192 66.3944H47.7233V66.3944ZM110.3 171.611V119.912C110.3 117.145 110.504 114.377 111.32 112.404C113.526 106.882 118.562 101.155 127.028 101.155C138.108 101.155 142.532 109.637 142.532 122.09V171.611H173.145V118.516C173.145 90.0719 158.049 76.8494 137.904 76.8494C121.66 76.8494 114.38 85.8181 110.3 92.1347V92.455H110.096C110.164 92.348 110.232 92.2413 110.3 92.1347V79.0403H79.7002C80.0827 87.7272 79.7002 171.611 79.7002 171.611H110.3Z" fill="#2D86EE"/>
</svg>
