<svg width="195" height="43" viewBox="0 0 195 43" fill="none" xmlns="http://www.w3.org/2000/svg">
<path d="M70 17.3345C70 25.964 68.9375 33.0958 62.5042 37.0241C59.2891 38.9872 54.3529 41.1186 35.5 41.1186C16.659 41.1186 11.4902 38.8136 8.48764 37.0191C2.56961 33.4823 1.00001 25.9457 1 17.3345C0.999997 13.1102 1.6336 9.66192 3.06552 7.02328C4.47769 4.42101 6.70625 2.53085 10.0766 1.46626C13.3483 0.432807 16.8987 1.26351 21.168 2.50677C21.5766 2.62575 21.9908 2.74817 22.4108 2.87226C26.292 4.01926 30.6575 5.30938 35.4924 5.34614C40.7528 5.38613 45.5314 4.17443 49.7743 3.0986L49.8322 3.08392C54.1576 1.98718 57.8182 1.07529 61.0948 1.50424C64.2192 1.91325 66.4085 3.71973 67.8539 6.49868C69.3195 9.31642 70 13.1139 70 17.3345Z" fill="#0A66AC" stroke="#02559E" stroke-width="2"/>
<ellipse cx="17.7223" cy="23.0585" rx="5.56568" ry="8.2733" fill="white" stroke="#02559E"/>
<ellipse cx="53.0159" cy="23.0585" rx="5.56568" ry="8.2733" fill="white" stroke="#02559E"/>
<path d="M100.016 32.4677C105.164 32.4677 109.268 29.2997 109.268 24.9437C109.268 19.4357 104.516 18.1397 100.916 17.5277C98.288 17.0597 96.272 16.5557 96.272 14.6117C96.272 13.1357 97.64 12.1997 99.62 12.1997C102.068 12.1997 103.652 13.2797 104.444 14.8277L108.836 12.6317C107.288 9.17569 103.832 7.33969 99.836 7.33969C94.832 7.33969 91.016 10.5797 91.016 14.8277C91.016 20.2997 95.948 21.5957 99.584 22.2077C102.104 22.6397 104.012 22.9637 104.012 24.9797C104.012 26.7077 102.284 27.6437 100.016 27.6437C97.496 27.6437 95.804 26.7437 95.012 24.9797L90.62 27.1757C92.168 30.6317 95.66 32.4677 100.016 32.4677Z" fill="white"/>
<path d="M116.338 11.5157C118.066 11.5157 119.47 10.1117 119.47 8.34769C119.47 6.61969 118.066 5.17969 116.338 5.17969C114.61 5.17969 113.17 6.61969 113.17 8.34769C113.17 10.1117 114.61 11.5157 116.338 11.5157ZM113.782 14.1797V31.9997H118.894V14.1797H113.782Z" fill="white"/>
<path d="M129.722 31.9997V14.0717L139.298 30.5957C140.09 31.9277 141.422 32.4677 142.97 32.4677C144.878 32.4677 146.642 31.0997 146.642 28.6877V7.77169H141.674V25.5917L132.098 9.17569C131.306 7.84369 130.046 7.26769 128.462 7.26769C126.482 7.26769 124.718 8.67169 124.718 11.0837V31.9997H129.722Z" fill="white"/>
<path d="M159.76 32.4677C162.208 32.4677 164.152 31.4957 165.412 29.9117V31.9997H170.272V23.0357C170.272 17.6717 166.168 13.6397 160.588 13.6397C155.116 13.6397 150.94 17.9237 150.94 23.0357C150.94 28.2197 154.576 32.4677 159.76 32.4677ZM160.588 27.6797C157.96 27.6797 156.052 25.5917 156.052 23.0717C156.052 20.5517 157.96 18.4637 160.588 18.4637C163.216 18.4637 165.16 20.5517 165.16 23.0717C165.16 25.5917 163.216 27.6797 160.588 27.6797Z" fill="white"/>
<path d="M183.335 27.5357C180.707 27.5357 179.411 25.1957 179.411 22.4597V14.1797H174.299V23.0357C174.299 28.2557 177.395 32.4677 183.335 32.4677C189.311 32.4677 192.407 28.2557 192.407 23.0357V14.1797H187.295V22.4237C187.295 25.1957 185.963 27.5357 183.335 27.5357Z" fill="white"/>
<path fill-rule="evenodd" clip-rule="evenodd" d="M104.444 14.8277C103.652 13.2797 102.068 12.1997 99.62 12.1997C97.64 12.1997 96.272 13.1357 96.272 14.6117C96.272 16.5557 98.288 17.0597 100.916 17.5277C104.516 18.1397 109.268 19.4357 109.268 24.9437C109.268 29.2997 105.164 32.4677 100.016 32.4677C96.4511 32.4677 93.4649 31.238 91.6493 28.8971C91.3925 28.566 91.1592 28.2127 90.9509 27.8375C90.8324 27.6239 90.722 27.4033 90.62 27.1757L95.012 24.9797C95.0656 25.099 95.1233 25.2143 95.185 25.3257C96.0367 26.8613 97.6664 27.6437 100.016 27.6437C102.284 27.6437 104.012 26.7077 104.012 24.9797C104.012 22.9668 102.11 22.6407 99.5955 22.2097L99.584 22.2077C95.948 21.5957 91.016 20.2997 91.016 14.8277C91.016 10.5797 94.832 7.33969 99.836 7.33969C103.105 7.33969 106.013 8.56868 107.811 10.9084C108.063 11.237 108.293 11.5876 108.5 11.9597C108.62 12.1764 108.732 12.4004 108.836 12.6317L104.444 14.8277ZM99.2496 24.1795C98.4559 24.0459 97.5401 23.8722 96.5903 23.6119L96.8365 24.1605C97.2024 24.9754 97.9953 25.6437 100.016 25.6437C100.913 25.6437 101.504 25.453 101.8 25.2667C101.935 25.1818 101.978 25.1179 101.989 25.0998C101.995 25.0897 102.012 25.062 102.012 24.9797C102.012 24.9333 102.009 24.9002 102.007 24.8777C101.981 24.8594 101.936 24.8315 101.865 24.7966C101.667 24.7001 101.361 24.5969 100.891 24.4887C100.424 24.3814 99.8926 24.2898 99.2496 24.1795ZM94.6188 22.9402C94.013 22.686 93.4176 22.3841 92.8552 22.0227C90.6556 20.6091 89.016 18.3132 89.016 14.8277C89.016 9.18068 94.0469 5.33969 99.836 5.33969C104.438 5.33969 108.723 7.4859 110.661 11.8141L111.445 13.5634L105.348 16.612C106.105 16.9055 106.853 17.2714 107.549 17.7342C109.709 19.1703 111.268 21.4786 111.268 24.9437C111.268 30.7966 105.83 34.4677 100.016 34.4677C95.1047 34.4677 90.7505 32.3596 88.7947 27.9933L88.0112 26.244L94.6188 22.9402ZM102.714 15.837L102.664 15.7386C102.248 14.9256 101.395 14.1997 99.62 14.1997C98.9175 14.1997 98.5217 14.3691 98.3613 14.483C98.3244 14.5092 98.3029 14.5301 98.2916 14.5426C98.2805 14.5547 98.2773 14.561 98.2772 14.5611M98.276 14.6838C98.3011 14.7082 98.3698 14.7658 98.5221 14.8441C99.0429 15.1115 99.9011 15.3153 101.259 15.5573C101.711 15.6342 102.201 15.7245 102.714 15.837M119.787 12.1797C120.823 11.234 121.47 9.8673 121.47 8.34769C121.47 5.54493 119.201 3.17969 116.338 3.17969C113.506 3.17969 111.17 5.51512 111.17 8.34769C111.17 9.87748 111.832 11.2388 112.874 12.1797H111.782V33.9997H120.894V12.1797H119.787ZM113.782 31.9997V14.1797H118.894V31.9997H113.782ZM131.722 33.9997H122.718V11.0837C122.718 7.46727 125.48 5.26769 128.462 5.26769C130.6 5.26769 132.593 6.09487 133.818 8.15354L133.822 8.16073L139.674 18.1938V5.77169H148.642V28.6877C148.642 32.3054 145.879 34.4677 142.97 34.4677C140.938 34.4677 138.832 33.7246 137.579 31.6178L137.574 31.6082L131.722 21.5116V33.9997ZM129.722 14.0717V31.9997H124.718V11.0837C124.718 8.97769 126.063 7.64015 127.722 7.33467C127.847 7.31179 127.973 7.2947 128.1 7.28351C128.22 7.27299 128.341 7.26769 128.462 7.26769C130.046 7.26769 131.306 7.84369 132.098 9.17569L141.674 25.5917V7.77169H146.642V28.6877C146.642 30.7989 145.291 32.1102 143.674 32.4045C143.57 32.4235 143.465 32.4382 143.359 32.4486C143.23 32.4613 143.101 32.4677 142.97 32.4677C141.422 32.4677 140.09 31.9277 139.298 30.5957L129.722 14.0717ZM163.412 31.5921C164.196 31.1654 164.868 30.5956 165.412 29.9117V31.9997H170.272V23.0357C170.272 17.6717 166.168 13.6397 160.588 13.6397C155.116 13.6397 150.94 17.9237 150.94 23.0357C150.94 28.2197 154.576 32.4677 159.76 32.4677C161.151 32.4677 162.379 32.1538 163.412 31.5921ZM163.412 33.7962C162.308 34.2344 161.079 34.4677 159.76 34.4677C153.299 34.4677 148.94 29.1437 148.94 23.0357C148.94 16.7994 154.031 11.6397 160.588 11.6397C167.222 11.6397 172.272 16.5176 172.272 23.0357V33.9997H163.412V33.7962ZM158.052 23.0717C158.052 24.5601 159.136 25.6797 160.588 25.6797C162.06 25.6797 163.16 24.5388 163.16 23.0717C163.16 21.6045 162.06 20.4637 160.588 20.4637C159.136 20.4637 158.052 21.5833 158.052 23.0717ZM181.411 12.1797V22.4597C181.411 23.5465 181.673 24.3757 182.023 24.8725C182.321 25.2961 182.706 25.5357 183.335 25.5357C183.966 25.5357 184.362 25.2935 184.669 24.8612C185.026 24.3591 185.295 23.5226 185.295 22.4237V12.1797H194.407V23.0357C194.407 26.0273 193.518 28.8943 191.604 31.0404C189.661 33.2191 186.826 34.4677 183.335 34.4677C179.858 34.4677 177.031 33.2165 175.095 31.0382C173.187 28.8929 172.299 26.0272 172.299 23.0357V12.1797H181.411ZM187.295 14.1797H192.407V23.0357C192.407 28.2557 189.311 32.4677 183.335 32.4677C177.395 32.4677 174.299 28.2557 174.299 23.0357V14.1797H179.411V22.4597C179.411 25.1957 180.707 27.5357 183.335 27.5357C185.963 27.5357 187.295 25.1957 187.295 22.4237V14.1797ZM119.47 8.34769C119.47 10.1117 118.066 11.5157 116.338 11.5157C114.61 11.5157 113.17 10.1117 113.17 8.34769C113.17 6.61969 114.61 5.17969 116.338 5.17969C118.066 5.17969 119.47 6.61969 119.47 8.34769ZM156.052 23.0717C156.052 25.5917 157.96 27.6797 160.588 27.6797C163.216 27.6797 165.16 25.5917 165.16 23.0717C165.16 20.5517 163.216 18.4637 160.588 18.4637C157.96 18.4637 156.052 20.5517 156.052 23.0717Z" fill="#02559E"/>
</svg>
