<svg width="197" height="51" viewBox="0 0 197 51" fill="none" xmlns="http://www.w3.org/2000/svg">
<path d="M69 22.3345C69 30.9788 67.904 37.5552 61.9831 41.1706C59.0072 42.9877 54.2982 45.1186 35.5 45.1186C16.7257 45.1186 11.7731 42.8177 9.00065 41.1608C3.59575 37.9306 2.00001 30.9423 2 22.3345C2 18.1931 2.62408 14.9333 3.94444 12.5002C5.22531 10.1399 7.23858 8.4114 10.3778 7.41982C13.3198 6.49051 16.5836 7.21327 20.8884 8.46689C21.2951 8.58533 21.7096 8.70791 22.1315 8.83271C26.0002 9.97704 30.5006 11.3082 35.4848 11.3461C40.8743 11.3871 45.758 10.1487 49.9795 9.07821L50.078 9.05324C54.4582 7.94261 57.9167 7.09672 60.965 7.49578C63.7087 7.85495 65.6436 9.41613 66.9667 11.9601C68.3303 14.5817 69 18.2006 69 22.3345Z" fill="#0A66AC" stroke="#02559E" stroke-width="4"/>
<ellipse cx="17.7223" cy="28.0585" rx="5.56568" ry="8.2733" fill="white" stroke="#02559E" stroke-width="3"/>
<ellipse cx="53.0159" cy="28.0585" rx="5.56568" ry="8.2733" fill="white" stroke="#02559E" stroke-width="3"/>
<path d="M100.016 37.468C105.164 37.468 109.268 34.3 109.268 29.944C109.268 24.436 104.516 23.14 100.916 22.528C98.288 22.06 96.272 21.556 96.272 19.612C96.272 18.136 97.64 17.2 99.62 17.2C102.068 17.2 103.652 18.28 104.444 19.828L108.836 17.632C107.288 14.176 103.832 12.34 99.836 12.34C94.832 12.34 91.016 15.58 91.016 19.828C91.016 25.3 95.948 26.596 99.584 27.208C102.104 27.64 104.012 27.964 104.012 29.98C104.012 31.708 102.284 32.644 100.016 32.644C97.496 32.644 95.804 31.744 95.012 29.98L90.62 32.176C92.168 35.632 95.66 37.468 100.016 37.468ZM116.338 16.516C118.066 16.516 119.47 15.112 119.47 13.348C119.47 11.62 118.066 10.18 116.338 10.18C114.61 10.18 113.17 11.62 113.17 13.348C113.17 15.112 114.61 16.516 116.338 16.516ZM113.782 19.18V37H118.894V19.18H113.782ZM129.722 37V19.072L139.298 35.596C140.09 36.928 141.422 37.468 142.97 37.468C144.878 37.468 146.642 36.1 146.642 33.688V12.772H141.674V30.592L132.098 14.176C131.306 12.844 130.046 12.268 128.462 12.268C126.482 12.268 124.718 13.672 124.718 16.084V37H129.722ZM159.76 37.468C162.208 37.468 164.152 36.496 165.412 34.912V37H170.272V28.036C170.272 22.672 166.168 18.64 160.588 18.64C155.116 18.64 150.94 22.924 150.94 28.036C150.94 33.22 154.576 37.468 159.76 37.468ZM160.588 32.68C157.96 32.68 156.052 30.592 156.052 28.072C156.052 25.552 157.96 23.464 160.588 23.464C163.216 23.464 165.16 25.552 165.16 28.072C165.16 30.592 163.216 32.68 160.588 32.68ZM183.335 32.536C180.707 32.536 179.411 30.196 179.411 27.46V19.18H174.299V28.036C174.299 33.256 177.395 37.468 183.335 37.468C189.311 37.468 192.407 33.256 192.407 28.036V19.18H187.295V27.424C187.295 30.196 185.963 32.536 183.335 32.536Z" fill="white"/>
<path d="M100.916 22.528L100.565 24.497L100.573 24.4984L100.581 24.4997L100.916 22.528ZM104.444 19.828L102.664 20.739L103.566 22.503L105.338 21.6169L104.444 19.828ZM108.836 17.632L109.73 19.4209L111.445 18.5637L110.661 16.8144L108.836 17.632ZM99.584 27.208L99.9219 25.2367L99.916 25.2357L99.584 27.208ZM95.012 29.98L96.8365 29.1608L95.9825 27.2587L94.1176 28.1911L95.012 29.98ZM90.62 32.176L89.7256 30.3871L88.0112 31.2443L88.7947 32.9936L90.62 32.176ZM100.016 39.468C105.83 39.468 111.268 35.7969 111.268 29.944H107.268C107.268 32.8031 104.498 35.468 100.016 35.468V39.468ZM111.268 29.944C111.268 26.4789 109.709 24.1706 107.549 22.7345C105.533 21.3942 103.078 20.8669 101.251 20.5563L100.581 24.4997C102.354 24.8011 104.075 25.2278 105.335 26.0655C106.451 26.8074 107.268 27.9011 107.268 29.944H111.268ZM101.267 20.559C99.9043 20.3164 99.0439 20.1123 98.5221 19.8444C98.2963 19.7284 98.2543 19.6576 98.2653 19.6733C98.2937 19.7138 98.272 19.7277 98.272 19.612H94.272C94.272 20.4683 94.5023 21.2742 94.9908 21.9706C95.4619 22.6421 96.0882 23.0911 96.6949 23.4026C97.8381 23.9897 99.2997 24.2716 100.565 24.497L101.267 20.559ZM98.272 19.612C98.272 19.5829 98.2752 19.5684 98.2761 19.5648C98.2764 19.5637 98.2766 19.5629 98.2768 19.5625C98.2769 19.5621 98.277 19.5619 98.277 19.5618C98.277 19.5618 98.277 19.5618 98.277 19.5618C98.277 19.5618 98.277 19.5618 98.277 19.5618C98.277 19.5618 98.277 19.5618 98.2771 19.5617C98.2771 19.5617 98.2771 19.5616 98.2772 19.5614C98.2773 19.5613 98.2805 19.555 98.2916 19.5429C98.3029 19.5304 98.3244 19.5095 98.3613 19.4833C98.5217 19.3695 98.9175 19.2 99.62 19.2V15.2C98.3425 15.2 97.0644 15.4985 96.0457 16.2217C94.9719 16.984 94.272 18.1739 94.272 19.612H98.272ZM99.62 19.2C101.395 19.2 102.248 19.9259 102.664 20.739L106.224 18.917C105.056 16.6341 102.741 15.2 99.62 15.2V19.2ZM105.338 21.6169L109.73 19.4209L107.942 15.8431L103.55 18.0391L105.338 21.6169ZM110.661 16.8144C108.723 12.4862 104.438 10.34 99.836 10.34V14.34C103.226 14.34 105.853 15.8658 107.011 18.4496L110.661 16.8144ZM99.836 10.34C94.0469 10.34 89.016 14.181 89.016 19.828H93.016C93.016 16.979 95.6171 14.34 99.836 14.34V10.34ZM89.016 19.828C89.016 23.3135 90.6556 25.6094 92.8552 27.023C94.9128 28.3454 97.4111 28.8704 99.252 29.1803L99.916 25.2357C98.1209 24.9336 96.3352 24.5046 95.0178 23.658C93.8424 22.9026 93.016 21.8145 93.016 19.828H89.016ZM99.2461 29.1792C99.8907 29.2897 100.423 29.3815 100.891 29.489C101.361 29.5972 101.667 29.7004 101.865 29.7969C102.051 29.8879 102.054 29.9308 102.021 29.8825C101.977 29.8177 102.012 29.8073 102.012 29.98H106.012C106.012 29.1447 105.808 28.3378 105.328 27.6317C104.858 26.9422 104.227 26.4991 103.621 26.2031C102.513 25.6614 101.072 25.434 99.9219 25.2368L99.2461 29.1792ZM102.012 29.98C102.012 30.0644 101.995 30.0906 101.989 30.1001C101.978 30.1182 101.935 30.1821 101.8 30.267C101.504 30.4533 100.913 30.644 100.016 30.644V34.644C101.387 34.644 102.794 34.3667 103.929 33.653C105.138 32.8929 106.012 31.6305 106.012 29.98H102.012ZM100.016 30.644C97.9953 30.644 97.2024 29.9757 96.8365 29.1608L93.1875 30.7992C94.4056 33.5123 96.9967 34.644 100.016 34.644V30.644ZM94.1176 28.1911L89.7256 30.3871L91.5144 33.9649L95.9064 31.7689L94.1176 28.1911ZM88.7947 32.9936C90.7505 37.3599 95.1047 39.468 100.016 39.468V35.468C96.2153 35.468 93.5855 33.9041 92.4453 31.3584L88.7947 32.9936ZM113.782 19.18V17.18H111.782V19.18H113.782ZM113.782 37H111.782V39H113.782V37ZM118.894 37V39H120.894V37H118.894ZM118.894 19.18H120.894V17.18H118.894V19.18ZM116.338 18.516C119.186 18.516 121.47 16.2016 121.47 13.348H117.47C117.47 14.0224 116.947 14.516 116.338 14.516V18.516ZM121.47 13.348C121.47 10.5452 119.2 8.18 116.338 8.18V12.18C116.932 12.18 117.47 12.6948 117.47 13.348H121.47ZM116.338 8.18C113.506 8.18 111.17 10.5154 111.17 13.348H115.17C115.17 12.7246 115.715 12.18 116.338 12.18V8.18ZM111.17 13.348C111.17 16.2313 113.521 18.516 116.338 18.516V14.516C115.7 14.516 115.17 13.9927 115.17 13.348H111.17ZM111.782 19.18V37H115.782V19.18H111.782ZM113.782 39H118.894V35H113.782V39ZM120.894 37V19.18H116.894V37H120.894ZM118.894 17.18H113.782V21.18H118.894V17.18ZM129.722 37V39H131.722V37H129.722ZM129.722 19.072L131.453 18.0692L127.722 11.6321V19.072H129.722ZM139.298 35.596L137.568 36.5988L137.574 36.6085L137.579 36.6182L139.298 35.596ZM146.642 12.772H148.642V10.772H146.642V12.772ZM141.674 12.772V10.772H139.674V12.772H141.674ZM141.674 30.592L139.947 31.5997L143.674 37.9898V30.592H141.674ZM132.098 14.176L133.826 13.1683L133.822 13.161L133.818 13.1538L132.098 14.176ZM124.718 37H122.718V39H124.718V37ZM131.722 37V19.072H127.722V37H131.722ZM127.992 20.0748L137.568 36.5988L141.029 34.5932L131.453 18.0692L127.992 20.0748ZM137.579 36.6182C138.832 38.725 140.938 39.468 142.97 39.468V35.468C141.907 35.468 141.349 35.131 141.018 34.5738L137.579 36.6182ZM142.97 39.468C145.879 39.468 148.642 37.3058 148.642 33.688H144.642C144.642 34.8942 143.878 35.468 142.97 35.468V39.468ZM148.642 33.688V12.772H144.642V33.688H148.642ZM146.642 10.772H141.674V14.772H146.642V10.772ZM139.674 12.772V30.592H143.674V12.772H139.674ZM143.402 29.5843L133.826 13.1683L130.371 15.1837L139.947 31.5997L143.402 29.5843ZM133.818 13.1538C132.593 11.0952 130.6 10.268 128.462 10.268V14.268C129.493 14.268 130.019 14.5928 130.379 15.1982L133.818 13.1538ZM128.462 10.268C125.48 10.268 122.718 12.4676 122.718 16.084H126.718C126.718 14.8764 127.484 14.268 128.462 14.268V10.268ZM122.718 16.084V37H126.718V16.084H122.718ZM124.718 39H129.722V35H124.718V39ZM165.412 34.912H167.412V29.185L163.846 33.667L165.412 34.912ZM165.412 37H163.412V39H165.412V37ZM170.272 37V39H172.272V37H170.272ZM159.76 39.468C162.773 39.468 165.311 38.2514 166.977 36.157L163.846 33.667C162.992 34.7406 161.642 35.468 159.76 35.468V39.468ZM163.412 34.912V37H167.412V34.912H163.412ZM165.412 39H170.272V35H165.412V39ZM172.272 37V28.036H168.272V37H172.272ZM172.272 28.036C172.272 21.5179 167.222 16.64 160.588 16.64V20.64C165.113 20.64 168.272 23.8261 168.272 28.036H172.272ZM160.588 16.64C154.031 16.64 148.94 21.7997 148.94 28.036H152.94C152.94 24.0483 156.2 20.64 160.588 20.64V16.64ZM148.94 28.036C148.94 34.144 153.299 39.468 159.76 39.468V35.468C155.853 35.468 152.94 32.296 152.94 28.036H148.94ZM160.588 30.68C159.136 30.68 158.052 29.5604 158.052 28.072H154.052C154.052 31.6236 156.784 34.68 160.588 34.68V30.68ZM158.052 28.072C158.052 26.5836 159.136 25.464 160.588 25.464V21.464C156.784 21.464 154.052 24.5204 154.052 28.072H158.052ZM160.588 25.464C162.06 25.464 163.16 26.6048 163.16 28.072H167.16C167.16 24.4992 164.371 21.464 160.588 21.464V25.464ZM163.16 28.072C163.16 29.5392 162.06 30.68 160.588 30.68V34.68C164.371 34.68 167.16 31.6448 167.16 28.072H163.16ZM179.411 19.18H181.411V17.18H179.411V19.18ZM174.299 19.18V17.18H172.299V19.18H174.299ZM192.407 19.18H194.407V17.18H192.407V19.18ZM187.295 19.18V17.18H185.295V19.18H187.295ZM183.335 30.536C182.706 30.536 182.321 30.2964 182.023 29.8728C181.673 29.3761 181.411 28.5468 181.411 27.46H177.411C177.411 29.1092 177.796 30.8179 178.752 32.1752C179.758 33.6056 181.335 34.536 183.335 34.536V30.536ZM181.411 27.46V19.18H177.411V27.46H181.411ZM179.411 17.18H174.299V21.18H179.411V17.18ZM172.299 19.18V28.036H176.299V19.18H172.299ZM172.299 28.036C172.299 31.0275 173.187 33.8932 175.095 36.0385C177.031 38.2168 179.858 39.468 183.335 39.468V35.468C180.871 35.468 179.18 34.6132 178.084 33.3805C176.958 32.1148 176.299 30.2645 176.299 28.036H172.299ZM183.335 39.468C186.826 39.468 189.661 38.2194 191.604 36.0407C193.518 33.8946 194.407 31.0276 194.407 28.036H190.407C190.407 30.2644 189.747 32.1134 188.619 33.3783C187.52 34.6106 185.82 35.468 183.335 35.468V39.468ZM194.407 28.036V19.18H190.407V28.036H194.407ZM192.407 17.18H187.295V21.18H192.407V17.18ZM185.295 19.18V27.424H189.295V19.18H185.295ZM185.295 27.424C185.295 28.5229 185.026 29.3594 184.669 29.8615C184.362 30.2938 183.966 30.536 183.335 30.536V34.536C185.331 34.536 186.915 33.6082 187.931 32.1775C188.897 30.8165 189.295 29.0971 189.295 27.424H185.295Z" fill="#02559E"/>
</svg>
