<svg width="337" height="96" viewBox="0 0 337 96" fill="none" xmlns="http://www.w3.org/2000/svg">
<path d="M2.47192 18.4439C3.11162 15.9091 4.92009 13.9333 7.41893 13.165C27.3857 7.0254 94.0307 8.24376 114.234 13.1209C117.305 13.8622 119.418 16.2719 119.967 19.383C120.768 23.9256 121.662 32.3384 121.545 47.0198C121.447 59.2239 120.834 67.8926 120.21 73.6563C119.59 79.3874 115.193 83.728 109.467 84.3986C81.5608 87.6671 35.9207 85.9326 12.7361 83.9147C7.19019 83.432 2.65161 79.6538 1.78825 74.1543C0.881065 68.3756 -1.88851e-06 59.5404 0 47.0198C2.36918e-06 31.3124 1.38664 22.7444 2.47192 18.4439Z" fill="#41407C"/>
<path d="M71.5091 61.4004C71.5091 67.3842 66.6583 72.235 60.6745 72.235C54.6907 72.235 49.8398 67.3842 49.8398 61.4004C49.8398 61.4004 54.6907 61.4004 60.6745 61.4004C66.6583 61.4004 71.5091 61.4004 71.5091 61.4004Z" fill="white"/>
<path d="M36.0498 45.9055C36.0498 54.5535 32.8747 59.8243 28.958 59.8243C25.0413 59.8243 21.8662 54.5535 21.8662 45.9055C21.8662 37.2575 25.0413 32.6392 28.958 32.6392C32.8747 32.6392 36.0498 37.2575 36.0498 45.9055Z" fill="white"/>
<path d="M99.8759 47.4817C99.8759 56.1297 96.7008 61.4005 92.7842 61.4005C88.8675 61.4005 85.6924 56.1297 85.6924 47.4817C85.6924 38.8336 88.8675 34.2153 92.7842 34.2153C96.7008 34.2153 99.8759 38.8336 99.8759 47.4817Z" fill="white"/>
<path d="M166.84 70.448C163.725 70.448 160.909 69.9147 158.392 68.848C155.917 67.7813 153.955 66.2453 152.504 64.24C151.053 62.2347 150.307 59.8667 150.264 57.136H159.864C159.992 58.9707 160.632 60.4213 161.784 61.488C162.979 62.5547 164.6 63.088 166.648 63.088C168.739 63.088 170.381 62.5973 171.576 61.616C172.771 60.592 173.368 59.2693 173.368 57.648C173.368 56.3253 172.963 55.2373 172.152 54.384C171.341 53.5307 170.317 52.8693 169.08 52.4C167.885 51.888 166.221 51.3333 164.088 50.736C161.187 49.8827 158.819 49.0507 156.984 48.24C155.192 47.3867 153.635 46.128 152.312 44.464C151.032 42.7573 150.392 40.496 150.392 37.68C150.392 35.0347 151.053 32.7307 152.376 30.768C153.699 28.8053 155.555 27.312 157.944 26.288C160.333 25.2213 163.064 24.688 166.136 24.688C170.744 24.688 174.477 25.8187 177.336 28.08C180.237 30.2987 181.837 33.4133 182.136 37.424H172.28C172.195 35.888 171.533 34.6293 170.296 33.648C169.101 32.624 167.501 32.112 165.496 32.112C163.747 32.112 162.339 32.56 161.272 33.456C160.248 34.352 159.736 35.6533 159.736 37.36C159.736 38.5547 160.12 39.5573 160.888 40.368C161.699 41.136 162.68 41.776 163.832 42.288C165.027 42.7573 166.691 43.312 168.824 43.952C171.725 44.8053 174.093 45.6587 175.928 46.512C177.763 47.3653 179.341 48.6453 180.664 50.352C181.987 52.0587 182.648 54.2987 182.648 57.072C182.648 59.4613 182.029 61.68 180.792 63.728C179.555 65.776 177.741 67.4187 175.352 68.656C172.963 69.8507 170.125 70.448 166.84 70.448ZM194.96 30.32C193.381 30.32 192.059 29.8293 190.992 28.848C189.968 27.824 189.456 26.5653 189.456 25.072C189.456 23.5787 189.968 22.3413 190.992 21.36C192.059 20.336 193.381 19.824 194.96 19.824C196.539 19.824 197.84 20.336 198.864 21.36C199.931 22.3413 200.464 23.5787 200.464 25.072C200.464 26.5653 199.931 27.824 198.864 28.848C197.84 29.8293 196.539 30.32 194.96 30.32ZM199.376 34.544V70H190.416V34.544H199.376ZM246.437 70H237.477L217.189 39.344V70H208.229V25.264H217.189L237.477 55.984V25.264H246.437V70ZM252.987 52.144C252.987 48.56 253.691 45.3813 255.099 42.608C256.55 39.8347 258.491 37.7013 260.923 36.208C263.398 34.7147 266.15 33.968 269.179 33.968C271.824 33.968 274.128 34.5013 276.091 35.568C278.096 36.6347 279.696 37.9787 280.891 39.6V34.544H289.915V70H280.891V64.816C279.739 66.48 278.139 67.8667 276.091 68.976C274.086 70.0427 271.76 70.576 269.115 70.576C266.128 70.576 263.398 69.808 260.923 68.272C258.491 66.736 256.55 64.5813 255.099 61.808C253.691 58.992 252.987 55.7707 252.987 52.144ZM280.891 52.272C280.891 50.096 280.464 48.24 279.611 46.704C278.758 45.1253 277.606 43.9307 276.155 43.12C274.704 42.2667 273.147 41.84 271.483 41.84C269.819 41.84 268.283 42.2453 266.875 43.056C265.467 43.8667 264.315 45.0613 263.419 46.64C262.566 48.176 262.139 50.0107 262.139 52.144C262.139 54.2773 262.566 56.1547 263.419 57.776C264.315 59.3547 265.467 60.5707 266.875 61.424C268.326 62.2773 269.862 62.704 271.483 62.704C273.147 62.704 274.704 62.2987 276.155 61.488C277.606 60.6347 278.758 59.44 279.611 57.904C280.464 56.3253 280.891 54.448 280.891 52.272ZM332.138 34.544V70H323.114V65.52C321.962 67.056 320.447 68.272 318.57 69.168C316.735 70.0213 314.73 70.448 312.554 70.448C309.781 70.448 307.327 69.872 305.194 68.72C303.061 67.5253 301.375 65.7973 300.138 63.536C298.943 61.232 298.346 58.5013 298.346 55.344V34.544H307.306V54.064C307.306 56.88 308.01 59.056 309.418 60.592C310.826 62.0853 312.746 62.832 315.178 62.832C317.653 62.832 319.594 62.0853 321.002 60.592C322.41 59.056 323.114 56.88 323.114 54.064V34.544H332.138Z" fill="white"/>
</svg>
