<svg width="189" height="51" viewBox="0 0 189 51" fill="none" xmlns="http://www.w3.org/2000/svg">
<path d="M1.35771 10.4516C1.70907 9.01516 2.70238 7.89556 4.07488 7.46015C15.0417 3.98106 51.6467 4.67147 62.7434 7.43519C64.4301 7.85528 65.591 9.22074 65.8923 10.9837C66.3323 13.5579 66.8235 18.3251 66.759 26.6445C66.7054 33.5602 66.3684 38.4725 66.0259 41.7386C65.6853 44.9862 63.27 47.4459 60.1253 47.8259C44.7976 49.678 19.7296 48.6951 6.99535 47.5517C3.94924 47.2782 1.45641 45.1372 0.982201 42.0208C0.483928 38.7462 -1.03727e-06 33.7396 0 26.6445C1.30128e-06 17.7437 0.76162 12.8885 1.35771 10.4516Z" fill="#41407C"/>
<path d="M39.2765 34.7935C39.2765 38.1843 36.6121 40.9332 33.3255 40.9332C30.0389 40.9332 27.3745 38.1843 27.3745 34.7935C27.3745 34.7935 30.0389 34.7935 33.3255 34.7935C36.6121 34.7935 39.2765 34.7935 39.2765 34.7935Z" fill="white"/>
<path d="M19.8006 26.0133C19.8006 30.9138 18.0567 33.9006 15.9054 33.9006C13.7542 33.9006 12.0103 30.9138 12.0103 26.0133C12.0103 21.1127 13.7542 18.4957 15.9054 18.4957C18.0567 18.4957 19.8006 21.1127 19.8006 26.0133Z" fill="white"/>
<path d="M54.8573 26.9062C54.8573 31.8067 53.1133 34.7935 50.9621 34.7935C48.8108 34.7935 47.0669 31.8067 47.0669 26.9062C47.0669 22.0057 48.8108 19.3886 50.9621 19.3886C53.1133 19.3886 54.8573 22.0057 54.8573 26.9062Z" fill="white"/>
<path d="M92.016 37.468C97.164 37.468 101.268 34.3 101.268 29.944C101.268 24.436 96.516 23.14 92.916 22.528C90.288 22.06 88.272 21.556 88.272 19.612C88.272 18.136 89.64 17.2 91.62 17.2C94.068 17.2 95.652 18.28 96.444 19.828L100.836 17.632C99.288 14.176 95.832 12.34 91.836 12.34C86.832 12.34 83.016 15.58 83.016 19.828C83.016 25.3 87.948 26.596 91.584 27.208C94.104 27.64 96.012 27.964 96.012 29.98C96.012 31.708 94.284 32.644 92.016 32.644C89.496 32.644 87.804 31.744 87.012 29.98L82.62 32.176C84.168 35.632 87.66 37.468 92.016 37.468ZM108.338 16.516C110.066 16.516 111.47 15.112 111.47 13.348C111.47 11.62 110.066 10.18 108.338 10.18C106.61 10.18 105.17 11.62 105.17 13.348C105.17 15.112 106.61 16.516 108.338 16.516ZM105.782 19.18V37H110.894V19.18H105.782ZM121.722 37V19.072L131.298 35.596C132.09 36.928 133.422 37.468 134.97 37.468C136.878 37.468 138.642 36.1 138.642 33.688V12.772H133.674V30.592L124.098 14.176C123.306 12.844 122.046 12.268 120.462 12.268C118.482 12.268 116.718 13.672 116.718 16.084V37H121.722ZM151.76 37.468C154.208 37.468 156.152 36.496 157.412 34.912V37H162.272V28.036C162.272 22.672 158.168 18.64 152.588 18.64C147.116 18.64 142.94 22.924 142.94 28.036C142.94 33.22 146.576 37.468 151.76 37.468ZM152.588 32.68C149.96 32.68 148.052 30.592 148.052 28.072C148.052 25.552 149.96 23.464 152.588 23.464C155.216 23.464 157.16 25.552 157.16 28.072C157.16 30.592 155.216 32.68 152.588 32.68ZM175.335 32.536C172.707 32.536 171.411 30.196 171.411 27.46V19.18H166.299V28.036C166.299 33.256 169.395 37.468 175.335 37.468C181.311 37.468 184.407 33.256 184.407 28.036V19.18H179.295V27.424C179.295 30.196 177.963 32.536 175.335 32.536Z" fill="white"/>
</svg>
