<svg width="1917" height="673" viewBox="0 0 1917 673" fill="none" xmlns="http://www.w3.org/2000/svg">
<g clip-path="url(#clip0)">
<path d="M582.13 1837.9L1424.04 1828.18L1937 1822.25L1918.76 258.2C1902.99 255.021 1875.7 241.614 1865.59 251.061C1846.39 268.991 1825.42 276.882 1804.43 268.288C1792.86 263.555 1794.09 258.75 1781.56 248.474C1775.91 243.831 1762.2 249.797 1754.52 243.195C1742.21 232.609 1740.58 222.769 1740.58 222.769C1740.58 222.769 1739.87 222.117 1744.93 222.718C1776.09 226.425 1773.77 196.206 1795.75 195.952C1810.76 195.779 1817.18 211.253 1829.31 218.693C1838.07 224.071 1849.05 226.598 1849.05 226.598C1849.05 226.598 1840.22 240.425 1821.91 237.333C1813.82 235.967 1811.98 244.31 1804.13 242.621C1796.27 240.933 1792.35 235.165 1793.5 228.765C1794.66 222.365 1800.35 222.078 1802.14 223.836C1803.93 225.595 1802.19 228.665 1802.19 228.665C1802.19 228.665 1801 224.669 1798.51 227.182C1796.01 229.696 1797.84 239.13 1805.96 237.517C1810.21 236.672 1814.53 231.997 1820.12 233.033C1835.6 235.904 1842.4 228.757 1840.61 228.221C1811.13 219.412 1813.86 200.572 1797.11 200.766C1783.23 200.926 1781.53 209.987 1768.42 222.447C1760.03 230.423 1751.41 226.226 1746.28 226.769C1746.34 231.852 1757.7 243.464 1769.95 241.237C1789.27 237.724 1789.51 252.016 1804.33 260.156C1817.47 267.375 1843.5 265.502 1861.63 247.548C1876.69 232.633 1891.46 253.512 1903.97 239.688C1912.88 229.84 1918.39 226.301 1918.39 226.301C1918.39 226.301 1899.08 231.091 1884.29 213.345C1874.14 201.159 1860.05 205.706 1846.03 197.723C1823.95 185.148 1819.43 173.74 1803.31 172.422C1783.89 170.835 1777.51 180.405 1766.29 189.176C1755.08 197.947 1760.75 198.708 1737.25 198.98C1713.75 199.251 1713.86 226.325 1678.59 224.696C1678.59 224.696 1678.06 179.776 1619.33 186.338C1560.61 192.899 1560.1 128.307 1511.5 135.77C1462.89 143.232 1468.3 135.636 1450.23 118.603C1429.84 99.3778 1406.68 98.8284 1392.03 114.298C1382.49 124.363 1379.66 147.249 1386.68 159.612C1391.16 167.506 1400 185.932 1425.31 178.624C1446.77 166.548 1425.86 136.08 1417.95 159.251C1417.95 159.251 1411.68 156.732 1414.47 149.335C1416.87 142.972 1424.03 140.853 1429.29 142.376C1434.56 143.899 1440.88 149.03 1441.04 162.378C1441.19 162.963 1462.03 159.873 1478.88 182.531C1485.76 191.79 1511.78 181.118 1530.97 185.549C1552.43 190.505 1573.1 216.965 1573.1 216.965C1573.1 216.965 1553.07 213.277 1538.53 222.569C1531.93 226.794 1515.92 252.482 1497.92 267.385C1487.5 276.007 1469.05 281.42 1452.86 273.563C1429.64 262.292 1429.93 251.842 1411.99 242.584C1397.84 235.281 1372.93 240.321 1372.93 240.321C1372.93 240.321 1375.88 212.682 1403.66 212.361C1424.44 212.121 1425.15 214.778 1443.81 199C1450.86 193.036 1467.88 193.132 1472.67 208.17C1478.55 226.656 1451.51 229.909 1451.51 229.909C1451.51 229.909 1469.85 221.965 1465.99 211.641C1462.13 201.317 1451.39 201.536 1443.88 205.561C1439.92 207.686 1430.22 222.035 1410.04 218.849C1387.33 215.265 1380.62 233.896 1380.62 233.896C1380.62 233.896 1402.46 231.456 1408.74 233.571C1430.6 240.94 1434.03 260.269 1458.04 267.846C1473.57 272.744 1485.21 268.43 1493.46 263.138C1511.36 249.808 1521.01 231.595 1536.79 217.385C1549.69 209.399 1562.98 213.009 1562.98 213.009C1562.98 213.009 1547.43 193.355 1528.51 190.781C1502.39 187.228 1485.36 198.52 1475.37 188.001C1457.95 169.656 1441.28 169.408 1441.13 170.296C1440.35 174.942 1436.37 181.36 1429.79 185.134C1401.65 201.298 1386.88 169.418 1372.09 169.057C1358.84 168.734 1351.53 177.487 1346.87 183.603C1331.57 203.691 1333.13 206.841 1304.14 213.511C1263.26 222.917 1256.58 232.877 1249.68 244.46C1236.79 266.104 1221.17 261.097 1214.76 251.66C1208.35 242.222 1205.16 217.204 1170.48 224.213C1146.43 229.075 1149.83 198.362 1125.67 185.891C1101.51 173.419 1096.45 209.904 1069.87 205.297C1051.08 202.041 1046.99 184.72 1046.99 184.72C1037.84 184.826 1027.21 187.518 1018.37 202.08C1008.28 218.717 985.274 207.077 966.536 208.27C947.797 209.464 929.303 231.575 929.303 231.575C959.613 222.584 976.327 263.506 999.374 278.802C1031.99 300.45 1061.6 261.054 1061.6 261.054C1078.5 240.018 1108.78 247.801 1108.78 247.801C1095.7 224.061 1081.39 232.614 1071.56 232.727C1060.91 232.85 1054.39 230.892 1040.53 219.107C1035.41 214.759 1024.34 218.023 1023.7 226.926C1022.52 243.206 1038.43 235.397 1038.43 235.397C1038.43 235.397 1031.51 249.591 1021.07 237.377C1011.79 226.512 1021.65 208.396 1035.63 211.284C1052.66 214.802 1051.65 231.941 1078.34 226.295C1110.33 219.529 1114.63 251.599 1114.78 252.781C1114.39 252.787 1114 252.796 1114.02 252.803C1111.39 252.843 1104.65 252.932 1088.95 253.113C1069.47 253.338 1069.67 266.779 1039.93 285.958C1003.84 309.237 973.497 256.227 958.264 244.203C945.125 233.833 931.152 234.407 924.75 233.407C922.094 232.992 929.137 221.877 948.243 208.482C967.349 195.087 1006.1 213.49 1012.64 200.367C1021.55 182.473 1046.91 177.859 1046.91 177.859C1046.91 177.859 1048.15 166.915 1054.95 161.245C1064.91 152.929 1078.06 163.012 1067.9 173.804C1067.9 173.804 1070.81 168.433 1066.44 166.45C1059.31 163.215 1054.2 173.784 1053.77 177.78C1051.89 195.084 1072.76 198.401 1083 193.708C1093.23 189.015 1109.49 162.902 1098.38 139.902C1085.64 113.537 1048.97 119.124 1025.08 149.137C1011.07 166.732 989.661 151.833 964.316 155.176C936.583 158.834 933.769 202.789 912.202 196.699C888.966 190.137 873.365 204.343 860.481 213.054C836.767 229.086 817.602 217.944 808.943 216.199C793.173 213.02 780.521 204.648 770.404 214.095C751.204 232.025 730.234 239.916 709.244 231.322C697.682 226.589 698.905 221.784 686.383 211.508C680.626 207.452 667.017 212.831 659.34 206.229C647.031 195.643 645.393 185.803 645.393 185.803C645.393 185.803 644.686 185.151 649.745 185.752C680.904 189.459 678.593 159.24 700.567 158.986C715.579 158.813 722.002 174.287 734.124 181.727C742.885 187.105 753.868 189.633 753.868 189.633C753.868 189.633 745.039 203.459 726.725 200.367C718.639 199.001 716.797 207.344 708.944 205.656C701.091 203.967 697.169 198.199 698.323 191.799C699.476 185.4 705.164 185.112 706.955 186.871C708.746 188.629 707.011 191.699 707.011 191.699C707.011 191.699 705.821 187.703 703.325 190.217C700.828 192.73 702.656 202.165 710.774 200.551C715.027 199.706 719.352 195.032 724.935 196.067C740.417 198.938 747.22 191.791 745.426 191.255C715.948 182.446 718.681 163.606 701.928 163.8C688.052 163.96 686.353 173.021 673.242 185.481C664.849 193.457 656.231 189.26 651.098 189.803C651.157 194.886 662.518 206.498 674.766 204.271C694.091 200.758 694.333 215.05 709.149 223.19C722.288 230.409 748.322 228.537 766.447 210.583C781.504 195.667 796.278 216.546 808.785 202.723C817.696 192.874 823.208 189.335 823.208 189.335C823.208 189.335 803.895 194.125 789.112 176.379C777.902 162.922 764.871 168.74 750.852 160.757C728.771 148.183 723.746 136.712 708.126 135.456C685.475 133.636 682.326 143.439 671.113 152.21C659.901 160.981 665.567 161.742 642.07 162.014C618.573 162.285 618.683 190.341 583.414 188.712C515.874 185.593 524.181 130.682 475.572 138.144C426.964 145.606 432.373 138.01 414.308 120.977C393.919 101.752 370.76 101.202 356.102 116.672C346.565 126.737 343.739 149.623 350.754 161.986C355.232 169.88 364.074 188.307 389.386 180.998C410.849 168.922 389.939 138.454 382.023 161.625C382.023 161.625 375.759 159.106 378.55 151.709C380.95 145.346 388.105 143.227 393.37 144.75C398.635 146.273 404.956 151.404 405.111 164.752C405.266 165.337 426.109 162.247 442.954 184.905C449.838 194.164 475.855 183.493 495.045 187.923C516.512 192.879 537.18 219.339 537.18 219.339C537.18 219.339 517.147 215.651 502.614 224.943C496.004 229.168 479.997 254.856 461.994 269.76C451.58 278.381 433.127 283.795 416.939 275.937C393.72 264.666 394.003 254.216 376.069 244.959C361.921 237.655 337.002 242.695 337.002 242.695C337.002 242.695 339.959 215.057 367.74 214.736C388.517 214.495 389.226 217.152 407.884 201.375C414.938 195.41 431.961 195.507 436.747 210.544C442.629 229.03 415.591 232.284 415.591 232.284C415.591 232.284 433.931 224.339 430.07 214.015C426.209 203.691 415.469 203.91 407.961 207.935C403.997 210.06 394.3 224.409 374.113 221.224C351.402 217.639 344.693 236.271 344.693 236.271C344.693 236.271 366.539 233.83 372.815 235.946C394.676 243.314 398.104 262.643 422.12 270.22C437.642 275.118 449.282 270.805 457.537 265.512C475.432 252.182 485.088 233.969 500.874 219.759C513.767 211.773 527.06 215.383 527.06 215.383C527.06 215.383 511.509 195.729 492.588 193.155C466.47 189.603 449.437 200.894 439.45 190.376C422.031 172.03 405.352 171.782 405.204 172.67C404.426 177.316 400.442 183.734 393.869 187.508C365.722 203.672 350.96 171.792 336.171 171.431C322.916 171.108 315.602 179.861 310.944 185.978C295.646 206.066 297.206 209.215 268.216 215.886C227.339 225.291 235.933 227.828 213.658 239.371C194.389 247.726 185.307 233.926 175.19 243.373C155.99 261.303 135.02 269.194 114.03 260.601C102.468 255.867 103.692 251.062 91.1693 240.786C87.8571 236.046 71.8037 242.11 64.1262 235.507C51.8176 224.922 50.1799 215.081 50.1799 215.081C50.1799 215.081 49.4726 214.429 54.5311 215.031C85.6901 218.737 83.3796 188.519 105.353 188.265C120.365 188.091 126.788 203.566 138.91 211.006C147.671 216.383 158.654 218.911 158.654 218.911C158.654 218.911 149.826 232.737 131.512 229.645C123.425 228.28 121.584 236.622 113.731 234.934C105.878 233.245 101.955 227.477 103.109 221.078C104.263 214.678 109.951 214.39 111.742 216.149C113.532 217.907 111.798 220.977 111.798 220.977C111.798 220.977 110.608 216.981 108.111 219.495C105.614 222.008 107.443 231.443 115.56 229.829C119.813 228.984 124.139 224.31 129.721 225.345C145.204 228.216 152.007 221.07 150.212 220.533C120.735 211.724 123.467 192.884 106.715 193.078C92.8385 193.238 91.1397 202.299 78.0282 214.759C69.635 222.735 61.0173 218.538 55.8839 219.082C55.9432 224.164 67.3047 235.776 79.5528 233.55C98.8776 230.036 99.119 244.329 113.935 252.469C127.075 259.687 153.108 257.815 171.233 239.861C186.291 224.945 201.065 245.824 213.572 232.001C222.483 222.153 227.997 218.613 227.997 218.613C227.997 218.613 208.681 223.404 193.899 205.658C182.689 192.2 169.657 198.018 155.638 190.035C133.558 177.461 128.533 165.99 112.912 164.735C90.2611 162.914 87.1119 172.717 75.8993 181.488C64.6866 190.259 70.3525 191.02 46.8557 191.292C23.359 191.563 23.4691 219.619 -11.8 217.99L-11.7593 1841.77L246.919 1841.78L582.13 1837.9Z" fill="url(#paint0_linear)" fill-opacity="0.5"/>
<path d="M360.534 2151.18L1337.32 2139.9L1932.45 2133.02L1912.43 416.168C1894.14 412.689 1862.49 397.992 1850.74 408.37C1828.45 428.066 1804.12 436.743 1779.77 427.325C1766.36 422.137 1767.79 416.861 1753.26 405.591C1746.7 400.498 1730.8 407.057 1721.89 399.815C1707.62 388.204 1705.73 377.403 1705.73 377.403C1705.73 377.403 1704.91 376.688 1710.78 377.345C1746.92 381.391 1744.26 348.222 1769.76 347.927C1787.18 347.726 1794.62 364.708 1808.67 372.866C1818.84 378.762 1831.58 381.529 1831.58 381.529C1831.58 381.529 1821.32 396.713 1800.08 393.332C1790.7 391.839 1788.55 400.998 1779.44 399.15C1770.33 397.302 1765.79 390.974 1767.13 383.948C1768.47 376.922 1775.07 376.602 1777.15 378.531C1779.23 380.46 1777.21 383.831 1777.21 383.831C1777.21 383.831 1775.83 379.446 1772.94 382.207C1770.04 384.968 1772.15 395.323 1781.57 393.546C1786.51 392.615 1791.53 387.481 1798 388.613C1815.96 391.753 1823.86 383.904 1821.78 383.316C1787.59 373.668 1790.77 352.985 1771.34 353.21C1755.24 353.396 1753.26 363.343 1738.04 377.03C1728.29 385.791 1718.3 381.191 1712.34 381.791C1712.41 387.37 1725.58 400.109 1739.79 397.655C1762.22 393.785 1762.49 409.474 1779.67 418.398C1794.91 426.313 1825.11 424.238 1846.15 404.517C1863.64 388.134 1880.76 411.041 1895.28 395.859C1905.63 385.042 1912.02 381.152 1912.02 381.152C1912.02 381.152 1889.61 386.425 1872.48 366.955C1860.71 353.586 1844.36 358.588 1828.1 349.834C1802.49 336.047 1797.24 323.528 1778.55 322.093C1756.02 320.364 1748.61 330.874 1735.59 340.51C1722.58 350.146 1729.15 350.978 1701.89 351.293C1674.63 351.608 1674.73 381.326 1633.81 379.564C1633.81 379.564 1633.23 330.256 1565.09 337.501C1496.95 344.746 1496.42 273.843 1440.02 282.07C1383.61 290.296 1389.9 281.954 1368.95 263.27C1345.31 242.181 1318.44 241.595 1301.42 258.586C1290.35 269.642 1287.06 294.765 1295.18 308.332C1300.37 316.993 1310.62 337.214 1339.99 329.174C1364.9 315.902 1340.66 282.473 1331.46 307.913C1331.46 307.913 1324.2 305.152 1327.44 297.031C1330.23 290.044 1338.53 287.713 1344.64 289.381C1350.75 291.049 1358.08 296.677 1358.25 311.329C1358.43 311.971 1382.61 308.563 1402.14 333.423C1410.12 343.582 1440.31 331.849 1462.57 336.699C1487.47 342.123 1511.43 371.154 1511.43 371.154C1511.43 371.154 1488.19 367.12 1471.32 377.33C1463.65 381.973 1445.06 410.182 1424.17 426.555C1412.08 436.026 1390.66 441.982 1371.89 433.368C1344.96 421.013 1345.29 409.542 1324.49 399.393C1308.09 391.386 1279.17 396.936 1279.17 396.936C1279.17 396.936 1282.62 366.595 1314.85 366.223C1338.96 365.944 1339.78 368.86 1361.44 351.527C1369.63 344.975 1389.38 345.069 1394.92 361.572C1401.73 381.859 1370.36 385.451 1370.36 385.451C1370.36 385.451 1391.64 376.717 1387.17 365.387C1382.7 354.057 1370.24 354.306 1361.52 358.729C1356.92 361.064 1345.66 376.823 1322.24 373.34C1295.9 369.422 1288.1 389.879 1288.1 389.879C1288.1 389.879 1313.45 387.184 1320.73 389.501C1346.08 397.574 1350.05 418.789 1377.9 427.09C1395.91 432.454 1409.42 427.711 1419 421.896C1439.77 407.25 1450.98 387.251 1469.31 371.641C1484.27 362.865 1499.69 366.819 1499.69 366.819C1499.69 366.819 1481.66 345.256 1459.71 342.444C1429.41 338.563 1409.65 350.97 1398.07 339.431C1377.87 319.305 1358.52 319.045 1358.35 320.02C1357.44 325.121 1352.82 332.168 1345.19 336.316C1312.52 354.08 1295.42 319.096 1278.26 318.711C1262.88 318.365 1254.39 327.978 1248.98 334.696C1231.22 356.758 1233.02 360.214 1199.39 367.557C1151.95 377.911 1144.2 388.849 1136.18 401.569C1121.21 425.337 1103.1 419.852 1095.66 409.497C1088.23 399.142 1084.55 371.682 1044.31 379.401C1016.4 384.755 1020.36 351.039 992.346 337.366C964.328 323.694 958.427 363.747 927.591 358.709C905.793 355.148 901.061 336.139 901.061 336.139C890.45 336.261 878.117 339.224 867.853 355.215C856.127 373.485 829.446 360.724 807.705 362.048C785.964 363.371 764.491 387.657 764.491 387.657C799.664 377.764 819.025 422.673 845.752 439.447C883.578 463.186 917.957 419.92 917.957 419.92C937.587 396.816 972.709 405.338 972.709 405.338C957.547 379.288 940.941 388.686 929.534 388.818C917.185 388.961 909.612 386.817 893.542 373.89C887.613 369.12 874.758 372.712 874.008 382.485C872.637 400.356 891.097 391.773 891.097 391.773C891.097 391.773 883.054 407.359 870.958 393.959C860.198 382.039 871.648 362.146 887.87 365.306C907.625 369.155 906.441 387.969 937.411 381.752C974.525 374.302 979.496 409.503 979.666 410.801C979.214 410.807 978.755 410.817 978.78 410.825C975.731 410.87 967.906 410.973 949.693 411.184C927.1 411.445 927.317 426.199 892.805 447.273C850.917 472.852 815.747 414.685 798.082 401.497C782.847 390.123 766.635 390.764 759.208 389.671C756.127 389.217 764.306 377.011 786.482 362.293C808.658 347.576 853.603 367.749 861.198 353.339C871.555 333.69 900.974 328.607 900.974 328.607C900.974 328.607 902.425 316.593 910.312 310.364C921.88 301.228 937.132 312.286 925.331 324.14C925.331 324.14 928.711 318.242 923.645 316.069C915.379 312.523 909.439 324.128 908.932 328.515C906.737 347.512 930.952 351.138 942.831 345.979C954.71 340.82 973.591 312.144 960.715 286.904C945.955 257.973 903.406 264.131 875.666 297.094C859.403 316.418 834.576 300.08 805.168 303.767C772.991 307.802 769.694 356.054 744.676 349.384C717.723 342.199 699.612 357.804 684.658 367.376C657.134 384.991 634.907 372.774 624.862 370.865C606.568 367.386 591.895 358.205 580.151 368.583C557.862 388.279 533.527 396.956 509.181 387.538C495.77 382.35 497.193 377.075 482.672 365.804C475.996 361.356 460.204 367.271 451.301 360.028C437.029 348.418 435.135 337.617 435.135 337.617C435.135 337.617 434.315 336.902 440.184 337.558C476.331 341.605 473.673 308.435 499.167 308.14C516.583 307.939 524.024 324.921 538.083 333.079C548.243 338.976 560.984 341.742 560.984 341.742C560.984 341.742 550.731 356.926 529.485 353.545C520.104 352.052 517.962 361.211 508.852 359.363C499.743 357.516 495.196 351.187 496.539 344.161C497.882 337.135 504.482 336.815 506.558 338.744C508.634 340.673 506.62 344.045 506.62 344.045C506.62 344.045 505.242 339.659 502.343 342.42C499.445 345.181 501.56 355.536 510.978 353.759C515.913 352.828 520.935 347.694 527.411 348.826C545.372 351.967 553.27 344.117 551.188 343.53C516.995 333.881 520.179 313.199 500.743 313.423C484.643 313.609 482.666 323.557 467.445 337.243C457.702 346.005 447.707 341.404 441.751 342.004C441.816 347.583 454.988 360.322 469.2 357.869C491.623 353.998 491.893 369.687 509.077 378.611C524.316 386.526 554.521 384.452 575.562 364.73C593.043 348.347 610.169 371.255 624.689 356.072C635.034 345.255 641.432 341.366 641.432 341.366C641.432 341.366 619.021 346.638 601.884 327.169C588.888 312.405 573.764 318.801 557.505 310.047C531.897 296.261 526.075 283.673 507.954 282.306C481.675 280.324 478.015 291.087 465 300.723C451.985 310.36 458.558 311.191 431.297 311.506C404.036 311.821 404.143 342.617 363.225 340.855C284.869 337.48 294.546 277.197 238.146 285.424C181.745 293.65 188.027 285.308 167.08 266.624C143.439 245.535 116.57 244.949 99.5533 261.94C88.4804 272.996 85.1856 298.12 93.3147 311.686C98.5048 320.348 108.749 340.568 138.121 332.528C163.032 319.256 138.794 285.827 129.594 311.267C129.594 311.267 122.328 308.506 125.571 300.385C128.36 293.398 136.663 291.067 142.771 292.735C148.878 294.403 156.207 300.031 156.378 314.683C156.557 315.325 180.741 311.918 200.268 336.777C208.249 346.936 238.44 335.203 260.702 340.053C285.604 345.477 309.563 374.508 309.563 374.508C309.563 374.508 286.323 370.474 269.455 380.684C261.784 385.327 243.194 413.537 222.297 429.909C210.208 439.381 188.795 445.336 170.02 436.723C143.089 424.367 143.425 412.896 122.625 402.747C106.216 394.74 77.3016 400.29 77.3016 400.29C77.3016 400.29 80.7519 369.949 112.984 369.577C137.089 369.298 137.91 372.214 159.568 354.882C167.756 348.329 187.507 348.423 193.048 364.926C199.859 385.214 168.487 388.805 168.487 388.805C168.487 388.805 189.771 380.071 185.299 368.741C180.827 357.411 168.367 357.66 159.652 362.083C155.053 364.418 143.791 380.177 120.372 376.694C94.0269 372.776 86.2294 393.233 86.2294 393.233C86.2294 393.233 111.577 390.538 118.856 392.856C144.213 400.928 148.176 422.143 176.034 430.444C194.04 435.809 207.547 431.065 217.128 425.25C237.9 410.605 249.115 390.605 267.441 374.995C282.406 366.22 297.824 370.173 297.824 370.173C297.824 370.173 279.796 348.61 257.847 345.798C227.548 341.917 207.778 354.325 196.198 342.785C176.002 322.66 156.652 322.399 156.479 323.374C155.574 328.475 150.946 335.523 143.318 339.671C110.65 357.434 93.5475 322.45 76.3896 322.065C61.0106 321.719 52.5191 331.332 47.1102 338.05C29.3471 360.112 23.4425 362.638 -10.1957 369.981L-10.2455 423.481L-11.8526 2151.5L360.534 2151.18Z" fill="url(#paint1_linear)" fill-opacity="0.6"/>
<path d="M865.041 793.373V542.157C852.075 511.613 802.78 480.419 769.019 480.419C655.428 480.419 694.585 399.663 612.743 410.735C530.901 421.807 540.142 409.719 510.114 382.054C476.222 350.829 437.31 349.518 412.372 374.067C396.144 390.041 390.947 426.709 402.494 446.676C409.866 459.425 424.366 489.155 467.05 477.898C503.36 458.919 468.814 409.646 455.056 446.676C455.056 446.676 444.578 442.518 449.412 430.702C453.571 420.537 465.639 417.27 474.459 419.811C483.278 422.352 493.799 430.702 493.799 452.122C494.048 453.064 529.137 448.491 557.006 485.159C568.395 500.143 612.326 483.503 644.492 490.967C680.474 499.317 714.693 542.157 714.693 542.157C714.693 542.157 681.095 535.868 656.486 550.507C645.295 557.164 617.893 598.084 587.344 621.663C569.672 635.304 538.552 643.647 511.499 630.739C472.695 612.224 473.375 595.463 443.415 580.276C419.78 568.296 377.8 575.92 377.8 575.92C377.8 575.92 383.311 531.628 430.01 531.628C464.934 531.628 466.074 535.905 497.741 510.935C509.713 501.495 538.322 501.966 546.07 526.183C555.595 555.952 510.088 560.672 510.088 560.672C510.088 560.672 541.068 548.265 534.782 531.628C528.495 514.992 510.44 515.144 497.741 521.463C491.039 524.798 474.459 547.643 440.593 542.157C402.494 535.985 390.853 565.754 390.853 565.754C390.853 565.754 427.617 562.244 438.124 565.754C474.72 577.982 480.103 609.06 520.318 621.663C546.311 629.809 565.957 623.104 579.936 614.765C610.274 593.709 626.854 564.665 653.664 542.157C675.491 529.583 697.76 535.622 697.76 535.622C697.76 535.622 672.008 503.798 640.259 499.317C596.432 493.133 567.589 510.935 551.009 493.872C522.092 464.113 494.066 463.406 493.799 464.828C492.401 472.268 485.579 482.492 474.459 488.426C426.835 513.839 402.649 462.414 377.8 461.561C355.528 460.796 343.065 474.704 335.116 484.433C309.011 516.381 311.57 521.463 262.717 531.628C193.831 545.962 195.067 591.893 195.067 591.893V1110.87L352.238 1224L510.088 1197.42H742.081L865.041 1110.87V793.373Z" fill="url(#paint2_linear)" fill-opacity="0.6"/>
</g>
<defs>
<linearGradient id="paint0_linear" x1="873.075" y1="88" x2="1385.77" y2="559.273" gradientUnits="userSpaceOnUse">
<stop stop-color="#C4BAFF"/>
<stop offset="1" stop-color="#B9B5FF" stop-opacity="0.31"/>
</linearGradient>
<linearGradient id="paint1_linear" x1="938.126" y1="240.574" x2="1406.1" y2="636.847" gradientUnits="userSpaceOnUse">
<stop stop-color="#D8C2FF"/>
<stop offset="1" stop-color="#CEBEFF" stop-opacity="0.31"/>
</linearGradient>
<linearGradient id="paint2_linear" x1="530.053" y1="357" x2="530.053" y2="1224" gradientUnits="userSpaceOnUse">
<stop stop-color="#ECCAFF"/>
<stop offset="1" stop-color="#E2C6FF" stop-opacity="0"/>
</linearGradient>
<clipPath id="clip0">
<rect width="1917" height="673" fill="white"/>
</clipPath>
</defs>
</svg>
