<svg width="100" height="100" viewBox="0 0 100 100" fill="none" xmlns="http://www.w3.org/2000/svg">
<circle cx="50" cy="50" r="50" transform="rotate(-90 50 50)" fill="#02559E"/>
<path fill-rule="evenodd" clip-rule="evenodd" d="M72.3685 49.5981C72.3685 48.6848 72.2204 47.6334 71.731 46.8733C71.2417 46.1133 71.3085 45.9988 69.6186 44.6871L41.74 25.3567C40.6454 24.8842 39.4143 24.881 38.3175 25.3479C37.2207 25.8148 36.348 26.7136 35.8915 27.8464C35.4349 28.9792 35.4318 30.2533 35.883 31.3884C36.3341 32.5235 37.1794 33.2183 38.297 33.8992L60.5724 49.5981L38.2766 66.101C37.1385 66.9067 36.3137 67.4766 35.8625 68.6118C35.4114 69.7469 35.4144 71.021 35.871 72.1537C36.3276 73.2865 37.2002 74.1852 38.2971 74.6521C39.3939 75.119 40.625 75.1158 41.7196 74.6433L69.6186 54.3065C70.8861 53.432 71.2417 52.8803 71.731 52.1202C72.2204 51.3602 72.3685 50.5114 72.3685 49.5981Z" fill="white"/>
</svg>
