<svg width="76" height="76" viewBox="0 0 76 76" fill="none" xmlns="http://www.w3.org/2000/svg">
<circle cx="38" cy="38" r="38" transform="rotate(-90 38 38)" fill="#5B518F"/>
<path fill-rule="evenodd" clip-rule="evenodd" d="M55 37.6946C55.0001 37.0005 54.8874 36.2014 54.5155 35.6237C54.1436 35.0461 54.1945 34.9591 52.9101 33.9622L31.7224 19.2711C30.8905 18.912 29.9548 18.9096 29.1213 19.2644C28.2877 19.6192 27.6245 20.3024 27.2775 21.1633C26.9305 22.0242 26.9282 22.9925 27.271 23.8552C27.6139 24.7179 28.2563 25.2459 29.1057 25.7634L46.035 37.6946L29.0902 50.2368C28.2252 50.8491 27.5983 51.2822 27.2555 52.1449C26.9126 53.0076 26.9149 53.9759 27.2619 54.8368C27.6089 55.6978 28.2721 56.3808 29.1057 56.7356C29.9393 57.0904 30.8749 57.088 31.7068 56.7289L52.9101 41.2729C53.8734 40.6083 54.1436 40.189 54.5155 39.6114C54.8874 39.0337 55.0001 38.3887 55 37.6946Z" fill="white"/>
</svg>
