<svg width="76" height="76" viewBox="0 0 76 76" fill="none" xmlns="http://www.w3.org/2000/svg">
<circle cx="38" cy="38" r="38" fill="#02559E"/>
<path fill-rule="evenodd" clip-rule="evenodd" d="M38.3054 55C38.9995 55.0001 39.7986 54.8874 40.3763 54.5155C40.9539 54.1436 41.0409 54.1945 42.0378 52.9101L56.7289 31.7224C57.088 30.8905 57.0904 29.9548 56.7356 29.1213C56.3808 28.2877 55.6976 27.6245 54.8367 27.2775C53.9758 26.9305 53.0075 26.9282 52.1448 27.271C51.2821 27.6139 50.7541 28.2563 50.2366 29.1057L38.3054 46.035L25.7632 29.0902C25.1509 28.2252 24.7178 27.5983 23.8551 27.2555C22.9924 26.9126 22.0241 26.9149 21.1632 27.2619C20.3022 27.6089 19.6192 28.2721 19.2644 29.1057C18.9096 29.9393 18.912 30.8749 19.2711 31.7068L34.7271 52.9101C35.3917 53.8734 35.811 54.1436 36.3886 54.5155C36.9663 54.8874 37.6113 55.0001 38.3054 55Z" fill="white"/>
</svg>
