<svg width="100" height="100" viewBox="0 0 100 100" fill="none" xmlns="http://www.w3.org/2000/svg">
<path d="M97.7359 46.2807L6.17827 0.440119C5.46067 0.0807568 4.65463 -0.0632318 3.8572 0.0254911C3.05977 0.114214 2.30495 0.431865 1.68363 0.940197C1.09027 1.43816 0.64739 2.09199 0.404775 2.82818C0.16216 3.56437 0.12943 4.35373 0.310265 5.10752L12.6289 49.9896L0.143797 94.7467C-0.0258905 95.3762 -0.0456982 96.0368 0.0859671 96.6753C0.217632 97.3139 0.497098 97.9126 0.90189 98.4233C1.30668 98.9341 1.82551 99.3425 2.41665 99.6159C3.00779 99.8893 3.65475 100.02 4.30551 99.9975C4.95699 99.9936 5.59846 99.8366 6.17827 99.5391L97.7359 53.6985C98.4176 53.3488 98.9897 52.8175 99.3891 52.1631C99.7886 51.5087 100 50.7566 100 49.9896C100 49.2226 99.7886 48.4705 99.3891 47.8161C98.9897 47.1617 98.4176 46.6304 97.7359 46.2807ZM10.7562 87.9539L19.9535 54.1569H58.4077V45.8223H19.9535L10.7562 12.0253L86.5409 49.9896L10.7562 87.9539Z" fill="#02559E"/>
</svg>
