<svg width="91" height="91" viewBox="0 0 91 91" fill="none" xmlns="http://www.w3.org/2000/svg">
<g clip-path="url(#clip0)" filter="url(#filter0_d)">
<path d="M78.1794 45.791C78.1823 45.4115 78.0768 45.0391 77.8753 44.7175C77.6738 44.3959 77.3847 44.1385 77.0419 43.9756L34.9632 23.8216C34.596 23.6519 34.186 23.598 33.7875 23.6669C33.3889 23.7358 33.0208 23.9243 32.732 24.2074C32.4431 24.4905 32.2473 24.8548 32.1704 25.2518C32.0934 25.6489 32.1392 26.0599 32.3014 26.4304L39.4029 43.4424L57.3004 43.594L57.2605 47.568L39.3069 47.3877L31.879 64.2678C31.7176 64.6329 31.6694 65.038 31.7409 65.4307C31.8123 65.8235 32 66.1857 32.2797 66.4705C32.5675 66.7523 32.934 66.9404 33.3308 67.0098C33.7277 67.0792 34.1362 67.0267 34.5026 66.8593L76.9778 47.5547C77.3246 47.4049 77.6218 47.1595 77.8345 46.8472C78.0473 46.535 78.1669 46.1686 78.1794 45.791Z" fill="#5B518F"/>
</g>
<defs>
<filter id="filter0_d" x="-3.89453" y="0.0610352" width="98.1908" height="98.1908" filterUnits="userSpaceOnUse" color-interpolation-filters="sRGB">
<feFlood flood-opacity="0" result="BackgroundImageFix"/>
<feColorMatrix in="SourceAlpha" type="matrix" values="0 0 0 0 0 0 0 0 0 0 0 0 0 0 0 0 0 0 127 0" result="hardAlpha"/>
<feOffset dy="4"/>
<feGaussianBlur stdDeviation="2"/>
<feComposite in2="hardAlpha" operator="out"/>
<feColorMatrix type="matrix" values="0 0 0 0 0 0 0 0 0 0 0 0 0 0 0 0 0 0 0.25 0"/>
<feBlend mode="normal" in2="BackgroundImageFix" result="effect1_dropShadow"/>
<feBlend mode="normal" in="SourceGraphic" in2="effect1_dropShadow" result="shape"/>
</filter>
<clipPath id="clip0">
<rect width="63.7778" height="63.7778" fill="white" transform="translate(45.6543 0.0610352) rotate(45.5756)"/>
</clipPath>
</defs>
</svg>
