<svg width="351" height="351" viewBox="0 0 351 351" fill="none" xmlns="http://www.w3.org/2000/svg">
<path d="M285.953 43.8387C282.432 44.0949 278.975 44.921 275.719 46.2848H275.675C272.549 47.5242 257.686 53.7764 235.091 63.2534L154.119 97.3553C96.0178 121.816 38.9036 145.903 38.9036 145.903L39.5836 145.64C39.5836 145.64 35.6458 146.934 31.5326 149.753C28.9914 151.37 26.8047 153.486 25.1049 155.972C23.0866 158.934 21.4633 163.464 22.0665 168.148C23.0537 176.067 28.1871 180.816 31.8726 183.438C35.602 186.092 39.1558 187.332 39.1558 187.332H39.2436L92.804 205.376C95.2062 213.087 109.125 258.848 112.471 269.389C114.445 275.685 116.365 279.623 118.767 282.628C119.93 284.164 121.29 285.447 122.924 286.478C123.774 286.973 124.68 287.363 125.623 287.641L125.074 287.51C125.239 287.553 125.37 287.685 125.491 287.729C125.93 287.85 126.226 287.893 126.785 287.981C135.264 290.548 142.076 285.283 142.076 285.283L142.46 284.976L174.082 256.183L227.083 296.844L228.29 297.359C239.336 302.208 250.524 299.509 256.436 294.749C262.392 289.956 264.706 283.824 264.706 283.824L265.09 282.837L306.047 73.0156C307.21 67.8384 307.506 62.9902 306.223 58.2846C304.899 53.5222 301.844 49.4263 297.656 46.8003C294.14 44.6626 290.063 43.6308 285.953 43.8387V43.8387ZM284.845 66.3247C284.801 67.0157 284.933 66.9389 284.625 68.2661V68.3868L244.052 276.025C243.877 276.321 243.58 276.969 242.769 277.616C241.913 278.296 241.233 278.724 237.668 277.309L172.843 227.609L133.685 263.301L141.911 210.761L247.825 112.042C252.191 107.984 250.732 107.128 250.732 107.128C251.039 102.149 244.14 105.67 244.14 105.67L110.584 188.407L110.54 188.187L46.5268 166.634V166.59L46.3623 166.557C46.4745 166.52 46.5844 166.476 46.6914 166.425L47.0424 166.25L47.3824 166.129C47.3824 166.129 104.541 142.042 162.642 117.582C191.731 105.33 221.04 92.9897 243.58 83.4688C266.121 74.0028 282.783 67.0596 283.726 66.6866C284.626 66.3356 284.198 66.3356 284.845 66.3356V66.3247Z" fill="#1D8AEA"/>
</svg>
