<svg width="248" height="248" viewBox="0 0 248 248" fill="none" xmlns="http://www.w3.org/2000/svg">
<path d="M244.311 51.0117C235.683 54.8351 226.414 57.4184 216.67 58.5861C226.724 52.5699 234.246 43.1012 237.832 31.9467C228.386 37.5576 218.048 41.5071 207.266 43.6234C200.016 35.8823 190.413 30.7514 179.948 29.0273C169.483 27.3032 158.742 29.0823 149.392 34.0884C140.042 39.0945 132.606 47.0475 128.239 56.7127C123.871 66.3779 122.817 77.2145 125.24 87.5401C106.1 86.579 87.3751 81.6041 70.2817 72.9381C53.1882 64.2721 38.108 52.1087 26.0196 37.2374C21.8863 44.3674 19.5096 52.6341 19.5096 61.4381C19.505 69.3637 21.4568 77.1679 25.1917 84.1583C28.9266 91.1487 34.3293 97.1091 40.9203 101.511C33.2765 101.268 25.8013 99.2021 19.117 95.4864V96.1064C19.1162 107.222 22.9613 117.996 29.9998 126.6C37.0384 135.204 46.8369 141.107 57.7326 143.309C50.6417 145.228 43.2074 145.511 35.9913 144.136C39.0654 153.7 45.0536 162.064 53.1174 168.057C61.1813 174.049 70.9171 177.37 80.962 177.554C63.9102 190.94 42.8515 198.201 21.1733 198.169C17.3332 198.17 13.4964 197.946 9.68262 197.497C31.6872 211.645 57.3021 219.154 83.4626 219.125C172.019 219.125 220.431 145.779 220.431 82.1667C220.431 80.1001 220.379 78.0127 220.286 75.9461C229.703 69.1361 237.831 60.7033 244.291 51.0427L244.311 51.0117V51.0117Z" fill="#69D8FF"/>
</svg>
