<svg width="248" height="248" viewBox="0 0 248 248" fill="none" xmlns="http://www.w3.org/2000/svg">
<g clip-path="url(#clip0)">
<path fill-rule="evenodd" clip-rule="evenodd" d="M179.955 148.614C176.876 147.075 161.779 139.655 158.968 138.622C156.157 137.599 154.111 137.093 152.055 140.172C150.009 143.231 144.129 150.154 142.342 152.2C140.544 154.256 138.756 154.504 135.687 152.975C132.618 151.425 122.719 148.191 110.99 137.733C101.866 129.591 95.697 119.536 93.9093 116.457C92.1217 113.388 93.713 111.724 95.2527 110.195C96.6373 108.821 98.3217 106.609 99.8613 104.822C101.401 103.024 101.907 101.742 102.93 99.6861C103.964 97.6401 103.447 95.8524 102.672 94.3128C101.907 92.7731 95.7693 77.6554 93.2067 71.5071C90.7163 65.5241 88.1847 66.3404 86.304 66.2371C84.506 66.1544 82.46 66.1338 80.414 66.1338C78.368 66.1338 75.0407 66.8984 72.23 69.9778C69.409 73.0468 61.4833 80.4764 61.4833 95.5941C61.4833 110.701 72.478 125.302 74.0177 127.359C75.5573 129.405 95.666 160.425 126.47 173.724C133.806 176.886 139.521 178.777 143.974 180.183C151.332 182.528 158.028 182.198 163.318 181.402C169.208 180.524 181.484 173.972 184.047 166.801C186.599 159.63 186.599 153.481 185.835 152.2C185.07 150.919 183.024 150.154 179.945 148.614H179.955ZM123.928 225.112H123.886C105.59 225.115 87.6305 220.197 71.889 210.873L68.169 208.661L29.5017 218.809L39.8247 181.113L37.3963 177.248C27.1678 160.966 21.7547 142.123 21.7827 122.895C21.8033 66.5781 67.6213 20.7601 123.969 20.7601C151.249 20.7601 176.896 31.4034 196.178 50.7061C205.689 60.1774 213.227 71.4406 218.357 83.844C223.486 96.2475 226.105 109.545 226.062 122.967C226.042 179.284 180.224 225.112 123.928 225.112ZM210.852 36.0431C199.466 24.5826 185.92 15.4956 170.997 9.30869C156.074 3.12175 140.072 -0.0421212 123.917 0.000423435C56.1927 0.000423435 1.054 55.1288 1.03333 122.884C1.023 144.543 6.67533 165.685 17.4323 184.316L0 248L65.1413 230.909C83.1614 240.727 103.355 245.871 123.876 245.872H123.928C191.652 245.872 246.791 190.743 246.812 122.977C246.862 106.829 243.709 90.8315 237.537 75.9094C231.364 60.9874 222.294 47.4373 210.852 36.0431Z" fill="#1EDA00"/>
</g>
<defs>
<clipPath id="clip0">
<rect width="248" height="248" fill="white"/>
</clipPath>
</defs>
</svg>
